<svg width="263" height="48" viewBox="0 0 263 48" fill="none" xmlns="http://www.w3.org/2000/svg">
<path d="M54.683 16.1198V26.1998H57.995V16.1198H62.387V13.5998H50.291V16.1198H54.683Z" fill="url(#paint0_linear_1498_11376)"/>
<path d="M67.305 18.6038V16.1198H75.477V13.5998H63.993V26.1998H75.675V23.6798H67.305V20.9798H74.217V18.6038H67.305Z" fill="url(#paint1_linear_1498_11376)"/>
<path d="M87.1297 21.7898C87.0757 22.7078 86.6077 23.2838 86.1937 23.5718C85.5457 24.0218 84.6457 24.0578 83.9977 24.0578C83.1337 24.0578 82.1437 23.9498 81.2977 23.1398C80.7397 22.5818 80.2177 21.6098 80.2177 19.9538C80.2177 18.2798 80.7577 17.3258 81.2617 16.7678C82.1077 15.8858 83.0617 15.7778 83.9797 15.7778C84.6457 15.7778 85.4017 15.8498 86.1037 16.2818C86.7517 16.6958 86.9857 17.1998 87.0397 17.8298H90.4957C90.4417 15.8858 89.3437 14.8058 88.6777 14.3738C87.1477 13.3298 84.6277 13.2578 83.7457 13.2578C82.1617 13.2578 80.0017 13.5098 78.3637 15.1478C76.9597 16.6058 76.6177 18.3698 76.6177 19.9718C76.6177 21.4298 76.9057 23.4098 78.4357 24.8318C80.0737 26.4158 82.1437 26.5778 84.0337 26.5778C85.6357 26.5778 87.3457 26.4518 88.5877 25.5878C89.4337 25.0118 90.4957 23.7338 90.5857 21.7898H87.1297Z" fill="url(#paint2_linear_1498_11376)"/>
<path d="M101.878 21.7898C101.824 22.7078 101.356 23.2838 100.942 23.5718C100.294 24.0218 99.3938 24.0578 98.7458 24.0578C97.8818 24.0578 96.8917 23.9498 96.0457 23.1398C95.4877 22.5818 94.9657 21.6098 94.9657 19.9538C94.9657 18.2798 95.5058 17.3258 96.0098 16.7678C96.8558 15.8858 97.8097 15.7778 98.7277 15.7778C99.3937 15.7778 100.15 15.8498 100.852 16.2818C101.5 16.6958 101.734 17.1998 101.788 17.8298H105.244C105.19 15.8858 104.092 14.8058 103.426 14.3738C101.896 13.3298 99.3757 13.2578 98.4937 13.2578C96.9097 13.2578 94.7497 13.5098 93.1117 15.1478C91.7077 16.6058 91.3657 18.3698 91.3657 19.9718C91.3657 21.4298 91.6538 23.4098 93.1838 24.8318C94.8218 26.4158 96.8917 26.5778 98.7817 26.5778C100.384 26.5778 102.094 26.4518 103.336 25.5878C104.182 25.0118 105.244 23.7338 105.334 21.7898H101.878Z" fill="url(#paint3_linear_1498_11376)"/>
<path d="M110.494 18.6038V16.1198H118.666V13.5998H107.182V26.1998H118.864V23.6798H110.494V20.9798H117.406V18.6038H110.494Z" fill="url(#paint4_linear_1498_11376)"/>
<path d="M123.959 16.1198H127.145C128.207 16.1198 128.639 16.3898 128.765 16.4798C129.125 16.7498 129.377 17.1458 129.377 17.7758C129.377 18.3518 129.179 18.8018 128.909 19.0718C128.477 19.5038 127.559 19.5938 126.947 19.5938H123.959V16.1198ZM120.647 13.5998V26.1998H123.959V22.0418H127.181C128.999 22.0418 130.619 21.9698 131.771 20.7278C132.617 19.8098 132.797 18.7478 132.797 17.7398C132.797 16.7678 132.599 15.6518 131.627 14.7338C130.529 13.7258 129.125 13.5998 127.397 13.5998H120.647Z" fill="url(#paint5_linear_1498_11376)"/>
<path d="M137.525 21.4838L139.433 16.7678L141.377 21.4838H137.525ZM136.715 23.6438H142.169L143.267 26.1998H146.723L141.071 13.5998H137.813L132.161 26.1998H135.617L136.715 23.6438Z" fill="url(#paint6_linear_1498_11376)"/>
<path d="M151.205 19.0178V13.5998H147.893V26.1998H151.205V19.9178L156.515 26.1998H160.673L154.355 19.4678L160.313 13.5998H156.353L151.205 19.0178Z" fill="url(#paint7_linear_1498_11376)"/>
<path d="M164.951 16.1198V26.1998H168.263V16.1198H172.655V13.5998H160.559V16.1198H164.951Z" fill="url(#paint8_linear_1498_11376)"/>
<g filter="url(#filter0_f_1498_11376)">
<path d="M11.5918 11.8864L26.5918 3.11719L41.5918 12.348V29.8864L26.5918 39.1172L11.5918 29.8864V11.8864Z" fill="white"/>
</g>
<path d="M33.582 16.9913L44.1426 10.9336L44.115 20.8059H33.582V16.9913Z" fill="url(#paint9_linear_1498_11376)"/>
<path d="M33.582 24.5609L44.1426 30.6782L44.115 20.8059H33.582V24.5609Z" fill="url(#paint10_linear_1498_11376)"/>
<path d="M26.9473 13.2906L26.9815 1.11596L35.5173 6.07602L30.2508 15.1979L26.9473 13.2906Z" fill="url(#paint11_linear_1498_11376)"/>
<path d="M33.5028 17.0754L44.0808 10.9882L35.5173 6.07602L30.2508 15.1979L33.5028 17.0754Z" fill="url(#paint12_linear_1498_11376)"/>
<path d="M19.8038 17.1664L9.27731 11.0496L17.8408 6.13735L23.1073 15.2592L19.8038 17.1664Z" fill="url(#paint13_linear_1498_11376)"/>
<path d="M26.3592 13.3817L26.3766 1.17727L17.8408 6.13735L23.1073 15.2592L26.3592 13.3817Z" fill="url(#paint14_linear_1498_11376)"/>
<path d="M19.9189 24.7587L9.35833 30.8164L9.38596 20.9441L19.9189 20.9441L19.9189 24.7587Z" fill="url(#paint15_linear_1498_11376)"/>
<path d="M19.9189 17.1891L9.35833 11.0718L9.38596 20.9441L19.9189 20.9441L19.9189 17.1891Z" fill="url(#paint16_linear_1498_11376)"/>
<path d="M26.8613 28.9438L26.8271 41.1184L18.2913 36.1583L23.5578 27.0365L26.8613 28.9438Z" fill="url(#paint17_linear_1498_11376)"/>
<path d="M20.3058 25.159L9.72782 31.2461L18.2913 36.1583L23.5578 27.0365L20.3058 25.159Z" fill="url(#paint18_linear_1498_11376)"/>
<path d="M33.3798 25.0445L43.9063 31.1614L35.3428 36.0736L30.0763 26.9518L33.3798 25.0445Z" fill="url(#paint19_linear_1498_11376)"/>
<path d="M26.8244 28.8293L26.807 41.0337L35.3428 36.0736L30.0763 26.9518L26.8244 28.8293Z" fill="url(#paint20_linear_1498_11376)"/>
<defs>
<filter id="filter0_f_1498_11376" x="8.5918" y="0.117188" width="36" height="42" filterUnits="userSpaceOnUse" color-interpolation-filters="sRGB">
<feFlood flood-opacity="0" result="BackgroundImageFix"/>
<feBlend mode="normal" in="SourceGraphic" in2="BackgroundImageFix" result="shape"/>
<feGaussianBlur stdDeviation="1.5" result="effect1_foregroundBlur_1498_11376"/>
</filter>
<linearGradient id="paint0_linear_1498_11376" x1="166.639" y1="19.9178" x2="50.291" y2="19.918" gradientUnits="userSpaceOnUse">
<stop stop-color="#1FA2FF"/>
<stop offset="0.5" stop-color="#12D8FA"/>
<stop offset="1" stop-color="#A6FFCB"/>
</linearGradient>
<linearGradient id="paint1_linear_1498_11376" x1="166.639" y1="19.9178" x2="50.291" y2="19.918" gradientUnits="userSpaceOnUse">
<stop stop-color="#1FA2FF"/>
<stop offset="0.5" stop-color="#12D8FA"/>
<stop offset="1" stop-color="#A6FFCB"/>
</linearGradient>
<linearGradient id="paint2_linear_1498_11376" x1="166.639" y1="19.9178" x2="50.291" y2="19.918" gradientUnits="userSpaceOnUse">
<stop stop-color="#1FA2FF"/>
<stop offset="0.5" stop-color="#12D8FA"/>
<stop offset="1" stop-color="#A6FFCB"/>
</linearGradient>
<linearGradient id="paint3_linear_1498_11376" x1="166.639" y1="19.9178" x2="50.291" y2="19.918" gradientUnits="userSpaceOnUse">
<stop stop-color="#1FA2FF"/>
<stop offset="0.5" stop-color="#12D8FA"/>
<stop offset="1" stop-color="#A6FFCB"/>
</linearGradient>
<linearGradient id="paint4_linear_1498_11376" x1="166.639" y1="19.9178" x2="50.291" y2="19.918" gradientUnits="userSpaceOnUse">
<stop stop-color="#1FA2FF"/>
<stop offset="0.5" stop-color="#12D8FA"/>
<stop offset="1" stop-color="#A6FFCB"/>
</linearGradient>
<linearGradient id="paint5_linear_1498_11376" x1="166.639" y1="19.9178" x2="50.291" y2="19.918" gradientUnits="userSpaceOnUse">
<stop stop-color="#1FA2FF"/>
<stop offset="0.5" stop-color="#12D8FA"/>
<stop offset="1" stop-color="#A6FFCB"/>
</linearGradient>
<linearGradient id="paint6_linear_1498_11376" x1="166.639" y1="19.9178" x2="50.291" y2="19.918" gradientUnits="userSpaceOnUse">
<stop stop-color="#1FA2FF"/>
<stop offset="0.5" stop-color="#12D8FA"/>
<stop offset="1" stop-color="#A6FFCB"/>
</linearGradient>
<linearGradient id="paint7_linear_1498_11376" x1="166.639" y1="19.9178" x2="50.291" y2="19.918" gradientUnits="userSpaceOnUse">
<stop stop-color="#1FA2FF"/>
<stop offset="0.5" stop-color="#12D8FA"/>
<stop offset="1" stop-color="#A6FFCB"/>
</linearGradient>
<linearGradient id="paint8_linear_1498_11376" x1="166.639" y1="19.9178" x2="50.291" y2="19.918" gradientUnits="userSpaceOnUse">
<stop stop-color="#1FA2FF"/>
<stop offset="0.5" stop-color="#12D8FA"/>
<stop offset="1" stop-color="#A6FFCB"/>
</linearGradient>
<linearGradient id="paint9_linear_1498_11376" x1="43.6235" y1="20.8059" x2="33.582" y2="20.8059" gradientUnits="userSpaceOnUse">
<stop stop-color="#1FA2FF"/>
<stop offset="0.5" stop-color="#12D8FA"/>
<stop offset="1" stop-color="#A6FFCB"/>
</linearGradient>
<linearGradient id="paint10_linear_1498_11376" x1="43.6235" y1="20.8059" x2="33.582" y2="20.8059" gradientUnits="userSpaceOnUse">
<stop stop-color="#1FA2FF"/>
<stop offset="0.5" stop-color="#12D8FA"/>
<stop offset="1" stop-color="#A6FFCB"/>
</linearGradient>
<linearGradient id="paint11_linear_1498_11376" x1="35.2715" y1="6.50172" x2="30.2508" y2="15.1979" gradientUnits="userSpaceOnUse">
<stop stop-color="#1FA2FF"/>
<stop offset="0.5" stop-color="#12D8FA"/>
<stop offset="1" stop-color="#A6FFCB"/>
</linearGradient>
<linearGradient id="paint12_linear_1498_11376" x1="35.2715" y1="6.50172" x2="30.2508" y2="15.1979" gradientUnits="userSpaceOnUse">
<stop stop-color="#1FA2FF"/>
<stop offset="0.5" stop-color="#12D8FA"/>
<stop offset="1" stop-color="#A6FFCB"/>
</linearGradient>
<linearGradient id="paint13_linear_1498_11376" x1="18.0865" y1="6.56303" x2="23.1073" y2="15.2592" gradientUnits="userSpaceOnUse">
<stop stop-color="#1FA2FF"/>
<stop offset="0.5" stop-color="#12D8FA"/>
<stop offset="1" stop-color="#A6FFCB"/>
</linearGradient>
<linearGradient id="paint14_linear_1498_11376" x1="18.0865" y1="6.56303" x2="23.1073" y2="15.2592" gradientUnits="userSpaceOnUse">
<stop stop-color="#1FA2FF"/>
<stop offset="0.5" stop-color="#12D8FA"/>
<stop offset="1" stop-color="#A6FFCB"/>
</linearGradient>
<linearGradient id="paint15_linear_1498_11376" x1="9.87751" y1="20.9441" x2="19.9189" y2="20.9441" gradientUnits="userSpaceOnUse">
<stop stop-color="#1FA2FF"/>
<stop offset="0.5" stop-color="#12D8FA"/>
<stop offset="1" stop-color="#A6FFCB"/>
</linearGradient>
<linearGradient id="paint16_linear_1498_11376" x1="9.87751" y1="20.9441" x2="19.9189" y2="20.9441" gradientUnits="userSpaceOnUse">
<stop stop-color="#1FA2FF"/>
<stop offset="0.5" stop-color="#12D8FA"/>
<stop offset="1" stop-color="#A6FFCB"/>
</linearGradient>
<linearGradient id="paint17_linear_1498_11376" x1="18.5371" y1="35.7327" x2="23.5578" y2="27.0365" gradientUnits="userSpaceOnUse">
<stop stop-color="#1FA2FF"/>
<stop offset="0.5" stop-color="#12D8FA"/>
<stop offset="1" stop-color="#A6FFCB"/>
</linearGradient>
<linearGradient id="paint18_linear_1498_11376" x1="18.5371" y1="35.7327" x2="23.5578" y2="27.0365" gradientUnits="userSpaceOnUse">
<stop stop-color="#1FA2FF"/>
<stop offset="0.5" stop-color="#12D8FA"/>
<stop offset="1" stop-color="#A6FFCB"/>
</linearGradient>
<linearGradient id="paint19_linear_1498_11376" x1="35.097" y1="35.6479" x2="30.0763" y2="26.9518" gradientUnits="userSpaceOnUse">
<stop stop-color="#1FA2FF"/>
<stop offset="0.5" stop-color="#12D8FA"/>
<stop offset="1" stop-color="#A6FFCB"/>
</linearGradient>
<linearGradient id="paint20_linear_1498_11376" x1="35.097" y1="35.6479" x2="30.0763" y2="26.9518" gradientUnits="userSpaceOnUse">
<stop stop-color="#1FA2FF"/>
<stop offset="0.5" stop-color="#12D8FA"/>
<stop offset="1" stop-color="#A6FFCB"/>
</linearGradient>
</defs>
</svg>
