<svg width="24" height="24" viewBox="0 0 24 24" fill="none" xmlns="http://www.w3.org/2000/svg">
<path d="M3.85302 13.288C3.85302 13.288 10.9878 6.03756 14.3531 2.7756C15.5293 1.63541 18.3424 1.71464 19.8269 3.26455C21.2095 4.70795 21.3653 7.43585 20.1736 8.63734C13.01 15.8595 13.0344 15.8559 7.40598 21.1738C6.37394 22.1489 4.45831 21.6785 3.50639 20.625C2.60363 19.6259 2.40817 17.8781 3.36196 16.9276C8.34494 11.9619 8.34494 11.9592 14.3531 6.0376C14.7907 5.60626 16.1311 5.64771 16.765 6.35538C17.3612 7.02085 17.3393 8.22151 16.928 8.63734C13.3565 12.2481 8.34495 17.2165 8.34495 17.2165" stroke="white" stroke-width="1.5"/>
</svg>
