<svg width="24" height="24" viewBox="0 0 24 24" fill="none" xmlns="http://www.w3.org/2000/svg">
<path d="M9.5 15.548H3.90246C3.90246 15.548 1 15.548 1 12.4523C1 9.35659 3.90246 9.16128 3.90246 9.16128C3.90246 9.16128 3.12868 4.12928 7.38659 3.16212C11.6445 2.19495 13.9664 5.87116 13.9664 5.87116C13.9664 5.87116 15.9029 4.75397 17.8377 5.87116C19.7724 6.98835 19.386 9.16128 19.386 9.16128C19.386 9.16128 22.6761 9.35659 22.6761 12.4523C22.6761 15.548 19.386 15.548 19.386 15.548H14" stroke="white" stroke-width="1.5"/>
<path d="M7.92629 13.1055L12.0318 8.99993M12.0318 8.99993L16.1373 13.1055M12.0318 8.99993L12.0318 20.5" stroke="white" stroke-width="1.5"/>
</svg>
