<svg width="263" height="48" viewBox="0 0 263 48" fill="none" xmlns="http://www.w3.org/2000/svg">
<path d="M54.5736 16.1198V26.1998H57.8856V16.1198H62.2776V13.5998H50.1816V16.1198H54.5736Z" fill="url(#paint0_linear_1498_12221)"/>
<path d="M67.1956 18.6038V16.1198H75.3676V13.5998H63.8836V26.1998H75.5656V23.6798H67.1956V20.9798H74.1076V18.6038H67.1956Z" fill="url(#paint1_linear_1498_12221)"/>
<path d="M87.0203 21.7898C86.9663 22.7078 86.4983 23.2838 86.0843 23.5718C85.4363 24.0218 84.5363 24.0578 83.8883 24.0578C83.0243 24.0578 82.0343 23.9498 81.1883 23.1398C80.6303 22.5818 80.1083 21.6098 80.1083 19.9538C80.1083 18.2798 80.6483 17.3258 81.1523 16.7678C81.9983 15.8858 82.9523 15.7778 83.8703 15.7778C84.5363 15.7778 85.2923 15.8498 85.9943 16.2818C86.6423 16.6958 86.8763 17.1998 86.9303 17.8298H90.3863C90.3323 15.8858 89.2343 14.8058 88.5683 14.3738C87.0383 13.3298 84.5183 13.2578 83.6363 13.2578C82.0523 13.2578 79.8923 13.5098 78.2543 15.1478C76.8503 16.6058 76.5083 18.3698 76.5083 19.9718C76.5083 21.4298 76.7963 23.4098 78.3263 24.8318C79.9643 26.4158 82.0343 26.5778 83.9243 26.5778C85.5263 26.5778 87.2363 26.4518 88.4783 25.5878C89.3243 25.0118 90.3863 23.7338 90.4763 21.7898H87.0203Z" fill="url(#paint2_linear_1498_12221)"/>
<path d="M101.768 21.7898C101.714 22.7078 101.246 23.2838 100.832 23.5718C100.184 24.0218 99.2844 24.0578 98.6364 24.0578C97.7724 24.0578 96.7824 23.9498 95.9364 23.1398C95.3784 22.5818 94.8564 21.6098 94.8564 19.9538C94.8564 18.2798 95.3964 17.3258 95.9004 16.7678C96.7464 15.8858 97.7004 15.7778 98.6184 15.7778C99.2844 15.7778 100.04 15.8498 100.742 16.2818C101.39 16.6958 101.624 17.1998 101.678 17.8298H105.134C105.08 15.8858 103.982 14.8058 103.316 14.3738C101.786 13.3298 99.2664 13.2578 98.3844 13.2578C96.8004 13.2578 94.6404 13.5098 93.0024 15.1478C91.5984 16.6058 91.2564 18.3698 91.2564 19.9718C91.2564 21.4298 91.5444 23.4098 93.0744 24.8318C94.7124 26.4158 96.7824 26.5778 98.6724 26.5778C100.274 26.5778 101.984 26.4518 103.226 25.5878C104.072 25.0118 105.134 23.7338 105.224 21.7898H101.768Z" fill="url(#paint3_linear_1498_12221)"/>
<path d="M110.385 18.6038V16.1198H118.557V13.5998H107.073V26.1998H118.755V23.6798H110.385V20.9798H117.297V18.6038H110.385Z" fill="url(#paint4_linear_1498_12221)"/>
<path d="M123.85 16.1198H127.036C128.098 16.1198 128.53 16.3898 128.656 16.4798C129.016 16.7498 129.268 17.1458 129.268 17.7758C129.268 18.3518 129.07 18.8018 128.8 19.0718C128.368 19.5038 127.45 19.5938 126.838 19.5938H123.85V16.1198ZM120.538 13.5998V26.1998H123.85V22.0418H127.072C128.89 22.0418 130.51 21.9698 131.662 20.7278C132.508 19.8098 132.688 18.7478 132.688 17.7398C132.688 16.7678 132.49 15.6518 131.518 14.7338C130.42 13.7258 129.016 13.5998 127.288 13.5998H120.538Z" fill="url(#paint5_linear_1498_12221)"/>
<path d="M137.415 21.4838L139.323 16.7678L141.267 21.4838H137.415ZM136.605 23.6438H142.059L143.157 26.1998H146.613L140.961 13.5998H137.703L132.051 26.1998H135.507L136.605 23.6438Z" fill="url(#paint6_linear_1498_12221)"/>
<path d="M151.096 19.0178V13.5998H147.784V26.1998H151.096V19.9178L156.406 26.1998H160.564L154.246 19.4678L160.204 13.5998H156.244L151.096 19.0178Z" fill="url(#paint7_linear_1498_12221)"/>
<path d="M164.841 16.1198V26.1998H168.153V16.1198H172.545V13.5998H160.449V16.1198H164.841Z" fill="url(#paint8_linear_1498_12221)"/>
<g filter="url(#filter0_f_1498_12221)">
<path d="M11.4824 11.8864L26.4824 3.11719L41.4824 12.348V29.8864L26.4824 39.1172L11.4824 29.8864V11.8864Z" fill="white"/>
</g>
<path d="M33.4727 16.9913L44.0333 10.9336L44.0056 20.8059H33.4727V16.9913Z" fill="url(#paint9_linear_1498_12221)"/>
<path d="M33.4727 24.5609L44.0333 30.6782L44.0056 20.8059H33.4727V24.5609Z" fill="url(#paint10_linear_1498_12221)"/>
<path d="M26.838 13.2906L26.8721 1.11596L35.4079 6.07602L30.1414 15.1979L26.838 13.2906Z" fill="url(#paint11_linear_1498_12221)"/>
<path d="M33.3934 17.0754L43.9714 10.9882L35.4079 6.07602L30.1414 15.1979L33.3934 17.0754Z" fill="url(#paint12_linear_1498_12221)"/>
<path d="M19.6934 17.1664L9.16696 11.0496L17.7304 6.13735L22.9969 15.2592L19.6934 17.1664Z" fill="url(#paint13_linear_1498_12221)"/>
<path d="M26.2489 13.3817L26.2663 1.17727L17.7304 6.13735L22.9969 15.2592L26.2489 13.3817Z" fill="url(#paint14_linear_1498_12221)"/>
<path d="M19.8086 24.7587L9.24798 30.8164L9.27561 20.9441L19.8086 20.9441L19.8086 24.7587Z" fill="url(#paint15_linear_1498_12221)"/>
<path d="M19.8086 17.1891L9.24798 11.0718L9.27561 20.9441L19.8086 20.9441L19.8086 17.1891Z" fill="url(#paint16_linear_1498_12221)"/>
<path d="M26.7519 28.9438L26.7177 41.1184L18.1819 36.1583L23.4484 27.0365L26.7519 28.9438Z" fill="url(#paint17_linear_1498_12221)"/>
<path d="M20.1965 25.159L9.61844 31.2461L18.1819 36.1583L23.4484 27.0365L20.1965 25.159Z" fill="url(#paint18_linear_1498_12221)"/>
<path d="M33.2695 25.0445L43.7959 31.1614L35.2325 36.0736L29.966 26.9518L33.2695 25.0445Z" fill="url(#paint19_linear_1498_12221)"/>
<path d="M26.714 28.8293L26.6966 41.0337L35.2325 36.0736L29.966 26.9518L26.714 28.8293Z" fill="url(#paint20_linear_1498_12221)"/>
<defs>
<filter id="filter0_f_1498_12221" x="8.48242" y="0.117188" width="36" height="42" filterUnits="userSpaceOnUse" color-interpolation-filters="sRGB">
<feFlood flood-opacity="0" result="BackgroundImageFix"/>
<feBlend mode="normal" in="SourceGraphic" in2="BackgroundImageFix" result="shape"/>
<feGaussianBlur stdDeviation="1.5" result="effect1_foregroundBlur_1498_12221"/>
</filter>
<linearGradient id="paint0_linear_1498_12221" x1="50.1816" y1="19.9178" x2="172.545" y2="19.9178" gradientUnits="userSpaceOnUse">
<stop stop-color="#EC70FD"/>
<stop offset="0.431458" stop-color="#A34EF9"/>
</linearGradient>
<linearGradient id="paint1_linear_1498_12221" x1="50.1816" y1="19.9178" x2="172.545" y2="19.9178" gradientUnits="userSpaceOnUse">
<stop stop-color="#EC70FD"/>
<stop offset="0.431458" stop-color="#A34EF9"/>
</linearGradient>
<linearGradient id="paint2_linear_1498_12221" x1="50.1816" y1="19.9178" x2="172.545" y2="19.9178" gradientUnits="userSpaceOnUse">
<stop stop-color="#EC70FD"/>
<stop offset="0.431458" stop-color="#A34EF9"/>
</linearGradient>
<linearGradient id="paint3_linear_1498_12221" x1="50.1816" y1="19.9178" x2="172.545" y2="19.9178" gradientUnits="userSpaceOnUse">
<stop stop-color="#EC70FD"/>
<stop offset="0.431458" stop-color="#A34EF9"/>
</linearGradient>
<linearGradient id="paint4_linear_1498_12221" x1="50.1816" y1="19.9178" x2="172.545" y2="19.9178" gradientUnits="userSpaceOnUse">
<stop stop-color="#EC70FD"/>
<stop offset="0.431458" stop-color="#A34EF9"/>
</linearGradient>
<linearGradient id="paint5_linear_1498_12221" x1="50.1816" y1="19.9178" x2="172.545" y2="19.9178" gradientUnits="userSpaceOnUse">
<stop stop-color="#EC70FD"/>
<stop offset="0.431458" stop-color="#A34EF9"/>
</linearGradient>
<linearGradient id="paint6_linear_1498_12221" x1="50.1816" y1="19.9178" x2="172.545" y2="19.9178" gradientUnits="userSpaceOnUse">
<stop stop-color="#EC70FD"/>
<stop offset="0.431458" stop-color="#A34EF9"/>
</linearGradient>
<linearGradient id="paint7_linear_1498_12221" x1="50.1816" y1="19.9178" x2="172.545" y2="19.9178" gradientUnits="userSpaceOnUse">
<stop stop-color="#EC70FD"/>
<stop offset="0.431458" stop-color="#A34EF9"/>
</linearGradient>
<linearGradient id="paint8_linear_1498_12221" x1="50.1816" y1="19.9178" x2="172.545" y2="19.9178" gradientUnits="userSpaceOnUse">
<stop stop-color="#EC70FD"/>
<stop offset="0.431458" stop-color="#A34EF9"/>
</linearGradient>
<linearGradient id="paint9_linear_1498_12221" x1="33.4727" y1="20.8059" x2="44.0333" y2="20.8059" gradientUnits="userSpaceOnUse">
<stop stop-color="#EC70FD"/>
<stop offset="0.431458" stop-color="#A34EF9"/>
</linearGradient>
<linearGradient id="paint10_linear_1498_12221" x1="33.4727" y1="20.8059" x2="44.0333" y2="20.8059" gradientUnits="userSpaceOnUse">
<stop stop-color="#EC70FD"/>
<stop offset="0.431458" stop-color="#A34EF9"/>
</linearGradient>
<linearGradient id="paint11_linear_1498_12221" x1="30.1414" y1="15.1979" x2="35.4218" y2="6.0521" gradientUnits="userSpaceOnUse">
<stop stop-color="#EC70FD"/>
<stop offset="0.431458" stop-color="#A34EF9"/>
</linearGradient>
<linearGradient id="paint12_linear_1498_12221" x1="30.1414" y1="15.1979" x2="35.4218" y2="6.0521" gradientUnits="userSpaceOnUse">
<stop stop-color="#EC70FD"/>
<stop offset="0.431458" stop-color="#A34EF9"/>
</linearGradient>
<linearGradient id="paint13_linear_1498_12221" x1="22.9969" y1="15.2592" x2="17.7166" y2="6.11341" gradientUnits="userSpaceOnUse">
<stop stop-color="#EC70FD"/>
<stop offset="0.431458" stop-color="#A34EF9"/>
</linearGradient>
<linearGradient id="paint14_linear_1498_12221" x1="22.9969" y1="15.2592" x2="17.7166" y2="6.11341" gradientUnits="userSpaceOnUse">
<stop stop-color="#EC70FD"/>
<stop offset="0.431458" stop-color="#A34EF9"/>
</linearGradient>
<linearGradient id="paint15_linear_1498_12221" x1="19.8086" y1="20.9441" x2="9.24798" y2="20.9441" gradientUnits="userSpaceOnUse">
<stop stop-color="#EC70FD"/>
<stop offset="0.431458" stop-color="#A34EF9"/>
</linearGradient>
<linearGradient id="paint16_linear_1498_12221" x1="19.8086" y1="20.9441" x2="9.24798" y2="20.9441" gradientUnits="userSpaceOnUse">
<stop stop-color="#EC70FD"/>
<stop offset="0.431458" stop-color="#A34EF9"/>
</linearGradient>
<linearGradient id="paint17_linear_1498_12221" x1="23.4484" y1="27.0365" x2="18.1681" y2="36.1823" gradientUnits="userSpaceOnUse">
<stop stop-color="#EC70FD"/>
<stop offset="0.431458" stop-color="#A34EF9"/>
</linearGradient>
<linearGradient id="paint18_linear_1498_12221" x1="23.4484" y1="27.0365" x2="18.1681" y2="36.1823" gradientUnits="userSpaceOnUse">
<stop stop-color="#EC70FD"/>
<stop offset="0.431458" stop-color="#A34EF9"/>
</linearGradient>
<linearGradient id="paint19_linear_1498_12221" x1="29.966" y1="26.9518" x2="35.2463" y2="36.0975" gradientUnits="userSpaceOnUse">
<stop stop-color="#EC70FD"/>
<stop offset="0.431458" stop-color="#A34EF9"/>
</linearGradient>
<linearGradient id="paint20_linear_1498_12221" x1="29.966" y1="26.9518" x2="35.2463" y2="36.0975" gradientUnits="userSpaceOnUse">
<stop stop-color="#EC70FD"/>
<stop offset="0.431458" stop-color="#A34EF9"/>
</linearGradient>
</defs>
</svg>
