<svg width="121" height="120" viewBox="0 0 121 120" fill="none" xmlns="http://www.w3.org/2000/svg">
<path d="M112.505 38.2888V9.22461C112.505 8.12004 111.609 7.22461 110.505 7.22461H10.5049C9.40031 7.22461 8.50488 8.12004 8.50488 9.22461V109.225C8.50488 110.329 9.40031 111.225 10.5049 111.225H43.3945M112.505 107.797V109.225C112.505 110.329 111.609 111.225 110.505 111.225H53.9922" stroke="url(#paint0_linear_444_16737)" stroke-width="2"/>
<path fill-rule="evenodd" clip-rule="evenodd" d="M0.0595703 0.882812H50.0596V3.12487C50.0596 3.64855 49.8542 4.15134 49.4875 4.52523L47.0596 7.00098V48.1402C47.0596 48.1402 43.3557 48.1402 41.2597 50.3372C39.1086 52.5918 39.3077 55.7684 39.3866 56.4994C39.3978 56.603 39.406 56.7058 39.406 56.81V102.509H3.05957V7.00098L0.631635 4.52523C0.264966 4.15134 0.0595703 3.64855 0.0595703 3.12487V0.882812ZM12.0596 14.9434V21.7146H15.0121V14.9434H12.0596ZM12.0596 26.6123V33.3836H15.0121V26.6123H12.0596ZM12.0596 38.2812V45.0525H15.0121V38.2812H12.0596ZM12.0596 49.9502V56.7215H15.0121V49.9502H12.0596ZM12.0596 61.6191V68.3904H15.0121V61.6191H12.0596ZM12.0596 73.2881V80.0593H15.0121V73.2881H12.0596ZM15.0121 91.7283H12.0596V84.957H15.0121V91.7283ZM19.7373 91.7283V84.957H22.6899V91.7283H19.7373ZM27.415 91.7283V84.957H30.3676V91.7283H27.415ZM27.415 80.0593H30.3676V73.2881H27.415V80.0593ZM35.0928 91.7283V84.957H38.0453V91.7283H35.0928ZM35.0928 80.0593H38.0453V73.2881H35.0928V80.0593ZM38.0453 68.3904V61.6191H35.0928V68.3904H38.0453ZM38.0453 56.7215V49.9502H35.0928V56.7215H38.0453ZM38.0453 45.0525V38.2812H35.0928V45.0525H38.0453ZM38.0453 33.3836V26.6123H35.0928V33.3836H38.0453ZM38.0453 21.7146V14.9434H35.0928V21.7146H38.0453ZM30.3676 14.9434H27.415V21.7146H30.3676V14.9434ZM22.6899 14.9434H19.7373V21.7146H22.6899V14.9434ZM19.7373 33.3836V26.6123H22.6899V33.3836H19.7373ZM27.415 33.3836V26.6123H30.3676V33.3836H27.415ZM27.415 38.2812H30.3676V45.0525H27.415V38.2812ZM27.415 49.9502H30.3676V56.7215H27.415V49.9502ZM27.415 61.6191H30.3676V68.3904H27.415V61.6191ZM22.6899 61.6191V68.3904H19.7373V61.6191H22.6899ZM19.7373 80.0593V73.2881H22.6899V80.0593H19.7373ZM22.6899 56.7215H19.7373V49.9502H22.6899V56.7215ZM22.6899 45.0525H19.7373V38.2812H22.6899V45.0525Z" fill="#3B3B70"/>
<path fill-rule="evenodd" clip-rule="evenodd" d="M95.5103 49.1063H103.331V37.9019L105.358 37.7745C105.745 37.7622 106.294 37.7532 106.95 37.7659C108.255 37.7912 110.022 37.9028 111.811 38.2582C113.577 38.609 115.496 39.2225 117.005 40.3345C118.575 41.491 119.706 43.2012 119.706 45.5549V103.372C119.706 104.769 119.268 105.996 118.447 107.02C117.646 108.018 116.537 108.755 115.284 109.31C112.806 110.408 109.432 110.939 105.689 111.196C100.778 111.532 94.8578 111.408 88.9079 111.284C85.8022 111.219 82.6884 111.153 79.7057 111.153H55.762V119.999C55.0318 119.944 54.3003 119.901 53.572 119.823C53.2173 119.784 52.7149 119.724 52.1135 119.633C50.9164 119.452 49.3009 119.149 47.6693 118.656C46.0575 118.169 44.3242 117.467 42.9646 116.44C41.5878 115.4 40.4439 113.9 40.4439 111.87V56.2197C40.4439 54.4218 40.858 52.9893 41.5846 51.8808C42.3112 50.7721 43.2801 50.0947 44.2117 49.6906C45.1309 49.2919 46.0266 49.1523 46.6738 49.1072L68.8561 49.1063C69.6845 49.1063 70.3561 49.7779 70.3561 50.6063C70.3561 51.4348 69.6845 52.1063 68.8561 52.1063C63.7425 52.1034 51.9622 52.1063 45.4055 52.4429C43.9496 52.5176 43.4439 54.4816 43.4439 56.2197C43.4439 57.9578 43.8681 58.931 44.3681 59.5085C44.8755 60.0947 45.6349 60.4748 46.6967 60.6811C47.7703 60.8898 49.0206 60.8951 50.3626 60.8318C50.7945 60.8114 51.2526 60.7823 51.7153 60.7529C52.5975 60.697 53.4963 60.64 54.262 60.64H55.762V108.153H79.7057C82.8441 108.153 86.0376 108.221 89.1782 108.287C95.0299 108.411 100.698 108.531 105.484 108.203C109.155 107.951 112.091 107.443 114.069 106.567C115.044 106.135 115.7 105.65 116.106 105.143C116.493 104.662 116.706 104.1 116.706 103.372C116.706 101.986 116.137 101.1 115.236 100.448C114.261 99.7419 112.861 99.2979 111.292 99.0582C109.747 98.8222 108.177 98.8045 106.977 98.8497C105.753 98.8958 104.546 99.0677 103.331 99.2216V52.1063H95.5103C94.6819 52.1063 94.0103 51.4348 94.0103 50.6063C94.0103 49.7779 94.6819 49.1063 95.5103 49.1063ZM116.706 97.8176C115.222 96.8414 113.409 96.3468 111.745 96.0926C109.946 95.8179 108.172 95.8025 106.864 95.8518C106.678 95.8589 106.499 95.8672 106.331 95.8765V40.7598C106.506 40.7599 106.693 40.7615 106.892 40.7654C108.094 40.7887 109.671 40.8917 111.226 41.2007C112.804 41.5141 114.228 42.0147 115.226 42.7499C116.164 43.4407 116.706 44.311 116.706 45.5549V97.8176ZM48.5367 115.784C47.0689 115.341 45.7228 114.764 44.7727 114.046C43.8398 113.341 43.4439 112.632 43.4439 111.87V62.6185C44.2786 63.1404 45.2056 63.4475 46.1244 63.6261C47.5661 63.9062 49.1132 63.8941 50.5041 63.8284C51.3281 63.7895 52.0429 63.7363 52.762 63.6939V116.696C51.6319 116.533 50.0736 116.248 48.5367 115.784Z" fill="#3B3B70"/>
<path fill-rule="evenodd" clip-rule="evenodd" d="M86.4661 19.043C87.2945 19.043 87.9661 19.7145 87.9661 20.543V31.8174C90.1983 33.6665 91.6168 36.4981 91.6168 39.6573C91.6168 43.0251 90.0048 46.0216 87.5116 47.8518L93.9113 70.1921C94.984 69.9219 95.9243 69.6652 96.6587 69.457C97.1816 69.3088 97.5991 69.1853 97.8847 69.0993C98.7942 68.8254 99.8528 68.8466 100.2 69.9455C100.737 71.6457 98.6206 72.019 97.477 72.3432C96.7412 72.5519 95.8054 72.8075 94.7379 73.0776L101.659 97.2378C101.887 98.0342 101.426 98.8648 100.63 99.0929C99.8336 99.3211 99.003 98.8604 98.7749 98.064L91.815 73.7679L83.3302 74.9938V80.5342C83.3302 81.3626 82.6586 82.0342 81.8302 82.0342C81.0018 82.0342 80.3302 81.3626 80.3302 80.5342V74.9938C77.7548 74.8176 74.8973 74.2885 72.4027 73.7222L65.4694 97.0807C65.2336 97.8748 64.3987 98.3275 63.6045 98.0918C62.8104 97.8561 62.3576 97.0212 62.5934 96.227L69.4851 73.0085C68.362 72.7149 66.6446 72.2546 65.4282 71.8727C64.6074 71.615 63.9571 71.1372 64.3719 69.9397C64.7866 68.7422 65.4825 68.7211 66.2628 68.9701C67.609 69.3978 68.9726 69.7752 70.3393 70.131L76.8185 48.3023C73.9471 46.5395 72.0435 43.3165 72.0435 39.6573C72.0435 36.4865 73.4725 33.6456 75.7191 31.797V20.543C75.7191 19.7145 76.3906 19.043 77.2191 19.043H86.4661ZM73.2583 70.8397L79.6047 49.4584C80.3202 49.6296 81.0654 49.72 81.8302 49.72C82.8618 49.72 83.8571 49.5554 84.7917 49.2507L90.987 70.8778C88.4822 71.4191 85.7383 71.8869 83.3302 72.0187V66.7411C83.3302 65.9127 82.6586 65.2411 81.8302 65.2411C81.0018 65.2411 80.3302 65.9127 80.3302 66.7411V71.9863C78.0967 71.8171 75.5719 71.3588 73.2583 70.8397ZM84.9661 30.1227C83.9818 29.7806 82.9269 29.5946 81.8302 29.5946C80.7426 29.5946 79.6962 29.7775 78.7191 30.1141V22.043H84.9661V30.1227ZM81.8302 32.5946C83.2273 32.5946 84.5249 33.0325 85.607 33.7885C87.4142 35.0513 88.6168 37.2003 88.6168 39.6573C88.6168 42.3676 87.1536 44.7019 85.0322 45.8862C84.0781 46.4188 82.9893 46.72 81.8302 46.72C80.8983 46.72 80.0132 46.5254 79.2073 46.1735C76.7791 45.1132 75.0435 42.6096 75.0435 39.6573C75.0435 37.1911 76.2551 35.0352 78.0737 33.7744C79.1516 33.0271 80.4417 32.5946 81.8302 32.5946Z" fill="#3B3B70"/>
<defs>
<linearGradient id="paint0_linear_444_16737" x1="8.50488" y1="59.2246" x2="112.505" y2="59.2246" gradientUnits="userSpaceOnUse">
<stop stop-color="#D7DDE8"/>
<stop offset="1" stop-color="#757F9A"/>
</linearGradient>
</defs>
</svg>
