<svg width="121" height="120" viewBox="0 0 121 120" fill="none" xmlns="http://www.w3.org/2000/svg">
<rect x="8.04492" y="7.28516" width="104" height="104" rx="2" stroke="url(#paint0_linear_628_10)" stroke-width="2"/>
<path fill-rule="evenodd" clip-rule="evenodd" d="M40.2091 1.68859e-07C44.3302 1.68859e-07 44.4784 0.134779 44.9608 0.573454C45.159 0.753658 45.4136 0.985144 46.0231 1.27964C46.2987 1.41279 46.5692 1.54753 46.8346 1.68378L44.6252 12.8206C44.6252 12.8206 44.6784 14.1148 46.0231 14.4845C47.3679 14.8543 47.8914 13.4985 47.8914 13.4985L49.7431 3.35925C59.0628 9.38229 60.5306 17.3924 60.5706 21.6659H62.194C62.194 21.6659 64.5308 22.0647 64.4691 24.4458C64.4074 26.827 62.194 27.2257 62.194 27.2257H18.8412C18.8412 27.2257 16.4614 27.2257 16.4614 24.4458C16.4614 21.6659 18.8412 21.6659 18.8412 21.6659H20.3948C20.5052 17.1611 21.9698 8.57467 30.7905 3.13327L33.0392 13.4985C33.0392 13.4985 33.7743 14.7162 35.0113 14.4845C36.2483 14.2529 36.2483 12.8206 36.2483 12.8206L33.8326 1.5256C34.0176 1.44237 34.205 1.36037 34.395 1.27964C35.1113 0.975227 35.2015 0.731224 35.2718 0.541297C35.4114 0.163879 35.4721 1.68859e-07 40.2091 1.68859e-07Z" fill="#3B3B70"/>
<path d="M19.8006 31.7344H60.5724C60.5724 31.7344 61.1291 34.7183 60.5724 36.4902C59.9007 38.6284 56.9886 40.9728 56.9886 40.9728C53.563 48.3296 47.7963 57.4008 40.1865 57.4008C32.5768 57.4008 26.8101 48.3296 23.3845 40.9728C23.3845 40.9728 20.4723 38.6284 19.8006 36.4902C19.244 34.7183 19.8006 31.7344 19.8006 31.7344Z" fill="#3B3B70"/>
<path fill-rule="evenodd" clip-rule="evenodd" d="M27.5254 57.9199L35.7956 75.7743L38.0848 69.2817L35.7956 63.6394L37.0322 62.0163H43.6446V66.9211L42.6745 69.2817L43.6103 71.9019V86.5066H1.01947C1.01947 86.5066 0.0980244 69.7956 7.50707 65.3398C9.52377 64.127 11.349 64.0263 13.2546 63.9213C14.7717 63.8376 16.3398 63.7511 18.0959 63.0984C22.0339 61.6347 27.5254 57.9199 27.5254 57.9199Z" fill="#3B3B70"/>
<path fill-rule="evenodd" clip-rule="evenodd" d="M92.8436 55.6833H99.8357V45.6661L101.648 45.5523C101.994 45.5412 102.484 45.5332 103.071 45.5446C104.238 45.5672 105.818 45.6669 107.417 45.9847C108.996 46.2983 110.711 46.8468 112.061 47.841C113.465 48.875 114.475 50.404 114.475 52.5082V105.135C114.475 106.384 114.084 107.481 113.35 108.397C112.634 109.289 111.643 109.948 110.522 110.444C108.306 111.426 105.29 111.901 101.944 112.13C97.5531 112.431 92.2602 112.32 86.9408 112.209C84.1642 112.15 82.3804 112.092 79.7138 112.092H58.3072V120.001C57.6543 119.952 57.0004 119.913 56.3493 119.843C56.0322 119.809 55.5829 119.754 55.0452 119.673C53.975 119.512 52.5306 119.24 51.0719 118.8C49.6309 118.364 48.0812 117.737 46.8657 116.818C45.6348 115.889 44.6121 114.548 44.6121 112.733L44.6122 62.043C44.6122 60.4356 44.9824 59.1549 45.632 58.1638C46.2816 57.1726 47.1478 56.5669 47.9807 56.2057C48.8025 55.8492 49.6033 55.7244 50.1819 55.6841L92.8436 55.6833ZM92.8436 58.3654H99.8357V101.425C100.922 101.287 102.001 101.133 103.096 101.092C104.168 101.052 105.572 101.068 106.953 101.279C108.356 101.493 109.608 101.89 110.479 102.521C111.285 103.104 111.793 103.897 111.793 105.135C111.793 105.786 111.602 106.288 111.257 106.719C110.894 107.172 110.307 107.606 109.436 107.992C107.668 108.775 105.043 109.229 101.76 109.454C97.4816 109.748 92.4141 109.64 87.1825 109.53C84.3746 109.47 82.5196 109.41 79.7138 109.41H58.3072L58.3071 65.9948H56.9661C56.2815 65.9948 55.4779 66.0458 54.6892 66.0958C54.2756 66.1221 53.866 66.1481 53.4798 66.1663C52.2801 66.2229 51.1622 66.2182 50.2023 66.0317C49.2531 65.8472 48.5742 65.5074 48.1205 64.9833C47.6735 64.467 47.2943 63.5969 47.2943 62.043C47.2943 60.489 47.7464 58.7331 49.048 58.6663C54.91 58.3654 88.2718 58.3628 92.8436 58.3654ZM111.793 100.169C110.467 99.2966 108.846 98.8545 107.358 98.6272C105.75 98.3816 104.164 98.3679 102.995 98.4119C102.828 98.4182 102.668 98.4257 102.518 98.434V48.2212C102.674 48.2213 102.842 48.2227 103.019 48.2262C104.094 48.247 105.504 48.3391 106.894 48.6153C108.305 48.8956 109.578 49.3431 110.47 50.0004C111.309 50.618 111.793 51.3961 111.793 52.5082L111.793 100.169ZM51.8474 116.232C50.5351 115.836 49.3316 115.32 48.4822 114.678C47.6482 114.048 47.2943 113.414 47.2943 112.733L47.2943 67.7637C48.0406 68.2303 48.8692 68.5049 49.6907 68.6645C50.9796 68.915 52.3628 68.9041 53.6063 68.8454C54.3431 68.8106 54.9821 68.7631 55.625 68.7251L55.6251 117.048C54.6147 116.901 53.2215 116.647 51.8474 116.232Z" fill="#3B3B70"/>
<path d="M94.6025 66.0958C95.3129 66.5221 95.5432 67.4434 95.117 68.1538L90.617 75.6538L89.2808 77.8808L88.0195 75.6105L85.5195 71.1105C85.1172 70.3864 85.3781 69.4732 86.1023 69.0708C86.8265 68.6685 87.7397 68.9294 88.142 69.6536L89.3807 71.8833L92.5445 66.6103C92.9708 65.9 93.8921 65.6696 94.6025 66.0958Z" fill="#3B3B70"/>
<path d="M62.6577 75.6538C62.6577 74.8254 63.3293 74.1538 64.1577 74.1538H82.4259C83.2543 74.1538 83.9259 74.8254 83.9259 75.6538C83.9259 76.4822 83.2543 77.1538 82.4259 77.1538H64.1577C63.3293 77.1538 62.6577 76.4822 62.6577 75.6538Z" fill="#3B3B70"/>
<path d="M94.6962 82.5817C95.4065 83.0079 95.6369 83.9293 95.2107 84.6397L90.7107 92.1397L89.3745 94.3667L88.1132 92.0964L85.6132 87.5964C85.2109 86.8722 85.4718 85.959 86.196 85.5567C86.9202 85.1544 87.8334 85.4153 88.2357 86.1395L89.4744 88.3692L92.6382 83.0962C93.0644 82.3858 93.9858 82.1555 94.6962 82.5817Z" fill="#3B3B70"/>
<path d="M62.7514 92.1397C62.7514 91.3112 63.423 90.6397 64.2514 90.6397H82.5195C83.348 90.6397 84.0195 91.3112 84.0195 92.1397C84.0195 92.9681 83.348 93.6397 82.5195 93.6397H64.2514C63.423 93.6397 62.7514 92.9681 62.7514 92.1397Z" fill="#3B3B70"/>
<defs>
<linearGradient id="paint0_linear_628_10" x1="8.04492" y1="59.2852" x2="112.045" y2="59.2852" gradientUnits="userSpaceOnUse">
<stop stop-color="#EC70FD"/>
<stop offset="0.431458" stop-color="#A34EF9"/>
</linearGradient>
</defs>
</svg>
