<svg width="32" height="35" viewBox="0 0 32 35" fill="none" xmlns="http://www.w3.org/2000/svg">
<path fill-rule="evenodd" clip-rule="evenodd" d="M29.5158 8.51758H22.0849V7.51758H29.5158C30.3442 7.51758 31.0158 8.18915 31.0158 9.01758V33.2424C31.0158 34.0708 30.3442 34.7424 29.5158 34.7424H5.29102C4.46259 34.7424 3.79102 34.0708 3.79102 33.2424V8.01758H4.79102V33.2424C4.79102 33.5185 5.01487 33.7424 5.29102 33.7424H29.5158C29.792 33.7424 30.0158 33.5185 30.0158 33.2424V9.01758C30.0158 8.74144 29.792 8.51758 29.5158 8.51758Z" fill="url(#paint0_linear_531_23)"/>
<path fill-rule="evenodd" clip-rule="evenodd" d="M15.5311 0.523438L30.2447 6.74476L26.0809 8.70356V16.5787L28.4442 20.3612H22.3771L24.5809 16.5906V9.40921L23.0065 10.1498V16.0224L22.9469 16.1629L22.2565 15.8698C22.9469 16.1629 22.9466 16.1635 22.9463 16.1641L22.9458 16.1655L22.9446 16.1683L22.9418 16.1747L22.9346 16.1907C22.929 16.2028 22.922 16.2177 22.9134 16.2351C22.8962 16.2699 22.8725 16.3151 22.8415 16.369C22.7796 16.477 22.6882 16.6201 22.5597 16.7863C22.3021 17.1196 21.8979 17.5423 21.2891 17.9584C20.0659 18.7944 18.0649 19.5714 14.8647 19.6003C12.0081 19.6261 10.1019 18.8368 8.89368 17.9934C8.2939 17.5748 7.87602 17.1498 7.60353 16.8207C7.46734 16.6562 7.3674 16.5155 7.29904 16.4114C7.26485 16.3593 7.23853 16.3162 7.21948 16.2838C7.20996 16.2676 7.20225 16.2541 7.19628 16.2434L7.18863 16.2295L7.18576 16.2241L7.18456 16.2219L7.18403 16.2209C7.18377 16.2204 7.18353 16.2199 7.84677 15.8698L7.18353 16.2199L7.09677 16.0556V9.84673L0.246094 6.74453L15.5311 0.523438ZM8.59677 10.526V15.6526C8.63655 15.7092 8.69015 15.781 8.75894 15.8641C8.95546 16.1015 9.27567 16.4308 9.75221 16.7634C10.6966 17.4226 12.296 18.1235 14.8511 18.1004C17.8075 18.0736 19.5059 17.3603 20.4428 16.72C20.914 16.3979 21.2052 16.0859 21.3729 15.869C21.4314 15.7933 21.4752 15.7287 21.5065 15.6789V10.8555L15.5316 13.6663L8.59677 10.526ZM25.1977 7.46131L16.864 6.66133C16.5676 5.97467 15.9229 5.50476 15.1287 5.44335C14.6558 5.40679 14.1508 5.51536 13.74 5.77841C13.3161 6.04982 12.9627 6.51347 12.9465 7.13976C12.9318 7.70994 13.1961 8.16706 13.5598 8.47188C13.9088 8.76454 14.349 8.92237 14.7695 8.9723C15.5522 9.06526 16.2638 8.75022 16.6992 8.15241L22.5374 8.71283L15.5196 12.0142L4.04461 6.818L15.5201 2.14738L26.5657 6.81777L25.1977 7.46131ZM15.4904 7.26437C15.4118 7.07384 15.2438 6.95672 15.013 6.93889C14.8313 6.92483 14.6575 6.9721 14.5489 7.04163C14.4534 7.1028 14.4468 7.14847 14.446 7.17853C14.4448 7.22449 14.4552 7.26523 14.5234 7.32239C14.6061 7.39172 14.7547 7.46002 14.9463 7.48277C15.1822 7.51077 15.3691 7.43455 15.4904 7.26437ZM25.3523 18.2434L24.9912 18.8612H25.7383L25.3523 18.2434Z" fill="white"/>
<path fill-rule="evenodd" clip-rule="evenodd" d="M18.0046 18.652C18.6721 18.0796 19.8323 17.6543 21.8277 17.6543C22.668 17.6543 23.6911 17.8245 24.4711 17.9832C24.8682 18.0639 25.2158 18.1446 25.4645 18.2051C25.589 18.2354 25.689 18.2608 25.7585 18.2787L25.8392 18.2997L25.8609 18.3055L25.8669 18.3071L25.8687 18.3076C25.8687 18.3076 25.8695 18.3078 25.674 19.0319L25.8687 18.3076L26.2871 18.4206L29.5739 30.7278L28.2047 30.2067L28.2035 30.2063L28.198 30.2042L28.1742 30.1953C28.1528 30.1873 28.1203 30.1753 28.0778 30.1599C27.9928 30.129 27.8679 30.0844 27.7111 30.0306C27.397 29.923 26.9571 29.7793 26.455 29.6355C25.4315 29.3425 24.2209 29.0705 23.2931 29.0665C22.3474 29.0624 21.1123 29.3341 20.0678 29.6294C19.5553 29.7743 19.1063 29.9196 18.7857 30.0287C18.6256 30.0831 18.4981 30.1283 18.4113 30.1597C18.3679 30.1753 18.3348 30.1875 18.3128 30.1956L18.2885 30.2047L18.2819 30.2072L18.0164 30.3076L17.7511 30.2072L17.7443 30.2047L17.72 30.1956C17.6981 30.1875 17.6649 30.1753 17.6215 30.1597C17.5348 30.1283 17.4072 30.0831 17.2471 30.0287C16.9265 29.9196 16.4775 29.7743 15.965 29.6294C14.9205 29.3341 13.6855 29.0624 12.7398 29.0665C11.8119 29.0705 10.6013 29.3425 9.57787 29.6355C9.07573 29.7793 8.63584 29.923 8.32178 30.0306C8.16496 30.0844 8.04005 30.129 7.95505 30.1599C7.91256 30.1753 7.88008 30.1873 7.85862 30.1953L7.83482 30.2042L7.82936 30.2063L7.82832 30.2067L6.55957 30.6895L9.01764 18.4175L9.48021 18.3036L9.48441 18.3026L9.49472 18.3001L9.53302 18.2909C9.56618 18.2829 9.61429 18.2715 9.67551 18.2573C9.7979 18.2289 9.97295 18.1893 10.1858 18.1438C10.6105 18.053 11.1902 17.9379 11.8045 17.8421L12.0354 19.3243C11.4574 19.4143 10.9068 19.5235 10.4994 19.6106C10.4281 19.6259 10.3614 19.6404 10.2998 19.654L8.55258 28.3769C8.74262 28.3175 8.94823 28.2555 9.16502 28.1935C10.2106 27.8941 11.5875 27.5715 12.7333 27.5665C13.9011 27.5615 15.306 27.8843 16.3731 28.186C16.7007 28.2786 17.0034 28.3712 17.2664 28.4555V20.2277C17.2224 20.1561 17.1589 20.0637 17.076 19.9689C16.8884 19.7542 16.6398 19.5684 16.3235 19.5158L16.5696 18.0361C17.1609 18.1345 17.6133 18.4171 17.9387 18.7105C17.96 18.6909 17.982 18.6714 18.0046 18.652ZM18.7664 20.0802V28.4555C19.0295 28.3712 19.3321 28.2786 19.6598 28.186C20.7268 27.8843 22.1317 27.5615 23.2996 27.5665C24.4453 27.5715 25.8222 27.8941 26.8678 28.1935C27.0491 28.2454 27.2226 28.2972 27.3857 28.3475L25.0632 19.6513C24.8324 19.5956 24.5223 19.5243 24.1721 19.4531C23.4095 19.2979 22.5094 19.1543 21.8277 19.1543C20.0119 19.1543 19.2664 19.546 18.9811 19.7907C18.841 19.9108 18.7921 20.011 18.775 20.0548C18.7709 20.0654 18.7682 20.074 18.7664 20.0802Z" fill="white"/>
<defs>
<linearGradient id="paint0_linear_531_23" x1="29.6774" y1="21.13" x2="3.79102" y2="21.13" gradientUnits="userSpaceOnUse">
<stop stop-color="#1FA2FF"/>
<stop offset="0.5" stop-color="#12D8FA"/>
<stop offset="1" stop-color="#A6FFCB"/>
</linearGradient>
</defs>
</svg>
