<svg width="29" height="35" viewBox="0 0 29 35" fill="none" xmlns="http://www.w3.org/2000/svg">
<path fill-rule="evenodd" clip-rule="evenodd" d="M27.3703 8.51758H25.0162V7.51758H27.3703C28.1987 7.51758 28.8703 8.18915 28.8703 9.01758V33.2424C28.8703 34.0708 28.1987 34.7424 27.3703 34.7424H3.14551C2.31708 34.7424 1.64551 34.0708 1.64551 33.2424V20.5206H2.64551V33.2424C2.64551 33.5185 2.86937 33.7424 3.14551 33.7424H27.3703C27.6465 33.7424 27.8703 33.5185 27.8703 33.2424V9.01758C27.8703 8.74144 27.6465 8.51758 27.3703 8.51758Z" fill="url(#paint0_linear_531_54)"/>
<path fill-rule="evenodd" clip-rule="evenodd" d="M1.39551 6.15039H25.3671V17.3309H23.8671V7.65039H2.89551V17.8395H17.8768V19.3395H2.89551V19.8701H17.8768V21.3701H14.1313V24.0156H16.6609V25.5156H10.0898V24.0156H12.6313V21.3701H1.39551V6.15039ZM22.1081 13.5245H17.586V12.0245H22.1081V13.5245ZM20.5949 15.5199H17.586V14.0199H20.5949V15.5199ZM22.1081 15.5199H21.1311V14.0199H22.1081V15.5199Z" fill="white"/>
<path fill-rule="evenodd" clip-rule="evenodd" d="M16.9717 16.8672L27.0213 16.869V32.6642L16.9717 32.6624V16.8672ZM18.4717 18.3675V31.1627L25.5213 31.1639V18.3687L18.4717 18.3675ZM20.9505 30.3137V29.3415H22.4505V30.3137H20.9505Z" fill="white"/>
<defs>
<linearGradient id="paint0_linear_531_54" x1="27.5319" y1="21.13" x2="1.64551" y2="21.13" gradientUnits="userSpaceOnUse">
<stop stop-color="#1FA2FF"/>
<stop offset="0.5" stop-color="#12D8FA"/>
<stop offset="1" stop-color="#A6FFCB"/>
</linearGradient>
</defs>
</svg>
