<svg width="29" height="35" viewBox="0 0 29 35" fill="none" xmlns="http://www.w3.org/2000/svg">
<path fill-rule="evenodd" clip-rule="evenodd" d="M3.14551 8.51758C2.86937 8.51758 2.64551 8.74144 2.64551 9.01758V33.2424C2.64551 33.5185 2.86937 33.7424 3.14551 33.7424H27.3703C27.6465 33.7424 27.8703 33.5185 27.8703 33.2424V9.01758C27.8703 8.74144 27.6465 8.51758 27.3703 8.51758H20.7602V7.51758H27.3703C28.1987 7.51758 28.8703 8.18915 28.8703 9.01758V33.2424C28.8703 34.0708 28.1987 34.7424 27.3703 34.7424H3.14551C2.31708 34.7424 1.64551 34.0708 1.64551 33.2424V9.01758C1.64551 8.18915 2.31708 7.51758 3.14551 7.51758H5.18085V8.51758H3.14551Z" fill="url(#paint0_linear_531_22)"/>
<path fill-rule="evenodd" clip-rule="evenodd" d="M24.2033 6.00406L13.4962 16.7112L9.78906 13.0041L11.2033 11.5898L13.4962 13.8827L22.7891 4.58984L24.2033 6.00406Z" fill="white"/>
<path d="M20.5 17.793H22V32.793H5V2.79297L20.5 2.79368V4.29297L6.5 4.29297V31.293H20.5V17.793Z" fill="white"/>
<defs>
<linearGradient id="paint0_linear_531_22" x1="27.5319" y1="21.13" x2="1.64551" y2="21.13" gradientUnits="userSpaceOnUse">
<stop stop-color="#1FA2FF"/>
<stop offset="0.5" stop-color="#12D8FA"/>
<stop offset="1" stop-color="#A6FFCB"/>
</linearGradient>
</defs>
</svg>
