<svg width="30" height="35" viewBox="0 0 30 35" fill="none" xmlns="http://www.w3.org/2000/svg">
<path fill-rule="evenodd" clip-rule="evenodd" d="M27.5158 8.51758H17.3299V7.51758H27.5158C28.3443 7.51758 29.0158 8.18915 29.0158 9.01758V33.2424C29.0158 34.0708 28.3442 34.7424 27.5158 34.7424H3.29102C2.46259 34.7424 1.79102 34.0708 1.79102 33.2424V17.9947H2.79102V33.2424C2.79102 33.5185 3.01487 33.7424 3.29102 33.7424H27.5158C27.792 33.7424 28.0158 33.5185 28.0158 33.2424V9.01758C28.0158 8.74144 27.792 8.51758 27.5158 8.51758Z" fill="url(#paint0_linear_531_24)"/>
<path fill-rule="evenodd" clip-rule="evenodd" d="M8.21052 18.5182H18.1077V4.9375H0.716797V18.5182H4.11942V21.399L8.21052 18.5182ZM5.61942 18.5082L7.73538 17.0182H16.6077V6.4375H2.2168V17.0182H5.61942V18.5082Z" fill="white"/>
<path fill-rule="evenodd" clip-rule="evenodd" d="M29.3242 11.0723H18.0151V12.5723H27.8242V24.6973H24.4216V26.8827L21.3181 24.6973H11.9333V18.5194H10.4333V26.1973H20.8429L25.9216 29.7735V26.1973H29.3242V11.0723ZM25.8451 13.483H20.4214V14.983H25.8451V13.483ZM25.8451 17.3878H20.4214V18.8878H25.8451V17.3878ZM25.8451 21.0814H13.7388V22.5814H25.8451V21.0814Z" fill="white"/>
<path fill-rule="evenodd" clip-rule="evenodd" d="M9.4123 9.22852C8.67977 9.22852 8.08594 9.82235 8.08594 10.5549H7.08594C7.08594 9.27006 8.12748 8.22852 9.4123 8.22852C10.6971 8.22852 11.7387 9.27006 11.7387 10.5549C11.7387 11.668 10.9568 12.5986 9.9123 12.8274V14.2338H8.9123V11.8812H9.4123C10.1448 11.8812 10.7387 11.2874 10.7387 10.5549C10.7387 9.82235 10.1448 9.22852 9.4123 9.22852ZM9.9123 14.7985V15.583H8.9123V14.7985H9.9123Z" fill="white"/>
<defs>
<linearGradient id="paint0_linear_531_24" x1="27.6774" y1="21.13" x2="1.79102" y2="21.13" gradientUnits="userSpaceOnUse">
<stop stop-color="#1FA2FF"/>
<stop offset="0.5" stop-color="#12D8FA"/>
<stop offset="1" stop-color="#A6FFCB"/>
</linearGradient>
</defs>
</svg>
