<svg width="827" height="476" viewBox="0 0 827 476" fill="none" xmlns="http://www.w3.org/2000/svg">
<path d="M66.5747 320.614L65.6602 317.582L64.1794 316.369L63.7358 316.007L63.1107 314.183L63.1113 314.182L64.7704 312.211L66.0451 309.302V306.542L64.6504 303.929L63.231 301.686L64.5056 300.651L65.2754 298.679H66.8149L67.9695 297.619L68.884 294.069L69.1241 291.974L68.1142 289.336L66.6948 287.882L64.7704 287.636L63.351 286.058L62.1964 284.333L60.4645 285.836L59.1175 284.456L57.9629 282.484L59.1175 280.389L61.5711 277.899L63.2308 275.927L63.8805 273.561L65.8048 273.413L67.1996 274.991L67.9693 276.963L70.5432 277.9L72.9726 277.111L73.6223 274.473L74.392 271.59L72.4677 269.618L73.7424 268.681L73.6221 266.462L74.3919 263.307L75.8113 259.881L76.8212 256.997L79.395 256.208L80.3095 254.236L82.7629 252.116H85.3123V254.236L86.6116 251.068L88.4563 252.116L89.8108 246.435L93.0891 241.918L95.4055 244.234H97.7219L99.1434 244.894L100.965 245.56L103.745 246.435H105.686L106.841 248.172L109.03 246.435H112.084L113.648 244.894L117.377 246.435L116.992 248.983H119.959V250.141H123.086L131.657 254.236H134.321V258.249H137.332L141.624 261.028L144.05 259.881L145.44 266.462L148.683 270.873L155.863 268.681L158.411 270.873L160.264 268.681L161.307 271.59L165.824 272.726L168.372 276.963L173.207 280.389L174.742 282.484H176.791H179.99L180.64 280.389L184.368 282.484L182.082 284.456L182.563 290.236H177.103L176.791 291.974L173.64 290.236L169.839 292.984L165.824 291.974L163.946 289.336H162.262L157.403 291.839L151.486 290.236L149.918 292.984L145.44 291.839L142.248 297.619L129.042 300.651L128.537 305.438L130.894 308.758L126.348 312.421H123.775V314.183L121.273 316.369L119.959 315.868L117.617 318.668V324.682L119.959 325.564L119.301 329.879H116.727V331.534L106.841 336.025V339.134H103.745L101.717 337.626H100.965H97.7219L94.0199 339.134L93.0891 343.218L89.8108 344.278H86.6116L82.7629 345.812L80.8148 344.278L78.6258 343.218V340.457L76.5813 338.091L75.8115 335.084L73.8872 333.9L71.8184 331.534L72.5882 328.773L71.8184 324.682L69.389 322.857L66.5747 320.614Z" fill="url(#paint0_linear_371_10)"/>
<path d="M6.37304 339.02L3.25574 337.498L2.14764 338.19L2.49425 340.06L4.29513 340.683L5.26484 341.999L4.64116 344.631V347.956L2.14764 349.826H1.24749L0 351.35L0.55421 354.328L2.14764 355.922H4.64116L8.1044 354.328L10.3209 355.575L12.6066 358.069L14.4768 358.9H19.1175L20.1565 362.086L23.1348 364.303H25.8362L26.3903 362.709L30.1306 363.61L27.1522 361.255L25.8362 359.246L23.5504 358.9L20.5028 357.03L19.1175 354.328L20.5028 352.251V349.826V347.956L19.6716 347.194V345.67L20.1565 344.631L18.6326 342.969V341.099L17.1781 340.683L16.6932 341.999H15.0309H13.6456L10.3209 339.02H6.37304Z" fill="url(#paint1_linear_371_10)"/>
<path d="M79.617 345.456L80.6515 344.15L82.5996 345.684L86.4483 344.15H89.6475L92.9258 343.09L93.8566 339.006L97.5586 337.498H100.802H101.554L103.581 339.006H106.677V345.456L110.67 345.684V348.365H114.519L117.213 351.069L119.137 354.281L114.519 356.456L117.213 357.921H119.137L119.796 360.319L122.923 362.686L123.611 361.774L126.185 365.788V370.575L125.295 372.67L123.611 373.927H121.11L119.137 375.973L117.453 377.674V380.04L115.289 380.952L112.979 380.829L111.296 382.53L109.251 383.984L110.093 386.548L111.945 388.446L111.175 391.872L109.516 393.573L111.175 394.633L113.605 396.999L115.144 398.577L114.519 402.003L115.217 406.464V410.088L113.87 411.468L112.595 410.014L110.671 409.742L110.911 412.109L112.018 414.426L113.605 416.053L112.33 417.384L110.141 417.63H105.787C105.787 417.63 104.24 417.827 103.021 417.827C101.802 417.827 102.059 416.841 102.059 416.841L100.135 416.324L99.2448 415.412L96.9356 415.018V416.842L95.1315 417.63L92.9667 420.268H90.5131L87.819 421.057L86.2555 420.637L84.9331 421.969L84.3312 418.61L84.9331 414.426V412.109L80.6515 408.707L79.617 403.384L78.7272 400.672L75.6482 395.693L76.418 393.573L71.0055 385.955H67.9509L66.5315 383.318L62.9469 382.53L61.1191 379.251L56.9097 380.04L54.7208 379.251L53.6862 382.53L54.7208 385.955L53.6862 387.927L54.7208 388.446L51.6415 390.418L52.7966 393.054L49.862 397.121L46.9032 396.332L44.8587 393.966L43.5593 394.633L40.0954 396.334L37.6662 398.699L36.3915 396.875L34.7076 397.121L33.6731 393.966L34.0579 387.927L33.553 383.466L32.5185 381.223L31.2438 379.251L31.5086 375.307L29.9691 373.852L28.9346 371.757L29.7043 369.391L29.0546 366.753L30.474 365.324L32.0135 365.053L34.0823 367.69L36.0066 368.331L36.8964 366.359L39.0854 365.447L42.0199 365.324H43.5594L45.4838 365.964L45.8686 362.686L44.8587 360.714L45.3637 359.013L46.9032 359.259L48.3225 360.319L49.862 361.774L51.0166 360.591L52.7966 361.379L55.7553 361.774L57.9443 362.686L58.4492 360.319L56.9097 359.136L54.7208 358.619L53.3014 357.164L51.7619 356.647L53.6862 354.527L56.5007 353.221L58.9301 354.281L61.1191 353.344L63.1637 355.587L66.2426 359.013L69.0812 356.105L71.0055 354.921L70.5005 352.037L72.3046 350.189L74.1088 350.46L73.9644 348.365L78.7272 347.699L79.617 345.456Z" fill="url(#paint2_linear_371_10)"/>
<path d="M38.6957 400.03L37.6611 398.699L40.0904 396.334L43.5542 394.632L44.8537 393.966L46.8981 396.332L49.857 397.121L52.7915 393.053L51.6365 390.418L54.7157 388.445L53.6812 387.927L54.7157 385.954L53.6812 382.529L54.7157 379.25L56.9047 380.04L61.1141 379.25L62.9419 382.529L66.5265 383.317L67.9459 385.954H71.0004L76.4129 393.572L75.6432 395.693L78.7221 400.672L79.612 403.383L80.6465 408.706L84.9281 412.108V414.425L84.3261 418.609L84.9281 421.968V424.137L86.2751 425.517L87.0449 428.032L86.4198 430.521L85.8179 432.814L84.3261 434.342V435.254L83.0515 436.437L80.2371 441.17V444.843L81.0069 449.329L80.5019 452.73L80.7421 456.945L77.6632 458.4L75.6184 457.463L72.6597 458.523L69.8454 457.857L69.4605 455.368L68.0658 451.029L67.801 447.874L65.7564 446.42V444.719L64.7219 441.958L62.9419 439.592L64.0965 437.62L64.8663 435.377L62.9419 433.282L62.2922 430.915L60.1033 430.644L59.6707 429.264L58.059 427.637L55.2447 427.242L53.4406 425.394L52.9356 421.179L51.1315 419.478L51.6365 416.84L49.4717 415.016L48.3171 411.984L46.3927 411.073L43.5542 409.101L42.6644 405.946L40.7401 402.914L40.0904 400.276L38.6957 400.03Z" fill="url(#paint3_linear_371_10)"/>
<path d="M126.373 370.664H128.562L129.909 372.044L129.067 374.607V377.245L130.919 379.143L134.07 379.734L134.335 377.245L135.995 375.52L136.644 374.09H142.273L143.572 372.118H146.266L148.816 373.548L151.775 372.513L153.386 370.861L156.513 371.453L157.428 374.09V376.58H159.208L162.287 376.062L163.971 377.763L164.86 380.006L167.939 381.189L169.864 383.556L170.369 387.105L171.668 390.507L172.678 392.75L171.138 394.328V396.423H172.822L174.362 393.81L176.527 395.782L178.066 398.789L180.255 399.455L182.949 399.06L185.908 397.606L188.073 398.789L190.526 400.761L191.416 402.733L193.845 401.821H196.804L198.416 403.473V406.825L200.292 408.748L200.774 410.226L203.276 412.789H205.537L206.908 411.384H208.231L209.241 413.528L210.732 415.032L213.619 414.834H216.433L218.092 413.134L219.896 410.619L218.092 408.795L217.587 406.552L214.58 403.471L213.738 401.548L214.773 398.787L213.619 396.421L211.526 395.782V393.143L213.619 389.47L209.383 388.534L203.276 389.47L206.908 386.043L209.383 383.406L210.732 380.129V376.58L217.226 371.453L220.401 373.133V367.653L217.587 365.877L215.687 367.653L211.526 365.877L210.732 360.853L209.144 356.544L211.526 354.964L217.226 358.009V359.345L219.512 360.853L225.02 359.345L226.054 354.964V351.157H223.889L220.401 349.435L216.433 345.773L219.512 341.767V337.587L221.701 339.095L225.02 337.587L228.267 333.138L229.927 335.001L232.813 333.138L232.116 331.124L234.04 329.839L235.964 331.124L239.199 327.461V325.525V318.629L237.889 315.828L240.583 312.381H243.277L245.418 308.719L249.571 303.953L251.087 298.877L252.995 296.009L240.583 291.935L237.889 290.942L237.089 292.944L234.04 291.799L232.813 292.944L229.927 291.935L228.267 292.944L223.889 290.942L221.701 290.197L220.401 285.879H217.587L214.773 287.111L212.457 285.058L210.732 287.711L212.457 290.942L209.994 292.944H206.908L204.657 290.942L201.51 292.944L196.804 290.197L193.845 294.226V289.297L191.416 287.111L193.845 283.607V281.874L196.804 281.09V275.888L195.642 271.55L193.845 269.578L188.073 275.888L185.908 274.434L182.949 274.951L185.908 279.084H184.392V281.874V282.445L182.107 284.417L182.588 290.197H177.128L176.815 291.935L173.664 290.197L169.864 292.944L165.848 291.935L163.971 289.297H162.287L157.428 291.799L151.51 290.197L149.943 292.944L145.464 291.799L142.273 297.579L129.067 300.611L128.562 305.399L130.919 308.719L126.373 312.381H123.799V314.144L121.298 316.329L119.984 315.828L117.641 318.629V324.642L119.984 325.525L119.325 329.839H116.752V331.495L106.865 335.985V339.095V345.545L110.858 345.773V348.454H114.707L117.401 351.157L119.325 354.369L114.707 356.544L117.401 358.009H119.325L119.984 360.408L123.111 362.774L123.799 361.862L126.373 365.877V370.664Z" fill="url(#paint4_linear_371_10)"/>
<path d="M253.545 194.621L250.995 195.335L249.48 197.356L248.326 198.909L249.12 201.176L250.996 201.891L252.728 202.606L254.364 201.422L256.335 201.768L257.393 199.278L255.757 197.134L255.637 195.335L253.545 194.621ZM178.111 196.297L177.653 197.011L178.471 198.071L179.505 197.011L178.111 196.297ZM34.5085 200.832L33.8342 202.113L32.1504 202.607L30.1299 202.138L33.9065 210.963L40.4011 218.851L44.6587 216.632L45.5485 214.71L45.1636 212.171L44.1537 211.456L43.1438 209.755L43.384 207.783V205.54L41.6281 204.037L41.0754 203.494L40.2333 204.357L41.2201 205.392L40.8106 206.895L38.9825 206.526L38.7177 204.949L37.5385 204.603L37.4661 202.582L36.0221 201.079L34.5072 200.832L34.5085 200.832ZM294.778 204.998L292.902 205.959L291.507 206.427L291.867 209.533L292.085 211.209L293.384 211.555L293.841 214.069L296.295 214.315L297.112 212.269L295.933 210.248L296.053 207.98L294.778 204.998Z" fill="url(#paint5_linear_371_10)"/>
<path d="M348.754 141.741L345.751 142.923L343.466 144.18L341.542 146.152H338.631L336.538 146.744L335.384 145.561H332.93L331.896 144.032L329.61 143.86L327.686 145.807H324.776L322.803 145.092L320.013 146.423H318.377L317.102 147.976L315.828 149.406L313.254 148.445V150.219H311.522L310.127 148.79L309.31 150.121L310.585 151.674L309.405 152.857L309.526 155.248L308.611 154.286L306.158 154.41L307.673 155.963L304.882 156.086V157.515H302.886L301.394 159.068L300.037 159.443L298.363 159.905L296.761 160.353L295.456 160.729V161.666L296.938 162.207L297.954 162.567L298.941 163.602L298.935 163.603L298.944 163.613L296.033 164.205L295.746 165.462L294.845 166.352L294.394 166.806L293.49 165.879L293.124 165.511H290.454V167.31L289.852 169.085L287.759 168.247L285.907 169.456L287.302 171.008L285.209 173.276L282.515 174.09L282.178 175.642L281.36 175.297L280.663 174.459L278.45 174.213L276.598 176.85L276.117 179.463L277.512 181.509L279.268 181.608L280.086 183.777L280.903 183.999L280.783 186.859L282.057 187.942L281.36 189.126L279.508 189.742L278.811 191.887L280.663 193.908L283.116 196.299L283.934 195.805L285.329 197.974H286.603L288.455 199.035V200.587L290.452 199.626L291.149 198.911L290.547 196.767L289.273 194.746L290.21 191.64L289.152 188.534L289.97 186.39V183.407L291.606 181.731L292.303 179.34L294.275 178.526V176.258L296.272 174.582H298.702L300.216 171.945L301.396 170.392H302.887L303.994 169.258L305.317 167.927L306.327 168.938V166.029L307.313 167.04H308.708L308.371 164.649L309.763 163.371L309.766 163.368V165.375L311.519 164.071L313.612 162.518V160.374L315.704 160.965L315.944 159.659H317.917L320.13 159.905L321.98 159.166L321.982 159.165L321.165 157.268L323.859 155.715H327.467L329.199 153.817H333.865L337.473 153.94L338.988 152.387L342.139 153.57L345.627 151.894L348.538 151.672L350.751 149.503L353.18 147.235V144.376L351.569 141.763H348.754V141.741Z" fill="url(#paint6_linear_371_10)"/>
<path d="M192.593 141.666L187.205 144.427L183.116 146.547V153.646L181.047 157.318H174.505L173.285 158.584L173.242 158.628L170.632 161.336L170.395 162.924L170.278 163.76L167.372 169.323L165.539 172.831L163.35 171.796L158.876 175.469L156.808 175.592V180.078L154.498 180.99V184.416L151.419 186.906H147.835L146.946 195.582V199.009L141.557 200.981L112.812 201.104L114.472 203.076L117.31 204.259L116.661 204.925L114.616 205.442V209.904L116.925 212.023L117.166 215.819L115.626 217.397L114.616 214.784L113.582 212.418L110.767 211.506L108.963 209.534L106.774 208.474L105.62 209.657L105.115 211.629L101.651 210.84L99.0771 212.418L96.1426 212.294L93.9536 215.302L91.2595 216.362L91.1393 218.334L89.7445 220.034L86.5453 220.182L85.246 221.76V224.521L82.1671 226.492L80.1223 227.01L80.772 229.376L79.3526 232.014L76.9232 234.503L76.5383 236.352L77.6929 238.965L79.473 240.814L78.8479 242.909L78.0782 244.881L80.5077 245.547L82.6966 247.642V252.103H85.246V254.223L86.5453 251.055L88.3901 252.103L89.7445 246.422L93.0228 241.905L95.3392 244.221H97.6556L99.0771 244.881L100.899 245.547L103.678 246.422H105.62L106.774 248.159L108.963 246.422H112.017L113.582 244.881L117.31 246.422L116.925 248.97H119.893V250.128H123.02L131.591 254.223H134.255V258.235H137.266L141.557 261.015L143.983 259.868L145.373 266.449L148.616 270.86L155.797 268.667L158.345 270.86L160.198 268.667L161.241 271.577L165.758 272.713L168.306 276.95L173.14 280.376L174.676 282.471H176.724H179.924L180.573 280.376L184.301 282.471V279.11H185.817L182.858 274.978L185.817 274.46L187.982 275.914L193.755 269.605L195.551 271.577L196.713 275.914V281.116L193.755 281.9V283.633L191.325 287.137L193.755 289.323V294.253L196.713 290.223L201.419 292.971L204.567 290.969L206.817 292.971H209.903L212.366 290.969L210.642 287.737L212.366 285.084L214.682 287.137L217.496 285.906H220.311L221.61 290.223L223.798 290.969L228.176 292.971L229.836 291.961L232.722 292.971L233.949 291.826L236.998 292.971L237.798 290.969L240.492 291.961L252.904 296.035L254.364 291.826L258.292 287.737L258.581 283.633V281.9L261.275 277.84L263.319 275.138L266.278 272.769V270.271L272.171 263.296L273.038 265.785L275.828 264.873L283.116 259.994L288.216 259.156V257.453L292.449 254.496L300.243 254.078L303.994 251.316L308.975 247.397L307.884 245.277L308.975 243.453L306.327 239.905L310.778 238.055V232.411L307.884 229.278L312.39 228.639L310.778 225.287L305.342 219.716L302.696 216.364L301.686 217.399L299.305 214.983L297.308 215.575L294.999 216.758L295.384 220.554L294.879 223.709L292.449 224.103V226.223L289.876 225.557L288.793 226.666L288.601 229.106L286.147 227.011V224.768L288.216 223.314L288.601 221.49L287.253 220.109L283.838 221.218H281.144L279.797 222.599L275.828 218.531L272.171 217.792L268.323 219.517H266.278L263.319 216.756L265.244 216.091L266.013 213.724H268.443L267.553 210.298H265.364L261.275 211.629V213.996H259.976L258.581 211.358H255.742L250.883 210.692L248.189 211.235L243.186 210.298L243.691 212.418L240.492 210.84L237.148 211.629V213.996L233.949 215.573L231.111 214.242L228.176 213.453V210.84L227.142 207.685V204.259L231.255 202.804L233.949 203.47L235.873 205.442L237.028 204.259L237.798 201.892V197.283L235.609 193.881L232.722 190.923L232.025 189.272H229.836L230.341 192.427V195.705L227.142 197.677V199.797L223.798 201.497L222.788 203.741V207.019L220.214 210.84L217.136 211.48L214.899 213.797L213.287 215.818V212.934L215.091 211.086L212.902 207.659L211.435 206.18H209.053L205.59 207.263L202.511 205.563L198.782 206.992L194.813 206.351L194.693 210.961L192.504 212.81L193.394 215.053L192.312 216.137L188.655 215.053L187.236 212.021L184.999 209.729L184.301 205.834L183.532 199.918H181.343L179.154 202.285V204.528L178.914 207.412L180.573 209.137L179.924 212.415L176.724 214.782L171.264 209.186L173.14 205.834L171.986 202.433L171.216 199.672L173.573 197.231L174.536 192.573L177.037 190.009L180.188 189.023L181.992 184.932L182.497 182.048L180.621 180.125L182.016 178.696L181.968 175.343L181.439 172.435L182.665 171.203L183.508 168.886L183.594 168.975L185.288 170.734L183.843 172.238L183.266 175.196L185.046 175.984L185.936 180.865L187.596 183.749L188.533 186.387L189.688 189.147L192.117 191.637V195.186L194.499 197.627L198.275 199.796L201.739 201.102L205.684 200.313H209.292L212.684 196.838L214.921 192.82L215.474 188.087L215.596 185.203L213.359 182.886L213.287 178.893L212.517 177.044L213.166 173.766V169.945L212.132 166.273L210.015 164.103V160.998L210.008 160.994V160.991L208.156 160.079V157.319L206.448 155.618L204.308 154.435V151.92L203.633 149.431L204.98 148.05L206.448 149.554L207.867 150.491L207.217 148.124V146.004L204.138 145.881L201.974 146.152L202.503 143.392L200.29 144.969L198.534 143.12H196.345L192.593 141.666Z" fill="url(#paint7_linear_371_10)"/>
<path d="M347.115 185.793L345.841 186.261L345.359 186.138L344.084 187.099L344.541 188.182L343.627 189.489L343.844 190.326L345.961 190.918L347.933 189.957L349.088 190.08V188.897L347.236 188.403L348.15 187.343L347.116 185.791L347.115 185.793ZM363.184 189.12L362.127 190.081L362.824 191.165L364.219 190.204L365.975 190.673L365.518 189.612L363.184 189.119V189.12ZM357.82 193.902L357.243 195.454L358.18 196.292L359.215 194.961L357.82 193.901V193.902ZM374.342 197.944L373.307 198.314L372.49 199.374L372.947 200.803L373.765 201.863L374.944 200.557L375.401 199.028L374.342 197.944ZM368.769 202.012L367.374 202.381L366.1 203.687L364.705 204.87L365.979 205.807L367.037 204.87H368.649L370.164 203.441L368.769 202.012Z" fill="url(#paint8_linear_371_10)"/>
<path d="M214.753 398.81L217.303 399.476L219.492 398.81L220.382 396.444L219.492 393.165L221.681 392.253L225 392.105L227.189 394.349H228.993L230.581 392.697L227.454 389.493L226.035 388.556L227.839 386.732L226.924 384.76L227.839 381.851H230.533L233.468 383.429L235.536 385.277L237.846 384.612L241.045 385.277L245.398 385.154L248.357 386.066H250.546L252.976 387.372L255.549 386.855L257.017 385.351H258.364L261.707 387.126H265.171L267.985 386.584L270.295 387.915L273.109 387.126H276.332L277.872 384.883L280.686 385.154L283.26 386.732H286.459L289.344 384.612L294.85 378.325V373.155L300.315 369.277L294.85 362.815L297.741 360.876L297.183 356.567L302.767 353.12L302.744 356.567L309.047 359.368H312.461H320.279L329.083 353.12L330.719 349.458L337.934 345.796L340.099 335.024L347.933 337.609L351.909 335.024L353.954 337.609H361.146L370.164 340.625L370.764 337.609L375.155 335.024L380.392 339.117L386.349 335.024L388.898 331.146L382.145 327.484V322.96L387.166 318.651V317.359L388.897 315.851V312.404L387.166 308.742L391.617 302.71L390.856 293.877L388.897 296.031L385.009 293.877L384.504 291.822L386.349 289.353L382.145 283.629H381.282L378.851 279.375H381.282L379.693 275.135L381.785 272.765L377.961 270.267V263.415L375.706 259.152L377.961 258.535L381.04 249.882L377.961 241.848L373.765 243.449L367.037 235.019L375.507 229.274L375.706 222.155L370.764 218.17L375.155 215.619L375.706 211.752L370.351 207.808L367.617 206.822L367.809 208.351L368.339 210.051L366.8 211.506L363.456 208.08L360.762 209.904L361.652 212.812L363.576 214.784V215.844L365.885 217.028L367.377 218.531L368.195 220.577V222.155L366.03 220.035L364.033 218.013L362.037 219.246L360.497 217.939L357.803 215.819V210.175L360.112 207.808L360.642 204.382V200.586L361.267 197.825H359.222L358.332 199.797L359.222 202.016L358.188 204.777L356.648 207.291H353.954L350.755 210.569L348.71 212.689L350.562 214.587L350.25 217.274L351.02 219.788L351.909 222.672L349.336 225.309L348.181 228.711L346.401 231.62L346.786 235.81L345.246 237.387L345.631 239.902H347.94L348.95 241.331L350.875 240.419L352.366 238.89L354.146 240.739L357.297 241.848L358.332 242.908L359.992 244.486L361.266 247.123L360.377 249.219L361.146 251.708L360.377 253.433L358.332 254.074L358.572 256.44V258.018L359.679 259.152L362.566 259.99V261.838L359.607 261.148L357.033 258.535V256.563L356.913 253.408L358.957 251.312L357.418 247.221L356.215 246.012L355.373 243.449L352.415 243.843H349.721L346.257 247.393L346.522 249.882L347.171 252.643L346.401 255.798L344.79 257.45L342.793 259.471L341.639 260.654V263.415L339.089 264.869L335.866 265.781L335.096 266.57H333.436C333.436 266.57 331.575 267.423 332.089 267.95C332.602 268.475 331.632 270.267 331.632 270.267H329.323L327.783 268.024L325.618 268.147L323.044 266.323L321.12 265.362L319.196 262.355V259.866L321.12 260.531L322.467 261.912L324.584 263.292L326.508 261.986L329.708 262.626L331.512 261.591L333.436 258.683L336.78 255.281L339.594 254.492L340.099 249.612L342.937 247.393L343.322 245.274L341.061 242.981L340.099 239.506L341.134 236.992L342.553 232.012L343.443 226.343L346.017 222.399L346.642 218.849L347.411 214.388L345.246 212.416L346.256 208.99L349.913 205.243L350.49 200.461L351.789 199.13L350.635 194.668H347.941L346.401 193.09H343.322L341.783 190.847L339.329 192.179L337.934 195.334L336.635 198.489L334.975 202.285L331.825 205.514L329.083 206.894L326.509 207.806L325.089 209.655L324.199 212.268L325.859 212.811V214.783L324.705 216.36L324.08 219.515V221.61L321.506 222.942L320.279 224.174L321.626 227.009L324.08 228.709L323.55 232.407L324.969 235.808L327.014 236.474L324.08 239.235V241.996L321.506 243.573L319.701 240.664V238.051L317.537 235.019L315.468 231.741L312.461 228.635L307.956 229.274L310.849 232.407V238.051L306.398 239.902L309.047 243.449L307.956 245.274L309.047 247.393L304.065 251.312L300.315 254.074L292.521 254.492L288.287 257.45V259.152L283.188 259.99L275.899 264.869L273.109 265.781L272.243 263.292L266.349 270.267V272.765L263.391 275.135L261.346 277.836L258.652 281.896V283.629L258.364 287.733L254.435 291.822L252.976 296.031L251.068 298.9L249.552 303.976L245.398 308.742L243.257 312.404H240.563L237.869 315.851L239.18 318.651V325.548V327.484L235.945 331.146L234.02 329.862L232.096 331.146L232.794 333.161L229.907 335.024L228.247 333.161L225 337.609L221.681 339.117L219.492 337.609V341.79L216.414 345.796L220.382 349.458L223.869 351.18H226.035V354.987L225 359.368L219.492 360.876L217.207 359.368V358.032L211.506 354.987L209.125 356.567L210.713 360.876L211.506 365.899L215.667 367.676L217.568 365.899L220.382 367.676V373.155L217.207 371.475L210.713 376.602V380.152L209.363 383.429L206.889 386.066L203.256 389.493L209.363 388.557L213.599 389.493L211.506 393.165V395.804L213.599 396.444L214.753 398.81Z" fill="url(#paint9_linear_371_10)"/>
<path d="M322.816 74.4297L321.949 76.2044L323.056 77.3384L323.489 78.6694L325.99 77.782L326.855 78.6694L328.491 77.9792L329.164 78.6694V77.1904L328.057 76.0566H327.047L326.182 75.7115H324.065L322.816 74.4297ZM335.42 76.0072V77.3136H336.383L337.345 76.3276L335.42 76.0072ZM332.63 77.4862L331.668 78.1764L330.706 79.1624V80.2469L329.599 81.3809L327.626 79.9513L325.991 80.8387V82.0218L323.97 80.5429L322.431 81.1345L322.913 83.5008L324.355 83.0078V84.5854L325.895 84.9798L327.289 83.5502L329.262 82.7368L330.897 83.2298H333.303L335.035 81.455L333.399 79.7789L334.506 78.6449L332.63 77.5111L332.63 77.4862ZM349.757 78.4968V80.2715L351.392 81.9477V83.328L352.835 82.6379L351.97 80.7645L351.295 78.4968H349.757ZM346.293 79.3842L346.967 80.6659L347.592 80.0251L346.967 79.3843L346.293 79.3842ZM360.822 80.6659L359.859 80.9617L360.629 82.0463V83.0323H361.976V81.1589L360.822 80.6659ZM344.753 81.3561L343.695 81.5533V82.8351H345.042L344.754 81.3561H344.753ZM348.024 82.1449V83.5253L349.179 83.6238V82.1449H348.024ZM340.327 83.6238L340.037 83.895L341.144 85.029L341.674 83.624L340.327 83.6238ZM345.57 84.7578V85.867H346.677L345.812 85.0042L345.572 84.7578H345.57ZM342.828 85.8917L341.914 86.8283L342.828 87.8637L343.886 87.7651L342.828 85.8917ZM334.842 86.0889L333.88 87.6665L333.158 88.4059L334.408 89.6877L335.803 89.737V87.3706L334.841 86.0889L334.842 86.0889ZM337.055 86.0889L337.537 87.4693H338.499V86.2861L337.057 86.0889H337.055ZM327.241 86.1382L327.53 87.3708L329.262 87.4694L328.06 86.1384H327.243L327.241 86.1382ZM353.797 86.5818L352.545 87.272L352.016 87.8142L353.026 88.8496L354.854 88.1594V86.5818H353.797ZM348.024 86.9762L346.677 87.3706L347.159 87.839L348.024 86.9762ZM328.396 88.751L327.53 89.6384L328.205 90.3285L329.84 90.7229L328.783 89.6384L328.398 88.751H328.396ZM349.756 88.751L348.698 89.8356L347.929 91.4131V93.3851L349.564 93.6808L349.949 94.864L351.97 94.371L354.231 92.0541L354.761 90.4273H353.318L351.153 90.378L349.759 88.7512L349.756 88.751ZM362.072 88.8249L360.532 89.0221L359.858 90.1066L357.356 90.5996L355.721 91.487L356.971 92.0786L356.393 93.459L357.453 93.7547H359.569L361.253 92.0292L362.505 90.7721L362.072 88.8493L362.072 88.8249ZM344.608 90.7722L342.732 92.202L342.057 91.4872H339.941V92.9907L338.786 94.1739L339.46 94.8641L341.769 94.3711L342.635 95.2339L344.655 94.7655L345.232 93.3851L346.675 93.8781L345.905 92.1034L344.606 90.7724L344.608 90.7722ZM421.437 96.4417L421.147 98.389L419.416 99.1778L416.818 100.953V103.417L417.875 104.502L416.481 105.932L415.566 107.756L416.816 109.53L417.298 111.305L419.511 113.277L421.532 111.305H422.879L424.899 110.122L427.305 109.333L426.63 106.967V104.009L428.073 102.752L424.417 99.0049L423.552 97.0329L421.435 96.4413L421.437 96.4417ZM345.425 97.2304L344.8 97.8712V99.079H346.1L346.58 97.5014L345.425 97.2304ZM414.224 97.6003L412.204 97.6988L411.337 98.6108L412.011 99.2764L412.733 100.041L414.225 98.611L414.224 97.6003ZM390.17 99.6954L389.208 99.8926L388.583 100.533L389.545 101.519L390.844 101.076L391.614 100.287L390.172 99.6954H390.17ZM428.92 110.369L426.37 111.207C426.37 111.207 424.843 111.556 424.494 111.675C424.145 111.793 422.401 112.39 422.401 112.39L421.584 114.189L421.127 115.742L420.092 117.048L420.429 118.601L418.457 120.154L419.395 120.992L420.789 120.499L421.944 122.175L422.064 123.728L423.099 125.035L425.793 125.281L426.13 126.834L428.006 125.626L428.921 127.179L431.494 128.116L433.948 126.933L435.103 125.257L434.165 123.334L432.65 121.189L433.829 120.376L434.287 118.355L433.709 116.087L433.949 113.819L431.135 112.266L430.101 113.597L429.163 115.372L428.346 115.027L428.923 112.759V110.368L428.92 110.369ZM414.127 112.612L414.416 114.781V116.161L416.533 116.753L417.4 117.64L418.699 116.309L419.421 114.386L418.17 113.4L415.764 112.809L414.128 112.612H414.127ZM380.379 115.151L379.681 115.865L380.499 116.334L381.773 117.295L382.134 116.087L380.379 115.151ZM440.923 118.7L439.768 118.823L438.133 120.844L438.253 122.619L437.556 123.827L438.013 127.056L436.618 128.486L436.738 131.69L436.041 134.451L435.439 137.187L436.497 137.778L438.71 136.004L439.984 135.166L442.895 133.613L445.228 133.391L448.139 131.123L449.533 128.362L448.596 125.996L447.561 124.197L446.167 124.813L444.772 122.299L443.714 121.214L442.439 122.767L441.622 125.035V123.358L441.742 120.376L440.925 118.724V118.7L440.923 118.7ZM453.023 130.877L451.869 131.592L453.504 132.43L454.659 133.268L455.934 132.923L455.596 131.37L454.322 131.715L453.023 130.877ZM458.027 141.501L457.57 142.215L458.628 142.93L459.085 142.092L458.027 141.501ZM409.602 148.304L409.024 149.265L409.842 149.98L410.876 148.427L409.602 148.304ZM429.038 148.772L427.883 150.202L426.368 150.572L427.763 151.656L429.158 150.202L429.038 148.772ZM390.066 163.291L389.441 163.931L390.258 164.671L391.605 164.277L390.066 163.291Z" fill="url(#paint10_linear_371_10)"/>
<path d="M390.075 163.299L389.45 163.939L390.267 164.679L391.614 164.285L390.075 163.299ZM387.612 170.274L386.337 171.334L387.034 172.763L388.189 172.541L387.612 170.274ZM483.781 171.088L482.506 171.334L480.366 173.553V175.031H482.17L482.747 176.46L484.262 175.746L485.994 173.971V171.087H483.781L483.781 171.088ZM397.618 180.997L396.223 181.712C396.223 181.712 396.69 183.081 396.801 183.264C396.802 183.26 396.825 183.271 396.825 183.264C396.825 183.024 397.859 182.795 397.859 182.795L397.618 180.996L397.618 180.997ZM387.154 185.902L386.914 187.208H388.887L389.944 188.269L390.065 186.494L388.885 186.248L387.154 185.902ZM363.173 189.107L362.115 190.067L362.812 191.151L364.207 190.19L365.963 190.659L365.506 189.599L363.173 189.105V189.107ZM357.808 193.888L357.231 195.441L358.169 196.278L359.203 194.947L357.808 193.887V193.888ZM374.33 197.931L373.295 198.3L372.478 199.36L372.935 200.789L373.753 201.849L374.932 200.543L375.389 199.015L374.33 197.931ZM368.757 201.998L367.362 202.367L366.088 203.673L364.693 204.856L365.968 205.793L367.025 204.856H368.637L370.152 203.427L368.757 201.998Z" fill="url(#paint11_linear_371_10)"/>
<path d="M449.006 138.765L446.962 141.008L444.652 142.708L442.728 147.564L442.078 149.684V152.839L443.113 153.628L443.378 155.846H442.463L439.529 156.783H436.69L437.46 158.213L439 159.396L440.154 160.974L440.144 160.972L440.155 160.986L437.605 160.469L435.031 160.986L434.646 163.106L430.678 162.983L429.066 164.609V164.596L429.065 164.597V162.699L430.285 160.346L427.984 160.739L427.334 162.169L424.52 162.563L421.176 163.352L419.91 164.674L422.21 165.46L422.202 165.469L422.211 165.472L421.441 166.384L417.977 167.444L416.75 168.676L411.939 169.416L410.592 170.796L407.056 172.177L405.661 175.184L402.053 175.061L402.198 177.033L403.978 177.156L402.198 178.61L400.898 180.459L402.005 181.568L401.283 183.22L402.318 184.403L400.778 184.797C400.778 184.797 400.778 182.825 399.816 183.811L398.349 185.315L399.624 186.621L401.163 187.163L402.438 189.135L401.163 190.442H398.734L395.39 191.896H390.387V192.685L387.308 191.502H381.27L378.72 193.868L379.345 197.146L380.38 198.207L379.225 200.819L378.456 203.975L379.49 205.035L381.268 208.066L383.722 208.978L383.577 210.827L384.997 212.799L384.492 214.894H381.028L378.767 212.601L377.949 211.739L378.839 209.101L375.495 207.277L373.763 205.502L371.647 205.822L369.097 205.305L367.605 206.808L370.339 207.795L375.694 211.739L375.143 215.605L370.752 218.157L375.694 222.141L375.495 229.261L367.025 235.006L373.753 243.435L377.949 241.835L381.028 249.869L377.949 258.521L375.694 259.138L377.949 263.401V270.253L381.773 272.751L379.681 275.121L381.27 279.362H378.839L381.27 283.616H382.134L386.337 289.339L384.492 291.808L384.997 293.863L388.885 296.018L390.844 293.863L391.605 302.696L387.154 308.728L388.885 312.39V315.837L387.154 317.345V318.638L382.134 322.946V327.47L388.887 331.133L386.337 335.01L380.38 339.104L375.143 335.01L370.752 337.596L370.152 340.612L361.134 337.596H353.942L351.898 335.01L347.921 337.596L340.087 335.01L337.922 345.782L330.707 349.444L329.071 353.107L320.267 359.354H312.449H309.035L302.732 356.553L302.755 353.107L297.171 356.553L297.729 360.862L294.838 362.801L300.303 369.264L294.838 373.142V378.312L289.332 384.598L286.447 386.718L287.602 389.085H289.911L291.835 389.996L292.87 393.275L292.22 395.124V397.613L290.609 399.264L291.331 401.557L294.145 402.346L296.719 400.768L298.571 402.691L297.729 405.772L300.303 406.561L301.722 405.106L304.031 406.561H306.581V408.409L303.502 409.839L302.732 413.388H304.921L307.615 412.082L309.035 414.177L312.114 412.476L315.698 411.416L317.815 409.247L319.811 409.198L322.505 409.05L324.43 407.078H326.739L327.364 408.927L325.824 411.022H324.044V413.388L326.209 414.325L327.821 415.952L329.288 419.181L330.707 420.636L332.896 422.854L334.436 428.129V432.467L336.48 434.439V437.594L338.669 441.538L339.294 444.94L340.209 447.972L341.869 451.398L344.683 450.855L346.102 447.848L348.147 447.182L349.566 448.883V450.855L352.525 453.887L355.339 453.37L356.614 454.676L359.837 454.158L361.425 452.507H364.696L366.284 454.109L368.689 455.194L370.469 456.92L370.999 460.075L373.164 461.504L374.198 463.871L376.892 465.596V468.751L380.356 469.663L383.435 470.723L386.779 469.392L388.751 467.37L389.473 470.057L390.868 472.694L392.023 474.666L395.751 475.307L397.411 473.606L400.634 471.757L404.483 471.905L406.6 469.736L409.606 468.996L410.111 466.236H412.685L415.259 463.623L419.493 460.862H422.812L423.726 458.101H426.541L428.778 455.784L431.544 457.042L433.733 459.285L437.197 457.83L440.131 458.742L444.629 463.351L448.358 464.658L450.908 465.446L454.516 464.806L457.98 465.718H464.137L467.024 462.76L470.031 460.714V457.559L467.794 455.266V452.309L466.182 450.337L466.687 446.91L468.419 445.136L470.031 441.783L472.027 439.762L473.494 438.233L470.031 429.35L472.027 426.041L479.112 419.109L480.372 422.102L487.615 425.096L492.346 429.35H496.515L500.363 432.072L502.429 431.801L503.515 435.967H506.21L508.133 438.234L510.464 437.07H511.332L512.67 432.713L518.814 425.096L521.339 422.102L530.631 411.074L533.534 395.004L530.631 393.901L527.256 381.769L530.631 377.673L525.747 375.94V372.947L529.036 370.268H530.631V367.275L533.534 366.487L535.987 367.275L538.417 366.487V363.178H540.197H541.232L546.858 362.233L552.057 364.439L557.516 360.973L560.565 359.87V355.458L564.504 352.307L566.368 354.198L564.504 355.458H568.758L571.594 356.719L573.44 353.253L574.272 346.951L571.594 348.054L568.758 344.43L570.482 341.436L568.758 340.649V338.285L571.594 335.922L574.272 337.025L576.76 334.662L573.44 329.62L571.594 326.942H570.482L567.813 322.373H565.449L564.504 325.524H560.565L561.629 323.791L560.565 322.373L559.778 320.167L553.812 318.749H548.544L546.858 323.791L544.696 324.736L546.858 327.73L543.077 332.771V335.922L540.197 342.697L535.987 335.922L533.534 338.285L527.256 340.649L524.329 345.69L519.76 342.697V322.373L517.682 320.167L514.676 316.228L515.506 311.187L510.464 308.351H509.046L510.464 305.042L506.21 297.953H501.641V295.432L503.515 293.699L501.641 290.548H497.703H495.655L494.157 291.808L492.346 290.548L489.195 291.808L486.832 290.548L487.615 283.616L490.814 279.362L486.832 276.211L485.886 271.642H483.838V265.025H480.845V262.031L484.784 259.353L483.838 249.585L480.845 244.701V239.974L478.166 238.556L476.748 233.987H479.899L481.948 229.261H483.838H486.832L487.615 225.322L486.832 223.431V220.753L487.735 217.057L494.157 209.871L490.814 200.888L482.507 195.052L482.747 189.259L479.899 186.646L481.697 180.31L479.532 179.793H477.993L476.069 179.916L476.189 182.036L476.069 183.096L477.608 183.219L478.57 184.205L477.343 186.645L475.299 187.434L473.11 189.258C473.11 189.258 472.725 191.624 471.57 191.624C470.416 191.624 468.371 192.29 468.371 192.29L466.062 193.745L466.567 196.357L464.258 197.418L464.907 195.051L465.412 191.625L467.529 189.456L468.491 186.498L471.57 185.709L472.34 181.642L474.264 179.67L475.034 175.973V174.667L477.608 171.511L479.075 170.008L480.302 167.444L481.577 165.596V162.958L483.044 161.455L483.038 161.445L483.042 161.441L481.454 158.631L478.88 157.177L477.846 156.117L480.42 156.659L480.684 153.898L477.606 150.743L476.691 151.778L475.152 150.472L473.877 147.835L472.41 146.331L470.413 147.317L468.946 145.813L466.3 147.711H463.75L460.912 149.289L462.067 150.472L461.441 152.715C461.441 152.715 459.373 151.778 458.603 151.778C457.833 151.778 457.978 150.078 457.978 150.078L459.638 148.352L457.786 146.454H455.284L454.49 147.268L450.424 147.046L452.084 144.803L454.081 142.781L453.503 140.07L451.579 140.341L449.006 138.765Z" fill="url(#paint12_linear_371_10)"/>
<path d="M665.525 21.2337V21.2583L664.635 22.1949L662.687 23.2301L661.075 24.8816L661.243 27.6669L660.546 28.3817L660.883 30.6249L662.157 32.5476L663.48 35.6781L665.524 36.1217L666.896 34.692L667.93 32.7692L666.801 31.5121L668.484 28.9732L668.195 26.237V22.9833L666.535 21.6276L665.525 21.2337ZM558.461 87.3427L557.764 88.6491L558.509 89.4132L559.376 88.6491L558.461 87.3427ZM576.954 97.375L574.404 98.5828L573.057 100.185L571.614 101.688H571.037L569.93 100.308L566.899 103.414L566.009 104.301L564.277 103.463L564.494 104.425L565.096 105.263L566.371 107.161L568.873 108.073L570.436 106.446H572.529L574.646 105.608L576.546 104.721L577.773 103.463V101.787L578.83 98.8047L576.954 97.375ZM561.705 106.446L560.19 106.939H556.486L555.259 108.171L553.335 109.552L551.94 108.122L548.549 109.182L548.789 111.351L549.655 112.239L550.955 113.545L551.821 114.432L550.547 115.517L548.791 113.964L547.854 114.925L546.579 113.619L543.668 114.211L542.394 113.496L541.816 115.049L542.731 115.986L540.999 116.947V119.215L542.394 120.62L542.033 122.296H543.333L544.944 123.972L544.487 125.87L546.58 126.979L549.37 127.102L550.549 128.286H552.642L555.071 127.546V125.623L553.579 124.193L554.374 123.355L555.601 124.637L557.766 120.644L559.786 118.549L560.676 119.436L562.528 117.514L563.106 115.739L561.013 115.049L559.618 116.454L557.886 115.147L555.769 113.816L553.677 112.288L554.374 110.735L555.481 109.601L556.371 112.658L557.693 114.038L559.978 114.433L561.373 113.841H562.528L563.707 112.658L563.105 110.143H561.253L561.71 107.999V106.446L561.705 106.446ZM537.843 123.75L539.07 125.007L539.815 127.817H541.33V126.264L540.753 124.933L539.718 123.873L537.842 123.75L537.843 123.75ZM569.739 127.324L568.297 128.704L566.949 130.085L565.602 131.44L566.372 133.289L567.647 134.596L566.829 136.518L567.527 137.233L568.584 134.965L571.254 134.374L573.588 133.412L576.739 131.514L575.103 128.409H572.89L569.739 127.324ZM563.581 127.817L562.186 127.916L561.129 128.877L561.946 131.268L563.293 132.648L564.4 130.43V128.63L563.583 127.817L563.581 127.817ZM549.727 139.032L549.03 139.624L550.304 140.216L551.94 141.522L552.637 140.561L551.94 139.501L549.727 139.032ZM762.14 151.653L760.818 152.442V154.931L760.578 157.199L761.925 158.111L762.815 159.269L762.911 161.315L764.691 162.006L764.258 159.96L763.464 158.358L764.258 155.745V152.565L762.142 151.653L762.14 151.653ZM814.867 158.111L813.423 158.457L811.979 159.468L812.749 160.282L813.807 159.222L814.866 158.136V158.112L814.867 158.111ZM808.117 164.273L806 165.185L804.003 164.396L802.44 164.962L803.21 166.663H808.55L810.21 164.962L808.117 164.271V164.273ZM770.015 165.456L769.125 167.428L767.898 168.66V169.326H767.901H773.455L773.359 168.863L773.358 168.857L770.015 165.456ZM557.182 168.217V169.326H561.093H561.103L560.406 168.611L557.182 168.217ZM543.857 168.636L542.775 169.327H542.799H544.532H544.555L543.857 168.636Z" fill="url(#paint13_linear_371_10)"/>
<path d="M762.297 158.588L762.827 159.279L762.923 161.324L764.703 162.015L764.269 159.97L763.595 158.589H762.295L762.297 158.588ZM813.268 158.588L811.993 159.474L812.763 160.288L813.82 159.228L814.445 158.588H813.266H813.268ZM808.126 164.281L806.009 165.193L804.012 164.404L802.449 164.97L803.219 166.671H808.559L810.219 164.97L808.126 164.279L808.126 164.281ZM483.834 171.109L482.56 171.356L480.419 173.574V175.052H482.223L482.8 176.481L484.315 175.767L486.047 173.992V171.108H483.834L483.834 171.109ZM811.677 248.236L811.027 250.282L809.968 251.366L811.17 252.598L811.892 254.15L811.675 256.196L811.579 258.809L812.734 259.992L814.008 259.252V256.516L815.187 255.333L814.225 252.991L812.686 251.414L812.782 249.368L811.675 248.234L811.677 248.236ZM816.463 265.958V267.684L817.57 268.25L818.34 267.216L816.463 265.958ZM826.567 299.186L825.437 299.309V303.845H827L826.568 301.922L826.567 299.186ZM693.692 306.359L691.575 306.802L690.468 308.06V311.362L692.368 310.548L693.355 311.583L694.462 310.449L694.919 308.181L693.692 306.357L693.692 306.359ZM696.916 315.183L696.891 315.211L695.521 316.76V316.958H697.467H697.494L696.916 316.514L696.916 315.183ZM690.373 315.331L690.361 315.343L688.786 316.958H691.511H692.298L691.673 316.637L690.373 315.331ZM825.727 316.415L825.197 316.957H825.822L825.727 316.415Z" fill="url(#paint14_linear_371_10)"/>
<path d="M732.275 0.207985C732.221 0.200886 732.155 0.232595 732.058 0.331231C731.288 1.12001 729.099 1.78555 729.099 1.78555L726.79 5.06387H725.9L722.821 6.24704L721.017 8.09578L719.742 9.91975L719.478 12.2861L718.058 12.1628V13.346L720.127 13.8636L717.674 15.5892L716.904 17.9555L719.213 18.5965L722.821 18.8676L725.9 18.2021V19.7796L722.821 21.5052L721.089 23.2799L718.443 21.234L715.509 22.146L713.44 20.0508L711.66 21.1108L708.821 22.4171L706.512 24.9067L702.158 26.2378L699.849 29.6394L696.65 30.9705L694.004 33.6572L691.454 36.2948L688.688 37.9215L684.839 39.6471L682.843 41.6682L678.489 46.1545L674.568 50.0244L673.558 53.8451L671.369 57.1234L670.599 59.4897L671.369 61.7329H669.565L667.52 62.916L667.256 65.6768L664.946 66.8599L664.321 69.3495V70.8038H666.871L667.641 72.6526L670.864 72.1102L675.218 74.0822L676.637 74.3533L677.407 76.4485L676.757 78.5684L674.183 79.2092L671.369 80.5402L669.325 81.329H666.366L664.442 79.357L666.294 77.4343L663.864 74.9448L662.517 76.3251L661.098 78.9626L662.902 81.5754L662.397 83.1529L663.672 84.4839L662.902 87.639L659.703 90.0054V92.6181L658.019 94.3437H656.095L654.94 96.562V100.9L652.511 103.39V105.239L653.738 106.496H651.236L648.927 108.394L645.704 109.848L640.388 104.401L636.852 104.598L632.618 105.239L630.189 108.27L627.495 111.031L624.295 115.887V119.708L621.721 122.986L619.292 125.5L616.598 125.624L614.144 124.293L610.681 126.264C610.681 126.264 611.45 129.691 611.065 129.296C610.681 128.902 608.636 126.659 608.636 126.659L606.832 128.779H604.018C604.018 128.779 602.317 128.178 603.151 127.324C603.984 126.469 605.075 124.958 605.075 124.958L602.766 123.257L598.917 124.958L596.223 126.264L595.069 129.568L594.516 131.392L595.286 135.607V138.096L593.121 140.216L593.746 135.089L591.316 134.3L589.392 136.272L587.203 137.332L588.117 133.783C588.117 133.783 590.547 132.846 590.547 132.057C590.547 131.268 590.042 130.751 590.042 130.751L586.313 132.451L581.599 134.3L580.541 137.307L576.957 139.156H574.504L572.844 140.857L575.538 142.582L575.923 144.406L573.109 147.044V149.805L574.648 150.865L575.923 147.438L576.813 148.227V151.111L579.002 152.294L580.926 154.266L581.816 154.808L579.891 156.78L577.462 156.632L576.042 158.21L574.96 159.368L574.965 159.37L577.967 160.748V162.72L577.965 162.72V162.73L575.151 161.941L572.721 162.064L569.378 162.853L567.576 166.274L567.809 167.504L568.223 169.657H565.024L562.185 170.445L561.093 169.326H557.182L557.182 168.227V170.593L558.866 172.294V174.143L559.635 176.115L560.91 180.453L560.645 182.942L557.711 181.365L556.556 182.548L553.862 182.056L551.938 180.701L549.436 178.137L546.79 178.211V176.116C546.79 176.116 545.636 174.275 545.636 174.933C545.636 175.591 544.241 176.239 544.241 176.239L542.437 174.39L543.471 173.355L545.131 172.863V169.93L544.532 169.327H542.799L541.403 170.225V167.711L541.397 167.704L539.936 166.207H538.493L538.497 166.196H538.488L539.472 162.975L536.401 161.943L535.512 162.855L532.708 160.645C532.691 160.709 532.629 160.921 532.503 161.15C532.325 161.488 532.005 161.869 531.47 161.869C530.508 161.869 530.628 164.309 530.628 164.309L529.693 165.039L529.634 165.087L529.618 165.098L528.584 163.915L527.549 164.186L527.044 165.764L525 164.309L523.653 162.929L522.041 164.186L520.501 162.608L520.117 164.186L519.917 165.374L519.612 167.193L521.536 170.225L521.921 172.863C521.921 172.863 522.561 175.229 521.921 175.229C521.28 175.229 518.457 175.746 518.457 175.746L515.763 178.113L513.069 179.173L511.529 176.659L511.145 178.113L511 179.173H507.055L504.939 177.004L505.805 176.067L504.843 174.564L500.994 175.747L496.135 176.659L492.912 178.384L489.328 182.057L491.132 183.758H489.328L487.788 181.515V178.902L486.441 177.522L484.83 179.814L484.325 181.391L481.751 180.331L479.952 186.667L482.8 189.279L482.56 195.073L490.867 200.908L494.21 209.891L487.788 217.078L486.885 220.773V223.452L487.667 225.342L486.885 229.281H483.891H482.001L479.952 234.008H476.801L478.219 238.577L480.898 239.995V244.721L483.891 249.605L484.836 259.373L480.898 262.052V265.045H483.891V271.662H485.939L486.885 276.231L490.867 279.382L487.667 283.636L486.885 290.568L489.248 291.829L492.399 290.568L494.21 291.829L495.707 290.568H497.756H501.694L503.567 293.719L501.694 295.452V297.973H506.263L510.517 305.063L509.099 308.371H510.517L515.559 311.207L514.729 316.249L517.735 320.188L519.813 322.393V342.717L524.382 345.711L527.309 340.669L533.587 338.306L536.04 335.943L540.25 342.717L543.13 335.943V332.792L546.911 327.75L544.749 324.757L546.911 323.811L548.597 318.77H553.865L559.83 320.188L560.618 322.393L561.682 323.811L560.618 325.544H564.557L565.502 322.393H567.865L570.534 326.962H571.647L573.493 329.641L576.812 334.682L574.325 337.046L571.647 335.943L568.811 338.306V340.669L570.534 341.457L568.811 344.45L571.647 348.074L574.325 346.971L573.493 353.273L571.647 356.739L568.811 355.479H564.557L566.421 354.219L564.557 352.328L560.618 355.479V359.89L557.569 360.993L552.11 364.459L546.911 362.254L541.285 363.199H540.25H538.47V366.507L536.04 367.295L533.587 366.507L530.684 367.295V370.289H529.089L525.8 372.967V375.96L530.684 377.694L527.309 381.79L530.684 393.921L533.587 395.024L530.684 411.094L521.392 422.123L518.867 425.116L512.723 432.733L511.385 437.09H510.517L508.186 438.255L506.263 435.987H503.567L502.482 431.821L500.416 432.093L496.568 429.37H492.399L487.667 425.116L480.425 422.123L479.165 419.129L472.08 426.061L470.084 429.37L472.08 434.188L473.548 438.255L476.506 440.498H481.51L484.011 443.061L487.667 442.075H490.867L494.21 443.382L496.568 445.822L498.444 449.84L500.416 451.861L503.567 453.241L508.186 453.636L511.385 452.724L514.729 451.935L517.735 448.854H521.392L527.309 447.991L529.089 449.174L533.587 449.84H538.47L540.25 451.664L541.285 453.636L544.749 454.819L548.597 454.302H553.865L557.569 453.118H561.682L566.421 448.263L570.534 446.291L573.493 444.171L575.73 441.879L576.812 438.009L581.431 433.276L584.654 431.821L587.084 432.733L589.778 434.188L593.362 432.093L595.936 430.515L599.399 431.156L604.138 431.55L608.372 429.972L610.873 427.409L612.605 423.268L615.299 422.479V418.806L614.145 417.623L612.22 413.802L613.64 410.13V406.58L614.409 400.936L615.444 398.692L614.409 394.477L612.605 392.653L611.018 391.002L609.021 392.653L607.602 390.805L608.636 388.167L610.056 383.829L612.028 381.808L616.07 379.367L618.138 377.272L622.492 373.969H625.691L628.65 372.934L632.499 373.575L635.577 371.874H638.272L643.395 372.391L644.935 373.969L647.508 375.152L648.543 377.913L651.357 378.702L653.402 380.822L656.361 383.188L657.635 386.343L660.714 386.86C660.714 386.86 663.168 388.823 663.168 389.35C663.168 389.877 665.333 391.199 665.333 391.199L667.209 393.097L668.796 396.326L672.645 397.115L676.494 395.636L677.913 394.231H681.377L685.105 393.664L687.535 394.355L690.494 395.144L691.961 393.641L694.727 394.355L696.387 396.056L698.431 397.905V400.937L700.236 401.554L702.665 403.032H705.118L705.743 400.665L708.053 399.877L710.747 398.299L713.441 396.056L712.431 392.778L714.74 389.746L716.785 386.344L717.554 383.707L720.633 382.006H722.822L723.327 383.707L726.791 387.256V390.14L724.867 392.112L727.441 394.873L728.066 397.757L729.485 400.246L728.979 402.342L730.758 404.857L731.023 407.864L732.298 410.772L731.288 413.533L733.333 416.811L732.178 419.178L730.326 421.076L728.209 420.361L726.14 421.421L724.36 423.245V425.883L722.941 427.337L721.329 428.964L721.401 431.528L723.711 432.317L726.14 434.831L727.295 437.838L731.48 442.127L732.827 445.208V447.846L731.288 451.001L730.373 454.008L731.408 455.068L733.837 455.191V451.79L734.944 450.656L735.642 448.092L735.137 445.874L735.642 442.571V441.264L738.408 444.099V441.659L739.37 439.416L740.333 440.402V442.177L742.185 442.965L744.879 441.388L748.078 440.082H749.762L751.686 436.409L753.346 432.736L755.92 428.398V425.366L756.16 419.056L755.39 414.2L756.16 409.467V398.03L756.929 395.393V390.389L756.16 385.262L755.39 381.466L754.38 377.251L752.961 373.43L753.081 368.574L751.686 363.841L752.456 359.109V353.587L750.459 351.541L748.078 347.795L747.453 345.971L745.649 342.816L743.074 340.178L742.449 337.935L741.15 336.629L737.879 333.276L735.257 329.407L733.597 324.132L733.212 319.152L732.077 316.957L731.913 316.638L730.712 315.408L728.357 315.725L728.355 315.723L726.432 313.753L725.927 312.052H721.429L722.199 310.597L724.316 308.428L722.704 306.777C722.704 306.777 720.916 307.565 720.275 307.565C719.633 307.565 716.69 308.108 716.69 308.108L715.464 306.851L712.697 306.531H709.378L709.376 306.531L706.538 307.171L705.143 308.626L702.834 309.932L703.004 310.254H702.976L704.203 312.571L705.357 314.814L706.584 316.046L706.228 318.646L707.066 318.635L706.152 319.201L706.228 318.646L703.458 318.684L702.544 319.941V321.247L699.97 322.282V320.582L699.73 318.486L696.675 318.536L698.431 317.698L697.467 316.958H695.521V316.76L696.891 315.211V315.183L695.496 316.761V318.733L697.276 319.522V321.642L695.929 323.022L694.39 321.444L693.163 319.251L691.046 318.042L691.511 316.958H688.786L690.361 315.343L690.349 315.33L686.837 318.929H684.72L683.205 320.481H681.257L680.102 317.819L680.983 315.305L681.11 314.938V311.634L683.034 308.356V304.683L684.189 300.197V293.493L682.914 292.063V287.577L683.684 284.299V276.017L685.223 273.379L683.419 271.555L682.264 268.523L682.914 264.308L684.838 262.336L682.794 258.146L683.179 253.808L685.343 249.321L687.532 247.103L689.577 243.554L694.34 238.673H697.274L699.463 237.244L698.694 236.455L697.659 234.729L699.199 233.3H700.738L702.542 231.575L704.539 229.554L703.697 226.719L706.391 227.779L708.05 225.93L706.656 224.501L706.006 221.987L706.656 220.015L708.315 218.314L710.36 217.771L712.164 215.553L715.748 213.827V212.644L718.202 212.25L720.511 211.338L721.473 212.324L719.356 213.038L718.827 214.764V216.465C718.827 216.465 720.559 217.056 719.981 217.648C719.404 218.239 722.435 217.525 722.435 217.525L723.325 215.01V212.25L725.754 211.215L726.139 209.243L725.249 204.633L729.098 203.993V200.443L731.142 199.778L731.287 197.288H729.362L728.255 198.397L726.788 199.778L725.129 200.049L723.325 198.2V195.834L721.208 193.665L720.51 188.464V184.52L718.201 180.847L718.586 177.174L716.277 175.597L716.133 169.804L717.552 168.103L717.554 168.094L718.707 163.765V161.645H718.709V161.636H722.173L723.207 158.481L722.173 155.597L725.757 159.023L726.791 161.242L728.066 162.573L729.99 164.545V161.242L732.299 162.426L733.334 165.063L734.224 162.031L734.172 160.96L733.984 157.027L732.684 153.872V149.682L731.097 148.03L732.299 146.256L733.454 146.379L733.719 144.678H731.145L726.791 140.217L725.251 138.762L726.021 136.667V133.906L728.836 132.329L730.832 130.283L731.674 131.146L729.221 133.512V136.519L731.915 138.245L733.719 140.611L735.186 142.115L736.797 142.706H738.457L740.141 145.984L741.68 147.562V151.654L740.766 154.809L740.91 157.422L742.259 158.586L742.259 158.588L742.288 158.613L742.45 158.753L742.452 158.76L743.989 163.609L745.264 166.887L745.266 166.894L745.288 166.972L746.421 170.985L747.455 175.324L749.884 178.602L751.424 183.458L752.074 187.673L753.348 191.617L751.232 193.786L752.458 195.955L751.544 197.927L750.462 199.036V200.17L752.843 200.688L755.008 203.843L755.393 206.875L757.197 208.699V211.46L759.771 214.22L763.475 218.041L765.159 221.196L768.623 223.563L772.207 225.535L777.715 227.235L780.289 227.802L782.598 229.379L784.018 231.351L788.877 233.964L793.11 235.813L797.609 237.908L799.918 240.274H802.492L804.344 242.197L806.725 243.405H810.429L811.849 245.377V242.765L811.199 239.215L809.924 233.694L809.419 229.479L806.966 227.112L803.647 223.711L801.458 222.773L800.183 218.041L801.193 215.674V213.308L804.031 212.914V211.336L800.303 210.424L799.221 209.29L796.96 208.452L794.41 204.361L793.495 199.11L794.795 196.227L796.96 194.772L798.499 193.712L797.609 191.346L795.035 189.25L790.682 189.768L788.829 187.87L786.448 187.278L783.754 182.669L782.984 179.514L785.558 178.725L786.568 176.235L784.066 173.672H781.95L780.65 175.027L777.331 174.263L774.011 171.897L773.362 168.865L773.359 168.863L773.455 169.326H767.901V169.802L768.864 172.02H765.28L763.163 169.851L759.626 167.953L759.626 167.948L759.624 167.947L759.239 165.063L758.735 161.371L758.734 161.366L752.961 155.45L751.037 152.172L752.456 150.718V147.316H753.996L756.353 144.876L753.996 143.767V141.252L752.577 137.456L754.116 137.308L755.92 139.157L758.35 140.34V138.245L756.161 134.819V132.847L757.195 129.174L755.776 127.72L758.47 123.776L760.154 119.832L763.353 118.772L765.662 119.955L767.851 117.983L766.431 116.554L764.242 114.039L762.968 108.789V104.968L760.538 102.75L759.239 98.6582L758.614 94.4679L757.315 91.3128L756.545 87.6153V82.8827L755.655 78.6924L753.466 75.2661L754.428 74.2801L751.422 72.2342L752.191 71.051H754.885L756.545 67.3783L759.119 66.3429V63.5822L757.267 61.6843L756.305 59.3919L754.236 60.9695L752.841 59.7863L751.157 60.0575L749.81 61.4378H747.573L746.924 62.6456H744.614V60.8216L741.8 60.9695L740.261 61.2407L738.336 61.0928L737.567 62.4238L735.955 64.0506L733.213 64.1245L731.673 65.3077V67.7972L729.99 68.4628L728.715 67.1564L730.759 64.6421H729.365L727.176 65.5541L728.066 63.4589L730.76 62.2758H732.684L734.753 58.8742L734.223 55.8423L733.213 52.0216L731.096 49.8525L729.1 47.8313L727.945 49.0145L727.825 46.5002H725.901L723.062 47.289L721.33 45.5142V43.7395L719.093 43.3451L719.863 42.5563L721.018 42.0387L720.055 41.0527L720.248 39.7956L721.523 40.5844L722.942 41.7675H725.371L727.055 40.4611L728.715 41.7675L730.832 39.5984V36.2461L729.869 34.2741L732.058 30.9958H734.488L736.412 31.7846L739.106 30.8478L740.526 27.6927L743.22 24.6856L746.154 24.4144L747.309 21.0129L745.144 20.3473V19.2627H747.838L746.924 17.1676V15.4668L745.529 17.2908L744.109 17.6852L742.45 15.0476L740.068 12.6321V14.0124L737.062 12.8293L735.642 14.2589L733.333 13.8646L736.292 11.8926V9.13188C736.292 9.13188 737.061 6.76554 736.292 7.55432C735.522 8.3431 733.598 8.3431 733.598 8.3431L734.992 5.33596L733.718 4.0049L732.058 2.57524C732.058 2.57524 732.643 0.258151 732.275 0.207985Z" fill="url(#paint15_linear_371_10)"/>
<path fill-rule="evenodd" clip-rule="evenodd" d="M690.44 310.253V311.362L692.341 310.548L693.327 311.583L694.434 310.448L694.483 310.251H690.441L690.44 310.253ZM825.699 316.415L824.207 317.944L823.75 319.891L824.519 321.715L823.967 324.673L825.411 324.993L826.205 323.194L825.748 320.68L826.085 318.511L825.7 316.415L825.699 316.415ZM822.644 331.599L822.091 332.167L822.524 334.115L823.413 332.734L822.644 331.599ZM823.871 355.83V356.84L825.314 357.654V355.953L823.871 355.83Z" fill="url(#paint16_linear_371_10)"/>
<path d="M733.955 317.598L735.952 317.821L739.295 319.3L743.505 321.223L745.044 323.836L747.498 327.262L753.607 333.523L757.721 339.316L759.597 343.407L761.81 344.098L764.143 345.453L766.356 347.623L768.136 351.148L769.58 353.07L773.91 357.507V359.676L777.253 362.856L779.13 364.779V364.803L780.574 366.603L782.354 365.123L781.031 362.165L779.251 360.366V360.341L778.699 358.073L779.589 355.756H782.403L783.678 354.45C783.678 354.45 784.421 354.821 785.241 355.19C785.251 355.195 785.255 355.185 785.265 355.19L785.358 355.232C786.419 355.711 788.019 356.434 787.237 354.55L785.674 352.504L783.076 350.975L781.584 352.504L779.131 352.38L778.144 350.236H776.244L774.584 348.535H771.697L769.821 347.278L767.584 345.01L766.14 343.532C766.14 343.532 766.042 342.719 765.972 341.88C765.896 340.883 766.319 340.022 765.731 339.12C765.292 338.436 764.601 337.616 764.601 337.616L762.701 334.658V333.278L763.158 331.577L762.701 329.186H764.36L766.477 328.52V328.496L767.584 327.362L768.041 325.883L764.913 324.675L763.157 323.197L760.367 321.471L757.143 319.771L756.624 318.455L750.968 315.59L747.992 312.91L739.923 307.764L738.191 306.014L737.084 302.933L735.762 301.01H734.102L730.975 298.964L730.325 297.14L727.535 296.574L725.996 294.972L725.201 293.148L723.759 292.482L720.896 291.668V293.369L721.546 295.291L722.435 295.069L724.576 295.833L726.043 297.336V298.199L727.535 299.728L727.102 301.995L724.553 301.206V302.907L723.758 305.2L726.885 306.211L728.425 309.169L731.285 312.126L733.955 317.598Z" fill="url(#paint17_linear_371_10)"/>
<defs>
<linearGradient id="paint0_linear_371_10" x1="178.153" y1="293.865" x2="57.9629" y2="293.865" gradientUnits="userSpaceOnUse">
<stop stop-color="#1FA2FF"/>
<stop offset="0.5" stop-color="#12D8FA"/>
<stop offset="1" stop-color="#A6FFCB"/>
</linearGradient>
<linearGradient id="paint1_linear_371_10" x1="28.6493" y1="350.9" x2="5.37438e-07" y2="350.9" gradientUnits="userSpaceOnUse">
<stop stop-color="#1FA2FF"/>
<stop offset="0.5" stop-color="#12D8FA"/>
<stop offset="1" stop-color="#A6FFCB"/>
</linearGradient>
<linearGradient id="paint2_linear_371_10" x1="121.404" y1="379.733" x2="28.9346" y2="379.733" gradientUnits="userSpaceOnUse">
<stop stop-color="#1FA2FF"/>
<stop offset="0.5" stop-color="#12D8FA"/>
<stop offset="1" stop-color="#A6FFCB"/>
</linearGradient>
<linearGradient id="paint3_linear_371_10" x1="84.6171" y1="418.886" x2="37.6611" y2="418.886" gradientUnits="userSpaceOnUse">
<stop stop-color="#1FA2FF"/>
<stop offset="0.5" stop-color="#12D8FA"/>
<stop offset="1" stop-color="#A6FFCB"/>
</linearGradient>
<linearGradient id="paint4_linear_371_10" x1="245.811" y1="342.305" x2="106.865" y2="342.305" gradientUnits="userSpaceOnUse">
<stop stop-color="#1FA2FF"/>
<stop offset="0.5" stop-color="#12D8FA"/>
<stop offset="1" stop-color="#A6FFCB"/>
</linearGradient>
<linearGradient id="paint5_linear_371_10" x1="337.298" y1="218.851" x2="30.1299" y2="218.851" gradientUnits="userSpaceOnUse">
<stop stop-color="#1FA2FF"/>
<stop offset="0.5" stop-color="#12D8FA"/>
<stop offset="1" stop-color="#A6FFCB"/>
</linearGradient>
<linearGradient id="paint6_linear_371_10" x1="337.298" y1="218.851" x2="30.1299" y2="218.851" gradientUnits="userSpaceOnUse">
<stop stop-color="#1FA2FF"/>
<stop offset="0.5" stop-color="#12D8FA"/>
<stop offset="1" stop-color="#A6FFCB"/>
</linearGradient>
<linearGradient id="paint7_linear_371_10" x1="337.298" y1="218.851" x2="30.1299" y2="218.851" gradientUnits="userSpaceOnUse">
<stop stop-color="#1FA2FF"/>
<stop offset="0.5" stop-color="#12D8FA"/>
<stop offset="1" stop-color="#A6FFCB"/>
</linearGradient>
<linearGradient id="paint8_linear_371_10" x1="382.357" y1="292.633" x2="203.256" y2="292.633" gradientUnits="userSpaceOnUse">
<stop stop-color="#1FA2FF"/>
<stop offset="0.5" stop-color="#12D8FA"/>
<stop offset="1" stop-color="#A6FFCB"/>
</linearGradient>
<linearGradient id="paint9_linear_371_10" x1="382.357" y1="292.633" x2="203.256" y2="292.633" gradientUnits="userSpaceOnUse">
<stop stop-color="#1FA2FF"/>
<stop offset="0.5" stop-color="#12D8FA"/>
<stop offset="1" stop-color="#A6FFCB"/>
</linearGradient>
<linearGradient id="paint10_linear_371_10" x1="562.487" y1="274.868" x2="286.447" y2="274.868" gradientUnits="userSpaceOnUse">
<stop stop-color="#1FA2FF"/>
<stop offset="0.5" stop-color="#12D8FA"/>
<stop offset="1" stop-color="#A6FFCB"/>
</linearGradient>
<linearGradient id="paint11_linear_371_10" x1="562.487" y1="274.868" x2="286.447" y2="274.868" gradientUnits="userSpaceOnUse">
<stop stop-color="#1FA2FF"/>
<stop offset="0.5" stop-color="#12D8FA"/>
<stop offset="1" stop-color="#A6FFCB"/>
</linearGradient>
<linearGradient id="paint12_linear_371_10" x1="562.487" y1="274.868" x2="286.447" y2="274.868" gradientUnits="userSpaceOnUse">
<stop stop-color="#1FA2FF"/>
<stop offset="0.5" stop-color="#12D8FA"/>
<stop offset="1" stop-color="#A6FFCB"/>
</linearGradient>
<linearGradient id="paint13_linear_371_10" x1="809.454" y1="227.699" x2="470.084" y2="227.699" gradientUnits="userSpaceOnUse">
<stop stop-color="#1FA2FF"/>
<stop offset="0.5" stop-color="#12D8FA"/>
<stop offset="1" stop-color="#A6FFCB"/>
</linearGradient>
<linearGradient id="paint14_linear_371_10" x1="809.454" y1="227.699" x2="470.084" y2="227.699" gradientUnits="userSpaceOnUse">
<stop stop-color="#1FA2FF"/>
<stop offset="0.5" stop-color="#12D8FA"/>
<stop offset="1" stop-color="#A6FFCB"/>
</linearGradient>
<linearGradient id="paint15_linear_371_10" x1="809.454" y1="227.699" x2="470.084" y2="227.699" gradientUnits="userSpaceOnUse">
<stop stop-color="#1FA2FF"/>
<stop offset="0.5" stop-color="#12D8FA"/>
<stop offset="1" stop-color="#A6FFCB"/>
</linearGradient>
<linearGradient id="paint16_linear_371_10" x1="809.454" y1="227.699" x2="470.084" y2="227.699" gradientUnits="userSpaceOnUse">
<stop stop-color="#1FA2FF"/>
<stop offset="0.5" stop-color="#12D8FA"/>
<stop offset="1" stop-color="#A6FFCB"/>
</linearGradient>
<linearGradient id="paint17_linear_371_10" x1="809.454" y1="227.699" x2="470.084" y2="227.699" gradientUnits="userSpaceOnUse">
<stop stop-color="#1FA2FF"/>
<stop offset="0.5" stop-color="#12D8FA"/>
<stop offset="1" stop-color="#A6FFCB"/>
</linearGradient>
</defs>
</svg>
