<svg width="25" height="25" viewBox="0 0 25 25" fill="none" xmlns="http://www.w3.org/2000/svg">
<path fill-rule="evenodd" clip-rule="evenodd" d="M4.72363 11.2266C4.72363 7.36057 7.85764 4.22656 11.7236 4.22656C15.5896 4.22656 18.7236 7.36057 18.7236 11.2266C18.7236 15.0926 15.5896 18.2266 11.7236 18.2266C7.85764 18.2266 4.72363 15.0926 4.72363 11.2266ZM11.7236 2.22656C6.75307 2.22656 2.72363 6.256 2.72363 11.2266C2.72363 16.1971 6.75307 20.2266 11.7236 20.2266C13.8485 20.2266 15.8014 19.4902 17.341 18.2587L21.0164 21.9341L22.4306 20.5198L18.7553 16.8445C19.9871 15.3048 20.7236 13.3517 20.7236 11.2266C20.7236 6.256 16.6942 2.22656 11.7236 2.22656Z" fill="white"/>
</svg>
