<svg width="121" height="120" viewBox="0 0 121 120" fill="none" xmlns="http://www.w3.org/2000/svg">
<rect x="8.74854" y="8.35156" width="104" height="104" rx="2" stroke="url(#paint0_linear_444_16740)" stroke-width="2"/>
<path fill-rule="evenodd" clip-rule="evenodd" d="M0.980911 59.423C0.980911 76.4185 14.4985 90.1962 31.1733 90.1962C35.3205 90.1962 39.2725 89.3439 42.8697 87.8018C42.8697 87.8018 42.6492 86.018 42.6492 84.8895V33.6198H40.2511V25.2303H47.3818C39.4818 11.6754 31.1733 0 31.1733 0C31.1733 0 0.980911 42.4274 0.980911 59.423ZM15.0731 59.355C15.0731 66.1136 21.8782 72.6547 29.12 72.6547C29.12 72.6547 32.5232 72.4804 32.5232 74.7772C32.5232 77.074 29.12 76.5871 29.12 76.5871C17.6367 75.3727 12.1072 69.0776 10.7606 59.355C10.7606 59.355 10.1504 56.2331 12.8726 56.2331C15.0731 56.2331 15.0731 59.355 15.0731 59.355Z" fill="#3B3B70"/>
<path fill-rule="evenodd" clip-rule="evenodd" d="M65.7499 26.2051L41.2832 26.2051V32.6086H43.6856V83.7818C43.6856 93.7818 47.3845 101.331 53.1598 106.362C58.9046 111.366 66.5881 113.781 74.4357 113.781C83.313 113.781 90.835 111.012 96.1432 105.789C101.455 100.561 104.4 93.024 104.4 83.7818C104.4 81.3284 104.581 79.5973 105.074 78.1862C105.551 76.8226 106.355 75.6601 107.786 74.4239C108.243 74.0296 108.926 73.7064 109.801 73.4713C110.664 73.2394 111.62 73.1175 112.536 73.0637C113.271 73.0206 113.958 73.0226 114.516 73.0407V76.3333H121.004V52.0552H114.516V54.7753C114.238 54.7905 113.927 54.8097 113.585 54.8339C112.117 54.9378 110.09 55.1342 107.857 55.5054C103.477 56.2334 97.9716 57.6825 94.4809 60.6872C90.8101 63.8468 88.5495 67.2612 87.2261 71.1192C85.9145 74.943 85.5501 79.1279 85.5501 83.7818C85.5501 87.4968 84.2417 90.0072 82.313 91.6164C80.3434 93.2597 77.5637 94.0963 74.4357 94.0962C68.3457 94.0962 63.3215 89.9752 63.3215 83.7818V32.6085L65.7499 32.6085V26.2051ZM60.3215 32.6086V54.7175H46.6856V32.6086H60.3215ZM44.2832 29.6086V29.2051L62.7499 29.2051V29.6085L44.2832 29.6086ZM46.6856 57.7175H60.3215V82.2818H46.6856V57.7175ZM46.7161 85.2818H60.3991C61.1093 92.0466 66.6025 96.4256 72.9357 97.0255V110.749C66.2246 110.462 59.8809 108.238 55.1303 104.1C50.3374 99.9248 47.0629 93.7132 46.7161 85.2818ZM75.9357 110.752V97.0397C79.0192 96.8044 81.9525 95.8242 84.2349 93.9199C86.6182 91.9315 88.1645 89.04 88.4872 85.2818H101.372C101.072 93.1584 98.4033 99.3558 94.0391 103.65C89.682 107.938 83.5022 110.459 75.9357 110.752ZM101.424 82.2818H88.5644C88.6412 78.4048 89.0403 75.0766 90.0638 72.0926C91.2053 68.7649 93.1493 65.7916 96.438 62.9609C99.2538 60.5372 104.027 59.183 108.349 58.4648C110.466 58.1129 112.396 57.9255 113.797 57.8264C114.056 57.8081 114.296 57.7928 114.516 57.78V70.0393C113.904 70.0218 113.161 70.0219 112.36 70.0689C111.319 70.1299 110.146 70.2721 109.022 70.5741C107.911 70.8729 106.752 71.3535 105.825 72.1533C104.071 73.6686 102.922 75.2518 102.242 77.1964C101.713 78.7092 101.492 80.3763 101.424 82.2818ZM118.004 55.0552V73.3333H117.516V55.0552H118.004Z" fill="#3B3B70"/>
<defs>
<linearGradient id="paint0_linear_444_16740" x1="8.74854" y1="60.3516" x2="112.749" y2="60.3516" gradientUnits="userSpaceOnUse">
<stop stop-color="#00D2FF"/>
<stop offset="1" stop-color="#3A7BD5"/>
</linearGradient>
</defs>
</svg>
