<svg width="718" height="362" viewBox="0 0 718 362" fill="none" xmlns="http://www.w3.org/2000/svg">
<g clip-path="url(#clip0_772_20197)">
<g clip-path="url(#clip1_772_20197)">
<path d="M199.592 253.335L200.51 232.761H204.641V219.791H207.395V216.66H208.772V213.082H211.984V219.791H215.197V233.749L216.574 209.951H222.541V232.761L223.459 218.896H226.212V211.293H233.556L234.324 147.417H232.719L231.72 209.951H225.295V216.66H223.459V208.162H215.197V218.001H212.902V211.293H207.395V214.871H205.559V218.001L202.805 218.896V230.525H200.51L199.966 149.425L198.689 149.513L199.592 253.335Z" fill="url(#paint0_linear_772_20197)"/>
<path d="M278.535 214.123V225.273L280.371 211.887L258.315 212.485V214.123H278.535Z" fill="url(#paint1_linear_772_20197)"/>
<path d="M258.315 214.123V212.485L250.787 212.69V214.123H258.315Z" fill="url(#paint2_linear_772_20197)"/>
<path d="M244.571 222.474H248.786V214.123H250.787V212.69L247.409 212.781V221.58H245.948L245.404 146.481H244.016L244.571 222.474Z" fill="url(#paint3_linear_772_20197)"/>
<path d="M311.729 234.103V235.832L350.966 235.553V234.103H311.729Z" fill="url(#paint4_linear_772_20197)"/>
<path fill-rule="evenodd" clip-rule="evenodd" d="M11.8734 213.529H1.3125L12.7913 211.74V213.976H16.0041V221.58H19.6759V186.694H27.0194V178.196H45.8372V173.723H56.3935V178.196H69.7036V175.065H95.8649V178.196H105.044V188.035H109.175V213.976H121.108V192.061H127.075V176.407H164.251V173.723H176.185V178.196H181.233V193.402H183.987V206.373H186.282L188.118 93.6641H199.592L199.966 149.425L198.689 149.513L198.215 95.0058H189.495L187.2 235.445V207.267H183.069V195.191H180.315V179.537H175.267V176.407H165.169V178.196V235.445L163.334 178.196H129.37V195.191H123.862V266.305L122.026 215.765H109.175L107.798 264.516V191.166H103.667V179.537H94.029V176.407H71.0805V179.537H57.3114L55.4755 254.229V176.407H47.2141V179.537H28.3963L27.0194 254.229V191.166H21.0528V223.369H16.0041L14.6272 251.993V215.765H11.8734V213.529ZM234.324 147.417L234.933 96.7949H243.653L244.016 146.481H245.404L245.03 95.0058H233.556L232.719 147.417H234.324Z" fill="url(#paint5_linear_772_20197)"/>
<path fill-rule="evenodd" clip-rule="evenodd" d="M15.5445 256.017V271.671H24.2649V256.017H81.6362V267.646H126.615V262.278H140.384V267.646H144.515V248.413H166.087V238.574H187.199V265.857H192.707V254.228H193.625V256.017L192.707 299.848V267.198H187.658L187.199 299.848L186.281 239.468L167.464 239.916L166.087 301.19V250.203H145.892L144.515 302.084L144.056 268.54H140.384V303.873L139.466 263.173H127.074L126.156 303.873V268.54H81.6362L80.7182 306.557V257.359L25.1828 256.911L23.8059 309.688L24.2649 273.013H15.5445L14.6265 311.477V257.359H0.398438L15.5445 256.017Z" fill="url(#paint6_linear_772_20197)"/>
<path d="M200.968 242.599V254.228H193.625V256.017H201.427L201.886 244.388H206.017V298.954L206.935 239.468H210.317V238.574H206.017V242.599H200.968Z" fill="url(#paint7_linear_772_20197)"/>
</g>
<g clip-path="url(#clip2_772_20197)">
<path d="M658.659 296.953H650.668L658.339 297.367V308.953L659.106 297.551L664.348 299.62V307.436L664.668 299.298L658.659 296.953Z" fill="url(#paint8_linear_772_20197)"/>
<path d="M658.02 298.149H650.668L657.572 298.424V299.942L650.668 300.263H658.02V298.149Z" fill="url(#paint9_linear_772_20197)"/>
<path d="M658.02 301.321H650.668L657.572 301.597V303.068L650.668 303.298H658.02V301.321Z" fill="url(#paint10_linear_772_20197)"/>
<path d="M658.02 304.447H650.668L657.572 304.769V306.332L650.668 306.608H658.02V304.447Z" fill="url(#paint11_linear_772_20197)"/>
<path d="M663.837 300.08L659.49 298.424V298.649L663.517 300.263V301.597L659.49 300.263L663.837 301.965V300.08Z" fill="url(#paint12_linear_772_20197)"/>
<path d="M663.837 302.792L659.49 301.321V301.467L663.517 302.93V304.263L659.298 303.298L663.837 304.631V302.792Z" fill="url(#paint13_linear_772_20197)"/>
<path d="M663.837 305.459L659.298 304.447L659.285 304.659L663.517 305.643V306.746L659.298 306.608L663.837 307.068V305.459Z" fill="url(#paint14_linear_772_20197)"/>
<path d="M601.204 281.953H575.668L600.183 283.296V320.882L601.204 283.953L619.386 290.604V315.96L620.407 289.56L601.204 281.953Z" fill="url(#paint15_linear_772_20197)"/>
<path d="M599.161 285.831H575.668L597.731 286.726V291.648L575.668 292.692H599.161V285.831Z" fill="url(#paint16_linear_772_20197)"/>
<path d="M599.161 296.123H575.668L597.731 297.018V301.791L575.668 302.536H599.161V296.123Z" fill="url(#paint17_linear_772_20197)"/>
<path d="M599.161 306.265H575.668L597.731 307.309V312.381L575.668 313.276H599.161V306.265Z" fill="url(#paint18_linear_772_20197)"/>
<path d="M617.752 292.096L603.86 286.726V287.453L616.73 292.692V297.018L603.86 292.692L617.752 298.211V292.096Z" fill="url(#paint19_linear_772_20197)"/>
<path d="M617.752 300.896L603.86 296.123V296.595L616.73 301.343V305.669L603.247 302.536L617.752 306.862V300.896Z" fill="url(#paint20_linear_772_20197)"/>
<path d="M617.752 309.547L603.247 306.265L603.205 306.953L616.73 310.143V313.723L603.247 313.276L617.752 314.767V309.547Z" fill="url(#paint21_linear_772_20197)"/>
<path d="M638.079 290.953H622.668L637.462 291.781V314.953L638.942 292.149L649.052 296.286V311.919L649.668 295.643L638.079 290.953Z" fill="url(#paint22_linear_772_20197)"/>
<path d="M636.846 293.344H622.668L635.983 293.896V296.93L622.668 297.574H636.846V293.344Z" fill="url(#paint23_linear_772_20197)"/>
<path d="M636.846 299.689H622.668L635.983 300.24V303.183L622.668 303.643H636.846V299.689Z" fill="url(#paint24_linear_772_20197)"/>
<path d="M636.846 305.942H622.668L635.983 306.585V309.712L622.668 310.263H636.846V305.942Z" fill="url(#paint25_linear_772_20197)"/>
<path d="M648.065 297.206L639.682 293.896V294.344L647.449 297.574V300.24L639.682 297.574L648.065 300.976V297.206Z" fill="url(#paint26_linear_772_20197)"/>
<path d="M648.065 302.631L639.682 299.689V299.98L647.449 302.907V305.574L639.312 303.643L648.065 306.309V302.631Z" fill="url(#paint27_linear_772_20197)"/>
<path d="M648.065 307.965L639.312 305.942L639.287 306.366L647.449 308.332V310.539L639.312 310.263L648.065 311.183V307.965Z" fill="url(#paint28_linear_772_20197)"/>
<path d="M543.836 260.993V265.896H545.135V262.33L634.68 259.925L635.719 286.453L637.019 259.925L672.108 282.507V305.453L673.668 282.507L635.719 257.993L543.836 260.993Z" fill="url(#paint29_linear_772_20197)"/>
<path d="M621.164 285.71V262.005V261.707H632.6V285.71L631.821 262.45H622.203L621.164 285.71Z" fill="url(#paint30_linear_772_20197)"/>
<path d="M423.492 255.536V248.067L607.872 242.245V257.399L609.432 242.245L625.323 257.399H607.872L454.168 260.993L446.531 255.536H423.492Z" fill="url(#paint31_linear_772_20197)"/>
<path fill-rule="evenodd" clip-rule="evenodd" d="M417.514 237.37V247.176L612.811 241.056V230.953L417.514 237.37ZM611.771 231.399L419.073 238.262V246.73L611.771 240.61V231.399Z" fill="url(#paint32_linear_772_20197)"/>
<path d="M614.37 236.599V242.245H610.991L626.882 257.399H631.821L614.37 236.599Z" fill="url(#paint33_linear_772_20197)"/>
<path d="M525.668 267.953V282.815L526.672 283.416V269.154H563.315L564.319 329.953L565.574 269.154L572.351 272.757L573.606 327.851V272.157L565.072 268.103L525.668 267.953Z" fill="url(#paint34_linear_772_20197)"/>
<path d="M565.574 329.503L566.578 285.517L571.096 287.169V328.452L570.343 288.069L567.331 286.568L565.574 329.503Z" fill="url(#paint35_linear_772_20197)"/>
<path d="M498.488 275.953H454.494L497.041 277.593L498.488 340.953L499.935 277.593L529.168 284.538L531.194 335.586V283.494L498.488 275.953Z" fill="url(#paint36_linear_772_20197)"/>
<path d="M494.726 280.575H454.494L493.857 281.171V288.625L454.494 289.072H494.726V280.575Z" fill="url(#paint37_linear_772_20197)"/>
<path d="M494.726 293.694H454.494L493.857 294.141V301.893H454.494L494.726 302.192V293.694Z" fill="url(#paint38_linear_772_20197)"/>
<path d="M494.726 306.664H454.494L493.857 307.41V314.566L454.494 315.162H494.726V306.664Z" fill="url(#paint39_linear_772_20197)"/>
<path d="M526.853 287.072L501.383 281.171V282.453L525.406 287.52V292.887L501.383 289.072L526.853 293.93V287.072Z" fill="url(#paint40_linear_772_20197)"/>
<path d="M526.853 297.955L501.383 294.141V295.036L525.406 298.403V303.77L501.383 302.192L526.853 304.664V297.955Z" fill="url(#paint41_linear_772_20197)"/>
<path d="M526.853 308.093L501.383 306.664V307.953L525.406 308.54V312.566L501.383 315.162L526.853 313.162V308.093Z" fill="url(#paint42_linear_772_20197)"/>
<path d="M406.898 256.902V270.625L407.715 258.394H444.487V349.08L445.917 258.692L452.454 262.869V347.141L453.476 261.974L445.1 256.902H406.898Z" fill="url(#paint43_linear_772_20197)"/>
<path d="M447.347 348.185L446.734 278.381L451.433 281.065L450.82 347.588L450.411 281.662L447.347 279.425V348.185Z" fill="url(#paint44_linear_772_20197)"/>
<path fill-rule="evenodd" clip-rule="evenodd" d="M373.803 359.968L434.068 349.08L447.347 349.676L397.705 361.758L373.803 359.968ZM434.068 349.975L382.179 359.073L397.705 360.863L447.347 349.676L434.068 349.975Z" fill="url(#paint45_linear_772_20197)"/>
<path d="M434.068 341.026H413.026L431.412 341.44L373.803 350.422L432.842 342.368V346.693L373.803 359.968L434.068 347.588V341.026Z" fill="url(#paint46_linear_772_20197)"/>
<path d="M286.995 286.965L220.345 284.465L285.584 288.011V296.531L220.345 293.964L286.995 297.577V286.965Z" fill="url(#paint47_linear_772_20197)"/>
<path d="M286.995 304.153L220.345 300.464L285.584 305.498V313.719L220.345 308.712L286.995 315.214V304.153Z" fill="url(#paint48_linear_772_20197)"/>
<path d="M286.995 321.491L220.316 316.464L285.584 322.388V331.057L220.345 325.964L286.995 332.103V321.491Z" fill="url(#paint49_linear_772_20197)"/>
<path d="M286.995 247.953L220.345 251.464L285.584 249.298V262.055H220.345L286.995 263.55V247.953Z" fill="url(#paint50_linear_772_20197)"/>
<path d="M286.995 269.464H220.345L285.584 270.361V279.453L220.345 277.964L286.995 280.499V269.464Z" fill="url(#paint51_linear_772_20197)"/>
<path d="M211.112 336.656L290.168 348.378V344.953L211.112 336.656Z" fill="url(#paint52_linear_772_20197)"/>
<path fill-rule="evenodd" clip-rule="evenodd" d="M211.112 336.656L293.464 348.866L311.383 342.751V231.963L293.26 224.953L210.668 234.464L210.89 285.56L212.668 234.953L290.168 227.149V344.953L211.112 336.656ZM293.263 226.743L309.77 231.963V342.005L293.461 347.466L293.263 226.743ZM295.711 342.751L296.528 263.55L307.931 266.831V340.663L307.114 267.577L297.55 265.19L295.711 342.751ZM220.345 284.465L286.995 286.965V297.577L220.345 293.964L285.584 296.531V288.011L220.345 284.465ZM220.345 300.464L286.995 304.153V315.214L220.345 308.712L285.584 313.719V305.498L220.345 300.464ZM220.316 316.464L286.995 321.491V332.103L220.345 325.964L285.584 331.057V322.388L220.316 316.464ZM220.345 251.464L286.995 247.953V263.55L220.345 262.055H285.584V249.298L220.345 251.464ZM220.345 269.464H286.995V280.499L220.345 277.964L285.584 279.453V270.361L220.345 269.464Z" fill="url(#paint53_linear_772_20197)"/>
<path d="M364.019 267.53H312.375L362.608 268.576V277.095L312.375 278.142H364.019V267.53Z" fill="url(#paint54_linear_772_20197)"/>
<path d="M364.019 284.718H312.375L362.608 286.063V294.284L312.375 295.779H364.019V284.718Z" fill="url(#paint55_linear_772_20197)"/>
<path d="M364.019 302.056H312.375L362.608 302.953V311.622L312.375 312.668H364.019V302.056Z" fill="url(#paint56_linear_772_20197)"/>
<path fill-rule="evenodd" clip-rule="evenodd" d="M413.405 273.807L370.227 261.402L311.337 260.953L367.688 263.345V343.458L310.682 336.732L367.688 344.953H370.227L413.405 340.918V273.807ZM412.559 340.17L370.227 343.458V263.345L412.559 274.555V340.17ZM371.921 267.53V269.174L404.939 279.039V286.063L371.921 279.039L406.632 287.409V278.142L371.921 267.53ZM371.921 284.718V286.063L404.939 293.238V300.263L371.921 295.779L406.632 302.056V292.192L371.921 284.718ZM371.921 302.056V303.551L404.939 307.886V313.565H371.921L406.632 314.91V306.391L371.921 302.056Z" fill="url(#paint57_linear_772_20197)"/>
<path d="M350.168 259.78L363.383 4.53284C363.383 4.53284 364.404 0.953242 373.189 0.953125C381.973 0.953008 384.425 4.53284 384.425 4.53284L387.285 264.869L385.855 264.123L385.571 237.811C385.571 237.811 374.902 236.148 368.49 236.17C362.285 236.191 353.577 237.811 353.577 237.811V229.756C353.577 229.756 362.33 228.612 368.49 228.712C374.856 228.816 385.484 230.353 385.484 230.353L385.397 222.895C385.397 222.895 375.13 221.449 368.49 221.553C362.94 221.639 354.394 222.895 354.394 222.895L355.211 215.288C355.211 215.288 363.255 213.998 368.49 213.946C375.127 213.879 385.313 215.721 385.313 215.721L385.224 208.129C385.224 208.129 375.107 206.194 368.49 206.19C363.265 206.186 355.211 207.383 355.211 207.383L356.028 200.373C356.028 200.373 363.563 199.027 368.49 198.881C375.033 198.688 385.134 200.373 385.134 200.373L384.797 171.586C384.797 171.586 374.874 170.552 368.49 170.691C363.92 170.791 356.846 171.586 356.846 171.586L357.458 164.277C357.458 164.277 364.15 163.363 368.49 163.233C374.844 163.043 384.712 164.277 384.712 164.277L384.641 158.162C384.641 158.162 374.867 156.249 368.49 156.372C364.136 156.456 357.458 157.565 357.458 157.565L358.071 150.555C358.071 150.555 364.366 149.396 368.49 149.213C374.792 148.933 384.552 150.555 384.552 150.555L384.479 144.291C384.479 144.291 374.791 142.47 368.49 142.65C364.375 142.768 358.071 143.843 358.071 143.843L358.684 136.684C358.684 136.684 364.576 135.286 368.49 135.043C374.738 134.655 384.39 136.684 384.39 136.684L384.09 111.029C384.09 111.029 374.36 108.464 368.082 109.09C364.606 109.437 359.501 111.029 359.501 111.029L360.114 103.422C360.114 103.422 365.137 102.155 368.49 101.931C374.627 101.521 384.008 104.019 384.008 104.019L383.94 97.6053C383.94 97.6053 374.279 95.5549 368.082 96.1138C364.894 96.4012 360.114 97.6053 360.114 97.6053L360.523 90.4459C360.523 90.4459 365.049 89.2394 368.082 88.9543C374.297 88.3701 383.94 90.7442 383.94 90.7442L383.866 84.9272C383.866 84.9272 374.257 82.7058 368.082 83.2865C365.222 83.5553 360.931 84.6289 360.931 84.6289L361.34 77.7677C361.34 77.7677 365.365 76.5912 368.082 76.2762C374.209 75.5657 383.777 78.066 383.777 78.066L383.296 40.6282C383.296 40.6282 373.811 36.762 368.082 38.2418C365.785 38.8349 362.77 40.6282 362.77 40.6282L363.383 34.0654C363.383 34.0654 366.095 32.6406 368.082 32.1264C373.736 30.6629 383.211 34.0654 383.211 34.0654L383.139 28.3976C383.139 28.3976 373.837 24.9214 368.082 26.1602C366.131 26.5802 363.383 27.801 363.383 27.801L363.791 21.5365C363.791 21.5365 366.314 20.4566 368.082 20.0449C373.702 18.7359 383.05 21.5365 383.05 21.5365L382.995 17.211C382.995 17.211 376.457 12.8855 368.082 14.2279C365.706 14.6085 363.383 17.211 363.383 17.211L351.126 259.78H350.168Z" fill="url(#paint58_linear_772_20197)"/>
<path d="M396.168 266.953L403.151 41.5929C403.151 41.5929 404.733 38.7114 411.76 38.6443C418.787 38.5771 420.8 41.4245 420.8 41.4245L426.1 235.872L425.06 235.872L425.06 228.181C425.06 228.181 416.501 226.932 411.373 226.998C406.409 227.062 399.467 228.426 399.467 228.426L399.352 221.977C399.352 221.977 406.337 220.994 411.266 221.027C416.36 221.062 424.883 222.211 424.883 222.211L424.707 216.241C424.707 216.241 416.473 215.162 411.163 215.295C406.725 215.407 399.907 216.478 399.907 216.478L400.452 210.381C400.452 210.381 406.868 209.287 411.054 209.205C416.363 209.101 424.537 210.498 424.537 210.498L424.357 204.42C424.357 204.42 416.236 202.949 410.943 202.996C406.764 203.033 400.338 204.052 400.338 204.052L400.891 198.434C400.891 198.434 406.899 197.298 410.839 197.144C416.07 196.94 424.174 198.211 424.174 198.211L423.492 175.167C423.492 175.167 415.539 174.415 410.435 174.575C406.78 174.69 401.133 175.38 401.133 175.38L401.518 169.524C401.518 169.524 406.857 168.741 410.328 168.604C415.408 168.403 423.319 169.316 423.319 169.316L423.174 164.421C423.174 164.421 415.329 162.964 410.229 163.111C406.748 163.212 401.422 164.151 401.422 164.151L401.812 158.533C401.812 158.533 406.83 157.557 410.127 157.379C415.164 157.107 422.994 158.331 422.994 158.331L422.846 153.316C422.846 153.316 415.07 151.932 410.033 152.125C406.742 152.25 401.715 153.16 401.715 153.16L402.103 147.423C402.103 147.423 406.796 146.259 409.924 146.035C414.916 145.676 422.666 147.227 422.666 147.227L422.059 126.69C422.059 126.69 414.239 124.71 409.225 125.259C406.45 125.563 402.389 126.877 402.389 126.877L402.77 120.782C402.77 120.782 406.77 119.729 409.449 119.524C414.352 119.15 421.893 121.078 421.893 121.078L421.746 115.943C421.746 115.943 413.988 114.376 409.039 114.87C406.493 115.125 402.687 116.125 402.687 116.125L402.911 110.39C402.911 110.39 406.514 109.39 408.936 109.138C413.9 108.623 421.648 110.45 421.648 110.45L421.505 105.794C421.505 105.794 413.786 104.089 408.855 104.601C406.571 104.838 403.155 105.73 403.155 105.73L403.383 100.234C403.383 100.234 406.586 99.261 408.755 98.988C413.646 98.3724 421.336 100.301 421.336 100.301L420.414 70.3316C420.414 70.3316 412.771 67.3086 408.209 68.5371C406.381 69.0295 403.995 70.4883 403.995 70.4883L404.391 65.2293C404.391 65.2293 406.54 64.0679 408.122 63.6411C412.624 62.4262 420.252 65.078 420.252 65.078L420.113 60.5407C420.113 60.5407 412.623 57.8287 408.036 58.8645C406.482 59.2155 404.301 60.2139 404.301 60.2139L404.538 55.1953C404.538 55.1953 406.54 54.3116 407.949 53.9684C412.426 52.8775 419.944 55.0483 419.944 55.0483L419.837 51.5857C419.837 51.5857 414.546 48.1725 407.865 49.3112C405.971 49.6341 403.383 51.9531 403.383 51.9531L396.668 267.453L396.168 266.953Z" fill="url(#paint59_linear_772_20197)"/>
<path d="M399.907 249.147L399.467 243.628C399.467 243.628 406.626 241.89 411.373 241.838C412.983 241.82 415.557 242.078 417.316 242.285L417.316 247.357L421.402 247.357L421.402 248.401C421.402 248.401 415.29 248 411.373 248.102C406.863 248.221 399.907 249.147 399.907 249.147Z" fill="url(#paint60_linear_772_20197)"/>
<path d="M399.352 261.974L399.352 255.56C399.352 255.56 406.018 254.39 410.377 254.218C414.682 254.047 421.402 254.665 421.402 254.665L421.402 256.455L410.377 256.455L405.671 256.455L405.671 261.085C402.371 261.485 399.352 261.974 399.352 261.974Z" fill="url(#paint61_linear_772_20197)"/>
</g>
<g clip-path="url(#clip3_772_20197)">
<path fill-rule="evenodd" clip-rule="evenodd" d="M55.5289 196.236H44.0547V194.447H56.4469V196.683H59.6597V204.287H63.3314V169.401H70.675V160.903H89.4927V156.43H100.049V160.903H113.359V157.772H139.52V160.903H148.7V170.742H152.831V196.683H164.764V174.768H170.73V159.114H207.907V156.43H219.84V160.903H224.889V176.109H227.643V189.08H229.938L231.773 76.3711H243.248L244.166 213.232H246.461V201.603L249.214 200.709V197.578H251.05V194H256.558V200.709H258.853V190.869H267.114V199.367H268.95V192.658H275.376L277.212 77.7129H288.686L289.604 204.287H291.065V195.488L294.442 195.397V196.83H292.442V205.181H288.227L287.309 79.5019H278.588L277.212 194H269.868V201.603H267.114L266.196 215.468V192.658H260.23L258.853 219.046V202.498H255.64V195.789H252.427V199.367H251.05V202.498H248.296V215.468H244.166L243.248 236.042L241.871 77.7129H233.15L230.856 218.152V189.974H226.725V177.898H223.971V162.244H218.922V159.114H208.825V160.903V218.152L206.989 160.903H173.025V177.898H167.518V249.012L165.682 198.472H152.831L151.454 247.223V173.873H147.323V162.244H137.685V159.114H114.736V162.244H100.967L99.1311 236.936V159.114H90.8696V162.244H72.0519L70.675 236.936V173.873H64.7083V206.076H59.6597L58.2828 234.7V198.472H55.5289V196.236ZM301.97 196.83V195.192L324.027 194.594L322.191 213.232V196.83H301.97ZM346.975 216.81H409.854H411.5V220.835H411.69H418.115V204.287H433.261V220.835H443.359V204.287H458.505L464.93 213.232H469.979V209.206H473.192V211.89H478.699V198.472H497.058V194H498.894V211.89H520.925V201.603H525.055V202.945H533.317V205.181H535.612V210.995H540.66V217.704H543.873L543.414 202.05H554.889V207.417H564.068V216.363H577.378V219.941H583.345V180.582H587.934L588.852 218.599H602.621V211.89H604.916V180.582H609.965L610.424 211.89H632.913V217.257H631.537V213.232H611.801L610.253 230.955H609.878L608.588 181.924H606.293V213.232H603.998V219.941H590.688L589.561 231.47H588.618L587.016 181.924H584.722V230.955H584.573L583.345 222.177H576.46V217.704H563.15V209.206H553.971V202.945H544.791V233.5H544.195L543.414 219.046H538.825V213.232H534.235V207.417H531.94V203.839H525.973H522.302V213.232H500.271L498.917 235H498.269L497.517 199.814H480.076L478.927 235.67L478.482 235.769L477.782 213.232H471.356V236H471.12L469.979 214.126H463.553L457.128 206.523H446.113L443.818 224.86L442.9 221.73H432.343V205.628H419.492L419.033 250.354L417.656 222.177H412.608H411.5L409.854 233.806V220.835V218.152L346.975 218.599V216.81ZM638.421 217.257V211.89H654.026V216.363H652.19V213.232H639.339V217.257H638.421Z" fill="url(#paint62_linear_772_20197)"/>
<path fill-rule="evenodd" clip-rule="evenodd" d="M623.736 244.348L624.453 246.326L625.113 217.701H671.928L672.846 255.718L673.764 227.541H685.238V254.824L687.992 92.5898H700.384L705.892 204.731L702.679 118.083H705.892V114.505H702.679V89.9062H685.697V114.505H682.943V118.083H685.697L685.238 224.857H673.764V216.807H623.736V244.348Z" fill="url(#paint63_linear_772_20197)"/>
</g>
</g>
<defs>
<linearGradient id="paint0_linear_772_20197" x1="1.3125" y1="180.656" x2="610.37" y2="180.656" gradientUnits="userSpaceOnUse">
<stop stop-color="#FFBA5D"/>
<stop offset="1" stop-color="#F46B45"/>
</linearGradient>
<linearGradient id="paint1_linear_772_20197" x1="1.3125" y1="180.656" x2="610.37" y2="180.656" gradientUnits="userSpaceOnUse">
<stop stop-color="#FFBA5D"/>
<stop offset="1" stop-color="#F46B45"/>
</linearGradient>
<linearGradient id="paint2_linear_772_20197" x1="1.3125" y1="180.656" x2="610.37" y2="180.656" gradientUnits="userSpaceOnUse">
<stop stop-color="#FFBA5D"/>
<stop offset="1" stop-color="#F46B45"/>
</linearGradient>
<linearGradient id="paint3_linear_772_20197" x1="1.3125" y1="180.656" x2="610.37" y2="180.656" gradientUnits="userSpaceOnUse">
<stop stop-color="#FFBA5D"/>
<stop offset="1" stop-color="#F46B45"/>
</linearGradient>
<linearGradient id="paint4_linear_772_20197" x1="1.3125" y1="180.656" x2="610.37" y2="180.656" gradientUnits="userSpaceOnUse">
<stop stop-color="#FFBA5D"/>
<stop offset="1" stop-color="#F46B45"/>
</linearGradient>
<linearGradient id="paint5_linear_772_20197" x1="1.3125" y1="180.656" x2="610.37" y2="180.656" gradientUnits="userSpaceOnUse">
<stop stop-color="#FFBA5D"/>
<stop offset="1" stop-color="#F46B45"/>
</linearGradient>
<linearGradient id="paint6_linear_772_20197" x1="0.398438" y1="165" x2="663.61" y2="165" gradientUnits="userSpaceOnUse">
<stop stop-color="#FFBA5D"/>
<stop offset="1" stop-color="#F46B45"/>
</linearGradient>
<linearGradient id="paint7_linear_772_20197" x1="0.398438" y1="165" x2="663.61" y2="165" gradientUnits="userSpaceOnUse">
<stop stop-color="#FFBA5D"/>
<stop offset="1" stop-color="#F46B45"/>
</linearGradient>
<linearGradient id="paint8_linear_772_20197" x1="650.668" y1="302.953" x2="664.668" y2="302.953" gradientUnits="userSpaceOnUse">
<stop stop-color="#FFBA5D"/>
<stop offset="1" stop-color="#F46B45"/>
</linearGradient>
<linearGradient id="paint9_linear_772_20197" x1="650.668" y1="302.953" x2="664.668" y2="302.953" gradientUnits="userSpaceOnUse">
<stop stop-color="#FFBA5D"/>
<stop offset="1" stop-color="#F46B45"/>
</linearGradient>
<linearGradient id="paint10_linear_772_20197" x1="650.668" y1="302.953" x2="664.668" y2="302.953" gradientUnits="userSpaceOnUse">
<stop stop-color="#FFBA5D"/>
<stop offset="1" stop-color="#F46B45"/>
</linearGradient>
<linearGradient id="paint11_linear_772_20197" x1="650.668" y1="302.953" x2="664.668" y2="302.953" gradientUnits="userSpaceOnUse">
<stop stop-color="#FFBA5D"/>
<stop offset="1" stop-color="#F46B45"/>
</linearGradient>
<linearGradient id="paint12_linear_772_20197" x1="650.668" y1="302.953" x2="664.668" y2="302.953" gradientUnits="userSpaceOnUse">
<stop stop-color="#FFBA5D"/>
<stop offset="1" stop-color="#F46B45"/>
</linearGradient>
<linearGradient id="paint13_linear_772_20197" x1="650.668" y1="302.953" x2="664.668" y2="302.953" gradientUnits="userSpaceOnUse">
<stop stop-color="#FFBA5D"/>
<stop offset="1" stop-color="#F46B45"/>
</linearGradient>
<linearGradient id="paint14_linear_772_20197" x1="650.668" y1="302.953" x2="664.668" y2="302.953" gradientUnits="userSpaceOnUse">
<stop stop-color="#FFBA5D"/>
<stop offset="1" stop-color="#F46B45"/>
</linearGradient>
<linearGradient id="paint15_linear_772_20197" x1="575.668" y1="301.418" x2="620.407" y2="301.418" gradientUnits="userSpaceOnUse">
<stop stop-color="#FFBA5D"/>
<stop offset="1" stop-color="#F46B45"/>
</linearGradient>
<linearGradient id="paint16_linear_772_20197" x1="575.668" y1="301.418" x2="620.407" y2="301.418" gradientUnits="userSpaceOnUse">
<stop stop-color="#FFBA5D"/>
<stop offset="1" stop-color="#F46B45"/>
</linearGradient>
<linearGradient id="paint17_linear_772_20197" x1="575.668" y1="301.418" x2="620.407" y2="301.418" gradientUnits="userSpaceOnUse">
<stop stop-color="#FFBA5D"/>
<stop offset="1" stop-color="#F46B45"/>
</linearGradient>
<linearGradient id="paint18_linear_772_20197" x1="575.668" y1="301.418" x2="620.407" y2="301.418" gradientUnits="userSpaceOnUse">
<stop stop-color="#FFBA5D"/>
<stop offset="1" stop-color="#F46B45"/>
</linearGradient>
<linearGradient id="paint19_linear_772_20197" x1="575.668" y1="301.418" x2="620.407" y2="301.418" gradientUnits="userSpaceOnUse">
<stop stop-color="#FFBA5D"/>
<stop offset="1" stop-color="#F46B45"/>
</linearGradient>
<linearGradient id="paint20_linear_772_20197" x1="575.668" y1="301.418" x2="620.407" y2="301.418" gradientUnits="userSpaceOnUse">
<stop stop-color="#FFBA5D"/>
<stop offset="1" stop-color="#F46B45"/>
</linearGradient>
<linearGradient id="paint21_linear_772_20197" x1="575.668" y1="301.418" x2="620.407" y2="301.418" gradientUnits="userSpaceOnUse">
<stop stop-color="#FFBA5D"/>
<stop offset="1" stop-color="#F46B45"/>
</linearGradient>
<linearGradient id="paint22_linear_772_20197" x1="622.668" y1="302.953" x2="649.668" y2="302.953" gradientUnits="userSpaceOnUse">
<stop stop-color="#FFBA5D"/>
<stop offset="1" stop-color="#F46B45"/>
</linearGradient>
<linearGradient id="paint23_linear_772_20197" x1="622.668" y1="302.953" x2="649.668" y2="302.953" gradientUnits="userSpaceOnUse">
<stop stop-color="#FFBA5D"/>
<stop offset="1" stop-color="#F46B45"/>
</linearGradient>
<linearGradient id="paint24_linear_772_20197" x1="622.668" y1="302.953" x2="649.668" y2="302.953" gradientUnits="userSpaceOnUse">
<stop stop-color="#FFBA5D"/>
<stop offset="1" stop-color="#F46B45"/>
</linearGradient>
<linearGradient id="paint25_linear_772_20197" x1="622.668" y1="302.953" x2="649.668" y2="302.953" gradientUnits="userSpaceOnUse">
<stop stop-color="#FFBA5D"/>
<stop offset="1" stop-color="#F46B45"/>
</linearGradient>
<linearGradient id="paint26_linear_772_20197" x1="622.668" y1="302.953" x2="649.668" y2="302.953" gradientUnits="userSpaceOnUse">
<stop stop-color="#FFBA5D"/>
<stop offset="1" stop-color="#F46B45"/>
</linearGradient>
<linearGradient id="paint27_linear_772_20197" x1="622.668" y1="302.953" x2="649.668" y2="302.953" gradientUnits="userSpaceOnUse">
<stop stop-color="#FFBA5D"/>
<stop offset="1" stop-color="#F46B45"/>
</linearGradient>
<linearGradient id="paint28_linear_772_20197" x1="622.668" y1="302.953" x2="649.668" y2="302.953" gradientUnits="userSpaceOnUse">
<stop stop-color="#FFBA5D"/>
<stop offset="1" stop-color="#F46B45"/>
</linearGradient>
<linearGradient id="paint29_linear_772_20197" x1="417.514" y1="268.203" x2="673.668" y2="268.203" gradientUnits="userSpaceOnUse">
<stop stop-color="#FFBA5D"/>
<stop offset="1" stop-color="#F46B45"/>
</linearGradient>
<linearGradient id="paint30_linear_772_20197" x1="417.514" y1="268.203" x2="673.668" y2="268.203" gradientUnits="userSpaceOnUse">
<stop stop-color="#FFBA5D"/>
<stop offset="1" stop-color="#F46B45"/>
</linearGradient>
<linearGradient id="paint31_linear_772_20197" x1="417.514" y1="268.203" x2="673.668" y2="268.203" gradientUnits="userSpaceOnUse">
<stop stop-color="#FFBA5D"/>
<stop offset="1" stop-color="#F46B45"/>
</linearGradient>
<linearGradient id="paint32_linear_772_20197" x1="417.514" y1="268.203" x2="673.668" y2="268.203" gradientUnits="userSpaceOnUse">
<stop stop-color="#FFBA5D"/>
<stop offset="1" stop-color="#F46B45"/>
</linearGradient>
<linearGradient id="paint33_linear_772_20197" x1="417.514" y1="268.203" x2="673.668" y2="268.203" gradientUnits="userSpaceOnUse">
<stop stop-color="#FFBA5D"/>
<stop offset="1" stop-color="#F46B45"/>
</linearGradient>
<linearGradient id="paint34_linear_772_20197" x1="525.668" y1="298.953" x2="573.606" y2="298.953" gradientUnits="userSpaceOnUse">
<stop stop-color="#FFBA5D"/>
<stop offset="1" stop-color="#F46B45"/>
</linearGradient>
<linearGradient id="paint35_linear_772_20197" x1="525.668" y1="298.953" x2="573.606" y2="298.953" gradientUnits="userSpaceOnUse">
<stop stop-color="#FFBA5D"/>
<stop offset="1" stop-color="#F46B45"/>
</linearGradient>
<linearGradient id="paint36_linear_772_20197" x1="454.494" y1="308.453" x2="531.194" y2="308.453" gradientUnits="userSpaceOnUse">
<stop stop-color="#FFBA5D"/>
<stop offset="1" stop-color="#F46B45"/>
</linearGradient>
<linearGradient id="paint37_linear_772_20197" x1="454.494" y1="308.453" x2="531.194" y2="308.453" gradientUnits="userSpaceOnUse">
<stop stop-color="#FFBA5D"/>
<stop offset="1" stop-color="#F46B45"/>
</linearGradient>
<linearGradient id="paint38_linear_772_20197" x1="454.494" y1="308.453" x2="531.194" y2="308.453" gradientUnits="userSpaceOnUse">
<stop stop-color="#FFBA5D"/>
<stop offset="1" stop-color="#F46B45"/>
</linearGradient>
<linearGradient id="paint39_linear_772_20197" x1="454.494" y1="308.453" x2="531.194" y2="308.453" gradientUnits="userSpaceOnUse">
<stop stop-color="#FFBA5D"/>
<stop offset="1" stop-color="#F46B45"/>
</linearGradient>
<linearGradient id="paint40_linear_772_20197" x1="454.494" y1="308.453" x2="531.194" y2="308.453" gradientUnits="userSpaceOnUse">
<stop stop-color="#FFBA5D"/>
<stop offset="1" stop-color="#F46B45"/>
</linearGradient>
<linearGradient id="paint41_linear_772_20197" x1="454.494" y1="308.453" x2="531.194" y2="308.453" gradientUnits="userSpaceOnUse">
<stop stop-color="#FFBA5D"/>
<stop offset="1" stop-color="#F46B45"/>
</linearGradient>
<linearGradient id="paint42_linear_772_20197" x1="454.494" y1="308.453" x2="531.194" y2="308.453" gradientUnits="userSpaceOnUse">
<stop stop-color="#FFBA5D"/>
<stop offset="1" stop-color="#F46B45"/>
</linearGradient>
<linearGradient id="paint43_linear_772_20197" x1="373.803" y1="309.33" x2="453.476" y2="309.33" gradientUnits="userSpaceOnUse">
<stop stop-color="#FFBA5D"/>
<stop offset="1" stop-color="#F46B45"/>
</linearGradient>
<linearGradient id="paint44_linear_772_20197" x1="373.803" y1="309.33" x2="453.476" y2="309.33" gradientUnits="userSpaceOnUse">
<stop stop-color="#FFBA5D"/>
<stop offset="1" stop-color="#F46B45"/>
</linearGradient>
<linearGradient id="paint45_linear_772_20197" x1="373.803" y1="309.33" x2="453.476" y2="309.33" gradientUnits="userSpaceOnUse">
<stop stop-color="#FFBA5D"/>
<stop offset="1" stop-color="#F46B45"/>
</linearGradient>
<linearGradient id="paint46_linear_772_20197" x1="373.803" y1="309.33" x2="453.476" y2="309.33" gradientUnits="userSpaceOnUse">
<stop stop-color="#FFBA5D"/>
<stop offset="1" stop-color="#F46B45"/>
</linearGradient>
<linearGradient id="paint47_linear_772_20197" x1="210.668" y1="286.91" x2="311.383" y2="286.91" gradientUnits="userSpaceOnUse">
<stop stop-color="#FFBA5D"/>
<stop offset="1" stop-color="#F46B45"/>
</linearGradient>
<linearGradient id="paint48_linear_772_20197" x1="210.668" y1="286.91" x2="311.383" y2="286.91" gradientUnits="userSpaceOnUse">
<stop stop-color="#FFBA5D"/>
<stop offset="1" stop-color="#F46B45"/>
</linearGradient>
<linearGradient id="paint49_linear_772_20197" x1="210.668" y1="286.91" x2="311.383" y2="286.91" gradientUnits="userSpaceOnUse">
<stop stop-color="#FFBA5D"/>
<stop offset="1" stop-color="#F46B45"/>
</linearGradient>
<linearGradient id="paint50_linear_772_20197" x1="210.668" y1="286.91" x2="311.383" y2="286.91" gradientUnits="userSpaceOnUse">
<stop stop-color="#FFBA5D"/>
<stop offset="1" stop-color="#F46B45"/>
</linearGradient>
<linearGradient id="paint51_linear_772_20197" x1="210.668" y1="286.91" x2="311.383" y2="286.91" gradientUnits="userSpaceOnUse">
<stop stop-color="#FFBA5D"/>
<stop offset="1" stop-color="#F46B45"/>
</linearGradient>
<linearGradient id="paint52_linear_772_20197" x1="210.668" y1="286.91" x2="311.383" y2="286.91" gradientUnits="userSpaceOnUse">
<stop stop-color="#FFBA5D"/>
<stop offset="1" stop-color="#F46B45"/>
</linearGradient>
<linearGradient id="paint53_linear_772_20197" x1="210.668" y1="286.91" x2="311.383" y2="286.91" gradientUnits="userSpaceOnUse">
<stop stop-color="#FFBA5D"/>
<stop offset="1" stop-color="#F46B45"/>
</linearGradient>
<linearGradient id="paint54_linear_772_20197" x1="310.682" y1="302.953" x2="413.405" y2="302.953" gradientUnits="userSpaceOnUse">
<stop stop-color="#FFBA5D"/>
<stop offset="1" stop-color="#F46B45"/>
</linearGradient>
<linearGradient id="paint55_linear_772_20197" x1="310.682" y1="302.953" x2="413.405" y2="302.953" gradientUnits="userSpaceOnUse">
<stop stop-color="#FFBA5D"/>
<stop offset="1" stop-color="#F46B45"/>
</linearGradient>
<linearGradient id="paint56_linear_772_20197" x1="310.682" y1="302.953" x2="413.405" y2="302.953" gradientUnits="userSpaceOnUse">
<stop stop-color="#FFBA5D"/>
<stop offset="1" stop-color="#F46B45"/>
</linearGradient>
<linearGradient id="paint57_linear_772_20197" x1="310.682" y1="302.953" x2="413.405" y2="302.953" gradientUnits="userSpaceOnUse">
<stop stop-color="#FFBA5D"/>
<stop offset="1" stop-color="#F46B45"/>
</linearGradient>
<linearGradient id="paint58_linear_772_20197" x1="350.168" y1="132.911" x2="387.285" y2="132.911" gradientUnits="userSpaceOnUse">
<stop stop-color="#FFBA5D"/>
<stop offset="1" stop-color="#F46B45"/>
</linearGradient>
<linearGradient id="paint59_linear_772_20197" x1="394.13" y1="153.145" x2="424.61" y2="152.599" gradientUnits="userSpaceOnUse">
<stop stop-color="#FFBA5D"/>
<stop offset="1" stop-color="#F46B45"/>
</linearGradient>
<linearGradient id="paint60_linear_772_20197" x1="394.13" y1="153.145" x2="424.61" y2="152.599" gradientUnits="userSpaceOnUse">
<stop stop-color="#FFBA5D"/>
<stop offset="1" stop-color="#F46B45"/>
</linearGradient>
<linearGradient id="paint61_linear_772_20197" x1="394.13" y1="153.145" x2="424.61" y2="152.599" gradientUnits="userSpaceOnUse">
<stop stop-color="#FFBA5D"/>
<stop offset="1" stop-color="#F46B45"/>
</linearGradient>
<linearGradient id="paint62_linear_772_20197" x1="44.0547" y1="163.363" x2="654.026" y2="163.363" gradientUnits="userSpaceOnUse">
<stop stop-color="#FFBA5D"/>
<stop offset="1" stop-color="#F46B45"/>
</linearGradient>
<linearGradient id="paint63_linear_772_20197" x1="44.0566" y1="192.044" x2="705.892" y2="192.044" gradientUnits="userSpaceOnUse">
<stop stop-color="#FFBA5D"/>
<stop offset="1" stop-color="#F46B45"/>
</linearGradient>
<clipPath id="clip0_772_20197">
<rect width="717" height="360.805" fill="white" transform="translate(0.667969 0.953125)"/>
</clipPath>
<clipPath id="clip1_772_20197">
<rect width="637" height="293" fill="white" transform="translate(0.667969 17.9531)"/>
</clipPath>
<clipPath id="clip2_772_20197">
<rect width="463" height="360.805" fill="white" transform="translate(210.668 0.953125)"/>
</clipPath>
<clipPath id="clip3_772_20197">
<rect width="293" height="293" fill="white" transform="translate(424.668 0.953125)"/>
</clipPath>
</defs>
</svg>
