<svg width="513" height="339" viewBox="0 0 513 339" fill="none" xmlns="http://www.w3.org/2000/svg">
<g clip-path="url(#clip0_357_2)">
<path fill-rule="evenodd" clip-rule="evenodd" d="M0 263.236H8.87543V264.966H11.0055V292.988L12.0706 270.847H15.9758V245.938H20.591V294.718L21.6561 236.943H36.2118V234.522H42.6021V294.718L44.0221 236.943H54.6727V234.522H72.4235V236.943H79.8789V245.938H83.0741V302.675L84.1391 264.966H94.0796L95.4997 304.059V249.052H99.7599V235.905H126.031L127.451 280.188V235.905V234.522H135.262V236.943H139.167V249.052H141.297V258.393H144.492V280.188L146.267 171.557H153.012L154.078 294.026L154.788 278.112H157.983V268.079H160.113V265.658H161.178V262.89H163.663V268.079H166.148V280.88L167.213 260.468H171.828V278.112L172.538 267.387H174.669V261.506H180.349L181.414 172.941H188.159L188.869 270.155H192.129V263.696H193.677V262.587L191.064 262.658V269.463H189.934L189.224 171.557H180.349L178.929 260.468H173.958V265.658H172.538V259.085H166.148V266.696H164.373V261.506H160.113V264.274H158.693V266.696L156.563 267.387V276.382H154.788L154.078 170.52H145.202L143.782 257.701H142.007V247.668H139.877V235.905H135.972V232.446H126.741V234.522H97.9848V246.63H93.3696V263.582H84.1391V243.516H80.9439V235.905H73.8436V233.484H53.6076V235.905H43.3121V232.446H35.1467V235.905H20.591V242.479H14.9107V269.463H12.0706V263.582H9.58547V261.852H0V263.236ZM199.5 262.429V263.696H215.14V276.382L216.561 261.966L199.5 262.429ZM282.949 279.15H234.311V280.534L282.949 280.188V282.264V292.296L284.222 283.302H285.079H288.984L290.049 305.097L290.404 270.501H300.345V282.956H308.51L309.22 285.377L310.995 271.193H319.516L324.486 277.074H329.456L330.521 297.486V276.382H335.491L336.201 299.216L337.266 266.004H350.757L351.467 299.216L352.887 276.382H369.928V269.117H372.768H377.383V271.885H379.158V276.382H382.709V280.88H386.259L387.324 300.599V268.425H394.424V273.269H401.525V279.842H411.82V283.302H417.145L418.21 290.913V252.165H419.985L421.406 296.102L422.826 281.572H433.121V276.382H434.896V252.165H436.671L437.736 292.642L439.156 276.382H454.422V279.496H455.487V275.344H438.091L437.736 251.128H433.831V275.344H432.056V280.534H421.406L420.695 251.128H417.145V281.572H412.53V278.804H402.235V271.885H395.134V267.733H386.259L386.614 279.842H384.129V274.653H380.224V270.155H378.448V268.425H372.058V267.387H368.863V275.344H351.822V261.506H350.402V264.966H336.201V275.344H331.941V273.269H329.456V276.382H325.551L320.581 269.463H308.865V282.264H301.055V269.463H289.339V282.264H284.369H284.222V279.15H282.949ZM459.747 275.344V279.496H460.457V276.382H470.398V278.804H471.818V275.344H459.747Z" fill="url(#paint0_linear_357_2)"/>
<path fill-rule="evenodd" clip-rule="evenodd" d="M114.606 81.568V52.8086L152.901 50.9612L115.288 29.1869L143.984 2.99293L113.655 0H94.3815L66.3268 2.99603L92.5832 29.1479L54.781 50.5821L93.0183 52.7989L92.7688 81.5401L33.1016 98.289L33.357 100.252L92.5989 101.129L92.3916 125.008L75.0613 136.65L75.0531 136.655L55.0871 150.354L92.1654 151.08L92.0155 168.348L67 305.234H69L71.6054 291.135L99.4005 288.182L74 305.234H77.5965L103.246 288.008L112 295.5V292.5L106.607 288.206L128.5 291.103V289.085L106.019 286.11L131.784 268.382L134.655 283H136.693L133.454 266.506L133.453 266.502L114.606 168.348V151.519L149.62 152.204L114.606 125.055V101.454L173.589 102.327L173.906 100.374L114.606 81.568ZM93.2066 31.0936L79.104 39.0898V47.5689L93.0707 46.76L93.2066 31.0936ZM112.606 48.7042H95.0539L95.052 48.9196L112.606 48.9861V48.7042ZM93.052 48.912L93.0533 48.7643L90.6602 48.9029L93.052 48.912ZM62.4487 48.5335L77.104 47.6847V40.2239L62.4487 48.5335ZM94.9977 55.1761L94.9031 66.0778H102.106L94.9977 55.1761ZM101.839 68.0778H94.8857L94.7919 78.8889L101.839 68.0778ZM74.4888 97.6577L89.7244 84.472L74.4888 88.7487V97.6577ZM72.4888 89.3101L66.4792 90.997L72.4888 97.337V89.3101ZM71.1298 98.8106L64.5631 91.8828L57.2084 98.6045L71.1298 98.8106ZM55.6729 97.2984L60.8337 92.5818L55.6729 94.0304V97.2984ZM53.6729 94.5918L40.271 98.3538L53.6729 98.5522V94.5918ZM92.7431 84.5044L76.1273 98.8846L92.6162 99.1286L92.7431 84.5044ZM94.5827 102.999L94.4119 122.678L102.333 112.843L94.5827 102.999ZM103.602 114.455L95.4763 124.545H111.546L103.602 114.455ZM111.473 126.545H95.4842L103.372 136.28L111.473 126.545ZM102.068 137.847L94.3628 128.337L94.1982 147.305L102.068 137.847ZM92.1827 149.08L92.3706 127.432L76.6189 138.013V148.775L92.1827 149.08ZM74.6189 148.736V139.379L61.3589 148.477L74.6189 148.736ZM94.1546 152.324L94.034 166.229L101.954 159.326L94.1546 152.324ZM103.454 160.673L95.6844 167.443H110.995L103.454 160.673ZM111.155 169.443H95.5014L103.409 177.03L111.155 169.443ZM101.552 178.02L93.6641 170.452L92.2569 178.151L101.552 178.02ZM91.8904 180.156L90.0749 190.089L100.338 180.037L91.8904 180.156ZM103.238 179.996L91.0049 191.977L115.799 191.689L103.606 179.991L103.238 179.996ZM106.453 179.951L116.681 189.764L114.775 179.834L106.453 179.951ZM114.392 177.839L112.975 170.461L105.311 177.967L114.392 177.839ZM104.973 159.349L112.606 166.201V152.697L104.973 159.349ZM103.473 158.003L110.995 151.448L95.843 151.152L103.473 158.003ZM114.606 149.519L129.114 149.803V138.835L114.606 127.585V149.519ZM112.606 128.31L104.656 137.864L112.606 147.677V128.31ZM104.889 112.857L112.606 122.658V103.275L104.889 112.857ZM103.62 111.244L111.541 101.409L95.6918 101.174L103.62 111.244ZM114.606 99.4541L130.896 99.6953L114.606 84.5908V99.4541ZM117.561 84.6032L132.487 98.4428V89.3369L117.561 84.6032ZM134.487 89.9711V98.519L141.617 92.2326L134.487 89.9711ZM143.511 93.2297L136.09 99.7721L149.369 99.9687L143.511 93.2297ZM153.003 100.022L166.826 100.227L154.341 96.2676L153.003 100.022ZM152.433 95.6626L146.693 93.8424L151.225 99.0544L152.433 95.6626ZM112.606 78.5194V68.0778H105.798L112.606 78.5194ZM105.529 66.0778H112.606V55.2212L105.529 66.0778ZM145.243 48.8386L132.505 41.4645L132.393 47.9708L145.243 48.8386ZM130.395 47.8358L130.524 40.318L114.606 31.1028V46.7695L130.395 47.8358ZM105.332 38.5018L112.606 45.3818V31.6779L105.332 38.5018ZM114.606 5.76921V27.1017L126.629 16.1269V5.32428L114.606 5.76921ZM128.629 14.3013L138.964 4.86783L128.629 5.25027V14.3013ZM114.606 3.76784L126.871 3.31394L114.606 2.10354V3.76784ZM112.606 2H95.4348V3.80553H112.606V2ZM111.543 5.80553H96.4838L103.972 15.3994L111.543 5.80553ZM105.238 17.0225L112.606 26.4619V7.68692L105.238 17.0225ZM102.696 17.0157L95.4099 7.68018L95.247 26.455L102.696 17.0157ZM95.2017 31.672L95.0828 45.3758L102.416 38.4959L95.2017 31.672ZM103.877 37.125L111.078 30.3685H96.734L103.877 37.125ZM103.963 18.6388L96.2847 28.3685H111.557L103.963 18.6388ZM103.871 39.8727L96.5899 46.7042H111.093L103.871 39.8727ZM93.2423 26.9816L93.4264 5.76595L82.4677 5.32708L82.3737 16.1563L93.2423 26.9816ZM80.3908 14.1812L80.4683 5.24701L71.0418 4.86951L80.3908 14.1812ZM82.183 3.31408L93.4348 3.76468V2.11248L82.183 3.31408ZM118.052 49.0068L114.606 48.774V48.9937L118.052 49.0068ZM111.76 52.8557H95.8723L103.818 65.0414L111.76 52.8557ZM112.031 81.2999L103.818 68.7036L95.6077 81.2999H112.031ZM110.983 83.2999H96.3383L103.572 89.9124L110.983 83.2999ZM102.072 91.2508L94.7428 84.5511L94.627 97.8935L102.072 91.2508ZM103.556 92.6072L96.1876 99.1815L110.987 99.4006L103.556 92.6072ZM112.606 84.5323L105.056 91.2688L112.606 98.1704V84.5323ZM131.114 140.386V149.842L143.625 150.087L131.114 140.386ZM111.475 149.457L103.351 139.432L95.2729 149.14L111.475 149.457ZM115.193 193.696L91.5465 193.971L103.315 202.549L115.193 193.696ZM101.592 203.769L89.2225 194.752L87.5744 203.769H101.592ZM87.2089 205.769L85.3498 215.94L98.9957 205.769H87.2089ZM102.342 205.769L86.9239 217.261H120.102L104.336 205.769H102.342ZM107.731 205.769L121.711 215.959L119.755 205.769H107.731ZM119.371 203.769L117.575 194.415L105.026 203.769H119.371ZM120.769 219.261H86.3277L103.628 236.515L120.769 219.261ZM102.218 237.934L84.5504 220.313L81.3142 238.018H102.135L102.218 237.934ZM100.148 240.018H80.9486L76.6197 263.702L100.148 240.018ZM75.7574 268.42L71.9803 289.084L100.576 286.045L75.7574 268.42ZM130.877 263.692L126.331 240.018H107.14L130.877 263.692ZM104.308 240.018H102.967L77.4591 265.695H130.053L104.308 240.018ZM78.1912 267.695L103.319 285.54L129.254 267.695H78.1912ZM105.044 237.928L105.135 238.018H125.947L122.547 220.309L105.044 237.928Z" fill="url(#paint1_linear_357_2)"/>
<path fill-rule="evenodd" clip-rule="evenodd" d="M235.522 128.945H224.476L208.04 130.694L223.163 145.703L201.208 158.108L223.526 159.397L223.386 175.476L189.377 184.989L189.568 186.461L223.286 186.958L223.17 200.298L213.334 206.883L213.327 206.887L201.439 215.015L223.038 215.436L222.954 225.087L213.451 276.894H214.976L216.948 266.146H227.353L216.637 276.894H218.755L229.471 266.146H230.093L244.461 280.425H233.5V281.925H243.859L233.5 289.027V290.846L245.764 282.438L248.101 294.299L246.5 294.087V295.6L248.407 295.852L248.542 296.533H250.07L247.016 281.033L247.015 281.03L236.235 225.087V215.693L256.63 216.091L236.235 200.333V187.149L269.802 187.645L270.039 186.179L236.235 175.497V159.404L258.588 158.33L236.75 145.733L253.285 130.692L235.522 128.945ZM241.5 293.428L233.5 292.373V293.886L241.5 294.941V293.428ZM235.842 296.432L233.5 294.647V296.533L235.842 296.432ZM215.923 151.517L223.633 147.16L223.559 155.614L215.923 156.055V151.517ZM214.423 152.364V156.142L206.977 156.571L214.423 152.364ZM224.964 166.618L225.011 161.172L228.574 166.618H224.964ZM224.951 168.118H228.421L224.904 173.496L224.951 168.118ZM213.282 184.413L221.095 177.675L213.282 179.86V184.413ZM208.857 181.098L211.782 180.28V184.173L208.857 181.098ZM207.416 181.76L210.758 185.273L203.673 185.169L207.416 181.76ZM204.612 182.285L202.516 184.193V182.871L204.612 182.285ZM194.771 185.038L201.016 183.291V185.13L194.771 185.038ZM223.367 177.696L214.516 185.329L223.3 185.458L223.367 177.696ZM224.685 198.557L224.774 188.355L228.806 193.458L224.685 198.557ZM225.487 199.951L229.76 194.665L233.937 199.951H225.487ZM225.493 201.451H233.882L229.632 206.541L225.493 201.451ZM224.649 202.79L228.652 207.714L224.563 212.611L224.649 202.79ZM223.154 202.114L223.051 213.936L214.501 213.769V207.907L223.154 202.114ZM213.001 208.927V213.74L206.156 213.607L213.001 208.927ZM224.468 223.502L224.53 216.365L228.548 219.959L224.468 223.502ZM225.711 224.409L229.675 220.967L233.522 224.409H225.711ZM225.574 225.909H233.643L229.65 229.806L225.574 225.909ZM224.191 226.662L228.148 230.445L223.485 230.511L224.191 226.662ZM222.298 236.98L223.209 232.015L227.447 231.955L222.298 236.98ZM223 238.391L229.626 231.924L229.694 231.924L236.298 238.237L223 238.391ZM236.964 236.799L231.833 231.893L236.008 231.835L236.964 236.799ZM235.012 226.668L235.719 230.339L231.186 230.402L235.012 226.668ZM230.816 219.976L234.735 223.482V216.573L230.816 219.976ZM229.69 218.968L233.521 215.64L225.802 215.49L229.69 218.968ZM244.18 214.348L236.235 214.193V202.229L244.18 208.367V214.348ZM230.596 207.727L234.735 202.77V212.817L230.596 207.727ZM230.727 193.469L234.735 198.542V188.509L230.727 193.469ZM229.773 192.262L233.933 187.115L225.61 186.993L229.773 192.262ZM244.912 185.777L236.235 185.649V177.761L244.912 185.777ZM246.11 184.842L238.459 177.773L246.11 180.191V184.842ZM247.61 184.899V180.665L251.155 181.785L247.61 184.899ZM248.817 185.835L252.579 182.531L255.548 185.934L248.817 185.835ZM264.712 186.069L258.278 185.974L258.901 184.233L264.712 186.069ZM254.971 182.991L257.47 183.78L256.944 185.252L254.971 182.991ZM234.735 168.118V173.293L231.348 168.118H234.735ZM234.735 166.618H231.195L234.735 161.206V166.618ZM246.471 153.072L252.826 156.738L246.415 156.306L246.471 153.072ZM244.985 152.215L244.916 156.206L236.235 155.621V147.167L244.985 152.215ZM234.735 147.597V154.585L231.013 151.077L234.735 147.597ZM233.585 146.619L229.919 150.046L226.283 146.619H233.585ZM233.945 145.119H225.945L229.967 140.04L233.945 145.119ZM234.735 143.695L230.925 138.831L234.735 134.02V143.695ZM242.758 132.347L236.235 132.588V144.173L242.758 138.239V132.347ZM249.51 132.098L244.258 136.875V132.292L249.51 132.098ZM236.235 131.087L240.407 130.933L236.235 130.523V131.087ZM225.266 130.445H234.735V131.115H225.266V130.445ZM229.974 137.616L233.934 132.615H226.056L229.974 137.616ZM219.973 130.933L223.766 131.084V130.529L219.973 130.933ZM216.346 132.289L211.585 132.1L216.307 136.785L216.346 132.289ZM223.66 144.083L217.794 138.261L217.845 132.349L223.76 132.585L223.66 144.083ZM229.016 138.826L225.248 134.015L225.163 143.69L229.016 138.826ZM228.821 151.072L225.129 147.592L225.068 154.58L228.821 151.072ZM229.885 165.881L225.67 159.439H234.098L229.885 165.881ZM229.915 152.103L233.596 155.573H226.204L229.915 152.103ZM234.253 175.296L229.885 168.621L225.518 175.296H234.253ZM226.069 176.796H233.513L229.746 180.146L226.069 176.796ZM224.867 177.731L228.618 181.148L224.808 184.536L224.867 177.731ZM229.733 182.164L225.983 185.498L233.516 185.609L229.733 182.164ZM234.735 177.717L230.861 181.161L234.735 184.691V177.717ZM245.68 214.377V209.526L252.121 214.503L245.68 214.377ZM229.616 208.9L233.883 214.147L225.373 213.981L229.616 208.9ZM223.408 239.887L235.842 239.742L229.596 244.381L223.408 239.887ZM221.658 240.47L228.059 245.119H220.805L221.658 240.47ZM219.575 251.824L220.53 246.619H226.583L219.575 251.824ZM220.762 252.811L229.099 246.619H230.124L238.649 252.811H220.762ZM239.862 251.838L232.676 246.619H238.857L239.862 251.838ZM237.635 240.279L238.567 245.119H231.118L237.635 240.279ZM220.313 254.311H239.151L229.776 263.716L220.313 254.311ZM218.975 255.097L228.583 264.646H217.223L218.975 255.097ZM245.082 278.928L232.221 266.146H242.619L245.082 278.928ZM240.49 255.094L242.33 264.646H230.967L240.49 255.094Z" fill="url(#paint2_linear_357_2)"/>
<path fill-rule="evenodd" clip-rule="evenodd" d="M302.183 165.176H311.067L325.136 166.557L311.886 178.588L329.291 188.612L311.542 189.464V202.576L338.838 211.187L338.68 212.164L311.542 211.764V222.519L327.76 235.029L311.542 234.713V242.381L320.226 287.368L320.226 287.371L323.981 305.306L323 305.5L321.537 299.173L316.207 298.472V297.463L321.332 298.138L319.392 288.306L316.187 290.5L316 289.416L318.12 287.965H316V286.965H318.521L306.743 275.279H306.156L294.486 286.965H297V287.965H294.855L296.908 289.416V290.641L293.631 288.325L291.912 297.681L296.211 297.227V298.232L291.723 298.707L290.5 305.5H289.5L301.055 242.381L301.124 234.51L283.95 234.176L293.258 227.823L293.262 227.82L301.229 222.496L301.324 211.614L274.067 211.212L273.939 210.231L301.403 202.562L301.517 189.459L283.796 188.437L301.289 178.569L289.168 166.558L302.183 165.176ZM301.604 179.54L295.185 183.16V186.978L301.542 186.612L301.604 179.54ZM302.533 187.584H310.542V187.63L302.533 187.6L302.533 187.584ZM294.185 187.036V183.725L287.647 187.412L294.185 187.036ZM302.507 190.64L302.465 195.465H305.669L302.507 190.64ZM305.546 196.465H302.456L302.414 201.244L305.546 196.465ZM299.873 204.027L293.058 209.894V205.93L299.873 204.027ZM292.058 206.209L289.405 206.95L292.058 209.735V206.209ZM291.375 210.467L288.444 207.391L285.161 210.376L291.375 210.467ZM284.389 209.727L286.572 207.742L284.389 208.351V209.727ZM283.389 208.63L277.541 210.264L283.389 210.35V208.63ZM293.883 210.504L301.39 204.041L301.332 210.614L293.883 210.504ZM302.316 212.543L302.239 221.337L305.797 216.942L302.316 212.543ZM306.433 217.746L302.775 222.265H310.009L306.433 217.746ZM309.972 223.265H302.779L306.328 227.622L309.972 223.265ZM305.674 228.404L302.214 224.155L302.14 232.628L305.674 228.404ZM301.133 233.51L301.218 223.706L294.04 228.503V233.372L301.133 233.51ZM293.04 233.353V229.182L287.099 233.237L293.04 233.353ZM302.119 235.128L302.065 241.325L305.613 238.249L302.119 235.128ZM306.364 238.921L302.895 241.929H309.732L306.364 238.921ZM309.813 242.929H302.803L306.344 246.308L309.813 242.929ZM305.388 246.778L301.879 243.429L301.254 246.836L305.388 246.778ZM301.069 247.839L300.262 252.234L304.827 247.786L301.069 247.839ZM306.281 247.766L300.731 253.173L311.952 253.043L306.42 247.764L306.281 247.766ZM307.848 247.744L312.397 252.086L311.549 247.692L307.848 247.744ZM311.357 246.694L310.727 243.434L307.323 246.751L311.357 246.694ZM310.542 241.312L307.126 238.26L310.542 235.299V241.312ZM309.732 234.678L306.374 237.589L302.968 234.546L309.732 234.678ZM311.542 233.713L318.149 233.842V228.878L311.542 223.782V233.713ZM310.542 224.142L306.971 228.412L310.542 232.798V224.142ZM310.542 221.327L307.078 216.949L310.542 212.669V221.327ZM310.007 211.742L306.442 216.145L302.874 211.637L310.007 211.742ZM311.542 210.764L318.903 210.873L311.542 204.084V210.764ZM313.027 204.093L319.703 210.25V206.199L313.027 204.093ZM320.703 206.514V210.288L323.867 207.513L320.703 206.514ZM324.818 208.009L321.509 210.911L327.43 210.998L324.818 208.009ZM329.252 211.025L335.281 211.114L329.835 209.396L329.252 211.025ZM328.881 209.094L326.414 208.316L328.362 210.545L328.881 209.094ZM310.542 201.076V196.465H307.52L310.542 201.076ZM307.396 195.465H310.542V190.663L307.396 195.465ZM325.445 187.551L319.788 184.293L319.739 187.167L325.445 187.551ZM318.74 187.1L318.798 183.723L311.542 179.544V186.617L318.74 187.1ZM310.542 185.927V179.83L307.29 182.866L310.542 185.927ZM306.56 182.179L309.774 179.179H303.372L306.56 182.179ZM303.146 178.179H310.015L306.599 173.826L303.146 178.179ZM307.238 173.02L310.542 177.232V168.855L307.238 173.02ZM311.542 167.902L317.004 167.701V172.591L311.542 177.55V167.902ZM318.004 171.682L322.616 167.494L318.004 167.664V171.682ZM316.537 166.718L311.542 166.901V166.227L316.537 166.718ZM310.542 166.176H302.709V166.92H310.542V166.176ZM310.008 167.92L306.604 172.211L303.237 167.92H310.008ZM301.709 166.9L297.136 166.718L301.709 166.232V166.9ZM291.534 167.495L295.734 167.663L295.7 171.623L291.534 167.495ZM296.691 172.605L301.621 177.49L301.705 167.9L296.734 167.702L296.691 172.605ZM302.697 168.852L305.965 173.017L302.624 177.229L302.697 168.852ZM302.601 179.827L305.827 182.863L302.548 185.924L302.601 179.827ZM306.557 183.55L309.782 186.584H303.306L306.557 183.55ZM311.542 187.619L311.777 187.635L311.542 187.634V187.619ZM302.947 189.487H310.117L306.533 194.958L302.947 189.487ZM306.533 196.783L310.242 202.442H302.825L306.533 196.783ZM309.726 203.442H303.192L306.42 206.377L309.726 203.442ZM305.667 207.045L302.39 204.064L302.338 210L305.667 207.045ZM303.123 210.64L306.412 207.721L309.728 210.738L303.123 210.64ZM307.164 207.054L310.542 204.054V210.126L307.164 207.054ZM319.149 229.649V233.861L324.75 233.97L319.149 229.649ZM309.973 233.682L306.317 229.193L302.681 233.541L309.973 233.682ZM311.647 254.047L301.003 254.17L306.301 258.012L311.647 254.047ZM305.38 258.579L299.835 254.558L299.096 258.579H305.38ZM298.912 259.579L298.08 264.107L304.186 259.579H298.912ZM305.865 259.579L298.873 264.764H313.909L306.759 259.579H305.865ZM308.463 259.579L314.719 264.117L313.844 259.579H308.463ZM313.651 258.579L312.845 254.404L307.214 258.579H313.651ZM314.244 265.764H298.573L306.445 273.574L314.244 265.764ZM305.735 274.279L297.68 266.286L296.211 274.279H305.735ZM296.028 275.279L294.063 285.974L304.743 275.279H296.028ZM308.163 275.279L318.937 285.969L316.874 275.279H308.163ZM316.681 274.279L315.138 266.284L307.155 274.279L316.681 274.279Z" fill="url(#paint3_linear_357_2)"/>
<path fill-rule="evenodd" clip-rule="evenodd" d="M355.917 205.305H362.277L372.657 206.32L363.099 214.965L375.787 222.243L362.753 222.866V231.951L382.149 238.046L381.992 239.023L362.753 238.74V246.174L374.629 255.298L362.753 255.068V260.362L368.953 292.354L368.953 292.356L370.939 302.377H369.92L369.629 300.91L360.671 299.736L364.32 302.5L362.502 302.377L358.846 299.608L354.671 302.386L352.8 302.43L356.895 299.705L348.575 300.581L348.22 302.5H347.204L354.977 260.362L355.024 254.918L342.446 254.674L349.47 249.899L349.474 249.896L355.101 246.151L355.167 238.629L335.84 238.346L335.713 237.364L355.226 231.937L355.305 222.861L342.291 222.114L355.05 214.945L346.311 206.321L355.917 205.305ZM355.366 215.915L351.069 218.329V220.807L355.325 220.563L355.366 215.915ZM350.069 220.865V218.891L346.155 221.089L350.069 220.865ZM356.295 224.037L356.27 226.853H358.148L356.295 224.037ZM358.06 227.853H356.261L356.237 230.625L358.06 227.853ZM353.69 233.402L349.55 236.952V234.553L353.69 233.402ZM348.55 234.831L347.068 235.244L348.55 236.793V234.831ZM347.863 237.522L346.104 235.683L344.134 237.467L347.863 237.522ZM343.357 236.821L344.227 236.034L343.357 236.276V236.821ZM342.357 236.554L339.327 237.397L342.357 237.441V236.554ZM350.378 237.559L355.213 233.413L355.176 237.629L350.378 237.559ZM356.159 239.554L356.111 244.997L358.322 242.277L356.159 239.554ZM358.959 243.078L356.649 245.92H361.217L358.959 243.078ZM361.18 246.92H356.653L358.887 249.651L361.18 246.92ZM358.232 250.431L356.087 247.807L356.041 253.04L358.232 250.431ZM355.033 253.918L355.09 247.359L350.251 250.58V253.825L355.033 253.918ZM349.251 253.806V251.257L345.606 253.735L349.251 253.806ZM356.019 255.533L355.986 259.309L358.157 257.435L356.019 255.533ZM358.91 258.105L356.82 259.91H360.939L358.91 258.105ZM361.02 260.91H356.728L358.896 262.971L361.02 260.91ZM357.859 263.365L355.8 261.408L355.433 263.399L357.859 263.365ZM355.248 264.402L354.774 266.971L357.453 264.371L355.248 264.402ZM358.903 264.358L355.247 267.906L362.547 267.822L358.903 264.358ZM362.241 268.825L355.521 268.903L358.865 271.318L362.241 268.825ZM357.763 271.756L354.347 269.288L353.892 271.756H357.763ZM353.707 272.756L353.201 275.502L356.918 272.756H353.707ZM358.602 272.756L353.998 276.156H363.855L359.148 272.756H358.602ZM360.856 272.756L364.67 275.511L364.136 272.756H360.856ZM363.942 271.756L363.443 269.18L359.955 271.756H363.942ZM362.995 266.868L362.498 264.3L360.326 264.331L362.995 266.868ZM359.956 263.336L362.304 263.303L361.938 261.412L359.956 263.336ZM361.753 259.296L359.674 257.446L361.753 255.651V259.296ZM360.938 255.033L358.92 256.776L356.872 254.954L360.938 255.033ZM362.753 254.068L367.186 254.154V250.841L362.753 247.435V254.068ZM361.753 247.793L359.531 250.439L361.753 253.157V247.793ZM361.753 244.987L359.605 242.284L361.753 239.641V244.987ZM361.215 238.718L358.968 241.482L356.719 238.652L361.215 238.718ZM362.753 237.74L367.492 237.81L362.753 233.456V237.74ZM364.243 233.467L368.296 237.191V234.741L364.243 233.467ZM369.296 235.055V237.228L371.126 235.63L369.296 235.055ZM372.079 236.125L370.107 237.848L373.637 237.9L372.079 236.125ZM375.462 237.927L378.58 237.972L375.764 237.087L375.462 237.927ZM374.809 236.787L373.679 236.432L374.571 237.449L374.809 236.787ZM361.753 230.512V227.853H360.003L361.753 230.512ZM359.915 226.853H361.753V224.059L359.915 226.853ZM371.927 221.182L368.639 219.295L368.61 220.96L371.927 221.182ZM367.611 220.893L367.648 218.727L362.753 215.919V220.568L367.611 220.893ZM361.753 219.882L359.783 218.035L361.753 216.203V219.882ZM362.753 213.93V207.528L366.368 207.395V210.66L362.753 213.93ZM367.368 209.755L370.13 207.257L367.368 207.358V209.755ZM364.025 206.48L362.753 206.527V206.356L364.025 206.48ZM361.753 206.305H356.444V206.546H361.753V206.305ZM361.216 207.546H356.974L359.083 210.223L361.216 207.546ZM358.443 211.027L356.431 208.473L356.386 213.61L358.443 211.027ZM356.363 216.201L356.331 219.879L358.317 218.032L356.363 216.201ZM359.052 217.35L360.981 215.556H357.138L359.052 217.35ZM356.911 214.556L359.079 211.834L361.223 214.556H356.911ZM361.753 213.613L359.719 211.03L361.753 208.476V213.613ZM359.049 218.717L357.093 220.535H360.988L359.049 218.717ZM356.737 222.889H361.326L359.032 226.377L356.737 222.889ZM355.384 213.87L355.439 207.526L352.174 207.397L352.146 210.674L355.384 213.87ZM351.154 209.696L351.175 207.357L348.684 207.258L351.154 209.696ZM354.309 206.48L355.444 206.525V206.36L354.309 206.48ZM359.032 228.196L361.415 231.818H356.65L359.032 228.196ZM360.933 232.818H357.019L358.952 234.569L360.933 232.818ZM358.198 235.235L356.212 233.436L356.181 237.018L358.198 235.235ZM356.97 237.656L358.944 235.91L360.935 237.714L356.97 237.656ZM359.698 235.244L361.753 233.427V237.106L359.698 235.244ZM368.186 251.609V254.173L371.61 254.239L368.186 251.609ZM361.181 254.037L358.876 251.219L356.584 253.948L361.181 254.037ZM364.192 277.156H353.697L358.969 282.366L364.192 277.156ZM358.112 282.925L352.8 277.676L351.831 282.925H358.112ZM351.647 283.925L350.348 290.964L357.405 283.925H351.647ZM358.821 283.925L350.775 291.951H367.245L359.124 283.925H358.821ZM360.546 283.925L367.664 290.959L366.301 283.925H360.546ZM366.107 282.925L365.089 277.674L359.824 282.925H366.107ZM366.841 292.951H351.145L358.869 298.386L366.841 292.951ZM357.487 298.637L349.916 293.309L348.764 299.555L357.487 298.637ZM360.229 298.669L369.424 299.875L368.119 293.29L360.229 298.669Z" fill="url(#paint4_linear_357_2)"/>
<path fill-rule="evenodd" clip-rule="evenodd" d="M469.263 242.918H465.355L459.559 243.517L464.907 248.676L457.149 252.936L465.033 253.378L464.984 258.921L452.936 262.196L452.998 262.687L464.949 262.859L464.907 267.458L461.421 269.725L461.419 269.727L457.229 272.51L464.861 272.655L464.831 275.983L464.167 279.5H464.676L464.891 278.358L466.431 278.337L465.242 279.465L465.987 279.447L467.169 278.327L467.209 278.326L468.387 279.42L469.207 279.5L467.933 278.316L469.45 278.296L469.673 279.42L470.188 279.447L469.501 275.983V272.743L476.707 272.88L469.501 267.469V262.924L481.399 263.094L481.476 262.606L469.501 258.928V253.381L477.397 253.012L469.68 248.686L475.528 243.517L469.263 242.918ZM462.311 250.672L465.071 249.156L465.045 252.091L462.311 252.245V250.672ZM461.811 250.946V252.273L459.121 252.424L461.811 250.946ZM465.511 255.877L465.528 253.95L466.826 255.877H465.511ZM465.507 256.377H466.772L465.49 258.283L465.507 256.377ZM461.376 262.018L464.199 259.653L461.376 260.42V262.018ZM459.805 260.847L460.876 260.556V261.941L459.805 260.847ZM459.316 261.062L460.523 262.295L457.964 262.259L459.316 261.062ZM458.362 261.239L457.565 261.944V261.456L458.362 261.239ZM454.78 262.213L457.065 261.592V262.246L454.78 262.213ZM464.977 259.653L461.802 262.314L464.953 262.359L464.977 259.653ZM465.412 266.895L465.445 263.308L466.903 265.102L465.412 266.895ZM465.689 267.344L467.225 265.498L468.726 267.344H465.689ZM465.691 267.844H468.707L467.179 269.622L465.691 267.844ZM465.4 268.275L466.849 270.006L465.369 271.728L465.4 268.275ZM464.902 268.058L464.865 272.155L461.807 272.097V270.07L464.902 268.058ZM461.307 270.401V272.088L458.839 272.041L461.307 270.401ZM465.336 275.465L465.358 272.954L466.813 274.219L465.336 275.465ZM465.765 275.757L467.195 274.551L468.582 275.757H465.765ZM465.717 276.257H468.624L467.186 277.622L465.717 276.257ZM465.242 276.499L466.679 277.834L464.986 277.857L465.242 276.499ZM469.094 276.501L469.351 277.797L467.704 277.82L469.094 276.501ZM467.581 274.224L469.001 275.459V273.026L467.581 274.224ZM467.199 273.892L468.582 272.726L465.796 272.673L467.199 273.892ZM472.344 272.297L469.501 272.243V268.094L472.344 270.229V272.297ZM467.504 270.011L469.001 268.269V271.8L467.504 270.011ZM467.55 265.106L469.001 266.89V263.362L467.55 265.106ZM467.229 264.711L468.724 262.913L465.732 262.87L467.229 264.711ZM472.614 262.469L469.501 262.424V259.673L472.614 262.469ZM473.028 262.168L470.262 259.685L473.028 260.534V262.168ZM473.528 262.186V260.688L474.818 261.084L473.528 262.186ZM473.944 262.488L475.304 261.327L476.377 262.522L473.944 262.488ZM479.655 262.569L477.301 262.536L477.529 261.916L479.655 262.569ZM476.115 261.482L477.05 261.769L476.853 262.305L476.115 261.482ZM469.001 256.377V258.212L467.766 256.377H469.001ZM469.001 255.877H467.711L469.001 253.961V255.877ZM473.125 251.19L475.428 252.481L473.104 252.329L473.125 251.19ZM472.629 250.912L472.605 252.297L469.501 252.094V249.158L472.629 250.912ZM467.651 250.523L469.001 251.76V249.297L467.651 250.523ZM469.501 244.156V248.177L471.841 246.109V244.072L469.501 244.156ZM474.243 243.986L472.341 245.667V244.054L474.243 243.986ZM469.501 243.655L471.116 243.597L469.501 243.443V243.655ZM465.618 243.418H469.001V243.664H465.618V243.418ZM465.891 244.164H468.725L467.3 245.913L465.891 244.164ZM469.001 248.023L467.621 246.311L469.001 244.617V248.023ZM465.612 244.615L466.977 246.309L465.582 248.021L465.612 244.615ZM465.548 251.758L465.57 249.295L466.909 250.522L465.548 251.758ZM468.604 248.982L467.281 250.184L465.968 248.982H468.604ZM467.298 246.707L465.851 248.482H468.728L467.298 246.707ZM465.94 252.078L467.279 250.861L468.608 252.078H465.94ZM468.781 253.392H465.755L467.269 255.639L468.781 253.392ZM465.116 244.155L465.08 248.148L462.973 246.116L462.992 244.072L465.116 244.155ZM462.492 244.053L462.478 245.638L460.765 243.986L462.492 244.053ZM465.118 243.654L463.646 243.597L465.118 243.445V243.654ZM468.836 258.863L467.269 256.535L465.702 258.863H468.836ZM465.892 259.363H468.579L467.219 260.538L465.892 259.363ZM465.477 259.664L466.837 260.868L465.456 262.062L465.477 259.664ZM467.215 261.202L465.862 262.372L468.581 262.411L467.215 261.202ZM469.001 259.659L467.597 260.872L469.001 262.115V259.659ZM472.844 272.306V270.605L475.169 272.35L472.844 272.306ZM467.174 270.395L468.707 272.228L465.649 272.17L467.174 270.395Z" fill="url(#paint5_linear_357_2)"/>
<path fill-rule="evenodd" clip-rule="evenodd" d="M403.276 232H407.766L414.874 232.694L408.178 238.739L416.974 243.774L408.004 244.202V250.792L421.803 255.12L421.725 255.608L408.004 255.408V260.813L416.2 267.098L408.004 266.939V270.793L412.394 293.399L412.394 293.4L414.118 302.085L413.628 302.182L413.062 299.33L406.261 298.44L410.882 301.934L410.58 302.333L405.347 298.376L399.376 302.342L399.099 301.925L404.37 298.424L397.986 299.095L397.416 302.179L396.924 302.088L402.709 270.793L402.743 266.837L394.064 266.669L398.766 263.479L398.768 263.477L402.796 260.802L402.844 255.332L389.063 255.13L389 254.64L402.884 250.785L402.942 244.2L393.986 243.686L402.827 238.729L396.701 232.694L403.276 232ZM402.986 239.213L399.736 241.036V242.956L402.954 242.771L402.986 239.213ZM403.45 243.257H407.504V243.283L403.45 243.268L403.45 243.257ZM399.236 242.984V241.316L395.922 243.174L399.236 242.984ZM403.437 244.786L403.415 247.22H405.041L403.437 244.786ZM404.979 247.72H403.411L403.39 250.131L404.979 247.72ZM402.115 251.518L398.661 254.474V252.477L402.115 251.518ZM398.161 252.615L396.813 252.989L398.161 254.395V252.615ZM397.816 254.758L396.331 253.209L394.667 254.712L397.816 254.758ZM394.278 254.39L395.391 253.384L394.278 253.693V254.39ZM393.778 253.832L390.81 254.656L393.778 254.699V253.832ZM399.076 254.777L402.878 251.523L402.849 254.832L399.076 254.777ZM403.34 255.793L403.301 260.226L405.105 258.011L403.34 255.793ZM405.424 258.411L403.571 260.686H407.236L405.424 258.411ZM407.217 261.186H403.573L405.371 263.381L407.217 261.186ZM405.043 263.77L403.289 261.629L403.252 265.9L405.043 263.77ZM402.748 266.337L402.791 261.405L399.157 263.82V266.268L402.748 266.337ZM398.657 266.258V264.157L395.646 266.2L398.657 266.258ZM403.241 267.144L403.213 270.268L405.012 268.717L403.241 267.144ZM405.39 269.052L403.631 270.567H407.096L405.39 269.052ZM407.137 271.067H403.585L405.379 272.77L407.137 271.067ZM404.9 273.004L403.12 271.316L402.803 273.033L404.9 273.004ZM402.71 273.535L402.301 275.751L404.617 273.508L402.71 273.535ZM405.346 273.498L402.538 276.218L408.218 276.152L405.419 273.497L405.346 273.498ZM406.135 273.487L408.443 275.677L408.013 273.461L406.135 273.487ZM407.916 272.962L407.597 271.318L405.87 272.991L407.916 272.962ZM407.504 270.261L405.772 268.723L407.504 267.23V270.261ZM407.096 266.922L405.394 268.388L403.668 266.855L407.096 266.922ZM408.004 266.439L411.349 266.504V264.008L408.004 261.443V266.439ZM407.504 261.622L405.693 263.774L407.504 265.985V261.622ZM407.504 260.221L405.747 258.014L407.504 255.857V260.221ZM407.234 255.396L405.429 257.614L403.621 255.343L407.234 255.396ZM408.004 254.908L411.732 254.962L408.004 251.544V254.908ZM408.751 251.55L412.135 254.653V252.612L408.751 251.55ZM412.635 252.769V254.672L414.241 253.272L412.635 252.769ZM414.718 253.519L413.041 254.981L416.042 255.025L414.718 253.519ZM416.956 255.039L420.016 255.083L417.252 254.217L416.956 255.039ZM416.774 254.067L415.519 253.673L416.51 254.8L416.774 254.067ZM407.504 250.047V247.72H405.97L407.504 250.047ZM405.908 247.22H407.504V244.797L405.908 247.22ZM415.041 243.244L412.173 241.602L412.147 243.05L415.041 243.244ZM411.648 243.017L411.677 241.318L408.004 239.215V242.774L411.648 243.017ZM407.504 242.431L405.854 240.888L407.504 239.357V242.431ZM408.004 238.222V233.368L410.77 233.266V235.725L408.004 238.222ZM411.27 235.273L413.609 233.162L411.27 233.248V235.273ZM410.55 232.774L408.004 232.867V232.526L410.55 232.774ZM407.504 232.5H403.539V232.877H407.504V232.5ZM407.235 233.377H403.805L405.51 235.538L407.235 233.377ZM405.829 235.941L407.504 238.064V233.841L405.829 235.941ZM405.19 235.939L403.533 233.839L403.496 238.062L405.19 235.939ZM403.484 239.356L403.458 242.43L405.121 240.886L403.484 239.356ZM405.488 240.545L407.117 239.034H403.873L405.488 240.545ZM403.759 238.534L405.508 236.342L407.238 238.534H403.759ZM405.487 241.229L403.839 242.757H407.121L405.487 241.229ZM402.995 238.192L403.037 233.367L400.519 233.267L400.497 235.732L402.995 238.192ZM400.001 235.244L400.019 233.247L397.889 233.163L400.001 235.244ZM400.707 232.774L403.039 232.866V232.528L400.707 232.774ZM408.004 243.275L408.165 243.285L408.004 243.285V243.275ZM407.29 244.214H403.658L405.475 246.968L407.29 244.214ZM405.475 247.877L407.353 250.726H403.597L405.475 247.877ZM407.093 251.226H403.782L405.417 252.704L407.093 251.226ZM405.04 253.037L403.378 251.534L403.351 254.527L405.04 253.037ZM403.747 254.845L405.413 253.375L407.094 254.894L403.747 254.845ZM405.791 253.042L407.504 251.53V254.591L405.791 253.042ZM411.849 264.391V266.513L414.688 266.568L411.849 264.391ZM407.218 266.424L405.366 264.163L403.524 266.352L407.218 266.424ZM408.065 276.654L402.675 276.716L405.357 278.65L408.065 276.654ZM404.897 278.934L402.087 276.909L401.712 278.934H404.897ZM401.62 279.434L401.198 281.715L404.293 279.434H401.62ZM405.136 279.434L401.598 282.042H409.208L405.59 279.434H405.136ZM406.445 279.434L409.617 281.72L409.173 279.434H406.445ZM409.076 278.934L408.667 276.831L405.814 278.934H409.076ZM409.377 282.542H401.447L405.43 286.47L409.377 282.542ZM405.076 286.823L400.998 282.801L400.254 286.823H405.076ZM400.162 287.323L399.167 292.705L404.574 287.323H400.162ZM405.283 287.323L399.381 293.198H411.539L405.582 287.323H405.283ZM406.295 287.323L411.749 292.703L410.704 287.323H406.295ZM410.607 286.823L409.826 282.8L405.786 286.822L405.788 286.823H410.607ZM411.337 293.698H399.567L405.359 297.765L411.337 293.698ZM404.667 297.891L398.951 293.876L398.081 298.583L404.667 297.891ZM406.04 297.907L412.959 298.812L411.977 293.867L406.04 297.907Z" fill="url(#paint6_linear_357_2)"/>
<path d="M11.7156 296.102H0V297.139H11.0055V339L11.7156 309.248H18.4609L18.1059 337.616L19.1709 296.794L62.128 297.139V335.195L62.8381 305.788H97.2747V333.119L97.9848 301.637H107.57L108.28 333.119V305.788H111.12L111.475 331.735L112.54 291.604H128.161V331.043L129.226 283.647L143.782 283.301L144.492 330.005L144.847 304.751H148.752V330.005L149.462 296.102H155.498L155.853 287.107H159.048V329.313L159.758 283.301H169.343L170.053 320.665V280.188H175.379L176.089 285.031H181.414L181.769 302.675V282.955H185.319L185.674 285.377H193.129L193.484 326.2L194.549 253.895H198.455L200.23 300.599H204.49L206.265 277.42L232.891 277.766L233.956 324.816L234.311 297.485L241.412 297.831L242.122 291.95H246.027L246.382 297.139H251.352L251.707 322.394L252.417 297.139L262.713 285.723H276.913L277.624 296.794H281.529L281.884 297.831H286.854V300.599H281.529V309.248H288.984L289.694 307.172H295.729L296.084 321.356L297.504 286.069H315.61V319.973L316.32 306.48L324.131 306.134L324.841 319.281V308.902H328.391L328.746 319.281L329.362 302.675H413.24L414.66 314.091V309.248H420.695V313.399L421.406 306.134H425.666L426.021 309.94H433.831V312.362L434.896 302.675H445.192L445.902 310.632H448.742L449.452 279.842H485.664L486.374 309.248L487.084 287.453H495.959V308.556L499.154 114.474H508.74L511.935 269.809L510.515 134.194H513V131.426H510.515V112.398H497.379V131.426H495.249V134.194H497.379L495.959 285.377H487.084V279.15H448.387V309.248H446.257V301.983H433.831V307.864H426.376V305.442H420.695V307.864H414.66V301.983H328.746V307.864H324.841V305.442H316.675V285.377H296.439L295.729 305.442H288.629V307.864H282.239V301.291H287.564V297.139H282.239V296.102H278.334V284.685H261.293L251.707 296.102H246.737V291.258H241.412V296.102H233.956V276.382H207.33V270.847H204.49V298.523H200.23V261.506H202.715V259.43H200.23V252.165H193.129V259.43H190.644V261.506H193.129V283.993H186.029V282.609H181.414V283.993H176.089V279.496H169.343V282.609H159.048V285.723H155.143V294.718H148.752V303.713H144.492V282.609H128.161V290.22H111.475V305.096H108.28V300.945H97.6298V305.096H62.8381V296.102H18.4609V308.21H11.7156V296.102Z" fill="url(#paint7_linear_357_2)"/>
</g>
<defs>
<linearGradient id="paint0_linear_357_2" x1="7.57764e-10" y1="237.808" x2="817.268" y2="237.986" gradientUnits="userSpaceOnUse">
<stop stop-color="#FEFFBE"/>
<stop offset="1" stop-color="#FFA751"/>
</linearGradient>
<linearGradient id="paint1_linear_357_2" x1="33.1016" y1="152.617" x2="276.998" y2="152.624" gradientUnits="userSpaceOnUse">
<stop stop-color="#FEFFBE"/>
<stop offset="1" stop-color="#FFA751"/>
</linearGradient>
<linearGradient id="paint2_linear_357_2" x1="189.377" y1="212.739" x2="329.097" y2="212.743" gradientUnits="userSpaceOnUse">
<stop stop-color="#FEFFBE"/>
<stop offset="1" stop-color="#FFA751"/>
</linearGradient>
<linearGradient id="paint3_linear_357_2" x1="273.939" y1="235.338" x2="386.354" y2="235.341" gradientUnits="userSpaceOnUse">
<stop stop-color="#FEFFBE"/>
<stop offset="1" stop-color="#FFA751"/>
</linearGradient>
<linearGradient id="paint4_linear_357_2" x1="335.713" y1="255.235" x2="416.148" y2="255.237" gradientUnits="userSpaceOnUse">
<stop stop-color="#FEFFBE"/>
<stop offset="1" stop-color="#FFA751"/>
</linearGradient>
<linearGradient id="paint5_linear_357_2" x1="452.936" y1="272.9" x2="502.372" y2="272.902" gradientUnits="userSpaceOnUse">
<stop stop-color="#FEFFBE"/>
<stop offset="1" stop-color="#FFA751"/>
</linearGradient>
<linearGradient id="paint6_linear_357_2" x1="389" y1="267.171" x2="445.821" y2="267.172" gradientUnits="userSpaceOnUse">
<stop stop-color="#FEFFBE"/>
<stop offset="1" stop-color="#FFA751"/>
</linearGradient>
<linearGradient id="paint7_linear_357_2" x1="8.23904e-10" y1="225.699" x2="888.602" y2="225.825" gradientUnits="userSpaceOnUse">
<stop stop-color="#FEFFBE"/>
<stop offset="1" stop-color="#FFA751"/>
</linearGradient>
<clipPath id="clip0_357_2">
<rect width="513" height="339" fill="white"/>
</clipPath>
</defs>
</svg>
