<svg width="755" height="345" viewBox="0 0 755 345" fill="none" xmlns="http://www.w3.org/2000/svg">
<path d="M400.393 231.974L399.737 228.695L574.171 223.449V225.417L400.393 231.974Z" fill="url(#paint0_linear_744_2689)"/>
<path fill-rule="evenodd" clip-rule="evenodd" d="M393.181 165.082L452.2 153.934L473.84 155.245L492.202 161.803V219.51H456.79H453.511L399.083 223.445L395.148 179.509L393.181 165.082ZM490.89 217.543H456.65L453.511 173.607V218.199L400.394 222.133L396.46 179.509L394.492 166.393L452.2 155.245L473.84 157.212L490.89 162.459V217.543Z" fill="url(#paint1_linear_744_2689)"/>
<path d="M481.709 210.985H482.365V191.312H481.054V182.787H488.923V216.232H482.365V212.953H481.709V216.887H489.578V182.132H480.398V182.787V191.968H481.709V210.985Z" fill="url(#paint2_linear_744_2689)"/>
<path d="M489.578 170.328H456.65V170.984H489.578V170.328Z" fill="url(#paint3_linear_744_2689)"/>
<path fill-rule="evenodd" clip-rule="evenodd" d="M471.217 191.968L471.873 210.985H481.709H482.365H483.021V212.953H482.365H481.709H469.905L471.217 191.968ZM477.119 159.836H456.65V176.885H489.578V163.77L477.119 159.836ZM456.65 163.269H487.992L489.578 163.77H456.65V163.269ZM477.119 161.147H456.65V161.803H483.349L481.272 161.147H477.119ZM486.7 162.861L456.65 162.786V162.459H485.425L486.7 162.861ZM489.578 165.082V164.426H456.65V165.082H489.578ZM489.578 166.393H456.65V165.737H489.578V166.393ZM456.65 167.705H489.578V167.049L456.65 166.885V167.705ZM456.65 168.36H489.578V169.016H456.65V168.36ZM489.578 169.672H456.65V170.328V170.984V171.639H489.578V170.984V170.328V169.672ZM456.65 172.295H489.578V172.951H456.65V172.295ZM489.578 173.607H456.65V174.262H489.578V173.607ZM489.578 175.574H456.65V174.918H489.578V175.574Z" fill="url(#paint4_linear_744_2689)"/>
<path fill-rule="evenodd" clip-rule="evenodd" d="M239.075 72.6211L524.99 170.33L521.711 154.592L532.203 159.838V165.74L540.073 170.33V179.511L536.138 182.79H529.58L524.99 198.528H564.336V222.792L515.153 224.103H494.825V199.84H513.842L519.744 197.873L517.777 190.003L502.694 174.265H493.513V161.15L239.731 75.2442L238.42 89.0153V75.2442L227.271 81.8018L239.075 72.6211ZM524.99 199.84H563.024V222.136L515.809 222.792L515.153 211.644V222.792H496.136V201.152H515.153L522.367 197.873L524.99 199.84ZM504.661 172.954L519.744 188.692L521.711 193.282L528.269 179.511H534.826L537.45 178.855L538.105 171.642L530.892 167.823V161.15L524.99 159.182L526.957 165.74V172.954L496.136 162.461V172.954H504.661Z" fill="url(#paint5_linear_744_2689)"/>
<path d="M509.907 173.609L519.744 184.757L521.055 177.544L509.907 173.609Z" fill="url(#paint6_linear_744_2689)"/>
<path d="M345.31 198.53H364.983L362.36 195.251L374.819 195.907V197.874L368.917 198.53L370.885 200.497L346.621 201.809L345.31 198.53Z" fill="url(#paint7_linear_744_2689)"/>
<path fill-rule="evenodd" clip-rule="evenodd" d="M396.459 241.155L360.392 243.122L344.654 220.826L341.375 184.759L345.296 148.691H386.623L392.525 193.284L396.459 241.155ZM345.965 220.17L342.031 184.759L346.621 150.659L385.967 149.347L391.213 193.284L395.148 239.843L361.048 241.81L345.965 220.17Z" fill="url(#paint8_linear_744_2689)"/>
<path fill-rule="evenodd" clip-rule="evenodd" d="M381.377 153.938C375.475 153.282 355.146 151.97 350.556 151.97C345.146 151.97 345.23 162.988 345.296 172.622C345.303 173.643 345.31 174.635 345.31 175.578C345.31 177.425 346.086 179.512 347.933 179.512C357.113 179.512 384 180.168 384 180.168C384 180.168 387.279 154.593 381.377 153.938ZM346.621 182.791H387.934L389.246 186.07L345.296 184.103L346.621 182.791ZM384.656 193.939C382.369 194.066 377.196 194.309 376.786 196.562C376.328 199.082 382.115 200.179 384.656 200.497C387.497 200.852 388.59 200.081 388.59 197.218C388.59 194.355 387.514 193.781 384.656 193.939ZM374.163 228.039L372.852 231.974L382.033 232.63V228.039H374.163ZM384.656 195.907C384.87 195.925 385.092 195.936 385.314 195.947C386.52 196.007 386.438 196.069 386.623 197.218C386.861 198.692 386.148 199.237 384.656 199.186C383.017 199.129 378.656 198.019 379.41 196.562C379.914 195.587 382.935 195.711 384.031 195.84C384.239 195.865 384.448 195.889 384.656 195.907ZM369.273 155.005C362.624 154.456 356.33 153.938 350.556 153.938C347.507 153.938 346.621 166.776 346.621 174.266C346.621 174.266 346.621 178.201 347.933 178.201H383.344C383.344 178.201 383.549 156.033 381.377 155.905C377.241 155.662 373.195 155.328 369.273 155.005Z" fill="url(#paint9_linear_744_2689)"/>
<path d="M194.597 244.365V241.086L188.695 241.742V244.365H194.597Z" fill="url(#paint10_linear_744_2689)"/>
<path d="M187.383 241.742L183.449 242.397V244.365H187.383V241.742Z" fill="url(#paint11_linear_744_2689)"/>
<path d="M182.137 244.365V243.053L178.858 244.365H182.137Z" fill="url(#paint12_linear_744_2689)"/>
<path fill-rule="evenodd" clip-rule="evenodd" d="M170.221 226.727C170.221 226.727 169.046 212.021 173.5 204.43C179.554 194.114 187.459 192.806 199.977 190.735C201.367 190.505 202.814 190.266 204.321 190.004C225.185 186.375 255.161 184.521 269.241 183.806V167.707L279.407 161.806C279.407 161.806 276.683 160.938 277.111 159.838C279.407 153.936 309.591 143.445 331.539 143.445C353.834 143.446 387.936 144.756 387.936 144.756L403.674 273.286H359.738L317.113 238.53L273.833 244.432H229.896V248.367H204.321H173.5L170.221 226.727ZM401.706 271.976L387.936 146.068L343.998 148.036L340.064 180.168H336.785L342.03 148.036L305.308 151.864L296.783 182.136H294.16L303.997 152.307L281.702 159.838L283.668 163.773L279.835 183.236L279.407 185.414C279.407 185.414 232.518 188.038 204.321 191.972L203.946 192.024C191.406 193.773 180.88 195.241 174.811 206.399C171.733 212.056 171.888 216.588 172.084 222.312C172.131 223.702 172.181 225.163 172.188 226.727C172.22 234.478 174.811 246.401 174.811 246.401H228.584V242.466H273.833L317.113 235.909L361.049 271.976H401.706ZM277.111 183.446L281.702 163.773L280.554 162.789L270.553 169.019V183.74C274.663 183.537 277.111 183.446 277.111 183.446Z" fill="url(#paint13_linear_744_2689)"/>
<path d="M296.783 182.136H294.16L279.835 183.236L279.407 185.414L340.064 183.446V180.168H336.785L296.783 182.136Z" fill="url(#paint14_linear_744_2689)"/>
<path d="M338.752 201.153C338.752 201.153 250.223 202.017 229.896 201.153C212.722 200.423 185.958 198.53 185.958 198.53H338.752V201.153Z" fill="url(#paint15_linear_744_2689)"/>
<path d="M208.291 203.775L208.858 204.43L214.358 211.863L216.16 209.677L208.291 203.775Z" fill="url(#paint16_linear_744_2689)"/>
<path d="M201.977 203.775C201.977 203.775 197.794 214.268 197.794 220.826C197.794 227.384 201.073 239.274 201.073 239.274L201.729 243.863H204.358C204.358 243.863 202.09 229.875 202.358 220.863C202.558 214.147 203.946 204.43 203.946 204.43L201.977 203.775Z" fill="url(#paint17_linear_744_2689)"/>
<path d="M245.633 222.137V230.007L241.698 239.843H245.633L251.535 230.007V222.137H245.633Z" fill="url(#paint18_linear_744_2689)"/>
<path d="M237.763 224.76C234.485 224.76 233.434 229.64 233.829 233.285C234.151 236.255 234.777 239.843 237.763 239.843C240.387 239.843 241.042 235.253 241.042 232.63C241.042 229.146 239.731 224.76 237.763 224.76Z" fill="url(#paint19_linear_744_2689)"/>
<path d="M317.113 197.874H315.144C315.144 197.874 315.438 194.258 315.144 191.972C314.875 189.878 313.832 186.726 313.832 186.726C313.832 186.726 315.804 189.776 316.456 191.972C317.115 194.195 317.113 197.874 317.113 197.874Z" fill="url(#paint20_linear_744_2689)"/>
<path d="M397.772 263.447V268.038L372.853 268.694V266.726L395.804 265.415C395.804 265.415 391.543 260.733 389.247 257.819L369.574 257.546L368.918 256.234L387.935 255.515C387.221 253.654 386.715 251.066 386.396 249.021H364.983V247.709L386.119 247.053C386.017 246.248 385.968 245.742 385.968 245.742L387.935 245.086C387.935 245.086 390.083 252.491 391.87 255.578C393.694 258.728 397.772 263.447 397.772 263.447Z" fill="url(#paint21_linear_744_2689)"/>
<path d="M193.172 237.863V207.863C193.172 207.863 191.45 217.248 191.358 222.863C191.254 229.304 193.172 237.863 193.172 237.863Z" fill="url(#paint22_linear_744_2689)"/>
<path d="M189.237 237.863V207.863C189.237 207.863 187.426 217.244 187.358 222.863C187.284 229.051 189.237 237.863 189.237 237.863Z" fill="url(#paint23_linear_744_2689)"/>
<path d="M185.302 237.863V207.863C185.302 207.863 183.911 217.264 183.858 222.863C183.801 229.033 185.302 237.863 185.302 237.863Z" fill="url(#paint24_linear_744_2689)"/>
<path d="M182.679 237.863V208.363C182.679 208.363 181.376 217.177 181.358 222.863C181.341 228.744 182.679 237.863 182.679 237.863Z" fill="url(#paint25_linear_744_2689)"/>
<path d="M180.056 237.863V209.863C180.056 209.863 178.858 217.376 178.858 222.863C178.858 228.351 180.056 237.863 180.056 237.863Z" fill="url(#paint26_linear_744_2689)"/>
<path d="M177.858 237.863V211.863C177.858 211.863 176.858 217.771 176.858 222.863C176.858 227.955 177.858 237.863 177.858 237.863Z" fill="url(#paint27_linear_744_2689)"/>
<path fill-rule="evenodd" clip-rule="evenodd" d="M172.187 248.367C172.187 248.367 167.258 248.721 166.941 250.99C166.686 252.819 169.564 254.924 169.564 254.924L201.697 256.892L233.829 254.924L235.141 280.499H203.664L151.858 275.253V255.58L163.662 254.924C163.662 254.924 161.034 252.399 161.039 250.334C161.045 247.612 162.969 245.665 165.63 245.088C168.428 244.481 172.187 248.367 172.187 248.367ZM153.17 257.547L165.63 256.892L201.041 258.823L201.697 271.974V258.859L232.518 256.892L233.829 279.188H203.664L153.17 273.942V257.547Z" fill="url(#paint28_linear_744_2689)"/>
<path d="M243.666 218.2L225.305 219.511V215.577L243.666 213.609H336.129L369.574 260.169L371.541 270.005H369.574L367.606 261.48L334.162 218.2H243.666Z" fill="url(#paint29_linear_744_2689)"/>
<path d="M216.471 281.056L222.492 282.631C222.557 282.104 222.633 281.579 222.72 281.056L220.372 279.86L207.24 279.48L211.274 284.207L216.471 281.056Z" fill="url(#paint30_linear_744_2689)"/>
<path d="M215.966 286.832L222.21 285.781C222.207 286.056 222.207 287.381 222.21 287.655L216.82 288.933L222.21 289.457C222.25 289.908 222.192 291.408 222.247 291.857L216.471 291.297L212.319 296.284L206.575 293.133C206.314 290.902 206.228 289.139 206.327 286.832L211.274 291.857L215.966 286.832Z" fill="url(#paint31_linear_744_2689)"/>
<path d="M216.82 296.284L222.949 294.709C223.042 295.178 223.143 295.645 223.253 296.109L218.066 298.384L223.711 297.859C223.812 298.211 223.918 298.562 224.029 298.91L218.024 301.01L215.966 305.736H209.921C209.075 303.886 208.37 301.954 207.813 299.96L213.886 301.01L216.82 296.284Z" fill="url(#paint32_linear_744_2689)"/>
<path d="M219.794 305.736L225.651 303.111C225.813 303.464 225.981 303.814 226.154 304.161L221.723 307.312L227.296 306.261C227.506 306.616 227.723 306.967 227.944 307.312L222.247 310.484L220.678 314.141L215.966 315C214.619 313.501 213.401 311.886 212.319 310.173L218.024 310.484L219.794 305.736Z" fill="url(#paint33_linear_744_2689)"/>
<path d="M224.728 314.141L230.285 310.484C230.582 310.835 230.887 311.178 231.199 311.512L227.469 315.713L232.234 312.562C232.555 312.87 232.882 313.168 233.215 313.457L229.983 319.643V322.287H225.247C223.632 321.425 222.107 320.442 220.678 319.351L224.728 318.865V314.141Z" fill="url(#paint34_linear_744_2689)"/>
<path d="M233.733 322.287L236.874 316.067C237.09 316.191 237.308 316.312 237.528 316.428C237.865 316.608 238.207 316.778 238.553 316.94C238.86 317.083 239.17 317.218 239.484 317.347L238.281 324.418L239.484 326.404C238.042 326.279 236.522 326.041 234.784 325.691C233.375 325.407 232.009 325.046 230.688 324.612H234.784L233.733 322.287Z" fill="url(#paint35_linear_744_2689)"/>
<path d="M243.98 325.691L243.664 318.567C244.179 318.661 244.701 318.736 245.231 318.791L246.276 324.418L247.32 318.908C247.837 318.912 248.36 318.898 248.889 318.865V325.691C247.359 326 245.997 326.221 244.708 326.354L243.98 325.691Z" fill="url(#paint36_linear_744_2689)"/>
<path d="M254.112 324.612L252.544 318.346C253.077 318.225 253.599 318.086 254.112 317.93L256.201 322.287L255.77 317.347C256.092 317.218 256.41 317.083 256.724 316.94L258.68 322.646C257.221 323.443 255.696 324.104 254.112 324.612Z" fill="url(#paint37_linear_744_2689)"/>
<path d="M260.381 314.816L263.127 319.643C264.724 318.338 266.211 316.857 267.573 315.231L264.56 310.963C264.081 311.52 263.581 312.054 263.06 312.562L264.56 316.067L261.425 314.018C261.085 314.294 260.736 314.56 260.381 314.816Z" fill="url(#paint38_linear_744_2689)"/>
<path d="M270.95 310.484L267.207 307.312C267.52 306.798 267.82 306.273 268.106 305.736L271.561 307.312L273.404 305.736C272.681 307.386 271.86 308.974 270.95 310.484Z" fill="url(#paint39_linear_744_2689)"/>
<path d="M307.931 258.881L305.963 251.647L306.619 249.023L313.833 248.367L313.177 249.99L315.144 257.669C314.752 257.705 314.196 257.749 313.574 257.801L310.554 252.802L309.898 257.911C307.931 258.209 308.388 258.771 307.931 258.881Z" fill="url(#paint40_linear_744_2689)"/>
<path d="M320.394 257.669V249.99C322.687 250.31 324.209 250.215 326.292 250.99V258.881C325.647 258.671 324.991 258.484 324.323 258.322V252.802L322.293 257.911C321.669 257.809 321.036 257.728 320.394 257.669Z" fill="url(#paint41_linear_744_2689)"/>
<path d="M300.062 254.694L304.654 260.857C304.257 261.073 303.865 261.299 303.479 261.534L300.062 258.322L301.993 262.504C301.558 262.807 301.13 263.123 300.711 263.45L296.004 257.549L290.566 258.881L292.192 252.802C294.658 251.664 295.972 250.682 298.75 249.99L297.126 253.341L300.062 254.694Z" fill="url(#paint42_linear_744_2689)"/>
<path d="M290.566 262.504L297.126 266.729C296.795 267.082 296.47 267.443 296.152 267.812L291.317 265.965L294.969 269.262C294.615 269.719 293.838 270.842 293.504 271.319L287.718 265.965L280.992 266.729L282.291 259.747C283.818 258.414 285.447 257.191 287.174 256.086L286.247 261.978L290.566 262.504Z" fill="url(#paint43_linear_744_2689)"/>
<path d="M284.323 272.127L291.537 273.942C291.377 274.247 291.002 275.6 290.85 275.909L284.979 274.987L290.01 277.727C289.801 278.209 289.106 279.571 288.914 280.063C288.249 281.762 288.591 281.33 288.131 283.123C287.964 283.774 287.397 285.742 287.258 286.402L280.992 285.383L286.886 288.37C286.778 289.022 286.682 289.678 286.601 290.337L279.043 288.37L272.519 292.304L267.455 286.402C267.901 284.223 268.464 282.107 269.139 280.063L274.487 285.091L280.389 282.467L288.131 283.123C288.591 281.33 288.249 281.762 288.914 280.063L282.291 276.566L275.798 279.845L271.117 274.987C272.267 272.447 273.611 270.049 275.142 267.812L277.11 273.287L284.323 272.127Z" fill="url(#paint44_linear_744_2689)"/>
<path d="M278.409 295.583L286.247 294.271C286.243 294.613 286.243 296.268 286.247 296.61L279.481 298.207L286.247 298.861C286.296 299.424 286.224 301.297 286.293 301.858L279.043 301.159L273.831 307.387L266.62 303.452C266.292 300.665 266.185 298.464 266.309 295.583L272.519 301.858L278.409 295.583Z" fill="url(#paint45_linear_744_2689)"/>
<path d="M279.481 307.387L287.174 305.42C287.29 306.006 287.418 306.589 287.556 307.169L281.044 310.009L288.131 309.354C288.258 309.793 288.391 310.231 288.53 310.666L280.992 313.289L278.409 319.191H270.82C269.758 316.88 268.873 314.468 268.174 311.977L275.798 313.289L279.481 307.387Z" fill="url(#paint46_linear_744_2689)"/>
<path d="M283.214 319.191L290.566 315.912C290.77 316.353 290.98 316.79 291.197 317.223L285.635 321.158L292.632 319.846C292.895 320.29 293.166 320.727 293.445 321.158L286.293 325.12L284.323 329.686L278.409 330.759C276.718 328.887 275.189 326.87 273.831 324.731L280.992 325.12L283.214 319.191Z" fill="url(#paint47_linear_744_2689)"/>
<path d="M289.408 329.686L296.383 325.12C296.756 325.558 297.138 325.987 297.53 326.404L292.848 331.65L298.83 327.715C299.232 328.099 299.643 328.471 300.062 328.832L296.004 336.557V339.86H290.058C288.032 338.783 286.118 337.555 284.323 336.193L289.408 335.586V329.686Z" fill="url(#paint48_linear_744_2689)"/>
<path d="M300.711 339.86L304.654 332.091C304.925 332.246 305.199 332.397 305.475 332.543C305.898 332.767 306.327 332.98 306.762 333.181C307.147 333.36 307.537 333.529 307.931 333.69L306.421 342.52L307.931 345C306.12 344.844 304.212 344.548 302.031 344.111C300.262 343.756 298.547 343.304 296.889 342.762H302.031L300.711 339.86Z" fill="url(#paint49_linear_744_2689)"/>
<path d="M313.574 344.111L313.177 335.214C313.823 335.331 314.479 335.424 315.144 335.494L316.456 342.52L317.767 335.639C318.416 335.644 319.073 335.627 319.737 335.586V344.111C317.816 344.496 316.106 344.772 314.488 344.939L313.574 344.111Z" fill="url(#paint50_linear_744_2689)"/>
<path d="M326.292 342.762L324.325 334.938C324.994 334.787 325.649 334.614 326.292 334.418L328.915 339.86L328.374 333.69C328.779 333.529 329.178 333.36 329.571 333.181L332.027 340.308C330.195 341.303 328.28 342.128 326.292 342.762Z" fill="url(#paint51_linear_744_2689)"/>
<path d="M334.161 330.529L337.609 336.557C339.614 334.928 341.48 333.079 343.19 331.047L339.408 325.718C338.807 326.413 338.179 327.08 337.525 327.715L339.408 332.091L335.473 329.533C335.045 329.878 334.608 330.21 334.161 330.529Z" fill="url(#paint52_linear_744_2689)"/>
<path d="M347.429 325.12L342.73 321.158C343.124 320.517 343.5 319.861 343.859 319.191L348.196 321.158L344.844 317.223C345.047 316.791 345.242 316.353 345.431 315.912L350.509 319.191C349.602 321.251 348.572 323.234 347.429 325.12Z" fill="url(#paint53_linear_744_2689)"/>
<path d="M352.707 313.289L347.294 310.666C347.481 310.016 347.656 309.36 347.817 308.698L352.707 310.009L348.196 307.016C348.306 306.487 348.407 305.954 348.5 305.42L354.175 307.387C353.792 309.39 353.3 311.362 352.707 313.289Z" fill="url(#paint54_linear_744_2689)"/>
<path d="M355.148 298.207C355.134 298.864 355.108 299.519 355.07 300.173H349.142C349.173 299.737 349.199 299.299 349.22 298.861L354.022 297.022L349.275 296.61C349.275 296.042 349.266 295.473 349.246 294.905H355.126C355.164 296.005 355.172 297.107 355.148 298.207Z" fill="url(#paint55_linear_744_2689)"/>
<path d="M355.146 289.681L349.024 291.649C348.957 290.991 348.876 290.334 348.782 289.681L352.707 288.37L348.5 287.942C348.407 287.427 348.306 286.913 348.196 286.402L354.175 285.746C354.499 287.381 354.959 288.016 355.146 289.681Z" fill="url(#paint56_linear_744_2689)"/>
<path d="M345.431 264.869L340.492 269.262C340.252 268.949 340.006 268.64 339.756 268.336L342.202 264.106L338.793 267.216C338.408 266.787 338.013 266.37 337.609 265.965L342.202 260.857C343.349 262.114 344.426 263.456 345.431 264.869Z" fill="url(#paint57_linear_744_2689)"/>
<path d="M338.793 257.549L335.473 264.106C335.256 263.945 333.726 262.658 333.506 262.504L335.473 257.549L332.027 261.534C331.651 261.304 329.958 259.959 329.571 259.747L334.161 254.205C335.791 255.184 337.336 256.305 338.793 257.549Z" fill="url(#paint58_linear_744_2689)"/>
<path d="M352.439 279.188C352.531 279.479 352.62 279.77 352.707 280.063L346.968 281.812C346.778 281.223 346.577 280.64 346.365 280.063L350.556 278.532L346.033 279.188C345.947 278.969 346.054 278.094 345.965 277.877L351.541 276.566C351.861 277.429 352.16 278.304 352.439 279.188Z" fill="url(#paint59_linear_744_2689)"/>
<path d="M342.202 271.682C342.382 271.958 342.557 272.236 342.73 272.518L347.429 271.682L343.713 274.212C343.853 274.468 343.991 274.727 344.127 274.987L349.855 272.518C349.338 271.407 348.784 270.32 348.196 269.262C348.071 269.038 347.945 268.815 347.817 268.593L342.202 271.682Z" fill="url(#paint60_linear_744_2689)"/>
<path d="M539.253 243.922L538.208 239.307L538.556 237.633L542.387 237.215L542.039 238.25L543.084 243.148C542.875 243.171 542.58 243.2 542.25 243.233L540.646 240.044L540.297 243.303C539.253 243.493 539.495 243.851 539.253 243.922Z" fill="url(#paint61_linear_744_2689)"/>
<path d="M545.872 243.148V238.25C547.089 238.454 547.898 238.394 549.004 238.888V243.922C548.662 243.788 548.313 243.668 547.958 243.565V240.044L546.88 243.303C546.549 243.238 546.213 243.186 545.872 243.148Z" fill="url(#paint62_linear_744_2689)"/>
<path d="M535.073 241.251L537.512 245.182C537.301 245.32 537.093 245.464 536.888 245.614L535.073 243.565L536.099 246.232C535.868 246.426 535.641 246.628 535.418 246.836L532.918 243.072L530.03 243.922L530.894 240.044C532.204 239.318 532.901 238.692 534.377 238.25L533.515 240.388L535.073 241.251Z" fill="url(#paint63_linear_744_2689)"/>
<path d="M530.03 246.232L533.515 248.928C533.338 249.153 533.166 249.384 532.997 249.619L530.429 248.44L532.369 250.544C532.181 250.835 531.768 251.552 531.591 251.856L528.518 248.44L524.946 248.928L525.636 244.474C526.447 243.624 527.312 242.843 528.229 242.138L527.737 245.897L530.03 246.232Z" fill="url(#paint64_linear_744_2689)"/>
<path d="M526.715 252.371L530.546 253.529C530.461 253.724 530.262 254.586 530.181 254.784L527.063 254.196L529.735 255.943C529.624 256.251 529.255 257.12 529.153 257.433C528.8 258.517 528.981 258.242 528.737 259.385C528.648 259.801 528.347 261.056 528.273 261.477L524.946 260.827L528.076 262.732C528.018 263.149 527.968 263.567 527.924 263.987L523.91 262.732L520.446 265.242L517.756 261.477C517.993 260.087 518.292 258.737 518.651 257.433L521.491 260.641L524.625 258.967L528.737 259.385C528.981 258.242 528.8 258.517 529.153 257.433L525.636 255.203L522.187 257.294L519.701 254.196C520.312 252.576 521.026 251.045 521.839 249.619L522.884 253.111L526.715 252.371Z" fill="url(#paint65_linear_744_2689)"/>
<path d="M523.574 267.334L527.737 266.497C527.735 266.715 527.735 267.771 527.737 267.989L524.143 269.008L527.737 269.425C527.763 269.784 527.724 270.979 527.761 271.336L523.91 270.891L521.143 274.863L517.313 272.353C517.139 270.576 517.082 269.172 517.148 267.334L520.446 271.336L523.574 267.334Z" fill="url(#paint66_linear_744_2689)"/>
<path d="M524.143 274.863L528.229 273.609C528.291 273.982 528.358 274.354 528.432 274.724L524.974 276.536L528.737 276.118C528.804 276.399 528.875 276.678 528.949 276.955L524.946 278.628L523.574 282.393H519.544C518.98 280.919 518.51 279.38 518.138 277.792L522.187 278.628L524.143 274.863Z" fill="url(#paint67_linear_744_2689)"/>
<path d="M526.126 282.393L530.03 280.302C530.139 280.583 530.25 280.862 530.366 281.138L527.411 283.648L531.127 282.811C531.267 283.094 531.411 283.373 531.559 283.648L527.761 286.175L526.715 289.088L523.574 289.772C522.676 288.579 521.864 287.292 521.143 285.927L524.946 286.175L526.126 282.393Z" fill="url(#paint68_linear_744_2689)"/>
<path d="M529.415 289.088L533.12 286.175C533.318 286.455 533.521 286.728 533.729 286.994L531.242 290.341L534.419 287.831C534.633 288.076 534.851 288.313 535.073 288.543L532.918 293.471V295.578H529.761C528.684 294.891 527.668 294.108 526.715 293.239L529.415 292.851V289.088Z" fill="url(#paint69_linear_744_2689)"/>
<path d="M535.418 295.578L537.512 290.622C537.656 290.721 537.802 290.817 537.948 290.911C538.173 291.053 538.401 291.189 538.632 291.318C538.836 291.432 539.043 291.54 539.253 291.642L538.451 297.275L539.253 298.857C538.291 298.758 537.277 298.568 536.119 298.289C535.18 298.063 534.269 297.775 533.388 297.429H536.119L535.418 295.578Z" fill="url(#paint70_linear_744_2689)"/>
<path d="M542.25 298.289L542.039 292.615C542.382 292.689 542.73 292.749 543.084 292.793L543.78 297.275L544.477 292.886C544.821 292.889 545.17 292.878 545.523 292.851V298.289C544.502 298.535 543.595 298.711 542.735 298.818L542.25 298.289Z" fill="url(#paint71_linear_744_2689)"/>
<path d="M549.004 297.429L547.959 292.438C548.314 292.342 548.663 292.231 549.004 292.106L550.397 295.578L550.11 291.642C550.325 291.54 550.537 291.432 550.746 291.318L552.05 295.864C551.077 296.498 550.06 297.025 549.004 297.429Z" fill="url(#paint72_linear_744_2689)"/>
<path d="M553.183 289.626L555.014 293.471C556.079 292.432 557.07 291.252 557.978 289.956L555.97 286.557C555.65 287 555.317 287.426 554.97 287.831L555.97 290.622L553.88 288.991C553.653 289.211 553.421 289.422 553.183 289.626Z" fill="url(#paint73_linear_744_2689)"/>
<path d="M560.23 286.175L557.734 283.648C557.943 283.239 558.143 282.821 558.333 282.393L560.637 283.648L558.857 281.138C558.964 280.862 559.068 280.583 559.168 280.302L561.865 282.393C561.383 283.707 560.836 284.972 560.23 286.175Z" fill="url(#paint74_linear_744_2689)"/>
<path d="M563.033 278.628L560.158 276.955C560.257 276.54 560.35 276.122 560.436 275.7L563.033 276.536L560.637 274.627C560.695 274.289 560.749 273.95 560.799 273.609L563.812 274.863C563.609 276.142 563.348 277.399 563.033 278.628Z" fill="url(#paint75_linear_744_2689)"/>
<path d="M564.329 269.008C564.322 269.426 564.308 269.845 564.288 270.262H561.139C561.156 269.983 561.17 269.704 561.181 269.425L563.731 268.252L561.21 267.989C561.21 267.626 561.205 267.264 561.195 266.901H564.317C564.338 267.603 564.342 268.306 564.329 269.008Z" fill="url(#paint76_linear_744_2689)"/>
<path d="M564.328 263.569L561.077 264.824C561.041 264.404 560.998 263.986 560.948 263.569L563.033 262.732L560.799 262.46C560.749 262.131 560.695 261.803 560.637 261.477L563.812 261.059C563.985 262.102 564.229 262.507 564.328 263.569Z" fill="url(#paint77_linear_744_2689)"/>
<path d="M559.168 247.741L556.546 250.544C556.418 250.344 556.287 250.147 556.155 249.953L557.454 247.255L555.643 249.238C555.439 248.965 555.229 248.699 555.014 248.44L557.454 245.182C558.063 245.984 558.635 246.84 559.168 247.741Z" fill="url(#paint78_linear_744_2689)"/>
<path d="M555.643 243.072L553.88 247.255C553.765 247.152 552.952 246.331 552.835 246.232L553.88 243.072L552.05 245.614C551.85 245.467 550.951 244.609 550.746 244.474L553.183 240.939C554.049 241.563 554.869 242.278 555.643 243.072Z" fill="url(#paint79_linear_744_2689)"/>
<path d="M562.89 256.876C562.939 257.061 562.986 257.247 563.033 257.433L559.985 258.549C559.884 258.174 559.777 257.802 559.664 257.433L561.89 256.457L559.488 256.876C559.443 256.736 559.5 256.178 559.452 256.039L562.414 255.203C562.583 255.754 562.742 256.312 562.89 256.876Z" fill="url(#paint80_linear_744_2689)"/>
<path d="M557.454 252.087C557.549 252.263 557.642 252.441 557.734 252.62L560.23 252.087L558.256 253.701C558.331 253.865 558.404 254.03 558.476 254.196L561.518 252.62C561.243 251.912 560.949 251.219 560.637 250.544C560.571 250.401 560.504 250.258 560.436 250.117L557.454 252.087Z" fill="url(#paint81_linear_744_2689)"/>
<path d="M489.865 247.546L488.676 242.243L489.072 240.32L493.435 239.84L493.039 241.03L494.229 246.657C493.991 246.684 493.655 246.716 493.279 246.754L491.452 243.09L491.055 246.834C489.865 247.053 490.142 247.465 489.865 247.546Z" fill="url(#paint82_linear_744_2689)"/>
<path d="M497.404 246.657V241.03C498.791 241.264 499.711 241.194 500.971 241.762V247.546C500.581 247.392 500.184 247.255 499.78 247.136V243.09L498.553 246.834C498.175 246.76 497.792 246.701 497.404 246.657Z" fill="url(#paint83_linear_744_2689)"/>
<path d="M485.106 244.477L487.884 248.994C487.643 249.152 487.406 249.318 487.173 249.49L485.106 247.136L486.274 250.2C486.011 250.423 485.752 250.654 485.498 250.894L482.651 246.569L479.362 247.546L480.346 243.09C481.838 242.256 482.632 241.537 484.313 241.03L483.33 243.485L485.106 244.477Z" fill="url(#paint84_linear_744_2689)"/>
<path d="M479.362 250.2L483.33 253.298C483.13 253.556 482.933 253.821 482.741 254.091L479.817 252.737L482.025 255.154C481.812 255.489 481.341 256.312 481.139 256.661L477.64 252.737L473.571 253.298L474.357 248.18C475.281 247.203 476.266 246.307 477.311 245.497L476.75 249.815L479.362 250.2Z" fill="url(#paint85_linear_744_2689)"/>
<path d="M475.586 257.254L479.949 258.584C479.853 258.807 479.626 259.799 479.534 260.026L475.983 259.35L479.026 261.358C478.9 261.711 478.479 262.709 478.363 263.07C477.961 264.315 478.168 263.999 477.889 265.312C477.788 265.79 477.446 267.232 477.361 267.716L473.571 266.969L477.137 269.158C477.071 269.636 477.013 270.117 476.964 270.6L472.393 269.158L468.447 272.042L465.383 267.716C465.653 266.119 465.994 264.568 466.402 263.07L469.637 266.755L473.207 264.832L477.889 265.312C478.168 263.999 477.961 264.315 478.363 263.07L474.357 260.507L470.43 262.91L467.598 259.35C468.294 257.488 469.107 255.73 470.033 254.091L471.223 258.104L475.586 257.254Z" fill="url(#paint86_linear_744_2689)"/>
<path d="M472.009 274.445L476.75 273.483C476.748 273.734 476.748 274.947 476.75 275.198L472.657 276.368L476.75 276.847C476.78 277.26 476.736 278.633 476.778 279.043L472.393 278.531L469.24 283.096L464.878 280.212C464.68 278.17 464.616 276.556 464.69 274.445L468.447 279.043L472.009 274.445Z" fill="url(#paint87_linear_744_2689)"/>
<path d="M472.657 283.096L477.311 281.654C477.381 282.083 477.458 282.511 477.542 282.936L473.603 285.018L477.889 284.537C477.966 284.86 478.047 285.18 478.131 285.499L473.571 287.421L472.009 291.747H467.419C466.777 290.053 466.241 288.285 465.818 286.46L470.43 287.421L472.657 283.096Z" fill="url(#paint88_linear_744_2689)"/>
<path d="M474.915 291.747L479.362 289.344C479.486 289.667 479.613 289.988 479.744 290.305L476.38 293.189L480.612 292.227C480.771 292.552 480.935 292.873 481.104 293.189L476.778 296.092L475.586 299.439L472.009 300.225C470.986 298.854 470.061 297.375 469.24 295.807L473.571 296.092L474.915 291.747Z" fill="url(#paint89_linear_744_2689)"/>
<path d="M478.662 299.439L482.881 296.092C483.106 296.414 483.338 296.728 483.574 297.033L480.743 300.878L484.361 297.994C484.604 298.276 484.852 298.549 485.106 298.813L482.651 304.474V306.895H479.055C477.829 306.106 476.672 305.206 475.586 304.208L478.662 303.763V299.439Z" fill="url(#paint90_linear_744_2689)"/>
<path d="M485.498 306.895L487.884 301.202C488.047 301.315 488.213 301.426 488.38 301.533C488.636 301.697 488.895 301.853 489.159 302.001C489.391 302.132 489.627 302.256 489.865 302.373L488.952 308.845L489.865 310.663C488.77 310.548 487.616 310.331 486.297 310.011C485.227 309.751 484.19 309.42 483.187 309.022H486.297L485.498 306.895Z" fill="url(#paint91_linear_744_2689)"/>
<path d="M493.279 310.011L493.039 303.491C493.43 303.576 493.826 303.645 494.229 303.695L495.022 308.845L495.815 303.802C496.207 303.806 496.605 303.793 497.006 303.763V310.011C495.844 310.293 494.81 310.495 493.832 310.618L493.279 310.011Z" fill="url(#paint92_linear_744_2689)"/>
<path d="M500.971 309.022L499.781 303.288C500.186 303.178 500.583 303.05 500.971 302.907L502.558 306.895L502.231 302.373C502.475 302.256 502.717 302.132 502.955 302.001L504.44 307.224C503.332 307.953 502.174 308.558 500.971 309.022Z" fill="url(#paint93_linear_744_2689)"/>
<path d="M505.731 300.057L507.816 304.474C509.029 303.281 510.158 301.925 511.192 300.436L508.904 296.53C508.541 297.04 508.161 297.529 507.766 297.994L508.904 301.202L506.524 299.327C506.266 299.58 506.001 299.823 505.731 300.057Z" fill="url(#paint94_linear_744_2689)"/>
<path d="M513.756 296.092L510.914 293.189C511.152 292.719 511.379 292.238 511.596 291.747L514.22 293.189L512.193 290.305C512.315 289.988 512.433 289.667 512.547 289.344L515.619 291.747C515.07 293.257 514.447 294.71 513.756 296.092Z" fill="url(#paint95_linear_744_2689)"/>
<path d="M516.948 287.421L513.674 285.499C513.788 285.022 513.893 284.542 513.991 284.056L516.948 285.018L514.22 282.824C514.286 282.436 514.348 282.046 514.404 281.654L517.836 283.096C517.604 284.564 517.307 286.009 516.948 287.421Z" fill="url(#paint96_linear_744_2689)"/>
<path d="M518.425 276.368C518.416 276.849 518.401 277.33 518.378 277.809H514.792C514.811 277.489 514.827 277.168 514.839 276.847L517.744 275.499L514.872 275.198C514.873 274.781 514.867 274.364 514.855 273.948H518.411C518.435 274.754 518.439 275.561 518.425 276.368Z" fill="url(#paint97_linear_744_2689)"/>
<path d="M518.424 270.119L514.721 271.561C514.68 271.079 514.631 270.598 514.574 270.119L516.948 269.158L514.404 268.845C514.348 268.467 514.286 268.09 514.22 267.716L517.836 267.235C518.032 268.433 518.311 268.899 518.424 270.119Z" fill="url(#paint98_linear_744_2689)"/>
<path d="M512.547 251.934L509.56 255.154C509.415 254.924 509.266 254.698 509.115 254.475L510.595 251.375L508.532 253.654C508.299 253.34 508.061 253.034 507.816 252.737L510.595 248.994C511.288 249.915 511.94 250.898 512.547 251.934Z" fill="url(#paint99_linear_744_2689)"/>
<path d="M508.532 246.569L506.524 251.375C506.393 251.257 505.468 250.314 505.334 250.2L506.524 246.569L504.44 249.49C504.213 249.322 503.189 248.336 502.955 248.18L505.731 244.118C506.716 244.836 507.651 245.657 508.532 246.569Z" fill="url(#paint100_linear_744_2689)"/>
<path d="M516.786 262.429C516.842 262.642 516.896 262.855 516.948 263.07L513.477 264.352C513.362 263.92 513.241 263.493 513.112 263.07L515.647 261.948L512.912 262.429C512.86 262.268 512.925 261.627 512.871 261.468L516.243 260.507C516.437 261.14 516.618 261.781 516.786 262.429Z" fill="url(#paint101_linear_744_2689)"/>
<path d="M510.595 256.927C510.703 257.129 510.809 257.334 510.914 257.54L513.756 256.927L511.508 258.782C511.593 258.97 511.677 259.159 511.759 259.35L515.223 257.54C514.91 256.726 514.576 255.929 514.22 255.154C514.144 254.989 514.068 254.826 513.991 254.663L510.595 256.927Z" fill="url(#paint102_linear_744_2689)"/>
<path d="M439.284 276.852L443.731 274.449C443.854 274.772 443.982 275.093 444.113 275.41L440.748 278.294L444.98 277.332C445.14 277.657 445.304 277.978 445.472 278.294L441.146 281.197L439.955 284.544L436.378 285.33C435.355 283.959 434.43 282.48 433.609 280.912L437.94 281.197L439.284 276.852Z" fill="url(#paint103_linear_744_2689)"/>
<path d="M443.03 284.544L447.25 281.197C447.475 281.519 447.706 281.833 447.943 282.138L445.111 285.983L448.729 283.099C448.973 283.381 449.221 283.654 449.474 283.918L447.02 289.58V292H443.424C442.198 291.211 441.04 290.311 439.955 289.313L443.03 288.868V284.544Z" fill="url(#paint104_linear_744_2689)"/>
<path d="M449.867 292L452.252 286.307C452.416 286.42 452.582 286.531 452.749 286.638C453.005 286.802 453.264 286.958 453.527 287.106C453.76 287.237 453.996 287.361 454.234 287.478L453.321 293.95L454.234 295.768C453.139 295.654 451.985 295.436 450.666 295.116C449.595 294.856 448.558 294.525 447.556 294.127H450.666L449.867 292Z" fill="url(#paint105_linear_744_2689)"/>
<path d="M457.648 295.116L457.407 288.596C457.798 288.681 458.195 288.75 458.597 288.801L459.39 293.95L460.184 288.907C460.576 288.911 460.973 288.898 461.375 288.868V295.116C460.213 295.398 459.179 295.6 458.201 295.723L457.648 295.116Z" fill="url(#paint106_linear_744_2689)"/>
<path d="M465.34 294.127L464.15 288.393C464.555 288.283 464.951 288.155 465.34 288.012L466.927 292L466.599 287.478L468.644 291.751L468.809 292.329C467.701 293.058 466.543 293.663 465.34 294.127Z" fill="url(#paint107_linear_744_2689)"/>
<path d="M430.559 272.526H434.799H437.94L436.378 276.852H431.788C431.146 275.158 430.982 274.352 430.559 272.526Z" fill="url(#paint108_linear_744_2689)"/>
<path fill-rule="evenodd" clip-rule="evenodd" d="M410.234 248.368C407.625 247.305 401.887 248.368 401.887 248.368L401.706 246.4L448.268 245.089C448.268 245.089 452.646 244.961 454.826 246.4C456.495 247.502 458.105 251.646 458.105 251.646V271.975L415.48 273.287V272.631V253.614C415.48 253.614 412.917 249.461 410.234 248.368ZM457.016 251.696L454.17 247.712L448.924 246.4L411.545 247.056L412.201 248.368L416.791 253.553L454.17 251.828L416.791 254.269V272.631L457.449 271.319V252.302L457.016 251.696Z" fill="url(#paint109_linear_744_2689)"/>
<path d="M404.987 270.008L415.48 273.287V272.631L404.987 270.008Z" fill="url(#paint110_linear_744_2689)"/>
<path d="M388.719 276.541L393.372 275.099C393.442 275.528 393.519 275.956 393.603 276.381L389.664 278.463L393.95 277.982C394.027 278.304 394.108 278.625 394.192 278.944L389.632 280.866L388.07 285.192H383.48C382.838 283.498 382.303 281.73 381.88 279.905L386.491 280.866L388.719 276.541Z" fill="url(#paint111_linear_744_2689)"/>
<path d="M390.976 285.192L395.424 282.789C395.547 283.112 395.674 283.433 395.805 283.749L392.441 286.634L396.673 285.672C396.832 285.997 396.996 286.318 397.165 286.634L392.839 289.537L391.647 292.884L388.07 293.67C387.047 292.298 386.123 290.82 385.301 289.252L389.632 289.537L390.976 285.192Z" fill="url(#paint112_linear_744_2689)"/>
<path d="M394.723 292.884L398.942 289.537C399.168 289.859 399.399 290.172 399.635 290.478L396.804 294.323L400.422 291.439C400.665 291.721 400.913 291.994 401.167 292.258L398.712 297.919V300.34H395.116C393.89 299.551 392.733 298.651 391.647 297.653L394.723 297.208V292.884Z" fill="url(#paint113_linear_744_2689)"/>
<path d="M401.559 300.34L403.945 294.647C404.109 294.76 404.274 294.871 404.441 294.978C404.697 295.142 404.957 295.298 405.22 295.446C405.453 295.576 405.688 295.701 405.927 295.818L405.013 302.29L405.927 304.108C404.831 303.993 403.677 303.776 402.358 303.456C401.288 303.196 400.251 302.865 399.248 302.467H402.358L401.559 300.34Z" fill="url(#paint114_linear_744_2689)"/>
<path d="M409.34 303.456L409.1 296.935C409.491 297.021 409.887 297.09 410.29 297.14L411.083 302.29L411.876 297.247C412.269 297.251 412.666 297.238 413.067 297.208V303.456C411.906 303.738 410.872 303.94 409.893 304.062L409.34 303.456Z" fill="url(#paint115_linear_744_2689)"/>
<path d="M417.032 302.467L415.843 296.733C416.247 296.622 416.644 296.495 417.032 296.352L418.619 300.34L418.292 295.818C418.536 295.701 418.778 295.576 419.016 295.446L420.501 300.669C419.393 301.398 418.235 302.003 417.032 302.467Z" fill="url(#paint116_linear_744_2689)"/>
<path d="M421.792 293.502L423.877 297.919C425.09 296.725 426.219 295.37 427.253 293.881L424.965 289.975C424.602 290.485 424.222 290.974 423.827 291.439L424.965 294.647L422.585 292.772C422.327 293.024 422.062 293.268 421.792 293.502Z" fill="url(#paint117_linear_744_2689)"/>
<path d="M429.817 289.537L426.975 286.634C427.213 286.164 427.441 285.683 427.658 285.192L430.281 286.634L428.254 283.749C428.376 283.433 428.494 283.112 428.608 282.789L431.68 285.192C431.131 286.702 430.508 288.155 429.817 289.537Z" fill="url(#paint118_linear_744_2689)"/>
<path d="M433.009 280.866L429.735 278.944C429.849 278.467 429.954 277.986 430.052 277.501L433.009 278.463L430.281 276.269C430.347 275.881 430.409 275.491 430.465 275.099L433.897 276.541C433.666 278.009 433.368 279.454 433.009 280.866Z" fill="url(#paint119_linear_744_2689)"/>
<path d="M385.301 276.541L388.454 271.976H380.939V273.657L385.301 276.541Z" fill="url(#paint120_linear_744_2689)"/>
<path d="M553.189 168.359H538.106L551.877 170.327V182.786L529.581 184.754H553.189C553.189 184.754 557.016 180.319 557.123 176.884C557.238 173.219 553.189 168.359 553.189 168.359Z" fill="url(#paint121_linear_744_2689)"/>
<path fill-rule="evenodd" clip-rule="evenodd" d="M564.336 183.446L557.778 180.167L555.811 183.446L562.368 186.725L560.401 190.66C560.401 190.66 567.764 193.707 570.237 188.037C572.711 182.366 566.959 179.512 566.959 179.512L564.336 183.446ZM562.368 189.348C562.368 189.348 567.216 191.457 568.926 188.037C570.237 185.414 568.572 182.67 566.959 181.479L564.991 184.758L557.778 181.479L557.122 182.791L563.68 186.069L562.368 189.348Z" fill="url(#paint122_linear_744_2689)"/>
<path fill-rule="evenodd" clip-rule="evenodd" d="M504.006 161.801L508.597 163.768C508.597 163.768 514.131 154.77 513.187 148.686C512.229 142.508 504.006 135.57 504.006 135.57H498.104V137.538C498.104 137.538 508.344 143.066 509.253 149.341C510.043 154.801 504.006 161.801 504.006 161.801ZM504.006 136.882H500.728C500.728 136.882 510.041 143.164 510.564 149.341C510.981 154.27 505.974 161.145 505.974 161.145L508.597 162.457C508.597 162.457 512.868 154.598 512.145 149.341C511.352 143.584 504.006 136.882 504.006 136.882Z" fill="url(#paint123_linear_744_2689)"/>
<path d="M503.349 134.921L498.103 134.921L490.234 130.987L484.988 134.265L495.48 146.718L481.269 153.69L502.039 153.283L496.022 146.725L486.316 134.822L489.595 132.954L497.851 135.577V137.265L489.595 133.61L486.955 134.921L496.792 146.725L502.695 153.938H502.039L480.176 153.69L480.397 153.283L494.169 146.718L483.676 134.259L490.234 130.332L503.349 134.921Z" fill="url(#paint124_linear_744_2689)"/>
<path fill-rule="evenodd" clip-rule="evenodd" d="M218.091 105.402V96.8775L220.058 98.8448L237.108 89.6641L220.714 100.812V101.96L239.075 90.2875L304.652 111.069L308.587 108.026L311.21 109.337L307.275 111.9L423.346 148.683H433.183L441.052 152.618L391.213 150.65L389.246 144.093L376.131 142.781L228.583 98.8448L220.714 103.107V105.402H218.091ZM237.108 93.5987L231.206 96.8775L294.816 116.551L297.439 112.616L237.108 93.5987ZM300.718 117.862L302.685 114.583L359.737 132.289L357.114 135.568L300.718 117.862ZM362.36 133.6L360.392 136.224L376.131 140.814L391.869 142.289L393.181 149.339L436.461 151.306L433.183 149.995L422.69 149.339L397.115 142.781L362.36 133.6Z" fill="url(#paint125_linear_744_2689)"/>
<path fill-rule="evenodd" clip-rule="evenodd" d="M215.48 71.3074C209.696 71.6476 205.631 77.2089 205.631 83.1108C205.631 90.0773 208.521 95.9113 215.48 96.2265C222.364 96.5383 226.335 89.992 225.973 83.1108C225.631 76.6008 221.988 70.9246 215.48 71.3074ZM214.812 78.5204L214.156 74.0629C210.653 74.7737 208.09 78.2175 207.662 81.5019L212.189 82.455V83.7666L207.863 86.0252C208.445 89.7525 210.047 92.9918 213.205 93.9641L214.812 88.3569H216.123L216.934 94.0909C220.661 93.3049 223.765 89.901 224.404 86.0252L219.402 84.4223V82.455L224.404 83.7666C224.404 78.5204 220.058 74.0629 216.934 74.0629L216.123 78.5204H214.812Z" fill="url(#paint126_linear_744_2689)"/>
<path d="M452.201 151.97L242.355 85.7376L450.889 153.937L452.201 151.97Z" fill="url(#paint127_linear_744_2689)"/>
<path d="M215.469 85.7376C213.501 85.7376 212.846 83.5095 212.846 82.1979C212.846 80.8864 213.89 79.1799 215.469 79.1799C216.945 79.1799 218.092 80.2306 218.092 82.1979C218.092 84.1652 217.436 85.7376 215.469 85.7376Z" fill="url(#paint128_linear_744_2689)"/>
<path fill-rule="evenodd" clip-rule="evenodd" d="M213.551 87.0491L217.436 85.7376L216.564 98.1972H212.981L213.551 87.0491ZM216.564 86.8538L214.51 87.7049V96.8856L216.564 86.8538Z" fill="url(#paint129_linear_744_2689)"/>
<path fill-rule="evenodd" clip-rule="evenodd" d="M228.584 83.1145V89.6722L219.403 85.7376V80.4915L228.584 83.1145ZM220.059 84.4261V81.803L227.273 83.7703V87.7049L220.059 84.4261Z" fill="url(#paint130_linear_744_2689)"/>
<path fill-rule="evenodd" clip-rule="evenodd" d="M214.157 69.8632L213.941 77.0766L218.092 79.1799V69.9992L214.157 69.8632ZM216.78 71.3106L214.813 70.6548V76.5567L216.78 77.8683V71.3106Z" fill="url(#paint131_linear_744_2689)"/>
<path fill-rule="evenodd" clip-rule="evenodd" d="M44.4307 187.863L31.9307 185.863H45.4307V188.363H48.9307V196.863H52.9307V157.863H60.9307V148.363H81.4307V143.363H92.9307V148.363H107.431V144.863H135.931V148.363H145.931V159.363H150.431V188.363H163.431V163.863H169.931V146.363H210.431V143.363H223.431V148.363H228.931V165.363H231.931V179.863H234.431L235.682 100.998L237.194 101.605L235.853 185.863H235.431V180.863H230.931V167.363H227.931V149.863H222.431V146.363H211.431V148.363V188.87H210.696L209.431 148.363H172.431V167.363H166.431V246.863L164.431 190.363H150.431L148.931 244.863V162.863H144.431V149.863H133.931V146.363H108.931V149.863H93.9307L91.9307 233.363V146.363H82.9307V149.863H62.4307L60.9307 233.363V162.863H54.4307V198.863H48.9307L47.4307 230.863V190.363H44.4307V187.863ZM237.638 73.7279L237.931 55.3633H247.431L247.602 75.5603L249.075 75.9672L248.931 53.8633H236.431L236.095 75L237.638 73.7279ZM247.848 104.596L249.265 105.07L249.787 184.894H248.528L247.848 104.596ZM284.39 154.382L284.99 115.789L286.74 116.331L286.305 153.39L284.39 154.382ZM285.416 88.4481L285.931 55.3633H298.431L298.698 93.1305L297.181 92.5197L296.931 57.3633H287.431L287.059 89.0599L285.416 88.4481ZM297.371 119.246L298.886 119.787L299.089 148.538L297.584 149.123L297.371 119.246ZM551.431 198.363V193.863H555.931V195.363H564.931V197.863H567.431V204.363H572.931V211.863H576.431L575.931 194.363H588.431V200.363H598.431V210.363H612.931V214.363H619.431V170.363H624.431L625.431 212.863H640.431V205.363H642.931V170.363H648.431L648.931 205.363H673.431V211.363H671.931V206.863H650.431L648.431 230.363L646.931 171.863H644.431V206.863H641.931V214.363H627.431L625.431 235.363L623.431 171.863H620.931V227.863L619.431 216.863H611.931V211.863H597.431V202.363H587.431V195.363H577.431V241.863L575.931 213.363H570.931V206.863H565.931V200.363H564.931V198.363H563.431V196.363H556.931H552.931V198.363H551.431ZM679.431 211.363V205.363H696.431V210.363H694.431V206.863H680.431V211.363H679.431Z" fill="url(#paint132_linear_744_2689)"/>
<path d="M31.9314 235.363H48.4314V252.863H57.9314V235.363H120.431V248.363H161.559L160.818 249.363H168.931V288.863L169.931 243.363H183.431L184.431 288.863V249.363H188.431L188.931 286.863L190.431 228.863H212.431V285.863L213.931 217.363L234.431 216.863L235.431 284.363L235.931 247.863H241.431V284.363L242.431 235.363H250.931L251.431 222.363H255.931V283.363L256.931 216.863H270.431L271.431 270.863V212.363H278.931L279.931 219.363H287.431L287.931 244.863V216.363H292.931L293.431 219.863H303.931L304.431 278.863L305.931 174.363H311.431L313.931 241.863H319.931L322.431 208.363L359.931 208.863L361.431 276.863L361.931 237.363L371.931 237.863L372.931 229.363H378.431L378.931 236.863H385.931L386.431 273.363L387.431 236.863L401.931 220.363H421.931L422.931 236.363H428.431L428.931 237.863H435.931V241.863H428.431V254.363H438.931L439.931 251.363H448.431L448.931 271.863L450.931 220.863H476.431V269.863L477.431 250.363L488.431 249.863L489.431 268.863V253.863H494.431L494.931 268.863L495.799 244.863H575.859V243.863H615.931V252.363H624.431V248.863H632.431V252.363H642.931V243.863H660.431V254.363H663.431V210.863H717.931V219.863H730.431L732.431 55.4648H729.431V51.4648H732.431V23.9648H750.931V51.4648H754.431V55.4648H750.931L752.931 197.363L748.431 26.9648H734.931L730.431 253.363V222.863H717.931L716.931 254.363L715.931 211.863H664.931L663.931 256.363H659.931L658.931 244.863H644.431L642.931 258.863V255.363H631.931L631.431 249.863H625.431L624.431 260.363V254.363H615.931V261.363L613.931 244.863H575.859H495.799L494.931 268.863L494.431 253.863H489.431V268.863L488.431 249.863L477.431 250.363L476.431 269.863V220.863H450.931L448.931 271.863L448.431 251.363H439.931L438.931 254.363H428.431V241.863H435.931V237.863H428.931L428.431 236.363H422.931L421.931 220.363H401.931L387.431 236.863L386.431 273.363L385.931 236.863H378.931L378.431 229.363H372.931L371.931 237.863L361.931 237.363L361.431 276.863L359.931 208.863L322.431 208.363L319.931 241.863H313.931L311.431 174.363H305.931L304.431 278.863L303.931 219.863H293.431L292.931 216.363H287.931V244.863L287.431 219.363H279.931L278.931 212.363H271.431V270.863L270.431 216.863H256.931L255.931 283.363V222.363H251.431L250.931 235.363H242.431L241.431 284.363V247.863H235.931L235.431 284.363L234.431 216.863L213.931 217.363L212.431 285.863V228.863H190.431L188.931 286.863L188.431 249.363H184.431V288.863L183.431 243.363H169.931L168.931 288.863V249.363H160.818H120.431L119.431 291.863V236.863L58.9314 236.363L57.4314 295.363L57.9314 254.363H48.4314L47.4314 297.363V236.863L31.3955 235.363H31.9314Z" fill="url(#paint133_linear_744_2689)"/>
<path fill-rule="evenodd" clip-rule="evenodd" d="M79.6493 62.8881C79.0018 63.3284 77.8805 63.5822 77.5922 62.8881C77.4814 62.6212 77.3976 62.3779 77.5922 62.156C80.2357 59.1419 82.9306 55.7185 85.7214 52.1733C87.6961 49.6649 89.7187 47.0956 91.8049 44.5672C92.3306 43.9301 92.8724 43.6449 93.7326 43.5524C94.4927 43.271 95.1152 42.9476 95.704 42.6418C96.7906 42.0775 97.7621 41.5728 99.271 41.5017C104.908 41.2361 107.858 41.2959 113.829 41.5017C115.545 41.5609 116.727 42.199 117.627 43.5524V49.5582C117.408 51.1317 117.003 51.995 116.281 53.334C116.281 53.334 117.627 49.4124 117.181 48.7883C116.643 48.3581 115.707 48.0691 114.878 47.9216C113.6 47.6946 112.056 47.9216 111.614 48.5328C107.848 53.7416 103.86 62.8881 103.86 62.8881L93.7326 69.7729C93.7326 69.7729 90.032 61.342 86.77 57.4682C86.1622 56.7464 84.8684 56.763 84.2382 57.4682C83.5985 58.1841 82.9164 59.0654 82.2589 59.915C81.2511 61.2173 80.3009 62.445 79.6493 62.8881ZM111.938 43.4591C111.736 43.5147 111.614 43.5524 111.614 43.5524V47.9216L111.938 43.4591ZM88.3929 57.4682C87.2691 55.7873 89.6812 53.4834 90.4024 51.6226C91.217 49.5206 89.748 47.6202 91.3809 45.9763C92.1214 45.2308 92.6386 44.5672 93.7326 44.5672C95.8232 44.5672 96.9104 44.4782 99.0135 44.7383C100.438 44.9145 102.349 44.7678 102.643 46.1674C103.51 50.2908 105.249 53.649 104.908 55.1066C104.356 57.4682 103.51 59.0108 102.047 61.342C100.818 63.3007 96.861 64.5976 96.861 64.5976C96.861 64.5976 94.1398 66.7133 92.2711 63.8803C90.4024 61.0472 90.0287 59.915 88.3929 57.4682Z" fill="url(#paint134_linear_744_2689)"/>
<path d="M93.3876 0.48624L76.8883 14.7888L106.399 4.25003C106.399 4.25003 103.768 1.3555 101.449 0.48624C98.5312 -0.6078 93.3876 0.48624 93.3876 0.48624Z" fill="url(#paint135_linear_744_2689)"/>
<path d="M46.2807 29.8441L70.5401 17.7998L61.1313 32.2166C61.1313 32.2166 56.0767 33.6135 52.9156 33.017C50.0579 32.4777 46.2807 29.8441 46.2807 29.8441Z" fill="url(#paint136_linear_744_2689)"/>
<path d="M1.06118 59.7347L34.8382 52.5048L2.37412 54.0053C2.37412 54.0053 0.326683 55.2787 0.040402 56.5573C-0.243425 57.825 1.06118 59.7347 1.06118 59.7347Z" fill="url(#paint137_linear_744_2689)"/>
<path fill-rule="evenodd" clip-rule="evenodd" d="M56.6215 46.017L57.0408 46.0995L57.0646 46.0931L67.8383 43.2216C67.8383 43.2216 68.6385 45.5593 68.7342 47.1091C68.7701 47.6897 68.7342 48.0011 68.4904 48.6185C68.3127 49.0685 67.9219 49.5263 67.5723 49.874C67.2149 50.2294 66.9005 50.4699 66.9005 50.4699H52.1951H51.3973H49.8383H40.6429L53.8221 46.9573L56.2901 46.2995L56.6215 46.017Z" fill="url(#paint138_linear_744_2689)"/>
<path d="M142.54 29.8441L133.236 43.2216C133.236 43.2216 127.967 42.9477 124.863 41.8574C122.108 40.8896 118.351 38.3277 118.351 38.3277L142.54 29.8441Z" fill="url(#paint139_linear_744_2689)"/>
<path d="M147.199 25.5527L152.929 10.1941C152.929 10.1941 159.173 10.6369 163.008 11.6295C166.463 12.5237 171.536 14.7888 171.536 14.7888L147.199 25.5527Z" fill="url(#paint140_linear_744_2689)"/>
<path d="M84.4223 79.2757L92.0323 81.0321L100.164 72.3803L92.0323 79.8103L85.6342 78.1776L84.4223 79.2757Z" fill="url(#paint141_linear_744_2689)"/>
<path d="M80.4697 63.299L84.4223 79.2757L85.6342 78.1776L92.0323 72.3803L85.6342 77.4144L80.4697 63.299Z" fill="url(#paint142_linear_744_2689)"/>
<path d="M36.5964 51.7778V61.8004L39.0198 59.7347L36.5964 51.7778Z" fill="url(#paint143_linear_744_2689)"/>
<path d="M34.8382 63.299L42.9422 72.3803L43.0234 70.5582L36.5964 63.299L43.5731 58.2196L43.6826 55.7604L39.0198 59.7347L36.5964 61.8004L34.8382 63.299Z" fill="url(#paint144_linear_744_2689)"/>
<path d="M48.355 51.7778L43.6826 55.7604L43.5731 58.2196L44.4312 57.4483L48.6616 53.6459L50.1214 52.3338L48.355 51.7778Z" fill="url(#paint145_linear_744_2689)"/>
<path d="M42.9422 72.3803L46.2807 76.1213L44.4312 72.3803V57.4483L43.5731 58.2196L43.0234 70.5582L42.9422 72.3803Z" fill="url(#paint146_linear_744_2689)"/>
<path d="M48.6616 53.6459L76.8883 60.759L50.1214 52.3338L48.6616 53.6459Z" fill="url(#paint147_linear_744_2689)"/>
<path d="M48.355 51.7778L51.3973 50.4699H49.8383L48.355 51.7778Z" fill="url(#paint148_linear_744_2689)"/>
<path d="M52.1951 50.4699H51.3973L48.355 51.7778L50.1214 52.3338L52.1951 50.4699Z" fill="url(#paint149_linear_744_2689)"/>
<path d="M56.6215 46.017L70.5401 32.2166L53.8221 46.9573L56.2901 46.2995L56.6215 46.017Z" fill="url(#paint150_linear_744_2689)"/>
<path d="M70.5401 32.2166L56.6215 46.017L57.0408 46.0995L57.0646 46.0931L70.3058 34.1916L80.5507 41.848L80.4697 40.9482L71.827 33.3482L70.5401 32.2166Z" fill="url(#paint151_linear_744_2689)"/>
<path d="M84.4223 51.7778C84.4223 51.7778 74.617 49.8602 68.4904 48.6185C68.3127 49.0685 67.9219 49.5263 67.5723 49.874L84.4223 51.7778Z" fill="url(#paint152_linear_744_2689)"/>
<path d="M80.8089 44.716L80.4697 22.8552L79.0021 24.6466L79.1724 26.5376L80.4697 40.9482L80.5507 41.848L80.8089 44.716Z" fill="url(#paint153_linear_744_2689)"/>
<path d="M79.0021 24.6466L76.8883 26.5376L75.2265 28.0243L70.5401 32.2166L71.827 33.3482L79.1724 26.5376L79.0021 24.6466Z" fill="url(#paint154_linear_744_2689)"/>
<path d="M76.8883 26.5376L75.2265 19.0544V28.0243L76.8883 26.5376Z" fill="url(#paint155_linear_744_2689)"/>
<path d="M92.0323 36.3806C93.6755 36.3806 94.5353 38.3277 94.5353 38.3277H92.0323L92.8561 38.787L95.3547 38.5408C95.3547 38.5408 95.141 35.586 92.0323 35.586C88.9237 35.586 88.9237 38.787 88.9237 38.787H91.4015L91.3527 38.3277H90.2148C90.2148 38.3277 90.3892 36.3806 92.0323 36.3806Z" fill="url(#paint156_linear_744_2689)"/>
<path d="M92.0323 38.3277H91.3527L91.4015 38.787V44.2816L92.8561 43.2216V38.787L92.0323 38.3277Z" fill="url(#paint157_linear_744_2689)"/>
<path d="M121.738 58.2196L110.225 55.7604L122.364 59.5992L138.082 44.716L145.916 51.7778L146.015 50.4699L139.242 44.2816L138.082 43.2216L121.738 58.2196Z" fill="url(#paint158_linear_744_2689)"/>
<path d="M147.199 34.8556L138.082 43.2216L139.242 44.2816L147.067 36.598L147.199 34.8556Z" fill="url(#paint159_linear_744_2689)"/>
<path d="M145.428 28.1364L147.199 34.8556L147.067 36.598L146.015 50.4699L145.916 51.7778L145.428 58.2196L148.774 34.8556L145.428 28.1364Z" fill="url(#paint160_linear_744_2689)"/>
<path d="M94.5353 38.3277C94.5353 38.3277 93.6755 36.3806 92.0323 36.3806C90.3892 36.3806 90.2148 38.3277 90.2148 38.3277H91.3527H92.0323H94.5353Z" fill="url(#paint161_linear_744_2689)"/>
<path fill-rule="evenodd" clip-rule="evenodd" d="M119.987 80.0571C122.811 80.0571 125.101 77.6711 125.101 74.7278C125.101 71.7845 122.811 69.3984 119.987 69.3984C117.162 69.3984 114.872 71.7845 114.872 74.7278C114.872 77.6711 117.162 80.0571 119.987 80.0571ZM119.987 78.5847C122.031 78.5847 123.688 76.858 123.688 74.728C123.688 72.598 122.031 70.8713 119.987 70.8713C117.943 70.8713 116.285 72.598 116.285 74.728C116.285 76.858 117.943 78.5847 119.987 78.5847Z" fill="url(#paint162_linear_744_2689)"/>
<ellipse rx="2.1472" ry="2.83204" transform="matrix(0.844665 0.535295 -0.594609 0.804015 103.516 71.6061)" fill="url(#paint163_linear_744_2689)"/>
<path d="M111.73 76.913C111.659 76.6974 111.599 76.4704 111.551 76.2317H101.258L111.73 76.913Z" fill="url(#paint164_linear_744_2689)"/>
<path fill-rule="evenodd" clip-rule="evenodd" d="M117.948 68.8672C117.948 68.8672 114.384 69.2501 113.79 73.9171C113.195 78.5841 117.948 80.8291 117.948 80.8291L114.881 80.4457C114.881 80.4457 114.629 80.3408 114.262 80.1078C113.887 79.8702 113.392 79.4993 112.92 78.9703L112.531 78.9591L108.731 82.4276L106.805 83.4884L107.259 78.3899L106.537 78.3119L104.87 84.1607L103.093 85.0808L100.397 77.649L99.472 77.5491C99.472 77.5491 99.1033 76.8293 99.1303 76.339C99.1876 75.3013 101.061 74.5075 101.061 74.5075C101.061 74.5075 103.188 75.7777 105.276 74.2999C108.069 72.3223 106.805 69.7973 106.805 69.7973L112.92 69.968C113.666 68.9855 114.384 68.8672 114.384 68.8672H117.948ZM99.7208 77.3973C99.6746 76.9615 99.3779 76.767 99.472 76.339C99.6619 75.4754 101.258 74.9471 101.258 74.9471C101.258 74.9471 103.275 76.3322 105.594 74.9471C109.062 72.8751 107.611 70.2802 107.611 70.2802L112.633 70.3905C112.21 71.0854 111.806 72.0934 111.551 73.5535C111.372 74.5758 111.397 75.4643 111.551 76.2317H101.258L111.73 76.913L111.96 78.2425L99.7208 77.3973Z" fill="url(#paint165_linear_744_2689)"/>
<defs>
<linearGradient id="paint0_linear_744_2689" x1="399.737" y1="227.712" x2="574.171" y2="227.712" gradientUnits="userSpaceOnUse">
<stop stop-color="#00FFD6"/>
<stop offset="1" stop-color="#02AAB0"/>
</linearGradient>
<linearGradient id="paint1_linear_744_2689" x1="393.181" y1="188.689" x2="492.202" y2="188.689" gradientUnits="userSpaceOnUse">
<stop stop-color="#00FFD6"/>
<stop offset="1" stop-color="#02AAB0"/>
</linearGradient>
<linearGradient id="paint2_linear_744_2689" x1="393.181" y1="188.689" x2="492.202" y2="188.689" gradientUnits="userSpaceOnUse">
<stop stop-color="#00FFD6"/>
<stop offset="1" stop-color="#02AAB0"/>
</linearGradient>
<linearGradient id="paint3_linear_744_2689" x1="393.181" y1="188.689" x2="492.202" y2="188.689" gradientUnits="userSpaceOnUse">
<stop stop-color="#00FFD6"/>
<stop offset="1" stop-color="#02AAB0"/>
</linearGradient>
<linearGradient id="paint4_linear_744_2689" x1="393.181" y1="188.689" x2="492.202" y2="188.689" gradientUnits="userSpaceOnUse">
<stop stop-color="#00FFD6"/>
<stop offset="1" stop-color="#02AAB0"/>
</linearGradient>
<linearGradient id="paint5_linear_744_2689" x1="227.271" y1="148.362" x2="564.336" y2="148.362" gradientUnits="userSpaceOnUse">
<stop stop-color="#00FFD6"/>
<stop offset="1" stop-color="#02AAB0"/>
</linearGradient>
<linearGradient id="paint6_linear_744_2689" x1="227.271" y1="148.362" x2="564.336" y2="148.362" gradientUnits="userSpaceOnUse">
<stop stop-color="#00FFD6"/>
<stop offset="1" stop-color="#02AAB0"/>
</linearGradient>
<linearGradient id="paint7_linear_744_2689" x1="341.375" y1="195.907" x2="396.459" y2="195.907" gradientUnits="userSpaceOnUse">
<stop stop-color="#00FFD6"/>
<stop offset="1" stop-color="#02AAB0"/>
</linearGradient>
<linearGradient id="paint8_linear_744_2689" x1="341.375" y1="195.907" x2="396.459" y2="195.907" gradientUnits="userSpaceOnUse">
<stop stop-color="#00FFD6"/>
<stop offset="1" stop-color="#02AAB0"/>
</linearGradient>
<linearGradient id="paint9_linear_744_2689" x1="341.375" y1="195.907" x2="396.459" y2="195.907" gradientUnits="userSpaceOnUse">
<stop stop-color="#00FFD6"/>
<stop offset="1" stop-color="#02AAB0"/>
</linearGradient>
<linearGradient id="paint10_linear_744_2689" x1="178.858" y1="242.725" x2="194.597" y2="242.725" gradientUnits="userSpaceOnUse">
<stop stop-color="#00FFD6"/>
<stop offset="1" stop-color="#02AAB0"/>
</linearGradient>
<linearGradient id="paint11_linear_744_2689" x1="178.858" y1="242.725" x2="194.597" y2="242.725" gradientUnits="userSpaceOnUse">
<stop stop-color="#00FFD6"/>
<stop offset="1" stop-color="#02AAB0"/>
</linearGradient>
<linearGradient id="paint12_linear_744_2689" x1="178.858" y1="242.725" x2="194.597" y2="242.725" gradientUnits="userSpaceOnUse">
<stop stop-color="#00FFD6"/>
<stop offset="1" stop-color="#02AAB0"/>
</linearGradient>
<linearGradient id="paint13_linear_744_2689" x1="170.081" y1="208.366" x2="403.674" y2="208.366" gradientUnits="userSpaceOnUse">
<stop stop-color="#00FFD6"/>
<stop offset="1" stop-color="#02AAB0"/>
</linearGradient>
<linearGradient id="paint14_linear_744_2689" x1="170.081" y1="208.366" x2="403.674" y2="208.366" gradientUnits="userSpaceOnUse">
<stop stop-color="#00FFD6"/>
<stop offset="1" stop-color="#02AAB0"/>
</linearGradient>
<linearGradient id="paint15_linear_744_2689" x1="170.081" y1="208.366" x2="403.674" y2="208.366" gradientUnits="userSpaceOnUse">
<stop stop-color="#00FFD6"/>
<stop offset="1" stop-color="#02AAB0"/>
</linearGradient>
<linearGradient id="paint16_linear_744_2689" x1="170.081" y1="208.366" x2="403.674" y2="208.366" gradientUnits="userSpaceOnUse">
<stop stop-color="#00FFD6"/>
<stop offset="1" stop-color="#02AAB0"/>
</linearGradient>
<linearGradient id="paint17_linear_744_2689" x1="170.081" y1="208.366" x2="403.674" y2="208.366" gradientUnits="userSpaceOnUse">
<stop stop-color="#00FFD6"/>
<stop offset="1" stop-color="#02AAB0"/>
</linearGradient>
<linearGradient id="paint18_linear_744_2689" x1="170.081" y1="208.366" x2="403.674" y2="208.366" gradientUnits="userSpaceOnUse">
<stop stop-color="#00FFD6"/>
<stop offset="1" stop-color="#02AAB0"/>
</linearGradient>
<linearGradient id="paint19_linear_744_2689" x1="170.081" y1="208.366" x2="403.674" y2="208.366" gradientUnits="userSpaceOnUse">
<stop stop-color="#00FFD6"/>
<stop offset="1" stop-color="#02AAB0"/>
</linearGradient>
<linearGradient id="paint20_linear_744_2689" x1="170.081" y1="208.366" x2="403.674" y2="208.366" gradientUnits="userSpaceOnUse">
<stop stop-color="#00FFD6"/>
<stop offset="1" stop-color="#02AAB0"/>
</linearGradient>
<linearGradient id="paint21_linear_744_2689" x1="364.983" y1="256.89" x2="397.772" y2="256.89" gradientUnits="userSpaceOnUse">
<stop stop-color="#00FFD6"/>
<stop offset="1" stop-color="#02AAB0"/>
</linearGradient>
<linearGradient id="paint22_linear_744_2689" x1="176.858" y1="222.863" x2="193.172" y2="222.863" gradientUnits="userSpaceOnUse">
<stop stop-color="#00FFD6"/>
<stop offset="1" stop-color="#02AAB0"/>
</linearGradient>
<linearGradient id="paint23_linear_744_2689" x1="176.858" y1="222.863" x2="193.172" y2="222.863" gradientUnits="userSpaceOnUse">
<stop stop-color="#00FFD6"/>
<stop offset="1" stop-color="#02AAB0"/>
</linearGradient>
<linearGradient id="paint24_linear_744_2689" x1="176.858" y1="222.863" x2="193.172" y2="222.863" gradientUnits="userSpaceOnUse">
<stop stop-color="#00FFD6"/>
<stop offset="1" stop-color="#02AAB0"/>
</linearGradient>
<linearGradient id="paint25_linear_744_2689" x1="176.858" y1="222.863" x2="193.172" y2="222.863" gradientUnits="userSpaceOnUse">
<stop stop-color="#00FFD6"/>
<stop offset="1" stop-color="#02AAB0"/>
</linearGradient>
<linearGradient id="paint26_linear_744_2689" x1="176.858" y1="222.863" x2="193.172" y2="222.863" gradientUnits="userSpaceOnUse">
<stop stop-color="#00FFD6"/>
<stop offset="1" stop-color="#02AAB0"/>
</linearGradient>
<linearGradient id="paint27_linear_744_2689" x1="176.858" y1="222.863" x2="193.172" y2="222.863" gradientUnits="userSpaceOnUse">
<stop stop-color="#00FFD6"/>
<stop offset="1" stop-color="#02AAB0"/>
</linearGradient>
<linearGradient id="paint28_linear_744_2689" x1="151.858" y1="262.761" x2="235.141" y2="262.761" gradientUnits="userSpaceOnUse">
<stop stop-color="#00FFD6"/>
<stop offset="1" stop-color="#02AAB0"/>
</linearGradient>
<linearGradient id="paint29_linear_744_2689" x1="225.305" y1="241.807" x2="371.541" y2="241.807" gradientUnits="userSpaceOnUse">
<stop stop-color="#00FFD6"/>
<stop offset="1" stop-color="#02AAB0"/>
</linearGradient>
<linearGradient id="paint30_linear_744_2689" x1="206.287" y1="302.942" x2="273.404" y2="302.942" gradientUnits="userSpaceOnUse">
<stop stop-color="#00FFD6"/>
<stop offset="1" stop-color="#02AAB0"/>
</linearGradient>
<linearGradient id="paint31_linear_744_2689" x1="206.287" y1="302.942" x2="273.404" y2="302.942" gradientUnits="userSpaceOnUse">
<stop stop-color="#00FFD6"/>
<stop offset="1" stop-color="#02AAB0"/>
</linearGradient>
<linearGradient id="paint32_linear_744_2689" x1="206.287" y1="302.942" x2="273.404" y2="302.942" gradientUnits="userSpaceOnUse">
<stop stop-color="#00FFD6"/>
<stop offset="1" stop-color="#02AAB0"/>
</linearGradient>
<linearGradient id="paint33_linear_744_2689" x1="206.287" y1="302.942" x2="273.404" y2="302.942" gradientUnits="userSpaceOnUse">
<stop stop-color="#00FFD6"/>
<stop offset="1" stop-color="#02AAB0"/>
</linearGradient>
<linearGradient id="paint34_linear_744_2689" x1="206.287" y1="302.942" x2="273.404" y2="302.942" gradientUnits="userSpaceOnUse">
<stop stop-color="#00FFD6"/>
<stop offset="1" stop-color="#02AAB0"/>
</linearGradient>
<linearGradient id="paint35_linear_744_2689" x1="206.287" y1="302.942" x2="273.404" y2="302.942" gradientUnits="userSpaceOnUse">
<stop stop-color="#00FFD6"/>
<stop offset="1" stop-color="#02AAB0"/>
</linearGradient>
<linearGradient id="paint36_linear_744_2689" x1="206.287" y1="302.942" x2="273.404" y2="302.942" gradientUnits="userSpaceOnUse">
<stop stop-color="#00FFD6"/>
<stop offset="1" stop-color="#02AAB0"/>
</linearGradient>
<linearGradient id="paint37_linear_744_2689" x1="206.287" y1="302.942" x2="273.404" y2="302.942" gradientUnits="userSpaceOnUse">
<stop stop-color="#00FFD6"/>
<stop offset="1" stop-color="#02AAB0"/>
</linearGradient>
<linearGradient id="paint38_linear_744_2689" x1="206.287" y1="302.942" x2="273.404" y2="302.942" gradientUnits="userSpaceOnUse">
<stop stop-color="#00FFD6"/>
<stop offset="1" stop-color="#02AAB0"/>
</linearGradient>
<linearGradient id="paint39_linear_744_2689" x1="206.287" y1="302.942" x2="273.404" y2="302.942" gradientUnits="userSpaceOnUse">
<stop stop-color="#00FFD6"/>
<stop offset="1" stop-color="#02AAB0"/>
</linearGradient>
<linearGradient id="paint40_linear_744_2689" x1="266.259" y1="296.684" x2="355.162" y2="296.684" gradientUnits="userSpaceOnUse">
<stop stop-color="#00FFD6"/>
<stop offset="1" stop-color="#02AAB0"/>
</linearGradient>
<linearGradient id="paint41_linear_744_2689" x1="266.259" y1="296.684" x2="355.162" y2="296.684" gradientUnits="userSpaceOnUse">
<stop stop-color="#00FFD6"/>
<stop offset="1" stop-color="#02AAB0"/>
</linearGradient>
<linearGradient id="paint42_linear_744_2689" x1="266.259" y1="296.684" x2="355.162" y2="296.684" gradientUnits="userSpaceOnUse">
<stop stop-color="#00FFD6"/>
<stop offset="1" stop-color="#02AAB0"/>
</linearGradient>
<linearGradient id="paint43_linear_744_2689" x1="266.259" y1="296.684" x2="355.162" y2="296.684" gradientUnits="userSpaceOnUse">
<stop stop-color="#00FFD6"/>
<stop offset="1" stop-color="#02AAB0"/>
</linearGradient>
<linearGradient id="paint44_linear_744_2689" x1="266.259" y1="296.684" x2="355.162" y2="296.684" gradientUnits="userSpaceOnUse">
<stop stop-color="#00FFD6"/>
<stop offset="1" stop-color="#02AAB0"/>
</linearGradient>
<linearGradient id="paint45_linear_744_2689" x1="266.259" y1="296.684" x2="355.162" y2="296.684" gradientUnits="userSpaceOnUse">
<stop stop-color="#00FFD6"/>
<stop offset="1" stop-color="#02AAB0"/>
</linearGradient>
<linearGradient id="paint46_linear_744_2689" x1="266.259" y1="296.684" x2="355.162" y2="296.684" gradientUnits="userSpaceOnUse">
<stop stop-color="#00FFD6"/>
<stop offset="1" stop-color="#02AAB0"/>
</linearGradient>
<linearGradient id="paint47_linear_744_2689" x1="266.259" y1="296.684" x2="355.162" y2="296.684" gradientUnits="userSpaceOnUse">
<stop stop-color="#00FFD6"/>
<stop offset="1" stop-color="#02AAB0"/>
</linearGradient>
<linearGradient id="paint48_linear_744_2689" x1="266.259" y1="296.684" x2="355.162" y2="296.684" gradientUnits="userSpaceOnUse">
<stop stop-color="#00FFD6"/>
<stop offset="1" stop-color="#02AAB0"/>
</linearGradient>
<linearGradient id="paint49_linear_744_2689" x1="266.259" y1="296.684" x2="355.162" y2="296.684" gradientUnits="userSpaceOnUse">
<stop stop-color="#00FFD6"/>
<stop offset="1" stop-color="#02AAB0"/>
</linearGradient>
<linearGradient id="paint50_linear_744_2689" x1="266.259" y1="296.684" x2="355.162" y2="296.684" gradientUnits="userSpaceOnUse">
<stop stop-color="#00FFD6"/>
<stop offset="1" stop-color="#02AAB0"/>
</linearGradient>
<linearGradient id="paint51_linear_744_2689" x1="266.259" y1="296.684" x2="355.162" y2="296.684" gradientUnits="userSpaceOnUse">
<stop stop-color="#00FFD6"/>
<stop offset="1" stop-color="#02AAB0"/>
</linearGradient>
<linearGradient id="paint52_linear_744_2689" x1="266.259" y1="296.684" x2="355.162" y2="296.684" gradientUnits="userSpaceOnUse">
<stop stop-color="#00FFD6"/>
<stop offset="1" stop-color="#02AAB0"/>
</linearGradient>
<linearGradient id="paint53_linear_744_2689" x1="266.259" y1="296.684" x2="355.162" y2="296.684" gradientUnits="userSpaceOnUse">
<stop stop-color="#00FFD6"/>
<stop offset="1" stop-color="#02AAB0"/>
</linearGradient>
<linearGradient id="paint54_linear_744_2689" x1="266.259" y1="296.684" x2="355.162" y2="296.684" gradientUnits="userSpaceOnUse">
<stop stop-color="#00FFD6"/>
<stop offset="1" stop-color="#02AAB0"/>
</linearGradient>
<linearGradient id="paint55_linear_744_2689" x1="266.259" y1="296.684" x2="355.162" y2="296.684" gradientUnits="userSpaceOnUse">
<stop stop-color="#00FFD6"/>
<stop offset="1" stop-color="#02AAB0"/>
</linearGradient>
<linearGradient id="paint56_linear_744_2689" x1="266.259" y1="296.684" x2="355.162" y2="296.684" gradientUnits="userSpaceOnUse">
<stop stop-color="#00FFD6"/>
<stop offset="1" stop-color="#02AAB0"/>
</linearGradient>
<linearGradient id="paint57_linear_744_2689" x1="266.259" y1="296.684" x2="355.162" y2="296.684" gradientUnits="userSpaceOnUse">
<stop stop-color="#00FFD6"/>
<stop offset="1" stop-color="#02AAB0"/>
</linearGradient>
<linearGradient id="paint58_linear_744_2689" x1="266.259" y1="296.684" x2="355.162" y2="296.684" gradientUnits="userSpaceOnUse">
<stop stop-color="#00FFD6"/>
<stop offset="1" stop-color="#02AAB0"/>
</linearGradient>
<linearGradient id="paint59_linear_744_2689" x1="266.259" y1="296.684" x2="355.162" y2="296.684" gradientUnits="userSpaceOnUse">
<stop stop-color="#00FFD6"/>
<stop offset="1" stop-color="#02AAB0"/>
</linearGradient>
<linearGradient id="paint60_linear_744_2689" x1="266.259" y1="296.684" x2="355.162" y2="296.684" gradientUnits="userSpaceOnUse">
<stop stop-color="#00FFD6"/>
<stop offset="1" stop-color="#02AAB0"/>
</linearGradient>
<linearGradient id="paint61_linear_744_2689" x1="517.121" y1="268.036" x2="564.336" y2="268.036" gradientUnits="userSpaceOnUse">
<stop stop-color="#00FFD6"/>
<stop offset="1" stop-color="#02AAB0"/>
</linearGradient>
<linearGradient id="paint62_linear_744_2689" x1="517.121" y1="268.036" x2="564.336" y2="268.036" gradientUnits="userSpaceOnUse">
<stop stop-color="#00FFD6"/>
<stop offset="1" stop-color="#02AAB0"/>
</linearGradient>
<linearGradient id="paint63_linear_744_2689" x1="517.121" y1="268.036" x2="564.336" y2="268.036" gradientUnits="userSpaceOnUse">
<stop stop-color="#00FFD6"/>
<stop offset="1" stop-color="#02AAB0"/>
</linearGradient>
<linearGradient id="paint64_linear_744_2689" x1="517.121" y1="268.036" x2="564.336" y2="268.036" gradientUnits="userSpaceOnUse">
<stop stop-color="#00FFD6"/>
<stop offset="1" stop-color="#02AAB0"/>
</linearGradient>
<linearGradient id="paint65_linear_744_2689" x1="517.121" y1="268.036" x2="564.336" y2="268.036" gradientUnits="userSpaceOnUse">
<stop stop-color="#00FFD6"/>
<stop offset="1" stop-color="#02AAB0"/>
</linearGradient>
<linearGradient id="paint66_linear_744_2689" x1="517.121" y1="268.036" x2="564.336" y2="268.036" gradientUnits="userSpaceOnUse">
<stop stop-color="#00FFD6"/>
<stop offset="1" stop-color="#02AAB0"/>
</linearGradient>
<linearGradient id="paint67_linear_744_2689" x1="517.121" y1="268.036" x2="564.336" y2="268.036" gradientUnits="userSpaceOnUse">
<stop stop-color="#00FFD6"/>
<stop offset="1" stop-color="#02AAB0"/>
</linearGradient>
<linearGradient id="paint68_linear_744_2689" x1="517.121" y1="268.036" x2="564.336" y2="268.036" gradientUnits="userSpaceOnUse">
<stop stop-color="#00FFD6"/>
<stop offset="1" stop-color="#02AAB0"/>
</linearGradient>
<linearGradient id="paint69_linear_744_2689" x1="517.121" y1="268.036" x2="564.336" y2="268.036" gradientUnits="userSpaceOnUse">
<stop stop-color="#00FFD6"/>
<stop offset="1" stop-color="#02AAB0"/>
</linearGradient>
<linearGradient id="paint70_linear_744_2689" x1="517.121" y1="268.036" x2="564.336" y2="268.036" gradientUnits="userSpaceOnUse">
<stop stop-color="#00FFD6"/>
<stop offset="1" stop-color="#02AAB0"/>
</linearGradient>
<linearGradient id="paint71_linear_744_2689" x1="517.121" y1="268.036" x2="564.336" y2="268.036" gradientUnits="userSpaceOnUse">
<stop stop-color="#00FFD6"/>
<stop offset="1" stop-color="#02AAB0"/>
</linearGradient>
<linearGradient id="paint72_linear_744_2689" x1="517.121" y1="268.036" x2="564.336" y2="268.036" gradientUnits="userSpaceOnUse">
<stop stop-color="#00FFD6"/>
<stop offset="1" stop-color="#02AAB0"/>
</linearGradient>
<linearGradient id="paint73_linear_744_2689" x1="517.121" y1="268.036" x2="564.336" y2="268.036" gradientUnits="userSpaceOnUse">
<stop stop-color="#00FFD6"/>
<stop offset="1" stop-color="#02AAB0"/>
</linearGradient>
<linearGradient id="paint74_linear_744_2689" x1="517.121" y1="268.036" x2="564.336" y2="268.036" gradientUnits="userSpaceOnUse">
<stop stop-color="#00FFD6"/>
<stop offset="1" stop-color="#02AAB0"/>
</linearGradient>
<linearGradient id="paint75_linear_744_2689" x1="517.121" y1="268.036" x2="564.336" y2="268.036" gradientUnits="userSpaceOnUse">
<stop stop-color="#00FFD6"/>
<stop offset="1" stop-color="#02AAB0"/>
</linearGradient>
<linearGradient id="paint76_linear_744_2689" x1="517.121" y1="268.036" x2="564.336" y2="268.036" gradientUnits="userSpaceOnUse">
<stop stop-color="#00FFD6"/>
<stop offset="1" stop-color="#02AAB0"/>
</linearGradient>
<linearGradient id="paint77_linear_744_2689" x1="517.121" y1="268.036" x2="564.336" y2="268.036" gradientUnits="userSpaceOnUse">
<stop stop-color="#00FFD6"/>
<stop offset="1" stop-color="#02AAB0"/>
</linearGradient>
<linearGradient id="paint78_linear_744_2689" x1="517.121" y1="268.036" x2="564.336" y2="268.036" gradientUnits="userSpaceOnUse">
<stop stop-color="#00FFD6"/>
<stop offset="1" stop-color="#02AAB0"/>
</linearGradient>
<linearGradient id="paint79_linear_744_2689" x1="517.121" y1="268.036" x2="564.336" y2="268.036" gradientUnits="userSpaceOnUse">
<stop stop-color="#00FFD6"/>
<stop offset="1" stop-color="#02AAB0"/>
</linearGradient>
<linearGradient id="paint80_linear_744_2689" x1="517.121" y1="268.036" x2="564.336" y2="268.036" gradientUnits="userSpaceOnUse">
<stop stop-color="#00FFD6"/>
<stop offset="1" stop-color="#02AAB0"/>
</linearGradient>
<linearGradient id="paint81_linear_744_2689" x1="517.121" y1="268.036" x2="564.336" y2="268.036" gradientUnits="userSpaceOnUse">
<stop stop-color="#00FFD6"/>
<stop offset="1" stop-color="#02AAB0"/>
</linearGradient>
<linearGradient id="paint82_linear_744_2689" x1="464.66" y1="275.251" x2="518.433" y2="275.251" gradientUnits="userSpaceOnUse">
<stop stop-color="#00FFD6"/>
<stop offset="1" stop-color="#02AAB0"/>
</linearGradient>
<linearGradient id="paint83_linear_744_2689" x1="464.66" y1="275.251" x2="518.433" y2="275.251" gradientUnits="userSpaceOnUse">
<stop stop-color="#00FFD6"/>
<stop offset="1" stop-color="#02AAB0"/>
</linearGradient>
<linearGradient id="paint84_linear_744_2689" x1="464.66" y1="275.251" x2="518.433" y2="275.251" gradientUnits="userSpaceOnUse">
<stop stop-color="#00FFD6"/>
<stop offset="1" stop-color="#02AAB0"/>
</linearGradient>
<linearGradient id="paint85_linear_744_2689" x1="464.66" y1="275.251" x2="518.433" y2="275.251" gradientUnits="userSpaceOnUse">
<stop stop-color="#00FFD6"/>
<stop offset="1" stop-color="#02AAB0"/>
</linearGradient>
<linearGradient id="paint86_linear_744_2689" x1="464.66" y1="275.251" x2="518.433" y2="275.251" gradientUnits="userSpaceOnUse">
<stop stop-color="#00FFD6"/>
<stop offset="1" stop-color="#02AAB0"/>
</linearGradient>
<linearGradient id="paint87_linear_744_2689" x1="464.66" y1="275.251" x2="518.433" y2="275.251" gradientUnits="userSpaceOnUse">
<stop stop-color="#00FFD6"/>
<stop offset="1" stop-color="#02AAB0"/>
</linearGradient>
<linearGradient id="paint88_linear_744_2689" x1="464.66" y1="275.251" x2="518.433" y2="275.251" gradientUnits="userSpaceOnUse">
<stop stop-color="#00FFD6"/>
<stop offset="1" stop-color="#02AAB0"/>
</linearGradient>
<linearGradient id="paint89_linear_744_2689" x1="464.66" y1="275.251" x2="518.433" y2="275.251" gradientUnits="userSpaceOnUse">
<stop stop-color="#00FFD6"/>
<stop offset="1" stop-color="#02AAB0"/>
</linearGradient>
<linearGradient id="paint90_linear_744_2689" x1="464.66" y1="275.251" x2="518.433" y2="275.251" gradientUnits="userSpaceOnUse">
<stop stop-color="#00FFD6"/>
<stop offset="1" stop-color="#02AAB0"/>
</linearGradient>
<linearGradient id="paint91_linear_744_2689" x1="464.66" y1="275.251" x2="518.433" y2="275.251" gradientUnits="userSpaceOnUse">
<stop stop-color="#00FFD6"/>
<stop offset="1" stop-color="#02AAB0"/>
</linearGradient>
<linearGradient id="paint92_linear_744_2689" x1="464.66" y1="275.251" x2="518.433" y2="275.251" gradientUnits="userSpaceOnUse">
<stop stop-color="#00FFD6"/>
<stop offset="1" stop-color="#02AAB0"/>
</linearGradient>
<linearGradient id="paint93_linear_744_2689" x1="464.66" y1="275.251" x2="518.433" y2="275.251" gradientUnits="userSpaceOnUse">
<stop stop-color="#00FFD6"/>
<stop offset="1" stop-color="#02AAB0"/>
</linearGradient>
<linearGradient id="paint94_linear_744_2689" x1="464.66" y1="275.251" x2="518.433" y2="275.251" gradientUnits="userSpaceOnUse">
<stop stop-color="#00FFD6"/>
<stop offset="1" stop-color="#02AAB0"/>
</linearGradient>
<linearGradient id="paint95_linear_744_2689" x1="464.66" y1="275.251" x2="518.433" y2="275.251" gradientUnits="userSpaceOnUse">
<stop stop-color="#00FFD6"/>
<stop offset="1" stop-color="#02AAB0"/>
</linearGradient>
<linearGradient id="paint96_linear_744_2689" x1="464.66" y1="275.251" x2="518.433" y2="275.251" gradientUnits="userSpaceOnUse">
<stop stop-color="#00FFD6"/>
<stop offset="1" stop-color="#02AAB0"/>
</linearGradient>
<linearGradient id="paint97_linear_744_2689" x1="464.66" y1="275.251" x2="518.433" y2="275.251" gradientUnits="userSpaceOnUse">
<stop stop-color="#00FFD6"/>
<stop offset="1" stop-color="#02AAB0"/>
</linearGradient>
<linearGradient id="paint98_linear_744_2689" x1="464.66" y1="275.251" x2="518.433" y2="275.251" gradientUnits="userSpaceOnUse">
<stop stop-color="#00FFD6"/>
<stop offset="1" stop-color="#02AAB0"/>
</linearGradient>
<linearGradient id="paint99_linear_744_2689" x1="464.66" y1="275.251" x2="518.433" y2="275.251" gradientUnits="userSpaceOnUse">
<stop stop-color="#00FFD6"/>
<stop offset="1" stop-color="#02AAB0"/>
</linearGradient>
<linearGradient id="paint100_linear_744_2689" x1="464.66" y1="275.251" x2="518.433" y2="275.251" gradientUnits="userSpaceOnUse">
<stop stop-color="#00FFD6"/>
<stop offset="1" stop-color="#02AAB0"/>
</linearGradient>
<linearGradient id="paint101_linear_744_2689" x1="464.66" y1="275.251" x2="518.433" y2="275.251" gradientUnits="userSpaceOnUse">
<stop stop-color="#00FFD6"/>
<stop offset="1" stop-color="#02AAB0"/>
</linearGradient>
<linearGradient id="paint102_linear_744_2689" x1="464.66" y1="275.251" x2="518.433" y2="275.251" gradientUnits="userSpaceOnUse">
<stop stop-color="#00FFD6"/>
<stop offset="1" stop-color="#02AAB0"/>
</linearGradient>
<linearGradient id="paint103_linear_744_2689" x1="429.247" y1="264.526" x2="468.809" y2="264.526" gradientUnits="userSpaceOnUse">
<stop stop-color="#00FFD6"/>
<stop offset="1" stop-color="#02AAB0"/>
</linearGradient>
<linearGradient id="paint104_linear_744_2689" x1="429.247" y1="264.526" x2="468.809" y2="264.526" gradientUnits="userSpaceOnUse">
<stop stop-color="#00FFD6"/>
<stop offset="1" stop-color="#02AAB0"/>
</linearGradient>
<linearGradient id="paint105_linear_744_2689" x1="429.247" y1="264.526" x2="468.809" y2="264.526" gradientUnits="userSpaceOnUse">
<stop stop-color="#00FFD6"/>
<stop offset="1" stop-color="#02AAB0"/>
</linearGradient>
<linearGradient id="paint106_linear_744_2689" x1="429.247" y1="264.526" x2="468.809" y2="264.526" gradientUnits="userSpaceOnUse">
<stop stop-color="#00FFD6"/>
<stop offset="1" stop-color="#02AAB0"/>
</linearGradient>
<linearGradient id="paint107_linear_744_2689" x1="429.247" y1="264.526" x2="468.809" y2="264.526" gradientUnits="userSpaceOnUse">
<stop stop-color="#00FFD6"/>
<stop offset="1" stop-color="#02AAB0"/>
</linearGradient>
<linearGradient id="paint108_linear_744_2689" x1="429.247" y1="264.526" x2="468.809" y2="264.526" gradientUnits="userSpaceOnUse">
<stop stop-color="#00FFD6"/>
<stop offset="1" stop-color="#02AAB0"/>
</linearGradient>
<linearGradient id="paint109_linear_744_2689" x1="401.706" y1="259.186" x2="458.105" y2="259.186" gradientUnits="userSpaceOnUse">
<stop stop-color="#00FFD6"/>
<stop offset="1" stop-color="#02AAB0"/>
</linearGradient>
<linearGradient id="paint110_linear_744_2689" x1="401.706" y1="259.186" x2="458.105" y2="259.186" gradientUnits="userSpaceOnUse">
<stop stop-color="#00FFD6"/>
<stop offset="1" stop-color="#02AAB0"/>
</linearGradient>
<linearGradient id="paint111_linear_744_2689" x1="380.939" y1="272.866" x2="433.897" y2="272.866" gradientUnits="userSpaceOnUse">
<stop stop-color="#00FFD6"/>
<stop offset="1" stop-color="#02AAB0"/>
</linearGradient>
<linearGradient id="paint112_linear_744_2689" x1="380.939" y1="272.866" x2="433.897" y2="272.866" gradientUnits="userSpaceOnUse">
<stop stop-color="#00FFD6"/>
<stop offset="1" stop-color="#02AAB0"/>
</linearGradient>
<linearGradient id="paint113_linear_744_2689" x1="380.939" y1="272.866" x2="433.897" y2="272.866" gradientUnits="userSpaceOnUse">
<stop stop-color="#00FFD6"/>
<stop offset="1" stop-color="#02AAB0"/>
</linearGradient>
<linearGradient id="paint114_linear_744_2689" x1="380.939" y1="272.866" x2="433.897" y2="272.866" gradientUnits="userSpaceOnUse">
<stop stop-color="#00FFD6"/>
<stop offset="1" stop-color="#02AAB0"/>
</linearGradient>
<linearGradient id="paint115_linear_744_2689" x1="380.939" y1="272.866" x2="433.897" y2="272.866" gradientUnits="userSpaceOnUse">
<stop stop-color="#00FFD6"/>
<stop offset="1" stop-color="#02AAB0"/>
</linearGradient>
<linearGradient id="paint116_linear_744_2689" x1="380.939" y1="272.866" x2="433.897" y2="272.866" gradientUnits="userSpaceOnUse">
<stop stop-color="#00FFD6"/>
<stop offset="1" stop-color="#02AAB0"/>
</linearGradient>
<linearGradient id="paint117_linear_744_2689" x1="380.939" y1="272.866" x2="433.897" y2="272.866" gradientUnits="userSpaceOnUse">
<stop stop-color="#00FFD6"/>
<stop offset="1" stop-color="#02AAB0"/>
</linearGradient>
<linearGradient id="paint118_linear_744_2689" x1="380.939" y1="272.866" x2="433.897" y2="272.866" gradientUnits="userSpaceOnUse">
<stop stop-color="#00FFD6"/>
<stop offset="1" stop-color="#02AAB0"/>
</linearGradient>
<linearGradient id="paint119_linear_744_2689" x1="380.939" y1="272.866" x2="433.897" y2="272.866" gradientUnits="userSpaceOnUse">
<stop stop-color="#00FFD6"/>
<stop offset="1" stop-color="#02AAB0"/>
</linearGradient>
<linearGradient id="paint120_linear_744_2689" x1="380.939" y1="272.866" x2="433.897" y2="272.866" gradientUnits="userSpaceOnUse">
<stop stop-color="#00FFD6"/>
<stop offset="1" stop-color="#02AAB0"/>
</linearGradient>
<linearGradient id="paint121_linear_744_2689" x1="529.581" y1="176.556" x2="557.126" y2="176.556" gradientUnits="userSpaceOnUse">
<stop stop-color="#00FFD6"/>
<stop offset="1" stop-color="#02AAB0"/>
</linearGradient>
<linearGradient id="paint122_linear_744_2689" x1="555.811" y1="185.495" x2="570.855" y2="185.495" gradientUnits="userSpaceOnUse">
<stop stop-color="#00FFD6"/>
<stop offset="1" stop-color="#02AAB0"/>
</linearGradient>
<linearGradient id="paint123_linear_744_2689" x1="498.104" y1="149.669" x2="513.295" y2="149.669" gradientUnits="userSpaceOnUse">
<stop stop-color="#00FFD6"/>
<stop offset="1" stop-color="#02AAB0"/>
</linearGradient>
<linearGradient id="paint124_linear_744_2689" x1="480.176" y1="142.135" x2="503.349" y2="142.135" gradientUnits="userSpaceOnUse">
<stop stop-color="#00FFD6"/>
<stop offset="1" stop-color="#02AAB0"/>
</linearGradient>
<linearGradient id="paint125_linear_744_2689" x1="218.091" y1="121.141" x2="441.052" y2="121.141" gradientUnits="userSpaceOnUse">
<stop stop-color="#00FFD6"/>
<stop offset="1" stop-color="#02AAB0"/>
</linearGradient>
<linearGradient id="paint126_linear_744_2689" x1="205.631" y1="83.7632" x2="225.996" y2="83.7632" gradientUnits="userSpaceOnUse">
<stop stop-color="#00FFD6"/>
<stop offset="1" stop-color="#02AAB0"/>
</linearGradient>
<linearGradient id="paint127_linear_744_2689" x1="212.846" y1="111.9" x2="452.201" y2="111.9" gradientUnits="userSpaceOnUse">
<stop stop-color="#00FFD6"/>
<stop offset="1" stop-color="#02AAB0"/>
</linearGradient>
<linearGradient id="paint128_linear_744_2689" x1="212.846" y1="111.9" x2="452.201" y2="111.9" gradientUnits="userSpaceOnUse">
<stop stop-color="#00FFD6"/>
<stop offset="1" stop-color="#02AAB0"/>
</linearGradient>
<linearGradient id="paint129_linear_744_2689" x1="212.846" y1="111.9" x2="452.201" y2="111.9" gradientUnits="userSpaceOnUse">
<stop stop-color="#00FFD6"/>
<stop offset="1" stop-color="#02AAB0"/>
</linearGradient>
<linearGradient id="paint130_linear_744_2689" x1="212.846" y1="111.9" x2="452.201" y2="111.9" gradientUnits="userSpaceOnUse">
<stop stop-color="#00FFD6"/>
<stop offset="1" stop-color="#02AAB0"/>
</linearGradient>
<linearGradient id="paint131_linear_744_2689" x1="212.846" y1="111.9" x2="452.201" y2="111.9" gradientUnits="userSpaceOnUse">
<stop stop-color="#00FFD6"/>
<stop offset="1" stop-color="#02AAB0"/>
</linearGradient>
<linearGradient id="paint132_linear_744_2689" x1="31.9307" y1="151.113" x2="696.431" y2="151.113" gradientUnits="userSpaceOnUse">
<stop stop-color="#00FFD6"/>
<stop offset="1" stop-color="#02AAB0"/>
</linearGradient>
<linearGradient id="paint133_linear_744_2689" x1="31.3955" y1="160.664" x2="754.431" y2="160.664" gradientUnits="userSpaceOnUse">
<stop stop-color="#00FFD6"/>
<stop offset="1" stop-color="#02AAB0"/>
</linearGradient>
<linearGradient id="paint134_linear_744_2689" x1="77.4756" y1="55.5486" x2="117.627" y2="55.5486" gradientUnits="userSpaceOnUse">
<stop stop-color="#00FFD6"/>
<stop offset="1" stop-color="#02AAB0"/>
</linearGradient>
<linearGradient id="paint135_linear_744_2689" x1="0" y1="40.5161" x2="171.536" y2="40.5161" gradientUnits="userSpaceOnUse">
<stop stop-color="#00FFD6"/>
<stop offset="1" stop-color="#02AAB0"/>
</linearGradient>
<linearGradient id="paint136_linear_744_2689" x1="0" y1="40.5161" x2="171.536" y2="40.5161" gradientUnits="userSpaceOnUse">
<stop stop-color="#00FFD6"/>
<stop offset="1" stop-color="#02AAB0"/>
</linearGradient>
<linearGradient id="paint137_linear_744_2689" x1="0" y1="40.5161" x2="171.536" y2="40.5161" gradientUnits="userSpaceOnUse">
<stop stop-color="#00FFD6"/>
<stop offset="1" stop-color="#02AAB0"/>
</linearGradient>
<linearGradient id="paint138_linear_744_2689" x1="0" y1="40.5161" x2="171.536" y2="40.5161" gradientUnits="userSpaceOnUse">
<stop stop-color="#00FFD6"/>
<stop offset="1" stop-color="#02AAB0"/>
</linearGradient>
<linearGradient id="paint139_linear_744_2689" x1="0" y1="40.5161" x2="171.536" y2="40.5161" gradientUnits="userSpaceOnUse">
<stop stop-color="#00FFD6"/>
<stop offset="1" stop-color="#02AAB0"/>
</linearGradient>
<linearGradient id="paint140_linear_744_2689" x1="0" y1="40.5161" x2="171.536" y2="40.5161" gradientUnits="userSpaceOnUse">
<stop stop-color="#00FFD6"/>
<stop offset="1" stop-color="#02AAB0"/>
</linearGradient>
<linearGradient id="paint141_linear_744_2689" x1="0" y1="40.5161" x2="171.536" y2="40.5161" gradientUnits="userSpaceOnUse">
<stop stop-color="#00FFD6"/>
<stop offset="1" stop-color="#02AAB0"/>
</linearGradient>
<linearGradient id="paint142_linear_744_2689" x1="0" y1="40.5161" x2="171.536" y2="40.5161" gradientUnits="userSpaceOnUse">
<stop stop-color="#00FFD6"/>
<stop offset="1" stop-color="#02AAB0"/>
</linearGradient>
<linearGradient id="paint143_linear_744_2689" x1="0" y1="40.5161" x2="171.536" y2="40.5161" gradientUnits="userSpaceOnUse">
<stop stop-color="#00FFD6"/>
<stop offset="1" stop-color="#02AAB0"/>
</linearGradient>
<linearGradient id="paint144_linear_744_2689" x1="0" y1="40.5161" x2="171.536" y2="40.5161" gradientUnits="userSpaceOnUse">
<stop stop-color="#00FFD6"/>
<stop offset="1" stop-color="#02AAB0"/>
</linearGradient>
<linearGradient id="paint145_linear_744_2689" x1="0" y1="40.5161" x2="171.536" y2="40.5161" gradientUnits="userSpaceOnUse">
<stop stop-color="#00FFD6"/>
<stop offset="1" stop-color="#02AAB0"/>
</linearGradient>
<linearGradient id="paint146_linear_744_2689" x1="0" y1="40.5161" x2="171.536" y2="40.5161" gradientUnits="userSpaceOnUse">
<stop stop-color="#00FFD6"/>
<stop offset="1" stop-color="#02AAB0"/>
</linearGradient>
<linearGradient id="paint147_linear_744_2689" x1="0" y1="40.5161" x2="171.536" y2="40.5161" gradientUnits="userSpaceOnUse">
<stop stop-color="#00FFD6"/>
<stop offset="1" stop-color="#02AAB0"/>
</linearGradient>
<linearGradient id="paint148_linear_744_2689" x1="0" y1="40.5161" x2="171.536" y2="40.5161" gradientUnits="userSpaceOnUse">
<stop stop-color="#00FFD6"/>
<stop offset="1" stop-color="#02AAB0"/>
</linearGradient>
<linearGradient id="paint149_linear_744_2689" x1="0" y1="40.5161" x2="171.536" y2="40.5161" gradientUnits="userSpaceOnUse">
<stop stop-color="#00FFD6"/>
<stop offset="1" stop-color="#02AAB0"/>
</linearGradient>
<linearGradient id="paint150_linear_744_2689" x1="0" y1="40.5161" x2="171.536" y2="40.5161" gradientUnits="userSpaceOnUse">
<stop stop-color="#00FFD6"/>
<stop offset="1" stop-color="#02AAB0"/>
</linearGradient>
<linearGradient id="paint151_linear_744_2689" x1="0" y1="40.5161" x2="171.536" y2="40.5161" gradientUnits="userSpaceOnUse">
<stop stop-color="#00FFD6"/>
<stop offset="1" stop-color="#02AAB0"/>
</linearGradient>
<linearGradient id="paint152_linear_744_2689" x1="0" y1="40.5161" x2="171.536" y2="40.5161" gradientUnits="userSpaceOnUse">
<stop stop-color="#00FFD6"/>
<stop offset="1" stop-color="#02AAB0"/>
</linearGradient>
<linearGradient id="paint153_linear_744_2689" x1="0" y1="40.5161" x2="171.536" y2="40.5161" gradientUnits="userSpaceOnUse">
<stop stop-color="#00FFD6"/>
<stop offset="1" stop-color="#02AAB0"/>
</linearGradient>
<linearGradient id="paint154_linear_744_2689" x1="0" y1="40.5161" x2="171.536" y2="40.5161" gradientUnits="userSpaceOnUse">
<stop stop-color="#00FFD6"/>
<stop offset="1" stop-color="#02AAB0"/>
</linearGradient>
<linearGradient id="paint155_linear_744_2689" x1="0" y1="40.5161" x2="171.536" y2="40.5161" gradientUnits="userSpaceOnUse">
<stop stop-color="#00FFD6"/>
<stop offset="1" stop-color="#02AAB0"/>
</linearGradient>
<linearGradient id="paint156_linear_744_2689" x1="0" y1="40.5161" x2="171.536" y2="40.5161" gradientUnits="userSpaceOnUse">
<stop stop-color="#00FFD6"/>
<stop offset="1" stop-color="#02AAB0"/>
</linearGradient>
<linearGradient id="paint157_linear_744_2689" x1="0" y1="40.5161" x2="171.536" y2="40.5161" gradientUnits="userSpaceOnUse">
<stop stop-color="#00FFD6"/>
<stop offset="1" stop-color="#02AAB0"/>
</linearGradient>
<linearGradient id="paint158_linear_744_2689" x1="0" y1="40.5161" x2="171.536" y2="40.5161" gradientUnits="userSpaceOnUse">
<stop stop-color="#00FFD6"/>
<stop offset="1" stop-color="#02AAB0"/>
</linearGradient>
<linearGradient id="paint159_linear_744_2689" x1="0" y1="40.5161" x2="171.536" y2="40.5161" gradientUnits="userSpaceOnUse">
<stop stop-color="#00FFD6"/>
<stop offset="1" stop-color="#02AAB0"/>
</linearGradient>
<linearGradient id="paint160_linear_744_2689" x1="0" y1="40.5161" x2="171.536" y2="40.5161" gradientUnits="userSpaceOnUse">
<stop stop-color="#00FFD6"/>
<stop offset="1" stop-color="#02AAB0"/>
</linearGradient>
<linearGradient id="paint161_linear_744_2689" x1="0" y1="40.5161" x2="171.536" y2="40.5161" gradientUnits="userSpaceOnUse">
<stop stop-color="#00FFD6"/>
<stop offset="1" stop-color="#02AAB0"/>
</linearGradient>
<linearGradient id="paint162_linear_744_2689" x1="114.872" y1="74.7278" x2="125.101" y2="74.7278" gradientUnits="userSpaceOnUse">
<stop stop-color="#00FFD6"/>
<stop offset="1" stop-color="#02AAB0"/>
</linearGradient>
<linearGradient id="paint163_linear_744_2689" x1="0" y1="2.83204" x2="4.29439" y2="2.83204" gradientUnits="userSpaceOnUse">
<stop stop-color="#00FFD6"/>
<stop offset="1" stop-color="#02AAB0"/>
</linearGradient>
<linearGradient id="paint164_linear_744_2689" x1="99.1289" y1="76.974" x2="117.948" y2="76.974" gradientUnits="userSpaceOnUse">
<stop stop-color="#00FFD6"/>
<stop offset="1" stop-color="#02AAB0"/>
</linearGradient>
<linearGradient id="paint165_linear_744_2689" x1="99.1289" y1="76.974" x2="117.948" y2="76.974" gradientUnits="userSpaceOnUse">
<stop stop-color="#00FFD6"/>
<stop offset="1" stop-color="#02AAB0"/>
</linearGradient>
</defs>
</svg>
