<svg width="702" height="331" viewBox="0 0 702 331" fill="none" xmlns="http://www.w3.org/2000/svg">
<g clip-path="url(#clip0_497_11720)">
<g clip-path="url(#clip1_497_11720)">
<path fill-rule="evenodd" clip-rule="evenodd" d="M11.4827 195.24H0.921875L12.4007 193.451V195.687H15.6135V203.29H19.2852V168.404H26.6287V159.907H45.4465V155.434H56.0028V159.907H69.313V156.776H95.4743V159.907H104.654V169.746H108.784V195.687H120.718V173.772H126.684V158.118H163.861V155.434H175.794V159.907H180.843V175.113H183.597V188.084H185.891L187.727 75.375H199.202L199.576 131.136L198.299 131.224L197.825 76.7168H189.104L186.809 217.155V188.978H182.679V176.902H179.925V161.248H174.876V158.118H164.779V159.907V217.155L162.943 159.907H128.979V176.902H123.471V248.016L121.636 197.476H108.784L107.408 246.227V172.877H103.277V161.248H93.6384V158.118H70.6899V161.248H56.9208L55.0849 235.94V158.118H46.8234V161.248H28.0057L26.6287 235.94V172.877H20.6621V205.079H15.6135L14.2366 233.704V197.476H11.4827V195.24ZM233.934 129.128L234.542 78.5058H243.263L243.626 128.192H245.013L244.64 76.7168H233.165L232.328 129.128H233.934ZM302.929 215.814H365.808H367.454V219.839H367.644H374.069V203.29H389.215V219.839H399.313V203.29H414.459L420.884 212.236H425.933V208.21H429.146V210.894H434.653V197.476H453.012V193.004H454.848V210.894H476.879V200.607H481.009V201.949H489.271V204.185H491.566V209.999H496.614V216.708H499.827L499.368 201.054H510.842V206.421H520.022V215.366H533.332V218.944H539.298V179.586H543.888L544.806 217.603H558.575V210.894H560.87V179.586H565.919L566.378 210.894H588.867V216.261H587.49V212.236H567.755L565.919 233.257L564.542 180.928H562.247V212.236H559.952V218.944H546.642L544.806 237.729L542.97 180.928H540.675V231.02L539.298 221.181H532.414V216.708H519.104V208.21H509.924V201.949H500.745V243.544L499.368 218.05H494.778V212.236H490.189V206.421H487.894V202.843H481.927H478.255V212.236H456.225L454.389 241.755L453.471 198.818H436.03L434.653 241.755L433.735 212.236H427.31V239.518L425.933 213.13H419.507L413.082 205.527H402.066L399.772 223.864L398.854 220.734H388.297V204.632H375.446L374.987 249.358L373.61 221.181H368.562H367.454L365.808 232.809V219.839V217.155L302.929 217.603V215.814ZM594.375 216.261V210.894H609.98V215.366H608.144V212.236H595.293V216.261H594.375Z" fill="url(#paint0_linear_497_11720)"/>
<path fill-rule="evenodd" clip-rule="evenodd" d="M15.1538 237.728V253.382H23.8743V237.728H81.2455V249.356H126.225V243.989H139.994V249.356H144.124V230.124H165.696V220.285H186.809V247.567H192.316V235.939H193.234V237.728L192.316 281.559V248.909H187.268L186.809 281.559L185.891 221.179L167.073 221.627L165.696 282.901V231.913H145.501L144.124 283.795L143.665 250.251H139.994V285.584L139.076 244.884H126.684L125.766 285.584V250.251H81.2455L80.3276 288.268V239.07L24.7922 238.622L23.4153 291.399L23.8743 254.724H15.1538L14.2359 293.188V239.07H0.0078125L15.1538 237.728Z" fill="url(#paint1_linear_497_11720)"/>
</g>
<g clip-path="url(#clip2_497_11720)">
<path d="M406.249 193.201H404.145V191.553L417.654 190.344C417.654 190.344 439.784 190.359 447.295 190.344C448.465 190.341 448.465 191.553 448.465 191.553C448.465 191.553 462.295 191.154 469.428 191.155C470.642 191.156 471.358 192.404 471.358 193.618V198.364H475.421V201.106H470.37C468.107 201.106 468.156 200.492 468.156 198.909V193.994C468.156 193.994 453.754 193.618 449.063 193.618C446.473 193.618 446.977 191.553 446.977 191.553H429.719V193.201H417.654H406.249Z" fill="url(#paint2_linear_497_11720)"/>
<path d="M493.468 201.755V198.909H508.945V202.321C508.945 202.709 508.19 202.968 508.19 202.968V207.019C508.19 207.876 507.567 208.64 506.709 208.64C504.339 208.64 500.563 208.771 500.563 208.771L497.969 207.019H504.784C505.576 207.019 506.21 206.369 506.21 205.576V202.968C506.21 202.321 505.739 201.755 505.096 201.755H493.468Z" fill="url(#paint3_linear_497_11720)"/>
<path d="M493.468 193.994V192.272L508.561 191.155V193.994H493.468Z" fill="url(#paint4_linear_497_11720)"/>
<path d="M510.203 193.994V191.155H519.464V193.994H510.203Z" fill="url(#paint5_linear_497_11720)"/>
<path d="M510.203 201.755V198.909H519.07V201.755H510.203Z" fill="url(#paint6_linear_497_11720)"/>
<path d="M521.04 201.755V198.909H526.163V201.755H521.04Z" fill="url(#paint7_linear_497_11720)"/>
<path d="M521.04 191.155H526.163H545.489H562.056C562.056 191.155 560.522 191.771 560.094 192.628C559.776 193.266 559.422 194.439 559.422 194.439H545.489V191.615H526.163V193.994H521.04V191.155Z" fill="url(#paint8_linear_497_11720)"/>
<path fill-rule="evenodd" clip-rule="evenodd" d="M545.489 200.506V202.968H551.932H556.239V208.771C556.239 209.451 556.824 209.967 557.504 209.967H559.55V207.538H558.597V202.968C558.597 202.968 559.007 200.506 556.239 200.506H545.489ZM559.909 209.967C559.905 209.147 559.902 208.337 559.899 207.538C559.881 203.11 559.87 199.039 559.87 195.626C559.87 193.633 561.035 191.532 563.026 191.615C568.75 191.853 575.211 191.877 582.437 191.903C583.866 191.909 585.275 191.903 586.706 191.898C588.731 191.89 590.8 191.881 593.029 191.903C593.029 191.903 592.418 192.538 592.043 193.083C591.591 193.74 591.439 195.032 591.439 195.032H564.626L564.511 207.538L564.489 209.967L563.997 263.604C563.997 263.604 562.79 264.367 561.944 264.307C561.242 264.257 560.284 263.604 560.284 263.604C560.284 263.604 560.012 232.914 559.909 209.967ZM564.847 209.967H570.281C570.281 209.967 570.857 209.404 570.94 208.64C571.004 208.052 570.281 207.538 570.281 207.538H564.847V209.967ZM592.543 195.032L591.735 283.042C591.735 283.042 593.016 284.009 593.97 284.029C594.972 284.05 596.34 283.042 596.34 283.042V195.032L611.272 194.439C611.272 194.439 612.16 193.488 612.14 192.744C612.121 192.038 611.272 191.155 611.272 191.155L595.189 191.553C593.465 191.596 592.543 193.433 592.543 195.032Z" fill="url(#paint9_linear_497_11720)"/>
<path fill-rule="evenodd" clip-rule="evenodd" d="M446.473 198.909V201.106H460.175V206.123V207.538C460.175 207.538 460.568 208.308 461.222 208.308C464.793 208.308 474.514 208.308 474.514 208.308L478.377 206.123H462.624V200.166C462.624 199.355 461.78 198.909 460.969 198.909H446.473ZM459.694 206.123H451.504L453.754 207.538H459.694V206.123Z" fill="url(#paint10_linear_497_11720)"/>
<path fill-rule="evenodd" clip-rule="evenodd" d="M404.145 198.279H406.249L415.903 197.508H429.719V200.509H418.883V205.366H431.514L428.236 207.896H418.883C416.902 207.896 416.902 206.58 416.902 206.58V204.733V200.509L404.145 200.166L404.145 198.279ZM416.335 204.733H407.355L410.267 206.58H416.335V204.733Z" fill="url(#paint11_linear_497_11720)"/>
<path fill-rule="evenodd" clip-rule="evenodd" d="M524.399 186.225H526.119V185.159H531.87V186.225H534.68V185.159H536.053V183.953H529.452C529.452 183.953 527.281 180.038 527.243 177.301C527.203 174.444 529.452 170.327 529.452 170.327V169.781H524.399V186.225Z" fill="url(#paint12_linear_497_11720)"/>
<path fill-rule="evenodd" clip-rule="evenodd" d="M494.05 184.883C494.05 184.883 490.458 183.345 490.459 177.109C490.46 170.873 494.05 170.386 494.05 170.386C494.05 170.386 493.474 174.591 493.453 177.301C493.431 180.271 494.05 184.883 494.05 184.883ZM499.088 184.883H494.417C494.417 184.883 494.037 180.265 494.05 177.301C494.063 174.597 494.417 170.386 494.417 170.386H499.088V184.883ZM499.468 184.883V186.225H501.635V185.159V183.139V176.116V169.781V168.793H499.468V170.386V177.301V184.883ZM502.014 176.116V183.451L504.094 185.159H506.213C506.213 185.159 504.394 182.75 503.712 180.972C503.02 179.168 502.768 176.116 502.768 176.116H503.11C503.11 176.116 503.399 179.166 504.094 180.972C504.774 182.742 506.553 185.159 506.553 185.159H508.019C508.019 185.159 506.116 182.768 505.434 180.972C504.75 179.172 504.586 176.116 504.586 176.116H505.222C505.222 176.116 505.23 179.173 505.882 180.972C506.542 182.789 508.525 185.159 508.525 185.159H509.157H509.79H511.056L509.643 181.949H520.1H520.773H521.594V176.634H507.303L507.075 176.116H521.594V169.781H502.014V176.116ZM521.998 169.781V176.116V176.634V181.949V185.159V186.225H524.093V168.793H521.998V169.781ZM536.053 183.487H535.726H530.73H529.452C529.452 183.487 527.699 179.814 527.674 177.301C527.647 174.697 529.452 170.873 529.452 170.873H531.101H539.637H540.823C540.823 170.873 539.138 174.766 539.152 177.301C539.165 179.743 540.823 183.487 540.823 183.487H539.758H536.053ZM541.216 183.487L542.261 184.206C542.261 184.206 540.83 179.88 540.823 177.086C540.816 174.22 542.261 169.781 542.261 169.781L541.216 170.873C541.216 170.873 539.752 174.786 539.758 177.301C539.764 179.722 541.216 183.487 541.216 183.487ZM541.216 177.086C541.228 179.909 542.468 184.206 542.468 184.206H547.794C547.794 184.206 545.354 183.3 545.166 177.086C544.978 170.873 547.911 169.781 547.911 169.781H542.468C542.468 169.781 541.203 174.192 541.216 177.086ZM548.732 184.206C550.542 184.206 551.545 180.079 551.571 177.086C551.598 174.026 550.736 169.781 548.732 169.781C546.34 169.781 545.475 173.968 545.505 177.086C545.535 180.139 546.73 184.206 548.732 184.206ZM548.732 170.873C547.17 170.873 546.475 174.502 546.451 177.086C546.426 179.74 547.506 183.487 548.732 183.487C549.957 183.487 550.972 179.874 551.003 177.301C551.036 174.639 550.293 170.873 548.732 170.873ZM537.845 177.301H529.015C528.994 178.774 529.59 180.651 530.085 181.949H539.068C538.529 180.64 537.867 178.748 537.845 177.301ZM537.937 176.116H529.141C529.369 174.882 529.862 173.565 530.296 172.56H538.936C538.554 173.573 538.122 174.899 537.937 176.116ZM515.223 171.317V174.976H520.773V171.317H515.223Z" fill="url(#paint13_linear_497_11720)"/>
<path d="M509.643 202.52L509.79 185.159H509.157L509.643 202.52Z" fill="url(#paint14_linear_497_11720)"/>
<path d="M520.668 185.159H520.1C520.1 185.159 520.1 195.74 520.1 202.52C520.322 195.74 520.668 185.159 520.668 185.159Z" fill="url(#paint15_linear_497_11720)"/>
<path d="M520.1 202.52C516.016 202.52 509.643 202.52 509.643 202.52C509.643 202.52 508.878 203.148 508.878 203.616C508.878 207.021 508.878 213.533 508.878 213.533H512.474H518.121H521.285C521.285 213.533 521.594 207.746 521.594 203.616C521.594 202.893 520.737 202.864 520.1 202.52Z" fill="url(#paint16_linear_497_11720)"/>
<path d="M512.474 213.533V217.017C512.474 217.777 512.934 218.246 513.587 218.527C514.295 218.832 515.23 218.919 516.052 218.919C517.115 218.919 518.121 217.017 518.121 217.017V213.533H512.474Z" fill="url(#paint17_linear_497_11720)"/>
<path d="M516.052 218.919C515.23 218.919 514.295 218.832 513.587 218.527V221.099C513.587 221.099 509.53 224.105 510.126 226.558C510.633 228.647 512.281 230.033 514.431 229.989C516.116 229.955 517.366 229.259 518.121 227.753C518.757 226.484 518.478 225.492 518.121 224.118C517.785 222.823 516.947 222.11 516.947 222.11C516.947 222.11 517.159 222.945 516.947 224.118C516.7 225.49 516.438 227.207 515.046 227.138C514.071 227.089 513.567 226.396 513.145 225.516C512.251 223.655 516.052 221.099 516.052 221.099V218.919Z" fill="url(#paint18_linear_497_11720)"/>
<path fill-rule="evenodd" clip-rule="evenodd" d="M519.263 156.16L530.817 167.878H524.63V166.963H520.85V168.796H502.405V166.963H498.25V169.04H495.992L497.197 165.656L526.61 166.067L523.715 163.448H497.983L498.79 161.183H521.509L519.263 159.175L499.619 158.855L500.578 156.16H519.263Z" fill="url(#paint19_linear_497_11720)"/>
<path d="M380.004 291.681C380.004 295.057 380.004 300.759 380.004 300.759C380.004 300.759 380.921 301.159 381.544 301.182C382.265 301.209 384.243 300.759 384.243 300.759V293.612C384.243 292.299 385.285 292.329 386.589 292.495C401.765 294.42 410.049 295.105 428.151 297.015C429.911 297.2 430.703 298.99 430.703 300.759V307.222C430.703 307.222 431.977 307.781 432.942 307.793C433.943 307.807 435.441 307.222 435.441 307.222L435.441 298.95C435.441 295.099 432.682 292.882 428.151 292.495C412.49 291.157 396.053 289.076 383.343 287.998C381.408 287.834 380.004 289.739 380.004 291.681Z" fill="url(#paint20_linear_497_11720)"/>
<path fill-rule="evenodd" clip-rule="evenodd" d="M261.046 229.108C261.046 229.108 258.527 227.668 256.624 227.668C255.258 227.668 253.436 229.108 253.436 229.108V246.097C253.436 246.097 255.694 247.48 257.293 247.467C258.853 247.453 261.046 246.097 261.046 246.097V229.108ZM260.514 245.719V229.571C260.514 229.571 258.81 230.266 257.293 230.448C257.063 230.476 256.838 230.492 256.624 230.492C255.728 230.492 254.376 230.028 254.376 230.028V245.719C254.376 245.719 255.532 246.407 256.624 246.695C256.853 246.755 257.08 246.688 257.293 246.695C258.629 246.739 260.514 245.719 260.514 245.719Z" fill="url(#paint21_linear_497_11720)"/>
<path fill-rule="evenodd" clip-rule="evenodd" d="M256.624 225.508V226.845H255.647V223.247C255.647 223.247 257.084 222.907 258.024 222.848C259.531 222.753 261.87 223.247 261.87 223.247C261.87 223.247 259.834 223.609 258.661 224.181C257.807 224.597 256.624 225.508 256.624 225.508ZM259.096 223.538L256.624 223.803V224.783L259.096 223.538Z" fill="url(#paint22_linear_497_11720)"/>
<path d="M256.624 246.695C256.853 246.755 257.08 246.688 257.293 246.695V230.448C257.063 230.476 256.838 230.492 256.624 230.492V246.695Z" fill="url(#paint23_linear_497_11720)"/>
<path d="M242.148 219.559H234.932V225.349H242.148V219.559Z" fill="url(#paint24_linear_497_11720)"/>
<path fill-rule="evenodd" clip-rule="evenodd" d="M237.944 247.949V245.57L236.149 245.767V248.068L237.944 247.949ZM234.959 248.148L233.186 248.266V246.092L234.959 245.897V248.148Z" fill="url(#paint25_linear_497_11720)"/>
<path fill-rule="evenodd" clip-rule="evenodd" d="M248.435 215.379L227.653 215.999L221.312 215.379L237.225 214.766L248.435 215.379ZM228.408 252.605V252.159L228.391 252.155L228.408 252.605Z" fill="url(#paint26_linear_497_11720)"/>
<path d="M248.435 249.9V215.379L227.653 215.999L221.312 215.379L222.09 251.198L228.408 252.605L228.391 252.155L222.574 250.809L221.763 215.999L227.047 216.705L228.391 252.155L228.408 252.159V216.705L248.045 215.692V249.59L228.408 252.159V252.605L248.435 249.9Z" fill="url(#paint27_linear_497_11720)"/>
<path fill-rule="evenodd" clip-rule="evenodd" d="M238.023 239.067H236.864V237.401L238.023 237.36V239.067ZM240.07 239.067H238.924V237.327L240.07 237.286V239.067ZM238.924 228.695L240.07 228.66V230.703H238.924V228.695ZM236.864 228.758L238.023 228.723V230.703H236.864V228.758ZM235.924 228.787L234.531 228.83V230.703H235.947L235.924 228.787ZM235.958 231.66H234.531V233.741L235.983 233.703L235.958 231.66ZM235.995 234.702L234.531 234.739V236.487H236.016L235.995 234.702ZM236.864 236.487V234.679L238.023 234.649V236.487H236.864ZM238.924 236.487H240.07V234.597L238.924 234.626V236.487ZM238.924 233.628L240.07 233.598V231.66H238.924V233.628ZM238.023 231.66H236.864V233.681L238.023 233.651V231.66ZM240.958 231.66V233.575L242.603 233.533V231.66H240.958ZM240.958 234.574V236.487H242.603V234.531L240.958 234.574ZM240.958 237.254L242.603 237.194V239.067H240.958V237.254ZM236.027 237.432L234.531 237.486V239.067H236.046L236.027 237.432ZM240.958 230.703V228.633L242.603 228.582V230.703H240.958Z" fill="url(#paint28_linear_497_11720)"/>
<path fill-rule="evenodd" clip-rule="evenodd" d="M279.816 286.389C279.816 287.378 276.232 288.162 273.85 288.149C273.63 288.148 273.4 288.138 273.164 288.122V284.503C273.386 284.52 273.615 284.529 273.85 284.529C277.121 284.529 279.816 282.305 279.816 282.305V286.389ZM269.643 283.174C268.697 282.732 268.039 282.216 268.039 281.784C268.039 281.223 269.643 281.031 269.643 281.031V283.174ZM278.233 281.031C278.233 281.031 279.816 281.195 279.816 281.784C279.816 282.135 279.17 282.636 278.233 283.089V281.031Z" fill="url(#paint29_linear_497_11720)"/>
<path fill-rule="evenodd" clip-rule="evenodd" d="M398.444 202.908C398.952 202.908 399.445 202.926 399.925 202.961C409.209 203.637 413.192 210.517 413.192 210.517V260.779C413.192 260.779 412.168 262.5 411.277 263.382C410.417 264.231 409.85 264.642 408.787 265.184C408.787 265.184 408.919 265.07 409.122 264.883C409.584 264.459 410.414 263.661 410.894 262.981C411.431 262.219 412.043 260.876 412.043 260.876C409.437 261.09 402.956 261.583 398.444 261.58C393.998 261.576 387.618 261.09 385.036 260.877C385.036 260.877 385.481 262.238 385.994 262.981C386.317 263.45 386.951 264.083 386.951 264.083L387.806 264.851L388.298 265.227L387.909 265.184C387.909 265.184 386.392 264.223 385.611 263.382C384.787 262.495 383.887 260.779 383.887 260.779V212.119V210.517C383.887 210.517 387.384 204.203 395.826 203.078C396.651 202.968 397.523 202.908 398.444 202.908ZM387.909 265.184C385.994 268.989 385.611 274.595 385.611 277.199C387.909 277.799 393.081 277.799 393.081 277.799C393.081 277.799 394.613 269.79 399.593 268.588C408.043 266.549 410.127 277.199 410.127 277.199H412.043C412.043 277.199 411.277 269.389 408.787 265.184C408.191 265.249 407.622 265.315 407.068 265.378C404.241 265.703 401.831 265.98 398.444 265.985C394.965 265.99 392.449 265.702 389.563 265.371C389.027 265.309 388.479 265.247 387.909 265.184ZM398.827 213.521C397.613 213.592 396.259 213.573 394.876 213.498C393.228 213.409 391.537 213.241 389.992 213.053C387.937 212.802 386.139 212.514 385.036 212.325V259.978C386.545 260.125 388.054 260.245 389.563 260.344C391.063 260.442 392.562 260.518 394.062 260.578C395.522 260.636 396.983 260.677 398.444 260.707C402.38 260.788 406.318 260.784 410.264 260.78C410.857 260.779 411.45 260.779 412.043 260.779L412.426 210.746C410.187 211.399 403.516 213.248 398.827 213.521ZM398.444 212.119C397.342 212.118 396.124 212.057 394.876 211.961C393.236 211.834 391.543 211.644 389.992 211.444C388.267 211.222 387.615 211.227 386.508 211.048C387.55 208.606 389.178 206.978 391.213 205.757C393.248 204.536 396.145 203.484 397.677 203.309C399.21 203.134 403.09 203.519 406.105 205.111C408.98 206.628 412.426 210.649 412.426 210.649C410.137 211.034 403.215 212.126 398.444 212.119ZM400.981 267.217C408.715 266.81 411.277 276.578 411.277 276.578C411.277 276.578 410.612 273.309 409.936 271.287C409.281 269.327 407.901 266.403 407.901 266.403C407.901 266.403 402.199 266.81 398.539 266.81C394.88 266.81 389.178 266.403 389.178 266.403C389.178 266.403 387.956 269.064 387.55 270.88C387.097 272.902 387.143 276.171 387.143 276.171L392.027 276.578C392.027 276.578 393.827 267.593 400.981 267.217Z" fill="url(#paint30_linear_497_11720)"/>
<path d="M394.062 260.578L394.876 213.498C393.228 213.409 391.537 213.241 389.992 213.053L389.563 260.344C391.063 260.442 392.562 260.518 394.062 260.578Z" fill="url(#paint31_linear_497_11720)"/>
<path d="M397.677 203.309C397.677 203.309 394.427 204.809 392.841 206.571C391.457 208.109 389.992 211.444 389.992 211.444C391.543 211.644 393.236 211.834 394.876 211.961C394.876 211.961 394.842 208.152 395.69 206.571C396.911 204.297 398.173 203.274 398.173 203.274L397.677 203.309Z" fill="url(#paint32_linear_497_11720)"/>
<path d="M408.787 265.184C408.787 265.184 408.919 265.07 409.122 264.883C409.122 264.883 402.423 265.331 398.132 265.182C393.747 265.029 386.951 264.083 386.951 264.083L387.806 264.851C387.806 264.851 394.029 265.527 398.132 265.589C402.296 265.651 408.787 265.184 408.787 265.184Z" fill="url(#paint33_linear_497_11720)"/>
<path d="M388.084 191.648L387.933 200.906L388.772 200.953L389.17 192.369L389.203 191.648H388.084Z" fill="url(#paint34_linear_497_11720)"/>
<path d="M397.453 191.648H389.203L389.17 192.369H397.504L397.453 191.648Z" fill="url(#paint35_linear_497_11720)"/>
<path d="M398.173 191.648H397.453L397.504 192.369L398.153 201.477L398.173 201.478V192.369V191.648Z" fill="url(#paint36_linear_497_11720)"/>
<path d="M403.587 191.648H398.173V192.369H402.88H403.587V191.648Z" fill="url(#paint37_linear_497_11720)"/>
<path d="M399.925 201.756H403.587V192.369H402.88V201.085L398.173 201.478V201.756H399.925Z" fill="url(#paint38_linear_497_11720)"/>
<path d="M395.826 201.756H398.173L398.153 201.477L388.772 200.953L387.933 200.906L387.919 201.756H395.826Z" fill="url(#paint39_linear_497_11720)"/>
<path d="M395.826 203.078C396.651 202.968 397.523 202.908 398.444 202.908C398.952 202.908 399.445 202.926 399.925 202.961V201.756H398.173H395.826V203.078Z" fill="url(#paint40_linear_497_11720)"/>
<path fill-rule="evenodd" clip-rule="evenodd" d="M440.701 205.408C441.23 205.408 441.743 205.427 442.242 205.464C451.9 206.167 456.043 213.324 456.043 213.324V265.608C456.043 265.608 454.978 267.399 454.051 268.316C453.157 269.199 452.566 269.627 451.461 270.19C451.461 270.19 451.598 270.072 451.809 269.878C452.29 269.437 453.153 268.606 453.652 267.899C454.211 267.106 454.848 265.709 454.848 265.709C452.137 265.932 445.396 266.444 440.701 266.441C436.077 266.438 429.44 265.931 426.754 265.71C426.754 265.71 427.217 267.126 427.75 267.899C428.087 268.387 428.747 269.045 428.747 269.045L429.635 269.844L430.147 270.235L429.743 270.19C429.743 270.19 428.165 269.191 427.352 268.316C426.495 267.393 425.559 265.608 425.559 265.608V214.99V213.324C425.559 213.324 429.196 206.755 437.978 205.585C438.836 205.471 439.743 205.408 440.701 205.408ZM429.743 270.19C427.75 274.148 427.352 279.98 427.352 282.688C429.743 283.313 435.122 283.313 435.122 283.313C435.122 283.313 436.716 274.981 441.897 273.731C450.687 271.611 452.855 282.688 452.855 282.688H454.848C454.848 282.688 454.051 274.565 451.461 270.19C450.841 270.258 450.249 270.326 449.673 270.393C446.732 270.73 444.225 271.019 440.701 271.023C437.082 271.029 434.466 270.729 431.464 270.385C430.906 270.321 430.336 270.256 429.743 270.19ZM441.1 216.448C439.837 216.522 438.429 216.502 436.99 216.424C435.275 216.332 433.517 216.157 431.91 215.961C429.772 215.7 427.902 215.4 426.754 215.204V264.774C428.324 264.928 429.894 265.053 431.464 265.156C433.024 265.257 434.583 265.337 436.144 265.399C437.663 265.459 439.182 265.502 440.701 265.534C444.796 265.618 448.893 265.614 452.997 265.609C453.614 265.609 454.231 265.608 454.848 265.608L455.246 213.561C452.917 214.241 445.978 216.164 441.1 216.448ZM440.701 214.99C439.555 214.988 438.289 214.926 436.99 214.825C435.284 214.693 433.523 214.496 431.91 214.288C430.115 214.056 429.437 214.061 428.286 213.876C429.369 211.336 431.063 209.642 433.18 208.372C435.297 207.102 438.31 206.007 439.904 205.825C441.498 205.643 445.535 206.044 448.671 207.699C451.662 209.278 455.246 213.461 455.246 213.461C452.866 213.861 445.665 214.997 440.701 214.99ZM443.341 272.305C451.386 271.882 454.051 282.043 454.051 282.043C454.051 282.043 453.359 278.642 452.656 276.539C451.975 274.5 450.539 271.458 450.539 271.458C450.539 271.458 444.607 271.882 440.801 271.882C436.994 271.882 431.063 271.458 431.063 271.458C431.063 271.458 429.792 274.227 429.369 276.116C428.898 278.219 428.946 281.62 428.946 281.62L434.027 282.043C434.027 282.043 435.899 272.697 443.341 272.305Z" fill="url(#paint41_linear_497_11720)"/>
<path d="M436.144 265.399L436.99 216.424C435.275 216.332 433.517 216.157 431.91 215.961L431.464 265.156C433.024 265.257 434.583 265.337 436.144 265.399Z" fill="url(#paint42_linear_497_11720)"/>
<path d="M439.904 205.825C439.904 205.825 436.523 207.385 434.873 209.219C433.434 210.819 431.91 214.288 431.91 214.288C433.523 214.496 435.284 214.693 436.99 214.825C436.99 214.825 436.954 210.863 437.837 209.219C439.107 206.853 440.42 205.789 440.42 205.789L439.904 205.825Z" fill="url(#paint43_linear_497_11720)"/>
<path d="M451.461 270.19C451.461 270.19 451.598 270.072 451.809 269.878C451.809 269.878 444.841 270.343 440.378 270.188C435.816 270.029 428.747 269.045 428.747 269.045L429.635 269.844C429.635 269.844 436.109 270.547 440.378 270.611C444.708 270.676 451.461 270.19 451.461 270.19Z" fill="url(#paint44_linear_497_11720)"/>
<path d="M429.925 193.695L429.767 203.326L430.641 203.375L431.054 194.445L431.089 193.695H429.925Z" fill="url(#paint45_linear_497_11720)"/>
<path d="M439.671 193.695H431.089L431.054 194.445H439.724L439.671 193.695Z" fill="url(#paint46_linear_497_11720)"/>
<path d="M440.42 193.695H439.671L439.724 194.445L440.399 203.919L440.42 203.92V194.445V193.695Z" fill="url(#paint47_linear_497_11720)"/>
<path d="M446.052 193.695H440.42V194.445H445.316H446.052V193.695Z" fill="url(#paint48_linear_497_11720)"/>
<path d="M442.242 204.209H446.052V194.445H445.316V203.511L440.42 203.92V204.209H442.242Z" fill="url(#paint49_linear_497_11720)"/>
<path d="M437.978 204.209H440.42L440.399 203.919L430.641 203.375L429.767 203.326L429.753 204.209H437.978Z" fill="url(#paint50_linear_497_11720)"/>
<path d="M437.978 205.585C438.836 205.471 439.743 205.408 440.701 205.408C441.23 205.408 441.743 205.427 442.242 205.464V204.209H440.42H437.978V205.585Z" fill="url(#paint51_linear_497_11720)"/>
<path fill-rule="evenodd" clip-rule="evenodd" d="M371.183 282.771V280.29L574.136 298.193V301.2L371.183 282.771Z" fill="url(#paint52_linear_497_11720)"/>
<path fill-rule="evenodd" clip-rule="evenodd" d="M487.324 204.235C487.887 204.235 488.434 204.256 488.965 204.294C499.247 205.043 503.658 212.663 503.658 212.663V268.326C503.658 268.326 502.524 270.233 501.537 271.209C500.585 272.149 499.956 272.604 498.779 273.204C498.779 273.204 498.925 273.078 499.15 272.872C499.662 272.402 500.581 271.518 501.113 270.765C501.708 269.921 502.385 268.434 502.385 268.434C499.5 268.671 492.322 269.216 487.324 269.213C482.401 269.209 475.335 268.67 472.476 268.434C472.476 268.434 472.968 269.942 473.536 270.765C473.895 271.284 474.597 271.985 474.597 271.985L475.543 272.836L476.088 273.252L475.658 273.204C475.658 273.204 473.978 272.141 473.112 271.209C472.2 270.226 471.203 268.326 471.203 268.326V214.437V212.663C471.203 212.663 475.076 205.669 484.425 204.424C485.339 204.302 486.305 204.235 487.324 204.235ZM475.658 273.204C473.536 277.418 473.112 283.627 473.112 286.51C475.658 287.176 481.385 287.176 481.385 287.176C481.385 287.176 483.082 278.305 488.597 276.974C497.956 274.717 500.264 286.51 500.264 286.51H502.385C502.385 286.51 501.537 277.862 498.779 273.204C498.119 273.277 497.489 273.349 496.876 273.42C493.745 273.78 491.076 274.086 487.324 274.091C483.472 274.097 480.686 273.778 477.49 273.411C476.896 273.343 476.289 273.274 475.658 273.204ZM487.749 215.989C486.404 216.067 484.905 216.046 483.374 215.964C481.548 215.865 479.676 215.679 477.965 215.47C475.689 215.192 473.697 214.873 472.476 214.664V267.439C474.147 267.602 475.819 267.735 477.49 267.844C479.151 267.953 480.811 268.037 482.472 268.103C484.089 268.167 485.707 268.214 487.324 268.247C491.683 268.336 496.045 268.332 500.415 268.327C501.072 268.327 501.728 268.326 502.385 268.326L502.809 212.915C500.33 213.639 492.942 215.687 487.749 215.989ZM487.324 214.437C486.104 214.435 484.756 214.368 483.374 214.261C481.557 214.12 479.682 213.911 477.965 213.689C476.054 213.442 475.332 213.448 474.107 213.251C475.26 210.546 477.063 208.743 479.317 207.391C481.571 206.038 484.779 204.873 486.476 204.679C488.173 204.485 492.471 204.912 495.809 206.675C498.993 208.356 502.809 212.809 502.809 212.809C500.275 213.235 492.609 214.444 487.324 214.437ZM490.135 275.456C498.7 275.005 501.537 285.823 501.537 285.823C501.537 285.823 500.8 282.202 500.052 279.963C499.326 277.793 497.798 274.554 497.798 274.554C497.798 274.554 491.483 275.005 487.431 275.005C483.378 275.005 477.063 274.554 477.063 274.554C477.063 274.554 475.71 277.502 475.26 279.513C474.759 281.752 474.809 285.373 474.809 285.373L480.218 285.823C480.218 285.823 482.212 275.873 490.135 275.456Z" fill="url(#paint53_linear_497_11720)"/>
<path d="M482.472 268.103L483.374 215.964C481.548 215.865 479.676 215.679 477.965 215.47L477.49 267.844C479.151 267.953 480.811 268.037 482.472 268.103Z" fill="url(#paint54_linear_497_11720)"/>
<path d="M486.476 204.679C486.476 204.679 482.876 206.34 481.12 208.292C479.588 209.996 477.965 213.689 477.965 213.689C479.682 213.911 481.557 214.12 483.374 214.261C483.374 214.261 483.336 210.043 484.275 208.292C485.628 205.773 487.025 204.641 487.025 204.641L486.476 204.679Z" fill="url(#paint55_linear_497_11720)"/>
<path d="M498.779 273.204C498.779 273.204 498.925 273.078 499.15 272.872C499.15 272.872 491.732 273.367 486.98 273.202C482.124 273.033 474.597 271.985 474.597 271.985L475.543 272.836C475.543 272.836 482.436 273.585 486.98 273.653C491.591 273.722 498.779 273.204 498.779 273.204Z" fill="url(#paint56_linear_497_11720)"/>
<path d="M475.851 191.766L475.684 202.019L476.614 202.071L477.054 192.564L477.091 191.766H475.851Z" fill="url(#paint57_linear_497_11720)"/>
<path d="M486.227 191.766H477.091L477.054 192.564H486.284L486.227 191.766Z" fill="url(#paint58_linear_497_11720)"/>
<path d="M487.025 191.766H486.227L486.284 192.564L487.003 202.65L487.025 202.651V192.564V191.766Z" fill="url(#paint59_linear_497_11720)"/>
<path d="M493.021 191.766H487.025V192.564H492.238H493.021V191.766Z" fill="url(#paint60_linear_497_11720)"/>
<path d="M488.965 202.959H493.021V192.564H492.238V202.216L487.025 202.651V202.959H488.965Z" fill="url(#paint61_linear_497_11720)"/>
<path d="M484.425 202.959H487.025L487.003 202.65L476.614 202.071L475.684 202.019L475.668 202.959H484.425Z" fill="url(#paint62_linear_497_11720)"/>
<path d="M484.425 204.424C485.339 204.302 486.305 204.235 487.324 204.235C487.887 204.235 488.434 204.256 488.965 204.294V202.959H487.025H484.425V204.424Z" fill="url(#paint63_linear_497_11720)"/>
<path fill-rule="evenodd" clip-rule="evenodd" d="M538.953 205.012C539.551 205.012 540.131 205.033 540.695 205.074C551.617 205.869 556.303 213.963 556.303 213.963V273.091C556.303 273.091 555.098 275.117 554.05 276.153C553.039 277.153 552.371 277.636 551.121 278.273C551.121 278.273 551.276 278.139 551.515 277.92C552.058 277.421 553.035 276.482 553.599 275.682C554.231 274.786 554.951 273.206 554.951 273.206C551.886 273.458 544.262 274.037 538.953 274.033C533.723 274.029 526.217 273.457 523.18 273.206C523.18 273.206 523.703 274.808 524.307 275.682C524.688 276.234 525.433 276.978 525.433 276.978L526.439 277.882L527.017 278.324L526.56 278.273C526.56 278.273 524.776 277.143 523.856 276.153C522.887 275.11 521.828 273.091 521.828 273.091V215.848V213.963C521.828 213.963 525.942 206.534 535.873 205.212C536.844 205.083 537.87 205.012 538.953 205.012ZM526.56 278.273C524.307 282.749 523.856 289.345 523.856 292.407C526.56 293.114 532.644 293.114 532.644 293.114C532.644 293.114 534.446 283.691 540.305 282.278C550.246 279.88 552.698 292.407 552.698 292.407H554.951C554.951 292.407 554.05 283.22 551.121 278.273C550.42 278.35 549.75 278.427 549.099 278.502C545.773 278.884 542.938 279.21 538.953 279.216C534.86 279.221 531.901 278.882 528.506 278.493C527.876 278.421 527.23 278.347 526.56 278.273ZM539.404 217.497C537.976 217.58 536.383 217.557 534.756 217.47C532.817 217.365 530.828 217.168 529.01 216.946C526.593 216.651 524.478 216.312 523.18 216.089V272.149C524.956 272.322 526.731 272.464 528.506 272.58C530.27 272.695 532.034 272.785 533.799 272.855C535.516 272.923 537.234 272.972 538.953 273.007C543.583 273.102 548.217 273.097 552.859 273.093C553.556 273.092 554.253 273.091 554.951 273.091L555.402 214.232C552.768 215 544.92 217.175 539.404 217.497ZM538.953 215.848C537.657 215.846 536.224 215.775 534.756 215.661C532.826 215.512 530.835 215.289 529.01 215.054C526.981 214.792 526.214 214.797 524.912 214.588C526.137 211.715 528.053 209.8 530.447 208.363C532.841 206.927 536.249 205.689 538.052 205.483C539.854 205.277 544.419 205.731 547.966 207.603C551.348 209.388 555.402 214.118 555.402 214.118C552.709 214.571 544.566 215.856 538.953 215.848ZM541.938 280.665C551.036 280.186 554.05 291.678 554.05 291.678C554.05 291.678 553.268 287.831 552.472 285.453C551.702 283.148 550.078 279.707 550.078 279.707C550.078 279.707 543.37 280.186 539.066 280.186C534.761 280.186 528.053 279.707 528.053 279.707C528.053 279.707 526.615 282.838 526.137 284.974C525.605 287.353 525.659 291.199 525.659 291.199L531.404 291.678C531.404 291.678 533.522 281.108 541.938 280.665Z" fill="url(#paint64_linear_497_11720)"/>
<path d="M533.799 272.855L534.756 217.47C532.817 217.365 530.828 217.168 529.01 216.946L528.506 272.58C530.27 272.695 532.034 272.785 533.799 272.855Z" fill="url(#paint65_linear_497_11720)"/>
<path d="M538.052 205.483C538.052 205.483 534.228 207.247 532.362 209.321C530.734 211.13 529.01 215.054 529.01 215.054C530.835 215.289 532.826 215.512 534.756 215.661C534.756 215.661 534.716 211.18 535.714 209.321C537.15 206.645 538.635 205.443 538.635 205.443L538.052 205.483Z" fill="url(#paint66_linear_497_11720)"/>
<path d="M551.121 278.273C551.121 278.273 551.276 278.139 551.515 277.92C551.515 277.92 543.634 278.446 538.587 278.271C533.428 278.091 525.433 276.978 525.433 276.978L526.439 277.882C526.439 277.882 533.76 278.677 538.587 278.75C543.484 278.823 551.121 278.273 551.121 278.273Z" fill="url(#paint67_linear_497_11720)"/>
<path d="M526.766 191.766L526.588 202.657L527.575 202.712L528.043 192.614L528.083 191.766H526.766Z" fill="url(#paint68_linear_497_11720)"/>
<path d="M537.787 191.766H528.083L528.043 192.614H537.848L537.787 191.766Z" fill="url(#paint69_linear_497_11720)"/>
<path d="M538.635 191.766H537.787L537.848 192.614L538.612 203.327L538.635 203.329V192.614V191.766Z" fill="url(#paint70_linear_497_11720)"/>
<path d="M545.004 191.766H538.635V192.614H544.172H545.004V191.766Z" fill="url(#paint71_linear_497_11720)"/>
<path d="M540.695 203.656H545.004V192.614H544.172V202.867L538.635 203.329V203.656H540.695Z" fill="url(#paint72_linear_497_11720)"/>
<path d="M535.873 203.656H538.635L538.612 203.327L527.575 202.712L526.588 202.657L526.571 203.656H535.873Z" fill="url(#paint73_linear_497_11720)"/>
<path d="M535.873 205.212C536.844 205.083 537.87 205.012 538.953 205.012C539.551 205.012 540.131 205.033 540.695 205.074V203.656H538.635H535.873V205.212Z" fill="url(#paint74_linear_497_11720)"/>
<path fill-rule="evenodd" clip-rule="evenodd" d="M270.918 276.646C270.918 265.541 270.918 242.479 270.918 227.545C270.918 222.734 275.263 219.106 280.069 219.3C281.742 219.368 283.501 219.44 285.334 219.514C289.028 219.665 293.021 219.827 297.205 219.994C297.205 219.994 296.384 221.51 296.384 223.666C296.384 225.213 297.205 227.117 297.205 227.117C291.967 226.97 286.739 226.829 281.551 226.691C279.353 226.632 277.638 228.541 277.638 230.739V271.32L273.737 272.682L270.918 276.646ZM273.279 283.635C273.601 283.686 273.92 283.719 274.206 283.721C275.572 283.732 277.638 283.053 277.638 283.053V273.013C275.52 273.319 273.279 275.102 273.279 277.361C273.279 279.968 273.279 283.635 273.279 283.635ZM300.753 223.27C300.753 220.728 302.641 220.18 302.641 220.18C322.112 220.937 344.441 221.719 360.188 221.719C365.781 221.719 370.317 226.25 370.317 231.843V292.395C370.317 292.395 368.448 292.996 367.083 293.002C365.703 293.009 363.805 292.395 363.805 292.395V233.934C363.805 231.135 361.986 229.443 359.19 229.31C341.395 228.464 322.096 227.808 302.641 227.25C302.641 227.25 300.753 226.427 300.753 223.27Z" fill="url(#paint75_linear_497_11720)"/>
<path fill-rule="evenodd" clip-rule="evenodd" d="M305.195 217.211C306.549 217.21 307.93 219.965 307.93 219.965C307.93 219.965 306.692 220.131 305.871 219.965C304.519 219.69 302.444 219.965 302.109 220.223C300.9 221.16 300.576 222.103 300.565 223.171C300.552 224.424 300.978 227.185 302.893 227.463C303.776 227.592 304.343 227.624 305.195 227.542C306.138 227.451 307.57 227.463 307.57 227.463C307.57 227.463 306.264 229.766 305.195 229.766C304.549 229.766 303.825 229.782 303.143 229.798C301.892 229.827 300.783 229.853 300.565 229.766C297.788 228.659 296.545 226.157 296.68 223.171C296.805 220.396 297.988 218.25 300.565 217.211C300.738 217.141 301.273 217.126 301.946 217.134V214.118H297.802V208.385H301.946L308.649 207.945V213.533L303.714 213.964V217.18C304.255 217.196 304.776 217.211 305.195 217.211ZM301.946 209.016V213.338L307.57 212.801V208.663L301.946 209.016ZM301.356 209.016H298.353V213.532L301.356 213.533V209.016Z" fill="url(#paint76_linear_497_11720)"/>
<path fill-rule="evenodd" clip-rule="evenodd" d="M336.818 218.339C338.172 218.339 339.193 221.167 339.193 221.167H337.439H333.906C333.906 221.167 332.206 222.456 332.188 224.3C332.148 228.261 334.304 228.468 334.304 228.468L336.547 228.578H338.944C338.944 228.578 337.887 230.895 336.818 230.895C336.172 230.895 335.448 230.911 334.766 230.927C333.515 230.956 332.406 230.982 332.188 230.895C329.412 229.788 328.168 227.286 328.303 224.3C328.428 221.524 329.611 219.379 332.188 218.339C332.361 218.269 332.896 218.255 333.57 218.263V215.247H329.425V209.514H333.57L340.272 209.074V214.662L335.337 215.093V218.309C335.878 218.325 336.399 218.339 336.818 218.339ZM333.57 210.145V214.467L339.193 213.93V209.792L333.57 210.145ZM332.979 210.145H329.976V214.661L332.979 214.662V210.145Z" fill="url(#paint77_linear_497_11720)"/>
<path d="M491.357 131.739L376.83 136.796V140.066L491.357 134.278V131.739Z" fill="url(#paint78_linear_497_11720)"/>
<path d="M273.824 141.344V145.271L279.146 145.002L370.317 140.395V137.083L273.824 141.344Z" fill="url(#paint79_linear_497_11720)"/>
<path d="M273.824 141.344L193.159 144.905V149.348L273.824 145.271V141.344Z" fill="url(#paint80_linear_497_11720)"/>
<path fill-rule="evenodd" clip-rule="evenodd" d="M581.364 119.401L496.612 131.739H491.357V134.278V144.905L376.83 148.318V140.066V136.796L370.317 137.083V140.395V148.512L279.146 151.229L273.824 151.387L193.159 153.791L193.792 289.159H196.744V288.247V158.248L496.612 150.146L640.695 156.537L644.876 156.722L647.102 156.821V143.876L581.364 119.401ZM177.215 138.566L193.159 138.774L491.357 125.064L581.952 113.416L647.102 138.241H658.609V131.739L581.952 102.824L491.357 113.416L177.215 132.882V138.566ZM547.303 141.058L560.489 127.967V142.203L547.303 141.058ZM562.693 127.635V142.395L576.988 143.636L563.813 127.466L562.693 127.635ZM579.746 125.064V143.876L566.962 126.991L579.746 125.064ZM543.052 130.595V140.689L543.851 140.758L554.47 128.874L543.052 130.595ZM539.637 140.392L527.878 132.882L540.405 130.994V140.459L539.637 140.392ZM521.006 133.917V138.774L533.124 139.826L521.931 133.778L521.006 133.917ZM500.563 136.998L518.615 134.278V138.566L500.563 136.998ZM501.439 142.855V144.905L576.988 149.386V147.474L501.439 142.855ZM581.952 143.636L581.364 125.064L590.744 128.355L581.952 143.636ZM593.384 129.281L585.223 143.829L593.384 144.31V129.281ZM595.63 144.443V130.07L603.478 144.905L595.63 144.443ZM599.14 131.301L606.533 145.086L607.312 145.131L606.598 133.917L599.14 131.301ZM608.968 145.229V134.749L616.522 137.399L608.968 145.229ZM618.922 138.241L613.047 145.47L619.849 145.871V138.566L618.922 138.241ZM622.01 145.998V139.324L623.441 139.826L628.801 146.399L622.01 145.998ZM626.097 140.758L631.451 146.555L632.073 146.592V142.855L626.097 140.758ZM644.876 147.347L634.139 146.713V143.58L644.876 147.347ZM643.833 151.562V153.35L585.223 149.874V147.978L643.833 151.562Z" fill="url(#paint81_linear_497_11720)"/>
<path d="M643.833 294.637L644.876 156.722L640.695 156.537V293.018V295.318L643.833 294.637Z" fill="url(#paint82_linear_497_11720)"/>
<path d="M498.341 326.209V330.754L643.833 298.902V294.637L640.695 295.318L637.792 295.947L498.341 326.209Z" fill="url(#paint83_linear_497_11720)"/>
<path d="M196.744 289.159H193.792V293.227L498.341 330.754V326.209L199.355 289.48L196.744 289.159Z" fill="url(#paint84_linear_497_11720)"/>
<path d="M196.744 289.159L199.355 289.48L264.748 282.748L196.744 288.247V289.159Z" fill="url(#paint85_linear_497_11720)"/>
<path d="M455.467 280.12V279.346L454.816 279.298V280.063L455.467 280.12Z" fill="url(#paint86_linear_497_11720)"/>
<path fill-rule="evenodd" clip-rule="evenodd" d="M640.695 295.318L637.792 295.947L555.269 288.784L554.651 286.667L640.695 293.018V295.318ZM549.615 286.295L536.687 285.341L535.327 287.052L550.48 288.368L549.615 286.295ZM502.399 282.81L524.08 284.41L523.793 286.051L502.723 284.222L502.399 282.81ZM498.425 282.517L484.055 281.456L483.08 282.517L498.94 283.893L498.425 282.517ZM455.467 279.346L473.212 280.656L472.877 281.631L455.467 280.12V279.346ZM450.941 279.012L451.231 279.752L437.262 278.539L437.622 278.029L450.941 279.012ZM412.068 276.143L427.469 277.279V277.689L412.068 276.352V276.143ZM409.668 275.965L395.955 274.953L409.655 276.143L409.668 275.965Z" fill="url(#paint87_linear_497_11720)"/>
<path d="M320.232 217.619C321.586 217.619 322.912 220.753 322.912 220.753L320.656 220.645L317.173 220.519C317.173 220.519 315.689 221.738 315.602 223.58C315.434 227.177 317.967 227.99 317.967 227.99H320.024H322.497C322.497 227.99 321.301 230.174 320.232 230.174C319.587 230.174 318.862 230.191 318.18 230.207H318.18C316.929 230.236 315.821 230.261 315.602 230.174C312.826 229.067 311.582 226.566 311.717 223.58C311.843 220.804 313.025 218.659 315.602 217.619C315.776 217.549 316.31 217.535 316.984 217.543V215.235C316.984 214.525 316.543 213.815 315.602 213.815H312.04C310.933 213.815 310.1 214.454 310.1 215.235C310.1 232.237 310.046 248.121 310.047 263.523C310.047 263.788 310.198 264.04 310.463 264.06C311.879 264.166 324.868 263.523 324.868 263.523C324.868 263.523 325.431 263.735 325.431 264.51C325.431 265.478 324.868 265.655 324.868 265.655C324.868 265.655 311.093 266.152 309.212 266.152C308.629 266.152 308.03 265.559 308.041 264.976C308.352 249.109 308.063 232.05 308.063 215.235C308.063 213.73 308.802 212.125 312.04 212.125C314.467 212.125 313.661 212.126 315.804 212.125C318.304 212.124 318.752 214.157 318.752 215.235V217.589C319.293 217.605 319.813 217.619 320.232 217.619Z" fill="url(#paint88_linear_497_11720)"/>
<path fill-rule="evenodd" clip-rule="evenodd" d="M328.468 212.125C325.229 212.125 324.732 213.73 324.732 215.235C324.732 230.083 324.731 257.195 324.731 263.337H325.214C325.214 263.337 325.59 262.28 326.087 261.802C326.458 261.447 327.21 261.114 327.21 261.114C327.215 253.111 327.228 230.989 327.228 215.235C327.228 214.207 328.435 214.207 329.167 214.207V212.125L328.468 212.125Z" fill="url(#paint89_linear_497_11720)"/>
<path d="M265.202 275.529C265.201 281.55 265.202 290.728 265.202 290.728C265.202 290.728 267.419 291.492 268.891 291.496C270.383 291.5 272.634 290.728 272.634 290.728V278.008C272.634 274.81 275.155 272.067 278.352 272.145C291.345 272.46 296.511 272.708 310.473 273.265C313.754 273.396 315.431 276.772 315.431 280.056V295.577C315.431 295.577 317.886 296.365 319.507 296.352C321.06 296.339 323.407 295.577 323.407 295.577V280.056C323.407 272.49 318.029 266.012 310.473 265.633C300.043 265.109 291.444 265.01 278.352 265.012C271.604 265.013 265.203 268.781 265.202 275.529Z" fill="url(#paint90_linear_497_11720)"/>
<path fill-rule="evenodd" clip-rule="evenodd" d="M268.855 293.497C271.019 293.508 274.275 292.796 274.275 291.898V289.938C274.275 289.938 271.826 291.832 268.855 291.832C265.472 291.832 263.576 289.938 263.576 289.938V291.898C263.576 292.674 266.745 293.485 268.855 293.497ZM263.576 289.465C263.576 289.858 264.174 290.326 265.033 290.728V288.781C265.033 288.781 263.576 288.955 263.576 289.465ZM274.275 289.465C274.275 288.93 272.837 288.781 272.837 288.781V290.651C273.688 290.239 274.275 289.784 274.275 289.465Z" fill="url(#paint91_linear_497_11720)"/>
<path fill-rule="evenodd" clip-rule="evenodd" d="M319.376 298.586C321.796 298.599 325.437 297.802 325.437 296.798V294.606C325.437 294.606 322.698 296.724 319.376 296.724C315.593 296.724 313.473 294.606 313.473 294.606V296.798C313.473 297.665 317.016 298.573 319.376 298.586ZM313.473 294.077C313.473 294.516 314.141 295.04 315.102 295.49V293.312C315.102 293.312 313.473 293.507 313.473 294.077ZM325.437 294.077C325.437 293.479 323.829 293.312 323.829 293.312V295.403C324.78 294.943 325.437 294.434 325.437 294.077Z" fill="url(#paint92_linear_497_11720)"/>
<path fill-rule="evenodd" clip-rule="evenodd" d="M382.079 302.346C383.339 302.353 385.234 301.939 385.234 301.416V300.275C385.234 300.275 383.808 301.377 382.079 301.377C380.11 301.377 379.006 300.275 379.006 300.275V301.416C379.006 301.867 380.85 302.34 382.079 302.346ZM379.006 300C379.006 300.228 379.354 300.501 379.854 300.735V299.602C379.854 299.602 379.006 299.703 379.006 300ZM385.234 300C385.234 299.688 384.397 299.602 384.397 299.602V300.69C384.892 300.45 385.234 300.185 385.234 300Z" fill="url(#paint93_linear_497_11720)"/>
<path d="M375.107 200.733C375.09 228.087 375.107 270.779 375.107 270.779C375.107 270.779 375.941 271.327 376.678 271.373C377.499 271.423 378.562 270.779 378.562 270.779L377.553 201.334H387.456V198.797C387.456 198.797 380.396 198.798 376.897 198.797C375.867 198.797 375.108 199.601 375.107 200.733Z" fill="url(#paint94_linear_497_11720)"/>
<path fill-rule="evenodd" clip-rule="evenodd" d="M367.142 297.383C369.562 297.396 373.203 296.599 373.203 295.595V291.446C373.203 291.446 370.464 293.705 367.142 293.705C363.359 293.705 361.238 291.446 361.238 291.446V295.595C361.238 296.462 364.782 297.37 367.142 297.383ZM361.238 290.917C361.238 291.356 361.906 291.88 362.868 292.329V290.152C362.868 290.152 361.238 290.347 361.238 290.917ZM373.203 290.917C373.203 290.319 371.594 290.152 371.594 290.152V292.243C372.546 291.782 373.203 291.274 373.203 290.917Z" fill="url(#paint95_linear_497_11720)"/>
<path fill-rule="evenodd" clip-rule="evenodd" d="M376.909 273.333C378.107 273.34 379.909 272.945 379.909 272.448V270.394C379.909 270.394 378.553 271.513 376.909 271.513C375.036 271.513 373.986 270.394 373.986 270.394V272.448C373.986 272.877 375.74 273.327 376.909 273.333ZM373.986 270.133C373.986 270.35 374.317 270.609 374.793 270.832V269.754C374.793 269.754 373.986 269.85 373.986 270.133ZM379.909 270.133C379.909 269.836 379.113 269.754 379.113 269.754V270.789C379.584 270.561 379.909 270.309 379.909 270.133Z" fill="url(#paint96_linear_497_11720)"/>
<path d="M348.595 263.529C348.595 260.176 346.934 257.458 344.886 257.458C343.999 257.458 343.185 257.967 342.547 258.816C342.547 258.816 343.228 258.579 343.99 258.751C345.046 258.989 346.099 260.003 346.099 263.529C346.099 266.316 345.248 267.596 344.782 268.16C343.882 269.249 342.846 268.602 342.846 268.602C343.431 269.233 344.132 269.601 344.886 269.601L344.96 269.6C346.975 269.535 348.595 266.842 348.595 263.529Z" fill="url(#paint97_linear_497_11720)"/>
<path d="M337.805 267.631C338.281 268.214 338.873 268.559 339.513 268.559L339.781 268.539C340.58 268.417 341.282 267.758 341.753 266.784C342.138 265.988 342.368 264.981 342.368 263.887C342.368 262.656 342.077 261.536 341.602 260.701C341.081 259.787 340.338 259.215 339.513 259.215C338.431 259.215 337.489 260.2 337.005 261.654C337.165 261.664 337.321 261.674 337.474 261.685C337.474 261.685 339.054 261.832 339.183 264.349C339.324 267.123 338.052 267.695 337.827 267.625L337.789 267.611L337.805 267.631Z" fill="url(#paint98_linear_497_11720)"/>
<path fill-rule="evenodd" clip-rule="evenodd" d="M337.474 261.685C337.474 261.685 338.98 262.072 338.98 264.349C338.98 267.307 337.989 267.576 337.827 267.625L337.789 267.611C337.789 267.611 331.306 268.602 329.029 268.602C327.137 268.602 325.438 266.048 325.438 266.048C325.438 266.048 326.057 265.574 326.094 264.812C326.133 264.019 325.438 263.529 325.438 263.529C325.438 263.529 326.313 261.337 327.484 261.337C329.245 261.337 331.468 261.391 333.593 261.478C334.796 261.527 335.967 261.587 337.005 261.654C337.165 261.664 337.321 261.674 337.474 261.685Z" fill="url(#paint99_linear_497_11720)"/>
<path fill-rule="evenodd" clip-rule="evenodd" d="M342.742 268.475L344.422 268.388C344.422 268.388 345.924 267.111 345.924 263.529C345.924 259.02 343.821 258.769 343.821 258.769L342.48 258.907L340.145 259.149C340.594 259.215 342.742 259.76 342.742 263.887C342.742 267.246 340.623 268.475 340.623 268.475H342.742Z" fill="url(#paint100_linear_497_11720)"/>
<path fill-rule="evenodd" clip-rule="evenodd" d="M345.359 257.404C345.359 257.404 348.906 257.396 348.906 263.529C348.906 269.261 345.741 269.587 345.741 269.587L358.456 269.382C358.456 269.382 362.602 268.112 362.602 262.621C362.602 255.997 357.635 256.012 357.635 256.012L345.359 257.404Z" fill="url(#paint101_linear_497_11720)"/>
<path d="M353.267 256.012V253.147L348.302 253.554L348.018 256.647L351.318 256.248L353.267 256.012Z" fill="url(#paint102_linear_497_11720)"/>
<path d="M348.018 256.647L347.688 253.554L343.622 253.147V256.012L345.82 256.33L348.018 256.647Z" fill="url(#paint103_linear_497_11720)"/>
<path d="M348.018 256.647L345.82 256.33V257.095L351.318 256.647V256.248L348.018 256.647Z" fill="url(#paint104_linear_497_11720)"/>
<path d="M348.152 252.902L343.622 253.147L348.018 253.435L353.267 253.147L348.152 252.902Z" fill="url(#paint105_linear_497_11720)"/>
<path fill-rule="evenodd" clip-rule="evenodd" d="M433.093 309.208C434.563 309.217 436.776 308.677 436.776 307.995V306.507C436.776 306.507 435.111 307.945 433.093 307.945C430.794 307.945 429.506 306.507 429.506 306.507V307.995C429.506 308.584 431.659 309.2 433.093 309.208ZM429.506 306.148C429.506 306.446 429.912 306.802 430.496 307.107V305.629C430.496 305.629 429.506 305.761 429.506 306.148ZM436.776 306.148C436.776 305.742 435.798 305.629 435.798 305.629V307.048C436.377 306.735 436.776 306.39 436.776 306.148Z" fill="url(#paint106_linear_497_11720)"/>
<path fill-rule="evenodd" clip-rule="evenodd" d="M361.052 270.52L326.148 271.673L321.535 270.52L323.18 272.642L326.525 272.705H326.997L361.052 270.52ZM326.42 278.148L324.753 278.098V291.878L326.42 292.895V278.148ZM357.802 284.33V275.63L358.917 275.575L359.138 285.51L357.802 284.33ZM359.595 285.702V275.511L361.052 275.415V284.668L359.595 285.702ZM328.721 291.928L327.097 293.23L327.096 279.439L328.721 279.117V291.928Z" fill="url(#paint107_linear_497_11720)"/>
<path d="M328.721 278.148L327.096 278.218L327.096 279.439L328.721 279.117V278.148Z" fill="url(#paint108_linear_497_11720)"/>
<path fill-rule="evenodd" clip-rule="evenodd" d="M324.734 277.6L326.525 277.663V276.842L324.66 276.779C324.698 277.099 324.721 277.38 324.734 277.6Z" fill="url(#paint109_linear_497_11720)"/>
<path fill-rule="evenodd" clip-rule="evenodd" d="M326.525 273.116L323.387 272.908C324.195 274.043 324.525 275.654 324.66 276.779L326.525 276.842V273.116Z" fill="url(#paint110_linear_497_11720)"/>
<path d="M361.052 270.773L327.007 273.116L327.096 277.6L361.052 275.415V270.773Z" fill="url(#paint111_linear_497_11720)"/>
</g>
<g clip-path="url(#clip3_497_11720)">
<path d="M42.48 271.388H27.334V272.73H41.5621V326.848L42.48 288.384H51.2004L50.7415 325.059L52.1184 272.282L107.654 272.73V321.928L108.572 283.911H153.092V319.244L154.01 278.544H166.402L167.32 319.244V283.911H170.992L171.451 317.455L172.828 265.574H193.022V316.561L194.399 255.287L213.217 254.839L214.135 315.219L214.594 282.569H219.642V315.219L220.56 271.388H228.363L228.822 259.759H232.953V314.325L233.871 254.839H246.263L247.181 303.143V250.814H254.065L254.983 257.076H261.868L262.327 279.886V254.392H266.916L267.375 257.523H277.014L277.473 310.299L278.85 216.823H283.898L286.193 277.202H291.701L293.996 247.236L328.418 247.683L329.795 308.51L330.254 273.177L339.434 273.624L340.352 266.021H345.4L345.859 272.73H352.285L352.744 305.379L353.662 272.73L366.972 257.97H385.331L386.249 272.282H391.297L391.756 273.624H398.182V277.202H391.297V288.384H400.936L401.854 285.7H409.656L410.115 304.038L411.951 258.418H435.358V302.249L436.276 284.806L446.374 284.358L447.292 301.354V287.936H451.881L452.34 301.354L453.136 279.886H561.575L563.411 294.645V288.384H571.214V293.751L572.132 284.358H577.639L578.098 289.278H588.196V292.409L589.573 279.886H602.883L603.801 290.173H607.472L608.39 250.367H655.205L656.123 288.384L657.041 260.207H668.515V287.489L672.646 36.5781H685.038L689.169 237.396L687.333 62.0717H690.546V58.4937H687.333V33.8945H670.351V58.4937H667.597V62.0717H670.351L668.515 257.523H657.041V249.472H607.013V288.384H604.26V278.991H588.196V286.595H578.557V283.464H571.214V286.595H563.411V278.991H452.34V286.595H447.292V283.464H436.735V257.523H410.574L409.656 283.464H400.477V286.595H392.215V278.097H399.1V272.73H392.215V271.388H387.167V256.628H365.136L352.744 271.388H346.318V265.126H339.434V271.388H329.795V245.894H295.373V238.738H291.701V274.519H286.193V226.662H289.406V223.979H286.193V214.586H277.014V223.979H273.801V226.662H277.014V255.734H267.834V253.945H261.868V255.734H254.983V249.92H246.263V253.945H232.953V257.97H227.904V269.599H219.642V281.228H214.135V253.945H193.022V263.785H171.451V283.017H167.32V277.65H153.551V283.017H108.572V271.388H51.2004V287.042H42.48V271.388Z" fill="url(#paint112_linear_497_11720)"/>
</g>
</g>
<defs>
<linearGradient id="paint0_linear_497_11720" x1="0.921875" y1="162.366" x2="609.98" y2="162.366" gradientUnits="userSpaceOnUse">
<stop stop-color="#00D2FF"/>
<stop offset="1" stop-color="#3A7BD5"/>
</linearGradient>
<linearGradient id="paint1_linear_497_11720" x1="0.0078125" y1="146.711" x2="663.22" y2="146.711" gradientUnits="userSpaceOnUse">
<stop stop-color="#00D2FF"/>
<stop offset="1" stop-color="#3A7BD5"/>
</linearGradient>
<linearGradient id="paint2_linear_497_11720" x1="404.145" y1="237.186" x2="612.14" y2="237.186" gradientUnits="userSpaceOnUse">
<stop stop-color="#00D2FF"/>
<stop offset="1" stop-color="#3A7BD5"/>
</linearGradient>
<linearGradient id="paint3_linear_497_11720" x1="404.145" y1="237.186" x2="612.14" y2="237.186" gradientUnits="userSpaceOnUse">
<stop stop-color="#00D2FF"/>
<stop offset="1" stop-color="#3A7BD5"/>
</linearGradient>
<linearGradient id="paint4_linear_497_11720" x1="404.145" y1="237.186" x2="612.14" y2="237.186" gradientUnits="userSpaceOnUse">
<stop stop-color="#00D2FF"/>
<stop offset="1" stop-color="#3A7BD5"/>
</linearGradient>
<linearGradient id="paint5_linear_497_11720" x1="404.145" y1="237.186" x2="612.14" y2="237.186" gradientUnits="userSpaceOnUse">
<stop stop-color="#00D2FF"/>
<stop offset="1" stop-color="#3A7BD5"/>
</linearGradient>
<linearGradient id="paint6_linear_497_11720" x1="404.145" y1="237.186" x2="612.14" y2="237.186" gradientUnits="userSpaceOnUse">
<stop stop-color="#00D2FF"/>
<stop offset="1" stop-color="#3A7BD5"/>
</linearGradient>
<linearGradient id="paint7_linear_497_11720" x1="404.145" y1="237.186" x2="612.14" y2="237.186" gradientUnits="userSpaceOnUse">
<stop stop-color="#00D2FF"/>
<stop offset="1" stop-color="#3A7BD5"/>
</linearGradient>
<linearGradient id="paint8_linear_497_11720" x1="404.145" y1="237.186" x2="612.14" y2="237.186" gradientUnits="userSpaceOnUse">
<stop stop-color="#00D2FF"/>
<stop offset="1" stop-color="#3A7BD5"/>
</linearGradient>
<linearGradient id="paint9_linear_497_11720" x1="404.145" y1="237.186" x2="612.14" y2="237.186" gradientUnits="userSpaceOnUse">
<stop stop-color="#00D2FF"/>
<stop offset="1" stop-color="#3A7BD5"/>
</linearGradient>
<linearGradient id="paint10_linear_497_11720" x1="404.145" y1="237.186" x2="612.14" y2="237.186" gradientUnits="userSpaceOnUse">
<stop stop-color="#00D2FF"/>
<stop offset="1" stop-color="#3A7BD5"/>
</linearGradient>
<linearGradient id="paint11_linear_497_11720" x1="404.145" y1="237.186" x2="612.14" y2="237.186" gradientUnits="userSpaceOnUse">
<stop stop-color="#00D2FF"/>
<stop offset="1" stop-color="#3A7BD5"/>
</linearGradient>
<linearGradient id="paint12_linear_497_11720" x1="490.459" y1="199.392" x2="551.572" y2="199.392" gradientUnits="userSpaceOnUse">
<stop stop-color="#00D2FF"/>
<stop offset="1" stop-color="#3A7BD5"/>
</linearGradient>
<linearGradient id="paint13_linear_497_11720" x1="490.459" y1="199.392" x2="551.572" y2="199.392" gradientUnits="userSpaceOnUse">
<stop stop-color="#00D2FF"/>
<stop offset="1" stop-color="#3A7BD5"/>
</linearGradient>
<linearGradient id="paint14_linear_497_11720" x1="490.459" y1="199.392" x2="551.572" y2="199.392" gradientUnits="userSpaceOnUse">
<stop stop-color="#00D2FF"/>
<stop offset="1" stop-color="#3A7BD5"/>
</linearGradient>
<linearGradient id="paint15_linear_497_11720" x1="490.459" y1="199.392" x2="551.572" y2="199.392" gradientUnits="userSpaceOnUse">
<stop stop-color="#00D2FF"/>
<stop offset="1" stop-color="#3A7BD5"/>
</linearGradient>
<linearGradient id="paint16_linear_497_11720" x1="490.459" y1="199.392" x2="551.572" y2="199.392" gradientUnits="userSpaceOnUse">
<stop stop-color="#00D2FF"/>
<stop offset="1" stop-color="#3A7BD5"/>
</linearGradient>
<linearGradient id="paint17_linear_497_11720" x1="490.459" y1="199.392" x2="551.572" y2="199.392" gradientUnits="userSpaceOnUse">
<stop stop-color="#00D2FF"/>
<stop offset="1" stop-color="#3A7BD5"/>
</linearGradient>
<linearGradient id="paint18_linear_497_11720" x1="490.459" y1="199.392" x2="551.572" y2="199.392" gradientUnits="userSpaceOnUse">
<stop stop-color="#00D2FF"/>
<stop offset="1" stop-color="#3A7BD5"/>
</linearGradient>
<linearGradient id="paint19_linear_497_11720" x1="495.992" y1="162.6" x2="530.817" y2="162.6" gradientUnits="userSpaceOnUse">
<stop stop-color="#00D2FF"/>
<stop offset="1" stop-color="#3A7BD5"/>
</linearGradient>
<linearGradient id="paint20_linear_497_11720" x1="380.004" y1="297.891" x2="435.441" y2="297.891" gradientUnits="userSpaceOnUse">
<stop stop-color="#00D2FF"/>
<stop offset="1" stop-color="#3A7BD5"/>
</linearGradient>
<linearGradient id="paint21_linear_497_11720" x1="253.436" y1="235.151" x2="261.87" y2="235.151" gradientUnits="userSpaceOnUse">
<stop stop-color="#00D2FF"/>
<stop offset="1" stop-color="#3A7BD5"/>
</linearGradient>
<linearGradient id="paint22_linear_497_11720" x1="253.436" y1="235.151" x2="261.87" y2="235.151" gradientUnits="userSpaceOnUse">
<stop stop-color="#00D2FF"/>
<stop offset="1" stop-color="#3A7BD5"/>
</linearGradient>
<linearGradient id="paint23_linear_497_11720" x1="253.436" y1="235.151" x2="261.87" y2="235.151" gradientUnits="userSpaceOnUse">
<stop stop-color="#00D2FF"/>
<stop offset="1" stop-color="#3A7BD5"/>
</linearGradient>
<linearGradient id="paint24_linear_497_11720" x1="234.932" y1="222.454" x2="242.148" y2="222.454" gradientUnits="userSpaceOnUse">
<stop stop-color="#00D2FF"/>
<stop offset="1" stop-color="#3A7BD5"/>
</linearGradient>
<linearGradient id="paint25_linear_497_11720" x1="233.186" y1="246.918" x2="237.944" y2="246.918" gradientUnits="userSpaceOnUse">
<stop stop-color="#00D2FF"/>
<stop offset="1" stop-color="#3A7BD5"/>
</linearGradient>
<linearGradient id="paint26_linear_497_11720" x1="221.312" y1="233.685" x2="248.435" y2="233.685" gradientUnits="userSpaceOnUse">
<stop stop-color="#00D2FF"/>
<stop offset="1" stop-color="#3A7BD5"/>
</linearGradient>
<linearGradient id="paint27_linear_497_11720" x1="221.312" y1="233.685" x2="248.435" y2="233.685" gradientUnits="userSpaceOnUse">
<stop stop-color="#00D2FF"/>
<stop offset="1" stop-color="#3A7BD5"/>
</linearGradient>
<linearGradient id="paint28_linear_497_11720" x1="234.531" y1="233.824" x2="242.603" y2="233.824" gradientUnits="userSpaceOnUse">
<stop stop-color="#00D2FF"/>
<stop offset="1" stop-color="#3A7BD5"/>
</linearGradient>
<linearGradient id="paint29_linear_497_11720" x1="268.039" y1="284.59" x2="279.816" y2="284.59" gradientUnits="userSpaceOnUse">
<stop stop-color="#00D2FF"/>
<stop offset="1" stop-color="#3A7BD5"/>
</linearGradient>
<linearGradient id="paint30_linear_497_11720" x1="383.887" y1="234.724" x2="413.192" y2="234.724" gradientUnits="userSpaceOnUse">
<stop stop-color="#00D2FF"/>
<stop offset="1" stop-color="#3A7BD5"/>
</linearGradient>
<linearGradient id="paint31_linear_497_11720" x1="383.887" y1="234.724" x2="413.192" y2="234.724" gradientUnits="userSpaceOnUse">
<stop stop-color="#00D2FF"/>
<stop offset="1" stop-color="#3A7BD5"/>
</linearGradient>
<linearGradient id="paint32_linear_497_11720" x1="383.887" y1="234.724" x2="413.192" y2="234.724" gradientUnits="userSpaceOnUse">
<stop stop-color="#00D2FF"/>
<stop offset="1" stop-color="#3A7BD5"/>
</linearGradient>
<linearGradient id="paint33_linear_497_11720" x1="383.887" y1="234.724" x2="413.192" y2="234.724" gradientUnits="userSpaceOnUse">
<stop stop-color="#00D2FF"/>
<stop offset="1" stop-color="#3A7BD5"/>
</linearGradient>
<linearGradient id="paint34_linear_497_11720" x1="383.887" y1="234.724" x2="413.192" y2="234.724" gradientUnits="userSpaceOnUse">
<stop stop-color="#00D2FF"/>
<stop offset="1" stop-color="#3A7BD5"/>
</linearGradient>
<linearGradient id="paint35_linear_497_11720" x1="383.887" y1="234.724" x2="413.192" y2="234.724" gradientUnits="userSpaceOnUse">
<stop stop-color="#00D2FF"/>
<stop offset="1" stop-color="#3A7BD5"/>
</linearGradient>
<linearGradient id="paint36_linear_497_11720" x1="383.887" y1="234.724" x2="413.192" y2="234.724" gradientUnits="userSpaceOnUse">
<stop stop-color="#00D2FF"/>
<stop offset="1" stop-color="#3A7BD5"/>
</linearGradient>
<linearGradient id="paint37_linear_497_11720" x1="383.887" y1="234.724" x2="413.192" y2="234.724" gradientUnits="userSpaceOnUse">
<stop stop-color="#00D2FF"/>
<stop offset="1" stop-color="#3A7BD5"/>
</linearGradient>
<linearGradient id="paint38_linear_497_11720" x1="383.887" y1="234.724" x2="413.192" y2="234.724" gradientUnits="userSpaceOnUse">
<stop stop-color="#00D2FF"/>
<stop offset="1" stop-color="#3A7BD5"/>
</linearGradient>
<linearGradient id="paint39_linear_497_11720" x1="383.887" y1="234.724" x2="413.192" y2="234.724" gradientUnits="userSpaceOnUse">
<stop stop-color="#00D2FF"/>
<stop offset="1" stop-color="#3A7BD5"/>
</linearGradient>
<linearGradient id="paint40_linear_497_11720" x1="383.887" y1="234.724" x2="413.192" y2="234.724" gradientUnits="userSpaceOnUse">
<stop stop-color="#00D2FF"/>
<stop offset="1" stop-color="#3A7BD5"/>
</linearGradient>
<linearGradient id="paint41_linear_497_11720" x1="425.559" y1="238.504" x2="456.043" y2="238.504" gradientUnits="userSpaceOnUse">
<stop stop-color="#00D2FF"/>
<stop offset="1" stop-color="#3A7BD5"/>
</linearGradient>
<linearGradient id="paint42_linear_497_11720" x1="425.559" y1="238.504" x2="456.043" y2="238.504" gradientUnits="userSpaceOnUse">
<stop stop-color="#00D2FF"/>
<stop offset="1" stop-color="#3A7BD5"/>
</linearGradient>
<linearGradient id="paint43_linear_497_11720" x1="425.559" y1="238.504" x2="456.043" y2="238.504" gradientUnits="userSpaceOnUse">
<stop stop-color="#00D2FF"/>
<stop offset="1" stop-color="#3A7BD5"/>
</linearGradient>
<linearGradient id="paint44_linear_497_11720" x1="425.559" y1="238.504" x2="456.043" y2="238.504" gradientUnits="userSpaceOnUse">
<stop stop-color="#00D2FF"/>
<stop offset="1" stop-color="#3A7BD5"/>
</linearGradient>
<linearGradient id="paint45_linear_497_11720" x1="425.559" y1="238.504" x2="456.043" y2="238.504" gradientUnits="userSpaceOnUse">
<stop stop-color="#00D2FF"/>
<stop offset="1" stop-color="#3A7BD5"/>
</linearGradient>
<linearGradient id="paint46_linear_497_11720" x1="425.559" y1="238.504" x2="456.043" y2="238.504" gradientUnits="userSpaceOnUse">
<stop stop-color="#00D2FF"/>
<stop offset="1" stop-color="#3A7BD5"/>
</linearGradient>
<linearGradient id="paint47_linear_497_11720" x1="425.559" y1="238.504" x2="456.043" y2="238.504" gradientUnits="userSpaceOnUse">
<stop stop-color="#00D2FF"/>
<stop offset="1" stop-color="#3A7BD5"/>
</linearGradient>
<linearGradient id="paint48_linear_497_11720" x1="425.559" y1="238.504" x2="456.043" y2="238.504" gradientUnits="userSpaceOnUse">
<stop stop-color="#00D2FF"/>
<stop offset="1" stop-color="#3A7BD5"/>
</linearGradient>
<linearGradient id="paint49_linear_497_11720" x1="425.559" y1="238.504" x2="456.043" y2="238.504" gradientUnits="userSpaceOnUse">
<stop stop-color="#00D2FF"/>
<stop offset="1" stop-color="#3A7BD5"/>
</linearGradient>
<linearGradient id="paint50_linear_497_11720" x1="425.559" y1="238.504" x2="456.043" y2="238.504" gradientUnits="userSpaceOnUse">
<stop stop-color="#00D2FF"/>
<stop offset="1" stop-color="#3A7BD5"/>
</linearGradient>
<linearGradient id="paint51_linear_497_11720" x1="425.559" y1="238.504" x2="456.043" y2="238.504" gradientUnits="userSpaceOnUse">
<stop stop-color="#00D2FF"/>
<stop offset="1" stop-color="#3A7BD5"/>
</linearGradient>
<linearGradient id="paint52_linear_497_11720" x1="352.658" y1="289.928" x2="574.136" y2="289.928" gradientUnits="userSpaceOnUse">
<stop stop-color="#00D2FF"/>
<stop offset="1" stop-color="#3A7BD5"/>
</linearGradient>
<linearGradient id="paint53_linear_497_11720" x1="471.203" y1="239.471" x2="503.658" y2="239.471" gradientUnits="userSpaceOnUse">
<stop stop-color="#00D2FF"/>
<stop offset="1" stop-color="#3A7BD5"/>
</linearGradient>
<linearGradient id="paint54_linear_497_11720" x1="471.203" y1="239.471" x2="503.658" y2="239.471" gradientUnits="userSpaceOnUse">
<stop stop-color="#00D2FF"/>
<stop offset="1" stop-color="#3A7BD5"/>
</linearGradient>
<linearGradient id="paint55_linear_497_11720" x1="471.203" y1="239.471" x2="503.658" y2="239.471" gradientUnits="userSpaceOnUse">
<stop stop-color="#00D2FF"/>
<stop offset="1" stop-color="#3A7BD5"/>
</linearGradient>
<linearGradient id="paint56_linear_497_11720" x1="471.203" y1="239.471" x2="503.658" y2="239.471" gradientUnits="userSpaceOnUse">
<stop stop-color="#00D2FF"/>
<stop offset="1" stop-color="#3A7BD5"/>
</linearGradient>
<linearGradient id="paint57_linear_497_11720" x1="471.203" y1="239.471" x2="503.658" y2="239.471" gradientUnits="userSpaceOnUse">
<stop stop-color="#00D2FF"/>
<stop offset="1" stop-color="#3A7BD5"/>
</linearGradient>
<linearGradient id="paint58_linear_497_11720" x1="471.203" y1="239.471" x2="503.658" y2="239.471" gradientUnits="userSpaceOnUse">
<stop stop-color="#00D2FF"/>
<stop offset="1" stop-color="#3A7BD5"/>
</linearGradient>
<linearGradient id="paint59_linear_497_11720" x1="471.203" y1="239.471" x2="503.658" y2="239.471" gradientUnits="userSpaceOnUse">
<stop stop-color="#00D2FF"/>
<stop offset="1" stop-color="#3A7BD5"/>
</linearGradient>
<linearGradient id="paint60_linear_497_11720" x1="471.203" y1="239.471" x2="503.658" y2="239.471" gradientUnits="userSpaceOnUse">
<stop stop-color="#00D2FF"/>
<stop offset="1" stop-color="#3A7BD5"/>
</linearGradient>
<linearGradient id="paint61_linear_497_11720" x1="471.203" y1="239.471" x2="503.658" y2="239.471" gradientUnits="userSpaceOnUse">
<stop stop-color="#00D2FF"/>
<stop offset="1" stop-color="#3A7BD5"/>
</linearGradient>
<linearGradient id="paint62_linear_497_11720" x1="471.203" y1="239.471" x2="503.658" y2="239.471" gradientUnits="userSpaceOnUse">
<stop stop-color="#00D2FF"/>
<stop offset="1" stop-color="#3A7BD5"/>
</linearGradient>
<linearGradient id="paint63_linear_497_11720" x1="471.203" y1="239.471" x2="503.658" y2="239.471" gradientUnits="userSpaceOnUse">
<stop stop-color="#00D2FF"/>
<stop offset="1" stop-color="#3A7BD5"/>
</linearGradient>
<linearGradient id="paint64_linear_497_11720" x1="521.828" y1="242.44" x2="556.303" y2="242.44" gradientUnits="userSpaceOnUse">
<stop stop-color="#00D2FF"/>
<stop offset="1" stop-color="#3A7BD5"/>
</linearGradient>
<linearGradient id="paint65_linear_497_11720" x1="521.828" y1="242.44" x2="556.303" y2="242.44" gradientUnits="userSpaceOnUse">
<stop stop-color="#00D2FF"/>
<stop offset="1" stop-color="#3A7BD5"/>
</linearGradient>
<linearGradient id="paint66_linear_497_11720" x1="521.828" y1="242.44" x2="556.303" y2="242.44" gradientUnits="userSpaceOnUse">
<stop stop-color="#00D2FF"/>
<stop offset="1" stop-color="#3A7BD5"/>
</linearGradient>
<linearGradient id="paint67_linear_497_11720" x1="521.828" y1="242.44" x2="556.303" y2="242.44" gradientUnits="userSpaceOnUse">
<stop stop-color="#00D2FF"/>
<stop offset="1" stop-color="#3A7BD5"/>
</linearGradient>
<linearGradient id="paint68_linear_497_11720" x1="521.828" y1="242.44" x2="556.303" y2="242.44" gradientUnits="userSpaceOnUse">
<stop stop-color="#00D2FF"/>
<stop offset="1" stop-color="#3A7BD5"/>
</linearGradient>
<linearGradient id="paint69_linear_497_11720" x1="521.828" y1="242.44" x2="556.303" y2="242.44" gradientUnits="userSpaceOnUse">
<stop stop-color="#00D2FF"/>
<stop offset="1" stop-color="#3A7BD5"/>
</linearGradient>
<linearGradient id="paint70_linear_497_11720" x1="521.828" y1="242.44" x2="556.303" y2="242.44" gradientUnits="userSpaceOnUse">
<stop stop-color="#00D2FF"/>
<stop offset="1" stop-color="#3A7BD5"/>
</linearGradient>
<linearGradient id="paint71_linear_497_11720" x1="521.828" y1="242.44" x2="556.303" y2="242.44" gradientUnits="userSpaceOnUse">
<stop stop-color="#00D2FF"/>
<stop offset="1" stop-color="#3A7BD5"/>
</linearGradient>
<linearGradient id="paint72_linear_497_11720" x1="521.828" y1="242.44" x2="556.303" y2="242.44" gradientUnits="userSpaceOnUse">
<stop stop-color="#00D2FF"/>
<stop offset="1" stop-color="#3A7BD5"/>
</linearGradient>
<linearGradient id="paint73_linear_497_11720" x1="521.828" y1="242.44" x2="556.303" y2="242.44" gradientUnits="userSpaceOnUse">
<stop stop-color="#00D2FF"/>
<stop offset="1" stop-color="#3A7BD5"/>
</linearGradient>
<linearGradient id="paint74_linear_497_11720" x1="521.828" y1="242.44" x2="556.303" y2="242.44" gradientUnits="userSpaceOnUse">
<stop stop-color="#00D2FF"/>
<stop offset="1" stop-color="#3A7BD5"/>
</linearGradient>
<linearGradient id="paint75_linear_497_11720" x1="270.918" y1="256.148" x2="370.317" y2="256.148" gradientUnits="userSpaceOnUse">
<stop stop-color="#00D2FF"/>
<stop offset="1" stop-color="#3A7BD5"/>
</linearGradient>
<linearGradient id="paint76_linear_497_11720" x1="296.67" y1="218.885" x2="308.649" y2="218.885" gradientUnits="userSpaceOnUse">
<stop stop-color="#00D2FF"/>
<stop offset="1" stop-color="#3A7BD5"/>
</linearGradient>
<linearGradient id="paint77_linear_497_11720" x1="328.293" y1="220.014" x2="340.272" y2="220.014" gradientUnits="userSpaceOnUse">
<stop stop-color="#00D2FF"/>
<stop offset="1" stop-color="#3A7BD5"/>
</linearGradient>
<linearGradient id="paint78_linear_497_11720" x1="177.215" y1="216.789" x2="658.609" y2="216.789" gradientUnits="userSpaceOnUse">
<stop stop-color="#00D2FF"/>
<stop offset="1" stop-color="#3A7BD5"/>
</linearGradient>
<linearGradient id="paint79_linear_497_11720" x1="177.215" y1="216.789" x2="658.609" y2="216.789" gradientUnits="userSpaceOnUse">
<stop stop-color="#00D2FF"/>
<stop offset="1" stop-color="#3A7BD5"/>
</linearGradient>
<linearGradient id="paint80_linear_497_11720" x1="177.215" y1="216.789" x2="658.609" y2="216.789" gradientUnits="userSpaceOnUse">
<stop stop-color="#00D2FF"/>
<stop offset="1" stop-color="#3A7BD5"/>
</linearGradient>
<linearGradient id="paint81_linear_497_11720" x1="177.215" y1="216.789" x2="658.609" y2="216.789" gradientUnits="userSpaceOnUse">
<stop stop-color="#00D2FF"/>
<stop offset="1" stop-color="#3A7BD5"/>
</linearGradient>
<linearGradient id="paint82_linear_497_11720" x1="177.215" y1="216.789" x2="658.609" y2="216.789" gradientUnits="userSpaceOnUse">
<stop stop-color="#00D2FF"/>
<stop offset="1" stop-color="#3A7BD5"/>
</linearGradient>
<linearGradient id="paint83_linear_497_11720" x1="177.215" y1="216.789" x2="658.609" y2="216.789" gradientUnits="userSpaceOnUse">
<stop stop-color="#00D2FF"/>
<stop offset="1" stop-color="#3A7BD5"/>
</linearGradient>
<linearGradient id="paint84_linear_497_11720" x1="177.215" y1="216.789" x2="658.609" y2="216.789" gradientUnits="userSpaceOnUse">
<stop stop-color="#00D2FF"/>
<stop offset="1" stop-color="#3A7BD5"/>
</linearGradient>
<linearGradient id="paint85_linear_497_11720" x1="177.215" y1="216.789" x2="658.609" y2="216.789" gradientUnits="userSpaceOnUse">
<stop stop-color="#00D2FF"/>
<stop offset="1" stop-color="#3A7BD5"/>
</linearGradient>
<linearGradient id="paint86_linear_497_11720" x1="177.215" y1="216.789" x2="658.609" y2="216.789" gradientUnits="userSpaceOnUse">
<stop stop-color="#00D2FF"/>
<stop offset="1" stop-color="#3A7BD5"/>
</linearGradient>
<linearGradient id="paint87_linear_497_11720" x1="177.215" y1="216.789" x2="658.609" y2="216.789" gradientUnits="userSpaceOnUse">
<stop stop-color="#00D2FF"/>
<stop offset="1" stop-color="#3A7BD5"/>
</linearGradient>
<linearGradient id="paint88_linear_497_11720" x1="308.041" y1="239.138" x2="325.431" y2="239.138" gradientUnits="userSpaceOnUse">
<stop stop-color="#00D2FF"/>
<stop offset="1" stop-color="#3A7BD5"/>
</linearGradient>
<linearGradient id="paint89_linear_497_11720" x1="324.73" y1="238.361" x2="329.167" y2="238.361" gradientUnits="userSpaceOnUse">
<stop stop-color="#00D2FF"/>
<stop offset="1" stop-color="#3A7BD5"/>
</linearGradient>
<linearGradient id="paint90_linear_497_11720" x1="265.201" y1="280.682" x2="323.407" y2="280.682" gradientUnits="userSpaceOnUse">
<stop stop-color="#00D2FF"/>
<stop offset="1" stop-color="#3A7BD5"/>
</linearGradient>
<linearGradient id="paint91_linear_497_11720" x1="263.576" y1="291.139" x2="274.275" y2="291.139" gradientUnits="userSpaceOnUse">
<stop stop-color="#00D2FF"/>
<stop offset="1" stop-color="#3A7BD5"/>
</linearGradient>
<linearGradient id="paint92_linear_497_11720" x1="313.473" y1="295.949" x2="325.437" y2="295.949" gradientUnits="userSpaceOnUse">
<stop stop-color="#00D2FF"/>
<stop offset="1" stop-color="#3A7BD5"/>
</linearGradient>
<linearGradient id="paint93_linear_497_11720" x1="379.006" y1="300.974" x2="385.234" y2="300.974" gradientUnits="userSpaceOnUse">
<stop stop-color="#00D2FF"/>
<stop offset="1" stop-color="#3A7BD5"/>
</linearGradient>
<linearGradient id="paint94_linear_497_11720" x1="375.1" y1="235.086" x2="387.456" y2="235.086" gradientUnits="userSpaceOnUse">
<stop stop-color="#00D2FF"/>
<stop offset="1" stop-color="#3A7BD5"/>
</linearGradient>
<linearGradient id="paint95_linear_497_11720" x1="361.238" y1="293.768" x2="373.203" y2="293.768" gradientUnits="userSpaceOnUse">
<stop stop-color="#00D2FF"/>
<stop offset="1" stop-color="#3A7BD5"/>
</linearGradient>
<linearGradient id="paint96_linear_497_11720" x1="373.986" y1="271.544" x2="379.909" y2="271.544" gradientUnits="userSpaceOnUse">
<stop stop-color="#00D2FF"/>
<stop offset="1" stop-color="#3A7BD5"/>
</linearGradient>
<linearGradient id="paint97_linear_497_11720" x1="325.438" y1="261.252" x2="362.602" y2="261.252" gradientUnits="userSpaceOnUse">
<stop stop-color="#00D2FF"/>
<stop offset="1" stop-color="#3A7BD5"/>
</linearGradient>
<linearGradient id="paint98_linear_497_11720" x1="325.438" y1="261.252" x2="362.602" y2="261.252" gradientUnits="userSpaceOnUse">
<stop stop-color="#00D2FF"/>
<stop offset="1" stop-color="#3A7BD5"/>
</linearGradient>
<linearGradient id="paint99_linear_497_11720" x1="325.438" y1="261.252" x2="362.602" y2="261.252" gradientUnits="userSpaceOnUse">
<stop stop-color="#00D2FF"/>
<stop offset="1" stop-color="#3A7BD5"/>
</linearGradient>
<linearGradient id="paint100_linear_497_11720" x1="325.438" y1="261.252" x2="362.602" y2="261.252" gradientUnits="userSpaceOnUse">
<stop stop-color="#00D2FF"/>
<stop offset="1" stop-color="#3A7BD5"/>
</linearGradient>
<linearGradient id="paint101_linear_497_11720" x1="325.438" y1="261.252" x2="362.602" y2="261.252" gradientUnits="userSpaceOnUse">
<stop stop-color="#00D2FF"/>
<stop offset="1" stop-color="#3A7BD5"/>
</linearGradient>
<linearGradient id="paint102_linear_497_11720" x1="325.438" y1="261.252" x2="362.602" y2="261.252" gradientUnits="userSpaceOnUse">
<stop stop-color="#00D2FF"/>
<stop offset="1" stop-color="#3A7BD5"/>
</linearGradient>
<linearGradient id="paint103_linear_497_11720" x1="325.438" y1="261.252" x2="362.602" y2="261.252" gradientUnits="userSpaceOnUse">
<stop stop-color="#00D2FF"/>
<stop offset="1" stop-color="#3A7BD5"/>
</linearGradient>
<linearGradient id="paint104_linear_497_11720" x1="325.438" y1="261.252" x2="362.602" y2="261.252" gradientUnits="userSpaceOnUse">
<stop stop-color="#00D2FF"/>
<stop offset="1" stop-color="#3A7BD5"/>
</linearGradient>
<linearGradient id="paint105_linear_497_11720" x1="325.438" y1="261.252" x2="362.602" y2="261.252" gradientUnits="userSpaceOnUse">
<stop stop-color="#00D2FF"/>
<stop offset="1" stop-color="#3A7BD5"/>
</linearGradient>
<linearGradient id="paint106_linear_497_11720" x1="429.506" y1="307.419" x2="436.776" y2="307.419" gradientUnits="userSpaceOnUse">
<stop stop-color="#00D2FF"/>
<stop offset="1" stop-color="#3A7BD5"/>
</linearGradient>
<linearGradient id="paint107_linear_497_11720" x1="321.535" y1="281.875" x2="361.052" y2="281.875" gradientUnits="userSpaceOnUse">
<stop stop-color="#00D2FF"/>
<stop offset="1" stop-color="#3A7BD5"/>
</linearGradient>
<linearGradient id="paint108_linear_497_11720" x1="321.535" y1="281.875" x2="361.052" y2="281.875" gradientUnits="userSpaceOnUse">
<stop stop-color="#00D2FF"/>
<stop offset="1" stop-color="#3A7BD5"/>
</linearGradient>
<linearGradient id="paint109_linear_497_11720" x1="321.535" y1="281.875" x2="361.052" y2="281.875" gradientUnits="userSpaceOnUse">
<stop stop-color="#00D2FF"/>
<stop offset="1" stop-color="#3A7BD5"/>
</linearGradient>
<linearGradient id="paint110_linear_497_11720" x1="321.535" y1="281.875" x2="361.052" y2="281.875" gradientUnits="userSpaceOnUse">
<stop stop-color="#00D2FF"/>
<stop offset="1" stop-color="#3A7BD5"/>
</linearGradient>
<linearGradient id="paint111_linear_497_11720" x1="321.535" y1="281.875" x2="361.052" y2="281.875" gradientUnits="userSpaceOnUse">
<stop stop-color="#00D2FF"/>
<stop offset="1" stop-color="#3A7BD5"/>
</linearGradient>
<linearGradient id="paint112_linear_497_11720" x1="27.334" y1="180.371" x2="690.546" y2="180.371" gradientUnits="userSpaceOnUse">
<stop stop-color="#00D2FF"/>
<stop offset="1" stop-color="#3A7BD5"/>
</linearGradient>
<clipPath id="clip0_497_11720">
<rect width="701.609" height="330.754" fill="white"/>
</clipPath>
<clipPath id="clip1_497_11720">
<rect width="303" height="293" fill="white"/>
</clipPath>
<clipPath id="clip2_497_11720">
<rect width="481.395" height="227.93" fill="white" transform="translate(177.215 102.824)"/>
</clipPath>
<clipPath id="clip3_497_11720">
<rect width="59" height="293" fill="white" transform="translate(642.609 33.7891)"/>
</clipPath>
</defs>
</svg>
