<svg width="133" height="138" viewBox="0 0 133 138" fill="none" xmlns="http://www.w3.org/2000/svg">
<path d="M122.46 25.9375H22.46C21.3554 25.9375 20.46 26.8329 20.46 27.9375V127.938C20.46 129.042 21.3554 129.938 22.46 129.938H89.7154H122.46C123.565 129.938 124.46 129.042 124.46 127.938V109.33V27.9375C124.46 26.8329 123.565 25.9375 122.46 25.9375Z" stroke="url(#paint0_linear_444_16738)" stroke-width="2"/>
<path fill-rule="evenodd" clip-rule="evenodd" d="M13.7795 65.1984C14.5449 66.4233 14.1725 68.0367 12.9476 68.8022L4.26918 74.2256C3.04431 74.991 1.43084 74.6186 0.665382 73.3937C-0.100072 72.1689 0.272358 70.5554 1.49723 69.7899L10.1757 64.3666C11.4005 63.6011 13.014 63.9735 13.7795 65.1984Z" fill="#3B3B70"/>
<path fill-rule="evenodd" clip-rule="evenodd" d="M0.66585 24.7023C-0.0996035 25.9272 0.272826 27.5407 1.4977 28.3061L10.1761 33.7295C11.401 34.4949 13.0145 34.1225 13.7799 32.8976C14.5454 31.6728 14.173 30.0593 12.9481 29.2938L4.26965 23.8705C3.04478 23.105 1.4313 23.4774 0.66585 24.7023Z" fill="#3B3B70"/>
<path fill-rule="evenodd" clip-rule="evenodd" d="M41.5243 0.635263C42.9687 0.646663 44.1303 1.82677 44.1189 3.2711L44.0381 13.5045C44.0267 14.9488 42.8466 16.1104 41.4023 16.099C39.9579 16.0876 38.7963 14.9075 38.8077 13.4632L38.8885 3.22982C38.8999 1.78548 40.08 0.623863 41.5243 0.635263Z" fill="#3B3B70"/>
<path fill-rule="evenodd" clip-rule="evenodd" d="M83.8678 24.7023C84.6333 25.9272 84.2609 27.5407 83.036 28.3061L74.3576 33.7295C73.1327 34.4949 71.5192 34.1225 70.7538 32.8976C69.9883 31.6728 70.3607 30.0593 71.5856 29.2938L80.264 23.8705C81.4889 23.105 83.1024 23.4774 83.8678 24.7023Z" fill="#3B3B70"/>
<path fill-rule="evenodd" clip-rule="evenodd" d="M17.2022 45.4739C17.2022 32.0122 28.1004 22.2452 41.5441 22.2452C54.4694 22.2452 65.0418 29.766 65.838 43.7589C65.8968 44.7933 65.8662 46.0704 65.838 47.0871L52.7505 47.0871C52.7505 47.0871 51.6416 45.6318 49.591 45.6318C47.4812 45.6318 46.5978 47.0871 46.5978 47.0871L40.6544 47.0871C40.6544 47.0871 38.0498 47.1388 37.9956 49.5895C37.9415 52.0402 40.6544 52.0559 40.6544 52.0559L46.5978 52.0491C46.5978 52.0491 46.707 52.3139 46.8255 52.449C46.9585 52.6006 47.245 52.7503 47.245 52.7503L47.2001 56.2834L46.5978 56.2834C46.5978 56.2834 44.3454 56.5812 44.3454 58.8796C44.3454 61.0479 46.5323 61.3099 46.5323 61.3099L47.1401 61.3099L47.1401 86.8798L46.5381 85.7945C46.5381 85.7945 45.2621 83.9581 43.2647 85.0075C41.3408 86.0183 42.0758 88.0782 42.0758 88.0782L42.5319 88.9818C42.5319 88.9818 42.0087 89.2118 41.6794 89.5453C41.3282 89.9011 41.0725 90.3283 41.0725 90.3283C28.9645 90.7699 28.7416 86.7324 28.5964 81.0458C28.533 78.5616 28.4617 75.7676 27.3782 72.9037C26.153 69.6651 24.6044 67.0273 23.0873 64.4432C20.0829 59.3257 17.2022 54.4189 17.2022 45.4739ZM65.4299 52.1975L65.4298 52.1978L65.4298 52.1982L65.4298 52.1983C65.422 52.2646 65.414 52.332 65.41 52.3572C65.2057 53.6416 64.849 54.7313 64.5042 55.7845L64.504 55.785C64.4275 56.0186 64.3516 56.2504 64.2782 56.4821L59.5525 56.3846C59.5525 56.3846 58.4772 55.5227 57.2454 55.5009C55.4903 55.4698 54.6361 56.3846 54.6361 56.3846L52.1681 56.2834L52.1681 52.7503C52.1681 52.7503 52.4105 52.5844 52.5549 52.449C52.7034 52.3096 52.7505 52.0491 52.7505 52.0491L65.4482 52.0491C65.4445 52.0731 65.4373 52.1348 65.4299 52.1975ZM53.5256 61.3099L52.1681 61.3099L52.1681 77.9335L54.5123 76.3308L54.6332 71.9678C54.6332 71.9678 53.9896 71.5083 53.9896 70.4631C53.9896 69.2507 54.6332 68.8251 54.6332 68.8251L54.6361 62.5532C54.6361 62.5532 54.2106 62.2628 53.9926 62.0199C53.7708 61.773 53.5256 61.3099 53.5256 61.3099ZM54.6332 82.2459C54.5755 83.0724 54.4848 83.8481 54.3057 84.5673C53.9578 85.9646 53.2766 87.1487 51.8573 88.0782C51.8573 88.0782 52.1846 87.5053 52.1846 87.2512C52.1846 85.9673 52.2702 83.6714 52.2702 83.6714L54.6332 82.2459ZM59.5525 65.8809C59.6652 65.6957 59.7779 65.5114 59.8905 65.3277L60.1539 64.8985C60.8543 63.7582 61.5462 62.6317 62.1939 61.4409L60.5372 61.4409C60.5372 61.4409 60.3417 61.8692 60.1608 62.1069C59.9605 62.3701 59.5525 62.6961 59.5525 62.6961L59.5525 65.8809ZM54.5722 44.1163C53.5075 36.3762 49.3367 33.9313 42.7239 32.832C42.7239 32.832 40.7072 32.8406 40.7072 31.3425C40.7072 29.8444 42.7239 29.8444 42.7239 29.8444C51.6011 29.8444 57.8468 35.6559 57.8468 44.1163C57.8468 44.1163 57.8793 45.8682 56.2401 45.8682C54.6009 45.8682 54.5722 44.1163 54.5722 44.1163Z" fill="#3B3B70"/>
<path fill-rule="evenodd" clip-rule="evenodd" d="M33.2338 92.9846L33.2359 92.987L33.2288 92.9786L33.2308 92.981L33.2338 92.9846ZM43.4765 96.5845C42.8405 96.7176 42.1675 96.7943 41.4612 96.7943C39.0007 96.7943 36.9442 95.8632 35.4489 94.8637C34.7071 94.3679 34.1306 93.8727 33.7467 93.509C33.5557 93.3281 33.4154 93.1825 33.3289 93.0895C33.2858 93.0431 33.2564 93.0101 33.241 92.9927L33.2288 92.9786C32.3012 91.8797 30.6595 91.7362 29.5545 92.6593C28.4459 93.5852 28.2979 95.2345 29.2239 96.343L31.2311 94.6664C29.2239 96.343 29.2252 96.3446 29.2252 96.3446L29.2266 96.3463L29.2298 96.35L29.2371 96.3588L29.2564 96.3814C29.2713 96.3988 29.2902 96.4207 29.3131 96.4467C29.3589 96.4988 29.4207 96.5677 29.4982 96.651C29.6529 96.8174 29.871 97.0423 30.1494 97.3061C30.7043 97.8318 31.51 98.5223 32.5422 99.2123C34.595 100.584 37.6535 102.025 41.4612 102.025C43.5668 102.025 45.4433 101.584 47.0473 100.959V98.0024C47.0473 98.0024 45.7276 98.3019 44.9763 98.0024C44.2276 97.7039 43.4765 96.5845 43.4765 96.5845ZM50.3801 92.4026C50.3801 92.4026 51.4963 94.5949 51.9917 96.1779C52.1732 96.7577 51.9917 98.0024 51.9917 98.0024C52.2909 97.7511 52.5517 97.5155 52.7728 97.3061C53.0512 97.0423 53.2693 96.8173 53.424 96.6509C53.5014 96.5676 53.5632 96.4987 53.609 96.4466C53.6319 96.4206 53.6508 96.3987 53.6657 96.3814L53.685 96.3587L53.6924 96.3499L53.6955 96.3462L53.6969 96.3445C53.6969 96.3445 53.6982 96.343 51.7581 94.7224L53.6983 96.3429C54.6242 95.2344 54.4761 93.5851 53.3675 92.6592C52.5009 91.9353 51.3037 91.8679 50.3801 92.4026Z" fill="#3B3B70"/>
<path fill-rule="evenodd" clip-rule="evenodd" d="M32.1853 106.513C33.0293 105.35 34.6522 105.087 35.82 105.919C35.8249 105.923 35.8377 105.931 35.8581 105.945C35.9038 105.975 35.9873 106.027 36.1062 106.096C36.3448 106.233 36.7217 106.43 37.2192 106.631C38.2161 107.035 39.6714 107.446 41.463 107.446C43.2547 107.446 44.7098 107.035 45.7067 106.631C46.2042 106.43 46.581 106.233 46.8195 106.096C46.8883 106.056 46.9451 106.022 46.9897 105.994L46.9379 111.755C45.5174 112.251 43.6586 112.677 41.463 112.677C38.867 112.677 36.7417 112.082 35.2551 111.479C34.5108 111.178 33.9201 110.872 33.5015 110.631C33.2919 110.511 33.1244 110.407 33.0014 110.326C32.9398 110.286 32.8892 110.252 32.8499 110.225C32.8303 110.211 32.8134 110.2 32.7994 110.19L32.7806 110.176L32.7727 110.171L32.7692 110.168L32.7676 110.167C32.7676 110.167 32.766 110.166 34.3013 108.05L32.766 110.166C31.597 109.317 31.337 107.682 32.1853 106.513Z" fill="#3B3B70"/>
<path fill-rule="evenodd" clip-rule="evenodd" d="M120.233 51.1826C121.061 51.196 121.744 50.5353 121.757 49.707C121.771 48.8787 121.11 48.1964 120.282 48.183L109.469 48.1609C109.041 47.0508 107.983 46.2349 106.693 46.2356C105.408 46.2363 104.355 47.0463 103.924 48.1496L80.7784 48.1024C80.3487 46.9954 79.2927 46.1825 78.0047 46.1832C76.7223 46.1839 75.6708 46.9909 75.2387 48.0911L52.185 48.044C51.6687 47.1828 50.7387 46.5911 49.6398 46.5917C48.5465 46.5923 47.6211 47.179 47.1041 48.0337L40.5683 48.0203C39.74 48.0069 39.0576 48.6676 39.0442 49.4959C39.0308 50.3242 39.6915 51.0066 40.5198 51.02L47.0084 51.0332C47.2674 51.5305 47.6594 51.9503 48.1421 52.2368L48.1417 57.3033L46.8309 57.2899C46.0025 57.2765 45.3202 57.9371 45.3068 58.7655C45.2934 59.5938 45.954 60.2761 46.7824 60.2895L48.1414 60.3034L48.139 87.1911C48.1395 88.0195 48.8114 88.6907 49.6398 88.6903C50.4683 88.6898 51.1395 88.0179 51.139 87.1894L51.1369 83.4086L57.8674 78.8881C58.2818 78.6097 58.5306 78.1434 58.5311 77.6442L58.5359 71.8877L61.9644 71.8959C62.2152 72.2808 62.5507 72.6065 62.9475 72.842L62.9316 102.1L51.1404 106.367L51.1444 97.116C51.1445 96.8739 51.086 96.6353 50.9739 96.4208L45.7904 86.4985C45.4068 85.7643 44.5006 85.48 43.7664 85.8636C43.0321 86.2472 42.7975 87.1295 43.1314 87.8876C43.4356 88.5781 43.8773 89.3154 43.8773 89.3154L42.5719 90.1125C41.8885 90.5299 41.6534 91.4104 42.0378 92.1129L44.544 96.6923C44.7435 97.0569 45.0854 97.3223 45.488 97.4254C45.8907 97.5284 46.318 97.4597 46.6681 97.2358L47.6776 96.59L48.1443 97.4832L48.1395 108.493L48.1395 108.505L48.0008 124.939L45.0491 124.941C44.2207 124.941 43.5495 125.613 43.5499 126.442L45.0499 126.441C43.5499 126.442 43.5499 126.443 43.5499 126.443L43.5499 126.448L43.55 126.457L43.5502 126.478L43.5507 126.504L43.5518 126.542C43.5525 126.561 43.5533 126.583 43.5545 126.608C43.5563 126.647 43.5588 126.692 43.5623 126.742C43.5738 126.906 43.5959 127.131 43.639 127.396C43.7239 127.921 43.8965 128.644 44.2564 129.386C44.6185 130.132 45.1874 130.931 46.0749 131.541C46.6246 131.919 47.2627 132.201 47.9915 132.362L47.9924 134.074C47.9929 134.902 48.6648 135.574 49.4932 135.573C50.3217 135.573 50.9929 134.9 50.9924 134.072L50.9915 132.337C51.6576 132.165 52.2415 131.879 52.7436 131.501C53.5743 130.877 54.0945 130.07 54.4207 129.335C54.7462 128.601 54.9014 127.887 54.9775 127.371C55.0161 127.109 55.0359 126.888 55.046 126.727C55.051 126.647 55.0537 126.58 55.0551 126.531C55.0559 126.507 55.0563 126.486 55.0565 126.47L55.0567 126.449L55.0567 126.441L55.0568 126.437C55.0568 126.437 55.0568 126.435 53.5568 126.436L55.0568 126.435C55.0563 125.607 54.3844 124.936 53.5559 124.936L52.4762 124.937L53.9378 122.973L64.6302 122.968L64.6313 124.93L61.6929 124.932C61.2951 124.932 60.9137 125.09 60.6325 125.372C60.3513 125.653 60.1935 126.035 60.1937 126.433L61.6937 126.432C60.1937 126.433 60.1937 126.434 60.1937 126.434L60.1938 126.439L60.1938 126.447L60.1941 126.469C60.1944 126.486 60.1948 126.507 60.1957 126.532C60.1973 126.583 60.2004 126.651 60.2061 126.733C60.2176 126.897 60.2397 127.122 60.2828 127.387C60.3678 127.912 60.5404 128.635 60.9002 129.377C61.2624 130.123 61.8313 130.922 62.7187 131.532C63.2685 131.91 63.9066 132.192 64.6353 132.353L64.6363 134.065C64.6367 134.893 65.3087 135.564 66.1371 135.564C66.9655 135.564 67.6367 134.891 67.6363 134.063L67.6353 132.328C68.3014 132.156 68.8854 131.87 69.3874 131.492C70.2182 130.868 70.7384 130.061 71.0645 129.326C71.3901 128.592 71.5452 127.878 71.6214 127.362C71.66 127.1 71.6797 126.879 71.6898 126.718C71.6949 126.637 71.6976 126.571 71.699 126.522L71.6995 126.502L71.7003 126.461L71.7005 126.44L71.7006 126.432L71.7006 126.428C71.7006 126.428 71.7006 126.426 70.2006 126.427L71.7006 126.426C71.7001 125.598 71.0282 124.927 70.1998 124.927L67.6313 124.928L67.6294 121.466C67.6289 120.638 66.957 119.966 66.1286 119.967L53.1834 119.974C52.7096 119.974 52.2639 120.198 51.981 120.578L51.0269 121.86L51.1306 109.561L64.9414 104.563C65.5351 104.349 65.9307 103.785 65.9311 103.154L65.9475 72.8418C66.3401 72.6087 66.6726 72.2874 66.9223 71.9079L76.5052 71.931L76.5039 86.7825C76.5043 87.611 77.1763 88.2822 78.0047 88.2817C78.8331 88.2813 79.5043 87.6093 79.5039 86.7809L79.5018 83.0001L86.2323 78.4796C86.6467 78.2012 86.8955 77.7349 86.8959 77.2356L86.9004 71.9561L90.7143 71.9653C90.8923 72.1454 91.093 72.3032 91.3124 72.4335L91.2965 101.692L79.5053 105.958L79.5093 96.7074C79.5094 96.4653 79.4509 96.2268 79.3388 96.0122L74.1553 86.09C73.7717 85.3557 72.8655 85.0714 72.1312 85.455C71.397 85.8386 71.1127 86.7448 71.4963 87.4791L72.2422 88.9069L70.9368 89.704C70.2534 90.1213 70.0182 91.0019 70.4027 91.7043L72.9089 96.2837C73.1084 96.6483 73.4502 96.9138 73.8529 97.0168C74.2555 97.1198 74.6829 97.0512 75.033 96.8272L76.0425 96.1814L76.5091 97.0747L76.5044 108.084L76.5043 108.096L76.3657 124.531L73.414 124.532C72.5855 124.533 71.9143 125.205 71.9148 126.033L73.4015 126.032C71.9148 126.033 71.9148 126.035 71.9148 126.035L71.9148 126.036L71.9148 126.04L71.9148 126.048L71.9151 126.07C71.9154 126.086 71.9159 126.108 71.9167 126.133C71.9184 126.184 71.9215 126.251 71.9272 126.333C71.9386 126.497 71.9607 126.722 72.0038 126.988C72.0888 127.512 72.2614 128.235 72.6213 128.977C72.9834 129.724 73.5523 130.523 74.4397 131.132C74.9895 131.51 75.6276 131.792 76.3564 131.954L76.3573 133.665C76.3578 134.494 77.0297 135.165 77.8581 135.165C78.6865 135.164 79.3577 134.492 79.3573 133.663L79.3564 131.928C80.0224 131.757 80.6064 131.47 81.1085 131.093C81.9392 130.468 82.4594 129.662 82.7855 128.926C83.1111 128.192 83.2663 127.478 83.3424 126.962C83.381 126.7 83.4007 126.479 83.4108 126.319C83.4159 126.238 83.4186 126.172 83.42 126.123C83.4207 126.098 83.4211 126.077 83.4214 126.061L83.4216 126.041L83.4216 126.033L83.4216 126.03L83.4216 126.028C83.4216 126.028 83.4216 126.027 81.9216 126.028L83.4216 126.027C83.4212 125.198 82.7492 124.527 81.9208 124.528L80.8411 124.528L82.3027 122.565L92.9951 122.559L92.9961 124.522L90.0578 124.523C89.66 124.523 89.2785 124.682 88.9974 124.963C88.7162 125.245 88.5584 125.626 88.5586 126.024L90.0586 126.023C88.5586 126.024 88.5586 126.025 88.5586 126.025L88.5586 126.031L88.5587 126.039L88.5589 126.061C88.5592 126.077 88.5597 126.098 88.5605 126.124C88.5622 126.175 88.5653 126.242 88.571 126.324C88.5825 126.488 88.6046 126.713 88.6477 126.979C88.7326 127.503 88.9052 128.226 89.2651 128.968C89.6272 129.715 90.1961 130.514 91.0836 131.123C91.6333 131.501 92.2714 131.783 93.0002 131.945L93.0011 133.656C93.0016 134.485 93.6735 135.156 94.5019 135.155C95.3304 135.155 96.0016 134.483 96.0011 133.654L96.0002 131.919C96.6663 131.748 97.2503 131.461 97.7523 131.084C98.583 130.459 99.1032 129.653 99.4294 128.917C99.7549 128.183 99.9101 127.469 99.9862 126.953C100.025 126.691 100.045 126.47 100.055 126.31C100.06 126.229 100.062 126.163 100.064 126.114L100.064 126.09L100.065 126.065L100.065 126.052L100.065 126.032L100.065 126.024L100.065 126.021L100.065 126.019C100.065 126.019 100.065 126.018 98.5655 126.019L100.065 126.018C100.065 125.189 99.3931 124.518 98.5646 124.519L95.9961 124.52L95.9943 121.057C95.9938 120.229 95.3219 119.558 94.4934 119.558L81.5482 119.565C81.0745 119.566 80.6287 119.79 80.3459 120.17L79.3918 121.451L79.4955 109.152L93.3063 104.155C93.9 103.94 94.2956 103.377 94.2959 102.745L94.3124 72.4333C94.5275 72.3055 94.7247 72.1512 94.9 71.9754L105.193 72.0002L105.192 86.8349C105.192 87.6633 105.864 88.3345 106.693 88.3341C107.521 88.3336 108.192 87.6617 108.192 86.8333L108.19 83.0525L114.92 78.5319C115.335 78.2536 115.584 77.7872 115.584 77.288L115.588 72.0253L119.419 72.0345C119.593 72.2077 119.788 72.3597 120 72.4859L119.985 101.744L108.193 106.011L108.197 96.7598C108.198 96.5177 108.139 96.2792 108.027 96.0646L102.843 86.1424C102.46 85.4081 101.554 85.1238 100.819 85.5074C100.085 85.891 99.8008 86.7972 100.184 87.5315L100.93 88.9593L99.6249 89.7564C98.9415 90.1737 98.7063 91.0543 99.0908 91.7567L101.597 96.3361C101.796 96.7007 102.138 96.9662 102.541 97.0692C102.944 97.1722 103.371 97.1036 103.721 96.8796L104.731 96.2338L105.197 97.127L105.192 108.136L105.192 108.148L105.054 124.583L102.102 124.585C101.274 124.585 100.602 125.257 100.603 126.085L102.103 126.085C100.603 126.085 100.603 126.087 100.603 126.087L100.603 126.092L100.603 126.1L100.603 126.122L100.604 126.147L100.605 126.185C100.606 126.236 100.61 126.304 100.615 126.386C100.627 126.55 100.649 126.774 100.692 127.04C100.777 127.565 100.95 128.288 101.309 129.029C101.672 129.776 102.24 130.575 103.128 131.185C103.678 131.563 104.316 131.844 105.044 132.006L105.045 133.718C105.046 134.546 105.718 135.217 106.546 135.217C107.375 135.216 108.046 134.544 108.045 133.716L108.044 131.981C108.711 131.809 109.295 131.522 109.797 131.145C110.627 130.521 111.147 129.714 111.474 128.979C111.799 128.245 111.954 127.531 112.031 127.015C112.069 126.753 112.089 126.532 112.099 126.371C112.104 126.29 112.107 126.224 112.108 126.175C112.109 126.15 112.109 126.13 112.109 126.114L112.11 126.093L112.11 126.085L112.11 126.081C112.11 126.081 112.11 126.079 110.61 126.08L112.11 126.079C112.109 125.251 111.437 124.58 110.609 124.58L109.529 124.581L110.991 122.617L121.683 122.611L121.684 124.574L118.746 124.576C118.348 124.576 117.967 124.734 117.685 125.015C117.404 125.297 117.247 125.679 117.247 126.076L118.742 126.076C117.247 126.076 117.247 126.078 117.247 126.078L117.247 126.083L117.247 126.091L117.247 126.113C117.247 126.13 117.248 126.151 117.249 126.176C117.249 126.194 117.25 126.214 117.251 126.235L117.252 126.265L117.255 126.311L117.257 126.339L117.259 126.377C117.271 126.541 117.293 126.765 117.336 127.031C117.421 127.556 117.593 128.279 117.953 129.02C118.315 129.767 118.884 130.566 119.772 131.176C120.321 131.554 120.96 131.835 121.688 131.997L121.689 133.709C121.69 134.537 122.362 135.208 123.19 135.208C124.019 135.207 124.69 134.535 124.689 133.706L124.688 131.971C125.354 131.8 125.938 131.513 126.44 131.136C127.271 130.512 127.791 129.705 128.118 128.97C128.443 128.235 128.598 127.522 128.674 127.006C128.713 126.744 128.733 126.523 128.743 126.362C128.748 126.281 128.751 126.215 128.752 126.166L128.753 126.146L128.753 126.105L128.754 126.084L128.754 126.076L128.754 126.071C128.754 126.071 128.754 126.07 127.254 126.071L128.754 126.07C128.753 125.242 128.081 124.57 127.253 124.571L124.684 124.572L124.682 121.11C124.682 120.281 124.01 119.61 123.182 119.611L110.236 119.618C109.763 119.618 109.317 119.842 109.034 120.222L108.08 121.504L108.184 109.205L121.994 104.207C122.588 103.992 122.984 103.429 122.984 102.798L123.001 72.4857C123.209 72.362 123.4 72.2134 123.571 72.0446L130.627 72.0616C131.455 72.075 132.137 71.4143 132.151 70.586C132.164 69.7577 131.503 69.0754 130.675 69.062L124.368 69.0467C124.019 67.7964 122.895 66.8403 121.499 66.8411C120.108 66.8418 118.989 67.7905 118.637 69.0329L115.591 69.0256L115.597 61.8014C115.943 61.5961 116.242 61.3223 116.479 61.0007L124.587 61.0835C125.415 61.0968 126.097 60.4362 126.111 59.6079C126.124 58.7796 125.464 58.0972 124.635 58.0838L116.84 58.0043C116.394 56.934 115.356 56.1559 114.095 56.1566C112.859 56.1573 111.836 56.9081 111.378 57.9486L108.194 57.9161L108.195 51.8799C108.512 51.6919 108.789 51.4466 109.015 51.1597L120.233 51.1826ZM112.591 69.0183L112.597 61.8012C112.234 61.5856 111.922 61.2945 111.68 60.9518L108.193 60.9162L108.192 69.0077L112.591 69.0183ZM108.191 72.0075L108.19 79.4385L112.585 76.4868L112.588 72.0181L108.191 72.0075ZM105.194 69.0005L105.194 60.8856L87.9503 60.7096C87.6944 61.1351 87.3375 61.4946 86.909 61.749L86.9029 68.9564L89.9535 68.9637C90.3111 67.7296 91.4263 66.7895 92.8105 66.7887C94.201 66.7879 95.3211 67.7355 95.6747 68.9775L105.194 69.0005ZM83.9029 68.9491L83.909 61.7488C83.4632 61.4841 83.0948 61.1057 82.8371 60.6574L79.5054 60.6234L79.5038 68.9385L83.9029 68.9491ZM79.5033 71.9383L79.5019 79.3861L83.8966 76.4344L83.9004 71.9489L79.5033 71.9383ZM76.5055 68.9313L76.5062 60.5928L59.8934 60.4233C59.674 61.1511 59.1904 61.7738 58.5441 62.1575L58.5384 68.888L61.771 68.8958C62.2485 67.9041 63.246 67.1979 64.4456 67.1973C65.6516 67.1966 66.6541 67.9092 67.1297 68.9087L76.5055 68.9313ZM55.5381 69.2113L55.5441 62.1574C54.8808 61.7635 54.3888 61.1177 54.178 60.365L51.1406 60.334L51.137 79.7947L55.5317 76.843L55.5362 71.5528C55.1876 71.2727 54.9674 70.8403 54.9751 70.3586C54.9827 69.8933 55.2012 69.481 55.5381 69.2113ZM51.1412 57.3339L54.9633 57.3729C55.4933 56.845 56.2205 56.5132 57.0425 56.5128C57.8878 56.5123 58.6331 56.8623 59.1671 57.4158L76.5065 57.5927L76.507 51.8282C76.1843 51.6367 75.9022 51.3857 75.6732 51.0917L52.269 51.0439C52.0102 51.5361 51.6208 51.9517 51.1421 52.2361L51.1412 57.3339ZM79.5059 57.6233L82.8078 57.657C83.3099 56.7426 84.2674 56.1048 85.4074 56.1042C86.5706 56.1036 87.5445 56.7665 88.0389 57.7104L105.195 57.8855L105.195 51.8806C104.875 51.6905 104.594 51.4415 104.366 51.1502L80.3322 51.1012C80.1048 51.3907 79.8257 51.6382 79.507 51.8275L79.5059 57.6233ZM75.2579 127.531C75.2776 127.577 75.2984 127.622 75.3204 127.668C75.5136 128.066 75.7776 128.412 76.1389 128.66C76.4885 128.9 77.0176 129.111 77.8548 129.111C78.5701 129.11 79.0117 128.916 79.3062 128.694C79.6193 128.459 79.8613 128.12 80.0431 127.71C80.0698 127.65 80.0947 127.589 80.1179 127.529L75.2579 127.531ZM91.9282 127.582C91.9399 127.608 91.9519 127.633 91.9642 127.659C92.1575 128.057 92.4214 128.403 92.7827 128.651C93.1323 128.891 93.6614 129.102 94.4986 129.102C95.214 129.101 95.6555 128.907 95.95 128.685C96.2631 128.45 96.5051 128.111 96.6869 127.701C96.7136 127.641 96.7385 127.58 96.7617 127.52L91.9017 127.522L91.9161 127.555L91.9282 127.582ZM103.998 127.697L104.008 127.72C104.202 128.118 104.466 128.464 104.827 128.712C105.177 128.953 105.706 129.163 106.543 129.163C107.258 129.163 107.7 128.968 107.994 128.747C108.307 128.512 108.549 128.173 108.731 127.763C108.758 127.702 108.783 127.642 108.806 127.581L103.946 127.584C103.962 127.622 103.98 127.66 103.998 127.697ZM120.59 127.575C120.61 127.62 120.63 127.666 120.652 127.711C120.846 128.109 121.11 128.455 121.471 128.703C121.82 128.944 122.35 129.154 123.187 129.154C123.902 129.154 124.344 128.959 124.638 128.738C124.951 128.503 125.193 128.163 125.375 127.754C125.402 127.693 125.427 127.633 125.45 127.572L120.59 127.575ZM46.9555 128.076C46.9336 128.031 46.9127 127.985 46.893 127.94L51.753 127.937C51.7298 127.998 51.7049 128.059 51.6782 128.119C51.4964 128.529 51.2544 128.868 50.9413 129.103C50.6468 129.324 50.2053 129.519 49.4899 129.519C48.6527 129.52 48.1236 129.309 47.774 129.069C47.4127 128.82 47.1488 128.475 46.9555 128.076ZM63.5994 128.067C63.5774 128.022 63.5566 127.976 63.5368 127.931L68.3969 127.928C68.3737 127.989 68.3487 128.049 68.322 128.11C68.1403 128.52 67.8982 128.859 67.5852 129.094C67.2907 129.315 66.8491 129.51 66.1338 129.51C65.2966 129.511 64.7674 129.3 64.4179 129.06C64.0565 128.811 63.7926 128.465 63.5994 128.067Z" fill="#3B3B70"/>
<defs>
<linearGradient id="paint0_linear_444_16738" x1="20.46" y1="77.9375" x2="200.605" y2="77.9487" gradientUnits="userSpaceOnUse">
<stop stop-color="#FEFFBE"/>
<stop offset="1" stop-color="#FFA751"/>
</linearGradient>
</defs>
</svg>
