<svg width="120" height="121" viewBox="0 0 120 121" fill="none" xmlns="http://www.w3.org/2000/svg">
<path d="M112.319 40.3756V11.0605C112.319 9.95598 111.424 9.06055 110.319 9.06055H10.3193C9.21477 9.06055 8.31934 9.95598 8.31934 11.0605V111.061C8.31934 112.165 9.21477 113.061 10.3193 113.061H110.319C111.424 113.061 112.319 112.165 112.319 111.061V74.3253" stroke="url(#paint0_linear_444_16741)" stroke-width="2"/>
<ellipse rx="15.567" ry="17.8733" transform="matrix(-1 0 0 1 30.4808 78.9377)" fill="#3B3B70"/>
<path fill-rule="evenodd" clip-rule="evenodd" d="M111.407 41.6099C110.625 41.28 109.719 41.4807 109.148 42.1104V42.1104C109.718 41.48 110.625 41.2793 111.407 41.6099V41.6099ZM21.2568 6.44895C37.7589 13.1512 95.6162 32.6471 110.67 37.6998H89.5005C66.6944 30.2784 29.3457 18.0717 18.374 14.1714C16.6444 13.5565 19.5271 5.74645 21.2568 6.44895Z" fill="#3B3B70"/>
<path fill-rule="evenodd" clip-rule="evenodd" d="M49.1391 75.0311C49.0893 72.4099 48.9206 68.19 48.355 66.83C47.5133 64.8065 42.5894 58.1817 39.9516 56.9313C37.3137 55.6809 23.1881 55.6385 20.1037 56.9313C17.6203 57.9722 13.3953 68.8785 11.8433 73.0888C11.496 74.031 10.5145 74.5764 9.54958 74.298C6.52021 73.4237 0.500786 71.2083 0.500786 67.4066V51.8396C0.500786 46.2449 28.2236 40.6586 34.8412 39.4048C35.6873 39.2445 36.3324 38.5732 36.4871 37.726C36.9442 35.2233 38.066 29.9243 39.9516 26.0681C41.5925 22.7121 62.7688 28.2006 66.1989 31.2856C66.7767 31.8053 67.1019 34.229 67.2573 37.6998C67.2573 37.6998 65.9952 37.5953 65.3355 37.9682C64.6945 38.3306 64.1329 39.1793 64.1329 39.9156V51.4736H59.0005C58.3928 51.4736 57.9952 51.5995 57.5349 51.9963C57.0133 52.4459 56.7864 52.9043 56.7864 53.5929V64.5434C56.7864 65.3196 57.1745 65.9572 57.5349 66.2899C57.8953 66.6226 58.5607 66.983 59.0005 66.983H64.1329V73.6919C64.1329 74.2156 64.1829 74.4776 64.4111 74.949C64.6391 75.4198 65.0298 75.9411 65.5147 75.9039C61.0412 76.2464 54.6405 76.7629 51.3292 77.0317C50.1607 77.1265 49.1613 76.2032 49.1391 75.0311Z" fill="#3B3B70"/>
<ellipse cx="11.0263" cy="7.33675" rx="6.3032" ry="6.20278" transform="rotate(18.2413 11.0263 7.33675)" fill="#3B3B70"/>
<rect x="12.4927" y="5.93555" width="9.4548" height="4.12815" transform="rotate(20.8066 12.4927 5.93555)" fill="#3B3B70"/>
<path fill-rule="evenodd" clip-rule="evenodd" d="M65.1602 40.2305C65.1602 39.402 65.8318 38.7305 66.6602 38.7305H114.217C115.045 38.7305 115.717 39.402 115.717 40.2305V73.8744C115.717 74.7028 115.045 75.3744 114.217 75.3744H110.64L105.277 83.9854C105.003 84.4251 104.521 84.6924 104.003 84.6924H101.831L104.066 114.069C104.126 114.855 103.567 115.553 102.787 115.667C102.007 115.78 101.272 115.271 101.105 114.5L95.1716 87.125L93.4192 114.279C93.3682 115.068 92.7132 115.682 91.9223 115.682H91.1377C90.3468 115.682 89.6918 115.068 89.6408 114.279L87.7314 84.6924H87.6272L81.1699 114.05C81.0006 114.82 80.2649 115.327 79.4855 115.212C78.7061 115.096 78.1487 114.398 78.2094 113.612L80.4428 84.6924H77.2721C76.7252 84.6924 76.2217 84.3947 75.958 83.9156L71.2575 75.3744H66.6602C65.8318 75.3744 65.1602 74.7028 65.1602 73.8744V65.9166H59.2378C58.4094 65.9166 57.7378 65.245 57.7378 64.4166V53.9072C57.7378 53.0788 58.4094 52.4072 59.2378 52.4072H65.1602V40.2305ZM65.1602 55.4072H60.7378V62.9166H65.1602V55.4072ZM74.6818 75.3744L78.1588 81.6924H93.9079C93.9165 81.6923 93.9251 81.6923 93.9337 81.6924H103.17L107.106 75.3744H74.6818ZM92.3223 84.6924H90.7376L91.53 96.97L92.3223 84.6924ZM84.5555 84.6924H83.4517L82.8545 92.426L84.5555 84.6924ZM97.714 84.6924H98.8221L99.4217 92.5718L97.714 84.6924ZM68.1602 41.7305V72.3744H112.717V41.7305H68.1602Z" fill="#3B3B70"/>
<path fill-rule="evenodd" clip-rule="evenodd" d="M90.6567 46.9961C84.5972 46.9961 79.6851 51.9083 79.6851 57.9678C79.6851 64.0273 84.5972 68.9395 90.6567 68.9395C96.7162 68.9395 101.628 64.0273 101.628 57.9678C101.628 51.9083 96.7162 46.9961 90.6567 46.9961ZM76.6851 57.9678C76.6851 50.2514 82.9404 43.9961 90.6567 43.9961C98.3731 43.9961 104.628 50.2514 104.628 57.9678C104.628 65.6841 98.3731 71.9395 90.6567 71.9395C82.9404 71.9395 76.6851 65.6841 76.6851 57.9678Z" fill="#3B3B70"/>
<path fill-rule="evenodd" clip-rule="evenodd" d="M90.6564 54.1074C88.5251 54.1074 86.7974 55.8352 86.7974 57.9664C86.7974 60.0977 88.5251 61.8255 90.6564 61.8255C92.7877 61.8255 94.5154 60.0977 94.5154 57.9664C94.5154 55.8352 92.7877 54.1074 90.6564 54.1074ZM83.7974 57.9664C83.7974 54.1783 86.8683 51.1074 90.6564 51.1074C94.4445 51.1074 97.5154 54.1783 97.5154 57.9664C97.5154 61.7546 94.4445 64.8255 90.6564 64.8255C86.8683 64.8255 83.7974 61.7546 83.7974 57.9664Z" fill="#3B3B70"/>
<defs>
<linearGradient id="paint0_linear_444_16741" x1="8.31934" y1="61.0605" x2="112.319" y2="61.0605" gradientUnits="userSpaceOnUse">
<stop stop-color="#00FFD6"/>
<stop offset="1" stop-color="#02AAB0"/>
</linearGradient>
</defs>
</svg>
