<svg width="121" height="122" viewBox="0 0 121 122" fill="none" xmlns="http://www.w3.org/2000/svg">
<path d="M112.489 38.534V11.0234C112.489 9.91887 111.594 9.02344 110.489 9.02344H10.4893C9.38469 9.02344 8.48926 9.91887 8.48926 11.0234V111.023C8.48926 112.128 9.38469 113.023 10.4893 113.023H65.6487M112.489 51.5877V111.023C112.489 112.128 111.594 113.023 110.489 113.023H92.8586" stroke="url(#paint0_linear_444_16739)" stroke-width="2"/>
<path d="M0.74707 3.14453C0.74707 2.03996 1.6425 1.14453 2.74707 1.14453H9.10382C10.2084 1.14453 11.1038 2.03996 11.1038 3.14453V90.4133C11.1038 91.5179 10.2084 92.4133 9.10381 92.4133H2.74707C1.6425 92.4133 0.74707 91.5179 0.74707 90.4133V3.14453Z" fill="#3B3B70"/>
<path fill-rule="evenodd" clip-rule="evenodd" d="M23.6824 3.14453C23.6824 2.03996 22.787 1.14453 21.6824 1.14453H15.3257C14.2211 1.14453 13.3257 2.03996 13.3257 3.14453V90.4133C13.3257 91.5179 14.2211 92.4133 15.3257 92.4133H21.6824C22.787 92.4133 23.6824 91.5179 23.6824 90.4133V70.5762L20.305 70.1186C20.268 70.1136 20.2319 70.1097 20.1947 70.1059C19.899 70.0756 18.4857 69.8984 17.924 69.239C17.3926 68.6153 17.3913 67.2879 17.3986 66.9788C17.3996 66.9349 17.4027 66.8961 17.4079 66.8525C17.4943 66.129 18.3523 59.129 19.7263 54.7625C20.9175 50.977 23.6824 45.4022 23.6824 45.4022V3.14453Z" fill="#3B3B70"/>
<path fill-rule="evenodd" clip-rule="evenodd" d="M40.4834 1.14453C39.3788 1.14453 38.4834 2.03996 38.4834 3.14453V41.9158C38.4834 41.9158 41.3451 38.8512 43.3962 37.1279C45.4056 35.4397 48.8401 33.1879 48.8401 33.1879V3.14453C48.8401 2.03996 47.9447 1.14453 46.8401 1.14453H40.4834ZM48.8401 48.6344V39.2725C48.8401 39.2725 45.9572 41.3797 44.3467 42.9901C42.7966 44.5401 40.547 47.3419 40.547 47.3419L46.8221 50.9709C46.8221 50.9709 47.3764 50.2722 47.7592 49.8214C48.1452 49.3669 48.8401 48.6344 48.8401 48.6344Z" fill="#3B3B70"/>
<path fill-rule="evenodd" clip-rule="evenodd" d="M46.8401 92.4133C47.8937 92.4133 48.7569 91.5988 48.8345 90.5651L47.9306 89.5209C47.9306 89.5209 46.8624 88.4413 47.3056 87.089C47.7488 85.7367 48.8401 85.4278 48.8401 85.4278V74.0131L38.4834 72.6138V90.4133C38.4834 91.5179 39.3788 92.4133 40.4834 92.4133H46.8401Z" fill="#3B3B70"/>
<path d="M25.9058 41.4642C26.297 40.9039 26.7016 40.6681 27.3707 40.5296C28.1621 40.3658 28.6734 40.5065 29.3728 40.9115C31.6275 42.2171 35.1386 44.2393 35.9627 44.7138C36.0643 44.7723 36.1927 44.7449 36.2625 44.6508V3.14453C36.2625 2.03996 35.3671 1.14453 34.2625 1.14453H27.9058C26.8391 1.14453 25.9058 1.887 25.9058 3.14453V41.4642Z" fill="#3B3B70"/>
<path d="M36.2625 72.2718L25.9058 70.8942V90.4133C25.9058 91.6464 26.851 92.4133 27.9711 92.4133H32.1319L30.3442 88.7514C30.3442 88.7514 29.6247 86.7126 31.5711 85.7018C33.5174 84.691 34.7608 86.4379 34.7608 86.4379L36.2625 89.4524V72.2718Z" fill="#3B3B70"/>
<path fill-rule="evenodd" clip-rule="evenodd" d="M53.062 1.14453C51.9574 1.14453 51.062 2.03996 51.062 3.14453V31.9787C51.062 31.9787 53.9473 30.3473 55.9012 29.53C57.9945 28.6544 61.4188 27.7091 61.4188 27.7091V3.14453C61.4188 2.03996 60.5233 1.14453 59.4188 1.14453H53.062ZM51.062 37.8612V46.357C51.062 46.357 53.9048 44.2274 55.9012 43.1557C57.9607 42.0502 61.4188 40.8362 61.4188 40.8362V32.9275C61.4188 32.9275 57.978 34.0241 55.9012 35.0243C53.9276 35.9748 51.062 37.8612 51.062 37.8612ZM51.062 85.6681V74.256L55.6511 74.8719C55.6511 74.8719 56.8126 77.7064 57.9854 79.2476C59.1123 80.7285 61.4188 82.5519 61.4188 82.5519V90.4133C61.4188 91.5179 60.5233 92.4133 59.4188 92.4133C59.4188 92.4133 57.1783 91.3844 55.0898 89.6015C53.4835 88.2302 53.0249 87.7233 52.1544 86.761C51.926 86.5085 51.6692 86.2247 51.356 85.8857C51.2698 85.7925 51.062 85.6681 51.062 85.6681ZM61.4188 46.0354V56.5408L59.4693 58.3096L51.3064 53.4064C51.3064 53.4064 53.7795 50.7504 55.6511 49.3054C57.7006 47.7231 61.4188 46.0354 61.4188 46.0354Z" fill="#3B3B70"/>
<path d="M63.6401 8.11328C63.6401 7.00871 64.5356 6.11328 65.6401 6.11328H75.6651C76.7697 6.11328 77.6651 7.00871 77.6651 8.11328V15.7026C77.6651 16.8072 76.7697 17.7026 75.6651 17.7026H65.6401C64.5356 17.7026 63.6401 16.8072 63.6401 15.7026V8.11328Z" fill="#3B3B70"/>
<path fill-rule="evenodd" clip-rule="evenodd" d="M96.5647 25.408C97.0204 24.7609 97.9005 24.5791 98.5753 24.9929C102.898 27.6432 106.888 30.9825 110.383 34.9991C113.877 39.0156 116.632 43.4299 118.658 48.0779C118.981 48.8178 118.66 49.6803 117.932 50.0296L111.013 53.3511C115.729 66.4807 113.353 81.6666 104.504 93.518C104.008 94.1818 103.068 94.3181 102.404 93.8224C101.741 93.3268 101.604 92.3868 102.1 91.7231C110.311 80.726 112.513 66.7279 108.293 54.6569L98.0976 59.5512C100.742 66.7966 100.398 74.8208 97.1957 81.7931C96.85 82.5459 95.9594 82.8759 95.2066 82.5301C94.4537 82.1844 94.1237 81.2938 94.4695 80.541C97.3026 74.3722 97.6417 67.2829 95.3786 60.8564L85.0508 65.8143C86.4286 71.1087 84.8262 76.9664 80.4233 80.8041C80.5092 80.9093 80.5821 81.0279 80.6386 81.1585L94.779 113.85C95.0916 114.573 94.7922 115.414 94.0934 115.777C85.1123 120.44 75.1701 122.343 65.4837 121.558C64.689 121.494 64.0835 120.819 64.1054 120.022L64.3311 111.813C54.23 110.894 44.611 106.374 37.601 98.316C34.988 95.3125 32.91 92.0151 31.3575 88.5337C31.0201 87.7771 31.36 86.8902 32.1166 86.5528C32.8732 86.2154 33.7601 86.5552 34.0975 87.3118C35.5308 90.526 37.4493 93.5709 39.8644 96.347C46.2872 103.73 55.0976 107.915 64.4137 108.807L64.7034 98.2738C58.2478 97.2118 53.1916 94.0528 48.5873 88.7602C48.0435 88.1352 48.1094 87.1877 48.7344 86.644C49.3595 86.1002 50.3069 86.1661 50.8507 86.7911C54.9722 91.5288 59.3181 94.2505 64.7867 95.2438L65.1068 83.6026C65.1085 83.5397 65.1142 83.4774 65.1236 83.416C62.986 82.5664 61.0141 81.2075 59.4003 79.3524C57.983 77.7233 56.9828 75.8734 56.3908 73.9334L19.7412 69.0578C18.9628 68.9542 18.396 68.2678 18.4415 67.4838C18.9559 58.6354 21.7136 49.8857 26.6416 42.1565C27.0725 41.4806 27.9587 41.263 28.6537 41.6624L36.6248 46.243C36.6415 45.9572 36.74 45.6731 36.9255 45.4275C38.8267 42.9114 41.0215 40.5476 43.5039 38.388C51.7779 31.1901 61.8505 27.4749 71.7914 27.1836C72.6195 27.1593 73.3104 27.8109 73.3347 28.639C73.359 29.4671 72.7074 30.158 71.8793 30.1823C62.6244 30.4535 53.2183 33.9134 45.473 40.6514C43.1481 42.674 41.0954 44.8852 39.3191 47.2361C39.2144 47.3747 39.0902 47.49 38.9533 47.5811L47.1929 52.316C47.2415 52.1216 47.3299 51.9338 47.46 51.765C48.6265 50.2503 49.959 48.8291 51.4549 47.5278C55.8354 43.7169 61.0331 41.4414 66.3844 40.6593C67.2041 40.5395 67.9658 41.1069 68.0856 41.9266C68.2054 42.7464 67.638 43.508 66.8182 43.6278C62.0186 44.3293 57.358 46.3687 53.4239 49.7912C52.0788 50.9614 50.8828 52.2373 49.8368 53.5955C49.7929 53.6525 49.7458 53.7054 49.6958 53.7542L59.6774 59.4901C60.0465 59.09 60.4413 58.706 60.8616 58.3404C64.9978 54.7422 70.5562 53.8328 75.402 55.4638L96.5647 25.408ZM83.9994 62.9912C83.4439 61.866 82.7359 60.793 81.8736 59.8018C80.8548 58.6306 79.6932 57.6572 78.4373 56.8849L78.2346 56.6518L98.1953 28.3032C101.806 30.6662 105.151 33.5563 108.119 36.9681C111.078 40.3696 113.472 44.0708 115.31 47.9605L83.9994 62.9912ZM76.4941 59.222C72.2308 56.8105 66.7366 57.2058 62.8306 60.6038C57.8748 64.9151 57.3524 72.4276 61.6637 77.3834C65.975 82.3392 73.4874 82.8617 78.4432 78.5504C82.3492 75.1523 83.5012 69.7657 81.7031 65.2097L76.4941 59.222ZM57.6625 61.7924L28.4188 44.9875C24.4866 51.5633 22.1766 58.8617 21.5367 66.2702L55.4485 70.7816C55.4572 70.5963 55.4676 70.4008 55.4799 70.1978C55.5566 68.9349 55.7134 67.2769 56.0525 65.9613C56.3577 64.7773 56.9336 63.3934 57.4026 62.3562C57.4925 62.1575 57.5799 61.9684 57.6625 61.7924ZM68.0637 85.2092L67.383 109.967C67.4379 110.137 67.4631 110.32 67.4528 110.509C67.444 110.669 67.4103 110.823 67.3555 110.965L67.1439 118.663C75.3798 119.092 83.7649 117.468 91.4629 113.74L78.449 83.6531C78.2526 83.7225 78.0409 83.796 77.818 83.8716C76.7039 84.2493 75.2373 84.703 74.0126 84.9223C72.4951 85.1941 70.5935 85.2413 69.1348 85.2292C68.7493 85.226 68.3878 85.2185 68.0637 85.2092Z" fill="#3B3B70"/>
<defs>
<linearGradient id="paint0_linear_444_16739" x1="8.48926" y1="61.0234" x2="112.489" y2="61.0234" gradientUnits="userSpaceOnUse">
<stop stop-color="#FFBA5D"/>
<stop offset="1" stop-color="#F46B45"/>
</linearGradient>
</defs>
</svg>
