<svg width="121" height="121" viewBox="0 0 121 121" fill="none" xmlns="http://www.w3.org/2000/svg">
<rect x="8.52344" y="7.72461" width="104" height="104" rx="2" fill="url(#paint0_linear_202_29)"/>
<path fill-rule="evenodd" clip-rule="evenodd" d="M0.078125 1.38281H50.0781V3.62487C50.0781 4.14855 49.8727 4.65134 49.5061 5.02523L47.0781 7.50098V48.6402C47.0781 48.6402 43.3743 48.6402 41.2782 50.8372C39.1272 53.0918 39.3263 56.2684 39.4052 56.9994C39.4164 57.103 39.4245 57.2058 39.4245 57.31V103.009H3.07812V7.50098L0.650189 5.02523C0.283521 4.65134 0.078125 4.14855 0.078125 3.62487V1.38281ZM12.0781 15.4434V22.2146H15.0307V15.4434H12.0781ZM12.0781 27.1123V33.8836H15.0307V27.1123H12.0781ZM12.0781 38.7812V45.5525H15.0307V38.7812H12.0781ZM12.0781 50.4502V57.2215H15.0307V50.4502H12.0781ZM12.0781 62.1191V68.8904H15.0307V62.1191H12.0781ZM12.0781 73.7881V80.5593H15.0307V73.7881H12.0781ZM15.0307 92.2283H12.0781V85.457H15.0307V92.2283ZM19.7559 92.2283V85.457H22.7084V92.2283H19.7559ZM27.4336 92.2283V85.457H30.3861V92.2283H27.4336ZM27.4336 80.5593H30.3861V73.7881H27.4336V80.5593ZM35.1113 92.2283V85.457H38.0639V92.2283H35.1113ZM35.1113 80.5593H38.0639V73.7881H35.1113V80.5593ZM38.0639 68.8904V62.1191H35.1113V68.8904H38.0639ZM38.0639 57.2215V50.4502H35.1113V57.2215H38.0639ZM38.0639 45.5525V38.7812H35.1113V45.5525H38.0639ZM38.0639 33.8836V27.1123H35.1113V33.8836H38.0639ZM38.0639 22.2146V15.4434H35.1113V22.2146H38.0639ZM30.3861 15.4434H27.4336V22.2146H30.3861V15.4434ZM22.7084 15.4434H19.7559V22.2146H22.7084V15.4434ZM19.7559 33.8836V27.1123H22.7084V33.8836H19.7559ZM27.4336 33.8836V27.1123H30.3861V33.8836H27.4336ZM27.4336 38.7812H30.3861V45.5525H27.4336V38.7812ZM27.4336 50.4502H30.3861V57.2215H27.4336V50.4502ZM27.4336 62.1191H30.3861V68.8904H27.4336V62.1191ZM22.7084 62.1191V68.8904H19.7559V62.1191H22.7084ZM19.7559 80.5593V73.7881H22.7084V80.5593H19.7559ZM22.7084 57.2215H19.7559V50.4502H22.7084V57.2215ZM22.7084 45.5525H19.7559V38.7812H22.7084V45.5525Z" fill="#3B3B70"/>
<path fill-rule="evenodd" clip-rule="evenodd" d="M95.5288 49.6063H103.35V38.4019L105.377 38.2745C105.764 38.2622 106.312 38.2532 106.969 38.2659C108.274 38.2912 110.041 38.4028 111.829 38.7582C113.595 39.109 115.514 39.7225 117.024 40.8345C118.594 41.991 119.724 43.7012 119.724 46.0549V103.872C119.724 105.269 119.287 106.496 118.465 107.52C117.665 108.518 116.556 109.255 115.303 109.81C112.824 110.908 109.451 111.439 105.708 111.696C100.797 112.032 94.8764 111.908 88.9264 111.784C85.8207 111.719 82.7069 111.653 79.7243 111.653H55.7806V120.499C55.0503 120.444 54.3189 120.401 53.5906 120.323C53.2359 120.284 52.7334 120.224 52.132 120.133C50.9349 119.952 49.3194 119.649 47.6878 119.156C46.0761 118.669 44.3427 117.967 42.9831 116.94C41.6064 115.9 40.4625 114.4 40.4625 112.37V56.7197C40.4625 54.9218 40.8766 53.4893 41.6031 52.3808C42.3298 51.2721 43.2987 50.5947 44.2303 50.1906C45.1495 49.7919 46.0451 49.6523 46.6923 49.6072L68.8746 49.6063C69.7031 49.6063 70.3746 50.2779 70.3746 51.1063C70.3746 51.9348 69.7031 52.6063 68.8746 52.6063C63.761 52.6034 51.9808 52.6063 45.424 52.9429C43.9681 53.0176 43.4625 54.9816 43.4625 56.7197C43.4625 58.4578 43.8867 59.431 44.3866 60.0085C44.8941 60.5947 45.6535 60.9748 46.7152 61.1811C47.7889 61.3898 49.0392 61.3951 50.3811 61.3318C50.8131 61.3114 51.2712 61.2823 51.7339 61.2529C52.6161 61.197 53.5149 61.14 54.2806 61.14H55.7806V108.653H79.7243C82.8626 108.653 86.0561 108.721 89.1968 108.787C95.0484 108.911 100.717 109.031 105.503 108.703C109.174 108.451 112.11 107.943 114.087 107.067C115.062 106.635 115.718 106.15 116.125 105.643C116.511 105.162 116.724 104.6 116.724 103.872C116.724 102.486 116.156 101.6 115.255 100.948C114.28 100.242 112.88 99.7979 111.31 99.5582C109.765 99.3222 108.196 99.3045 106.996 99.3497C105.771 99.3958 104.564 99.5677 103.35 99.7216V52.6063H95.5288C94.7004 52.6063 94.0288 51.9348 94.0288 51.1063C94.0288 50.2779 94.7004 49.6063 95.5288 49.6063ZM116.724 98.3176C115.241 97.3414 113.428 96.8468 111.763 96.5926C109.965 96.3179 108.191 96.3025 106.883 96.3518C106.696 96.3589 106.518 96.3672 106.35 96.3765V41.2598C106.524 41.2599 106.712 41.2615 106.91 41.2654C108.113 41.2887 109.69 41.3917 111.245 41.7007C112.822 42.0141 114.247 42.5147 115.245 43.2499C116.182 43.9407 116.724 44.811 116.724 46.0549V98.3176ZM48.5552 116.284C47.0875 115.841 45.7413 115.264 44.7913 114.546C43.8584 113.841 43.4625 113.132 43.4625 112.37V63.1185C44.2972 63.6404 45.2241 63.9475 46.1429 64.1261C47.5846 64.4062 49.1318 64.3941 50.5226 64.3284C51.3467 64.2895 52.0615 64.2363 52.7806 64.1939V117.196C51.6505 117.033 50.0922 116.748 48.5552 116.284Z" fill="#3B3B70"/>
<path fill-rule="evenodd" clip-rule="evenodd" d="M86.4846 19.543C87.3131 19.543 87.9846 20.2145 87.9846 21.043V32.3174C90.2169 34.1665 91.6354 36.9981 91.6354 40.1573C91.6354 43.5251 90.0234 46.5216 87.5302 48.3518L93.9298 70.6921C95.0026 70.4219 95.9428 70.1652 96.6772 69.957C97.2001 69.8088 97.6177 69.6853 97.9032 69.5993C98.8128 69.3254 99.8713 69.3466 100.218 70.4455C100.755 72.1457 98.6392 72.519 97.4956 72.8432C96.7598 73.0519 95.8239 73.3075 94.7564 73.5776L101.677 97.7378C101.906 98.5342 101.445 99.3648 100.649 99.5929C99.8521 99.8211 99.0216 99.3604 98.7935 98.564L91.8335 74.2679L83.3487 75.4938V81.0342C83.3487 81.8626 82.6772 82.5342 81.8487 82.5342C81.0203 82.5342 80.3487 81.8626 80.3487 81.0342V75.4938C77.7733 75.3176 74.9158 74.7885 72.4212 74.2222L65.4879 97.5807C65.2522 98.3748 64.4173 98.8275 63.6231 98.5918C62.8289 98.3561 62.3762 97.5212 62.6119 96.727L69.5037 73.5085C68.3805 73.2149 66.6631 72.7546 65.4467 72.3727C64.626 72.115 63.9757 71.6372 64.3904 70.4397C64.8052 69.2422 65.5011 69.2211 66.2813 69.4701C67.6276 69.8978 68.9911 70.2752 70.3578 70.631L76.8371 48.8023C73.9656 47.0395 72.0621 43.8165 72.0621 40.1573C72.0621 36.9865 73.4911 34.1456 75.7376 32.297V21.043C75.7376 20.2145 76.4092 19.543 77.2376 19.543H86.4846ZM73.2768 71.3397L79.6233 49.9584C80.3388 50.1296 81.084 50.22 81.8487 50.22C82.8804 50.22 83.8757 50.0554 84.8102 49.7507L91.0056 71.3778C88.5008 71.9191 85.7569 72.3869 83.3487 72.5187V67.2411C83.3487 66.4127 82.6772 65.7411 81.8487 65.7411C81.0203 65.7411 80.3487 66.4127 80.3487 67.2411V72.4863C78.1153 72.3171 75.5905 71.8588 73.2768 71.3397ZM84.9846 30.6227C84.0004 30.2806 82.9455 30.0946 81.8487 30.0946C80.7612 30.0946 79.7148 30.2775 78.7376 30.6141V22.543H84.9846V30.6227ZM81.8487 33.0946C83.2459 33.0946 84.5435 33.5325 85.6255 34.2885C87.4328 35.5513 88.6354 37.7003 88.6354 40.1573C88.6354 42.8676 87.1722 45.2019 85.0508 46.3862C84.0967 46.9188 83.0079 47.22 81.8487 47.22C80.9169 47.22 80.0317 47.0254 79.2259 46.6735C76.7976 45.6132 75.0621 43.1096 75.0621 40.1573C75.0621 37.6911 76.2737 35.5352 78.0923 34.2744C79.1702 33.5271 80.4603 33.0946 81.8487 33.0946Z" fill="#3B3B70"/>
<defs>
<linearGradient id="paint0_linear_202_29" x1="8.52344" y1="59.7246" x2="112.523" y2="59.7246" gradientUnits="userSpaceOnUse">
<stop stop-color="#D7DDE8"/>
<stop offset="1" stop-color="#757F9A"/>
</linearGradient>
</defs>
</svg>
