<svg width="121" height="121" viewBox="0 0 121 121" fill="none" xmlns="http://www.w3.org/2000/svg">
<rect x="7.08789" y="8.12695" width="104" height="104" rx="2" fill="url(#paint0_linear_531_230)"/>
<path fill-rule="evenodd" clip-rule="evenodd" d="M39.252 0.841797C43.3732 0.841797 43.5214 0.976576 44.0038 1.41525C44.202 1.59545 44.4565 1.82694 45.0661 2.12143C45.3417 2.25458 45.6122 2.38933 45.8776 2.52558L43.6681 13.6624C43.6681 13.6624 43.7213 14.9565 45.0661 15.3263C46.4108 15.6961 46.9344 14.3403 46.9344 14.3403L48.7861 4.20105C58.1058 10.2241 59.5736 18.2342 59.6135 22.5077H61.2369C61.2369 22.5077 63.5737 22.9065 63.5121 25.2876C63.4504 27.6688 61.2369 28.0675 61.2369 28.0675H17.8842C17.8842 28.0675 15.5044 28.0675 15.5044 25.2876C15.5044 22.5077 17.8842 22.5077 17.8842 22.5077H19.4378C19.5482 18.0028 21.0127 9.41647 29.8335 3.97506L32.0822 14.3403C32.0822 14.3403 32.8173 15.558 34.0543 15.3263C35.2913 15.0947 35.2913 13.6624 35.2913 13.6624L32.8756 2.3674C33.0605 2.28417 33.248 2.20217 33.438 2.12143C34.1542 1.81702 34.2445 1.57302 34.3148 1.38309C34.4544 1.00568 34.515 0.841797 39.252 0.841797Z" fill="#3B3B70"/>
<path d="M18.8436 32.5762H59.6154C59.6154 32.5762 60.172 35.5601 59.6154 37.332C58.9437 39.4702 56.0315 41.8146 56.0315 41.8146C52.606 49.1714 46.8392 58.2426 39.2295 58.2426C31.6197 58.2426 25.853 49.1714 22.4275 41.8146C22.4275 41.8146 19.5153 39.4702 18.8436 37.332C18.287 35.5601 18.8436 32.5762 18.8436 32.5762Z" fill="#3B3B70"/>
<path fill-rule="evenodd" clip-rule="evenodd" d="M26.5684 58.7617L34.8385 76.6161L37.1277 70.1235L34.8385 64.4812L36.0752 62.8581H42.6875V67.7629L41.7174 70.1235L42.6532 72.7437V87.3484H0.0624387C0.0624387 87.3484 -0.859007 70.6374 6.55004 66.1816C8.56674 64.9688 10.392 64.8681 12.2976 64.7631C13.8147 64.6794 15.3828 64.5929 17.1389 63.9402C21.0769 62.4765 26.5684 58.7617 26.5684 58.7617Z" fill="#3B3B70"/>
<path fill-rule="evenodd" clip-rule="evenodd" d="M91.8866 56.5251H98.8787V46.5079L100.691 46.3941C101.037 46.383 101.527 46.375 102.114 46.3864C103.281 46.409 104.861 46.5087 106.46 46.8264C108.039 47.1401 109.754 47.6886 111.104 48.6828C112.508 49.7168 113.518 51.2458 113.518 53.35V105.977C113.518 107.226 113.127 108.323 112.393 109.239C111.677 110.131 110.685 110.789 109.565 111.286C107.349 112.268 104.333 112.743 100.987 112.972C96.5961 113.273 91.3032 113.162 85.9837 113.05C83.2071 112.992 81.4234 112.934 78.7568 112.934H57.3502V120.843C56.6973 120.793 56.0433 120.755 55.3922 120.685C55.0751 120.65 54.6259 120.596 54.0882 120.515C53.018 120.353 51.5736 120.082 50.1149 119.641C48.6739 119.206 47.1242 118.578 45.9087 117.66C44.6778 116.731 43.6551 115.389 43.6551 113.574L43.6551 62.8848C43.6551 61.2774 44.0254 59.9967 44.6749 59.0056C45.3246 58.0144 46.1908 57.4087 47.0237 57.0475C47.8455 56.691 48.6462 56.5662 49.2248 56.5259L91.8866 56.5251ZM91.8866 59.2072H98.8787V102.266C99.9646 102.129 101.044 101.975 102.139 101.934C103.211 101.894 104.615 101.909 105.996 102.12C107.399 102.335 108.651 102.732 109.522 103.363C110.328 103.946 110.836 104.738 110.836 105.977C110.836 106.628 110.645 107.13 110.3 107.56C109.937 108.014 109.35 108.447 108.479 108.834C106.711 109.617 104.086 110.071 100.803 110.296C96.5246 110.589 91.457 110.482 86.2255 110.372C83.4176 110.312 81.5625 110.252 78.7568 110.252H57.3502L57.3501 66.8366H56.009C55.3245 66.8366 54.5209 66.8876 53.7322 66.9376C53.3185 66.9639 52.909 66.9899 52.5228 67.0081C51.323 67.0647 50.2052 67.06 49.2453 66.8734C48.2961 66.689 47.6171 66.3491 47.1635 65.8251C46.7165 65.3088 46.3372 64.4387 46.3372 62.8848C46.3372 61.3308 46.7893 59.5749 48.091 59.5081C53.953 59.2072 87.3148 59.2046 91.8866 59.2072ZM110.836 101.011C109.51 100.138 107.889 99.6963 106.401 99.469C104.793 99.2234 103.207 99.2097 102.038 99.2537C101.87 99.26 101.711 99.2675 101.561 99.2758V49.063C101.717 49.0631 101.884 49.0645 102.062 49.068C103.137 49.0888 104.547 49.1809 105.937 49.4571C107.348 49.7374 108.621 50.1849 109.513 50.8422C110.352 51.4598 110.836 52.2379 110.836 53.35L110.836 101.011ZM50.8903 117.074C49.5781 116.677 48.3746 116.162 47.5252 115.52C46.6912 114.89 46.3372 114.256 46.3372 113.574L46.3372 68.6055C47.0835 69.0721 47.9122 69.3467 48.7337 69.5063C50.0226 69.7568 51.4058 69.7459 52.6493 69.6872C53.386 69.6524 54.0251 69.6049 54.668 69.5669L54.6681 117.889C53.6577 117.743 52.2645 117.489 50.8903 117.074Z" fill="#3B3B70"/>
<path d="M93.6455 66.9376C94.3558 67.3639 94.5862 68.2852 94.16 68.9956L89.66 76.4956L88.3238 78.7226L87.0625 76.4523L84.5625 71.9523C84.1602 71.2282 84.4211 70.315 85.1453 69.9126C85.8694 69.5103 86.7827 69.7712 87.185 70.4954L88.4237 72.7251L91.5875 67.4521C92.0137 66.7418 92.9351 66.5114 93.6455 66.9376Z" fill="#3B3B70"/>
<path d="M61.7007 76.4956C61.7007 75.6672 62.3723 74.9956 63.2007 74.9956H81.4688C82.2973 74.9956 82.9688 75.6672 82.9688 76.4956C82.9688 77.324 82.2973 77.9956 81.4688 77.9956H63.2007C62.3723 77.9956 61.7007 77.324 61.7007 76.4956Z" fill="#3B3B70"/>
<path d="M93.7391 83.4235C94.4495 83.8497 94.6799 84.7711 94.2536 85.4815L89.7536 92.9815L88.4174 95.2085L87.1562 92.9382L84.6562 88.4382C84.2539 87.714 84.5148 86.8008 85.2389 86.3985C85.9631 85.9962 86.8763 86.2571 87.2786 86.9813L88.5174 89.211L91.6812 83.938C92.1074 83.2276 93.0288 82.9973 93.7391 83.4235Z" fill="#3B3B70"/>
<path d="M61.7944 92.9815C61.7944 92.153 62.4659 91.4815 63.2944 91.4815H81.5625C82.3909 91.4815 83.0625 92.153 83.0625 92.9815C83.0625 93.8099 82.3909 94.4815 81.5625 94.4815H63.2944C62.4659 94.4815 61.7944 93.8099 61.7944 92.9815Z" fill="#3B3B70"/>
<defs>
<linearGradient id="paint0_linear_531_230" x1="7.08789" y1="60.127" x2="111.088" y2="60.127" gradientUnits="userSpaceOnUse">
<stop stop-color="#EC70FD"/>
<stop offset="0.431458" stop-color="#A34EF9"/>
</linearGradient>
</defs>
</svg>
