<svg width="134" height="138" viewBox="0 0 134 138" fill="none" xmlns="http://www.w3.org/2000/svg">
<rect x="21.043" y="25.8418" width="104" height="104" rx="2" fill="url(#paint0_linear_202_24)"/>
<path fill-rule="evenodd" clip-rule="evenodd" d="M14.3625 65.1007C15.1279 66.3256 14.7555 67.9391 13.5306 68.7045L4.85219 74.1279C3.62732 74.8934 2.01384 74.521 1.24839 73.2961C0.482935 72.0712 0.855366 70.4577 2.08024 69.6923L10.7587 64.2689C11.9835 63.5034 13.597 63.8759 14.3625 65.1007Z" fill="#3B3B70"/>
<path fill-rule="evenodd" clip-rule="evenodd" d="M1.24886 24.6047C0.483404 25.8295 0.855834 27.443 2.08071 28.2085L10.7591 33.6318C11.984 34.3973 13.5975 34.0249 14.3629 32.8C15.1284 31.5751 14.756 29.9616 13.5311 29.1962L4.85266 23.7728C3.62779 23.0073 2.01431 23.3798 1.24886 24.6047Z" fill="#3B3B70"/>
<path fill-rule="evenodd" clip-rule="evenodd" d="M42.1073 0.537607C43.5517 0.549007 44.7133 1.72911 44.7019 3.17344L44.6211 13.4068C44.6097 14.8511 43.4296 16.0128 41.9853 16.0014C40.541 15.99 39.3793 14.8099 39.3907 13.3655L39.4715 3.13216C39.4829 1.68783 40.663 0.526206 42.1073 0.537607Z" fill="#3B3B70"/>
<path fill-rule="evenodd" clip-rule="evenodd" d="M84.4508 24.6047C85.2163 25.8295 84.8439 27.443 83.619 28.2085L74.9406 33.6318C73.7157 34.3973 72.1022 34.0249 71.3368 32.8C70.5713 31.5751 70.9437 29.9616 72.1686 29.1962L80.847 23.7728C82.0719 23.0073 83.6854 23.3798 84.4508 24.6047Z" fill="#3B3B70"/>
<path fill-rule="evenodd" clip-rule="evenodd" d="M17.7852 45.3763C17.7852 31.9146 28.6834 22.1475 42.1272 22.1475C55.0524 22.1475 65.6248 29.6683 66.421 43.6612C66.4799 44.6956 66.4492 45.9727 66.421 46.9895L53.3335 46.9895C53.3335 46.9895 52.2246 45.5341 50.174 45.5341C48.0642 45.5341 47.1808 46.9895 47.1808 46.9895L41.2374 46.9895C41.2374 46.9895 38.6328 47.0411 38.5786 49.4919C38.5245 51.9426 41.2374 51.9582 41.2374 51.9582L47.1808 51.9514C47.1808 51.9514 47.29 52.2162 47.4085 52.3513C47.5415 52.5029 47.828 52.6527 47.828 52.6527L47.7831 56.1857L47.1808 56.1857C47.1808 56.1857 44.9284 56.4835 44.9284 58.782C44.9284 60.9503 47.1153 61.2122 47.1153 61.2122L47.7231 61.2122L47.7231 86.7821L47.1211 85.6968C47.1211 85.6968 45.8451 83.8604 43.8478 84.9098C41.9238 85.9206 42.6588 87.9805 42.6588 87.9805L43.1149 88.8841C43.1149 88.8841 42.5917 89.1142 42.2624 89.4477C41.9112 89.8034 41.6556 90.2307 41.6556 90.2307C29.5475 90.6723 29.3246 86.6347 29.1794 80.9481C29.116 78.464 29.0447 75.6699 27.9612 72.806C26.736 69.5675 25.1874 66.9296 23.6703 64.3455C20.6659 59.228 17.7852 54.3212 17.7852 45.3763ZM66.0129 52.0998L66.0128 52.1002L66.0128 52.1005L66.0128 52.1006C66.005 52.167 65.997 52.2344 65.993 52.2596C65.7887 53.5439 65.432 54.6336 65.0872 55.6868L65.087 55.6874C65.0105 55.921 64.9347 56.1528 64.8612 56.3845L60.1356 56.2869C60.1356 56.2869 59.0602 55.4251 57.8284 55.4032C56.0733 55.3721 55.2192 56.2869 55.2192 56.2869L52.7511 56.1857L52.7511 52.6527C52.7511 52.6527 52.9935 52.4867 53.1379 52.3513C53.2864 52.212 53.3335 51.9514 53.3335 51.9514L66.0312 51.9514C66.0275 51.9754 66.0203 52.0371 66.0129 52.0998ZM54.1086 61.2122L52.7511 61.2122L52.7511 77.8358L55.0953 76.2332L55.2162 71.8702C55.2162 71.8702 54.5726 71.4106 54.5726 70.3655C54.5726 69.153 55.2162 68.7274 55.2162 68.7274L55.2192 62.4555C55.2192 62.4555 54.7936 62.1652 54.5756 61.9223C54.3538 61.6753 54.1086 61.2122 54.1086 61.2122ZM55.2162 82.1483C55.1585 82.9748 55.0678 83.7505 54.8887 84.4697C54.5408 85.8669 53.8597 87.051 52.4403 87.9805C52.4403 87.9805 52.7676 87.4076 52.7676 87.1535C52.7676 85.8696 52.8532 83.5738 52.8532 83.5738L55.2162 82.1483ZM60.1356 65.7832C60.2482 65.598 60.3609 65.4137 60.4735 65.2301L60.7369 64.8009C61.4373 63.6605 62.1292 62.534 62.7769 61.3432L61.1202 61.3432C61.1202 61.3432 60.9247 61.7715 60.7438 62.0093C60.5435 62.2724 60.1356 62.5984 60.1356 62.5984L60.1356 65.7832ZM55.1552 44.0186C54.0905 36.2786 49.9197 33.8336 43.3069 32.7344C43.3069 32.7344 41.2902 32.743 41.2902 31.2449C41.2902 29.7467 43.3069 29.7467 43.3069 29.7467C52.1841 29.7467 58.4298 35.5582 58.4298 44.0186C58.4298 44.0186 58.4623 45.7705 56.8231 45.7705C55.1839 45.7705 55.1552 44.0186 55.1552 44.0186Z" fill="#3B3B70"/>
<path fill-rule="evenodd" clip-rule="evenodd" d="M33.8168 92.8869L33.8189 92.8893L33.8118 92.881L33.8138 92.8833L33.8168 92.8869ZM44.0595 96.4869C43.4235 96.6199 42.7505 96.6966 42.0442 96.6966C39.5837 96.6966 37.5272 95.7655 36.0319 94.7661C35.2901 94.2702 34.7136 93.775 34.3297 93.4113C34.1388 93.2304 33.9984 93.0848 33.9119 92.9918C33.8688 92.9454 33.8394 92.9124 33.824 92.895L33.8118 92.881C32.8842 91.782 31.2425 91.6386 30.1375 92.5616C29.029 93.4876 28.881 95.1368 29.8069 96.2454L31.8141 94.5688C29.8069 96.2454 29.8082 96.2469 29.8082 96.2469L29.8096 96.2486L29.8128 96.2524L29.8201 96.2611L29.8394 96.2838C29.8543 96.3012 29.8732 96.323 29.8961 96.3491C29.9419 96.4011 30.0037 96.47 30.0812 96.5533C30.2359 96.7197 30.454 96.9447 30.7324 97.2085C31.2873 97.7341 32.0931 98.4247 33.1252 99.1146C35.178 100.487 38.2365 101.927 42.0442 101.927C44.1498 101.927 46.0263 101.487 47.6303 100.861V97.9047C47.6303 97.9047 46.3106 98.2042 45.5593 97.9047C44.8106 97.6063 44.0595 96.4869 44.0595 96.4869ZM50.9631 92.305C50.9631 92.305 52.0793 94.4973 52.5747 96.0802C52.7562 96.66 52.5747 97.9047 52.5747 97.9047C52.8739 97.6534 53.1347 97.4178 53.3558 97.2084C53.6342 96.9446 53.8523 96.7197 54.007 96.5532C54.0844 96.4699 54.1462 96.401 54.192 96.349C54.2149 96.3229 54.2338 96.3011 54.2487 96.2837L54.268 96.261L54.2754 96.2523L54.2785 96.2486L54.2799 96.2469C54.2799 96.2469 54.2812 96.2453 52.3411 94.6248L54.2813 96.2453C55.2072 95.1367 55.0591 93.4874 53.9505 92.5615C53.0839 91.8377 51.8867 91.7702 50.9631 92.305Z" fill="#3B3B70"/>
<path fill-rule="evenodd" clip-rule="evenodd" d="M32.7683 106.415C33.6123 105.252 35.2352 104.989 36.403 105.822C36.408 105.825 36.4207 105.834 36.4411 105.847C36.4868 105.877 36.5703 105.93 36.6892 105.998C36.9278 106.135 37.3047 106.332 37.8022 106.534C38.7992 106.938 40.2544 107.349 42.046 107.349C43.8377 107.349 45.2928 106.938 46.2897 106.534C46.7872 106.332 47.164 106.135 47.4025 105.998C47.4713 105.958 47.5281 105.924 47.5727 105.897L47.5209 111.658C46.1004 112.153 44.2416 112.579 42.046 112.579C39.45 112.579 37.3247 111.984 35.8381 111.382C35.0938 111.08 34.5031 110.774 34.0845 110.534C33.8749 110.413 33.7075 110.309 33.5844 110.229C33.5228 110.189 33.4722 110.154 33.4329 110.127C33.4133 110.114 33.3964 110.102 33.3824 110.092L33.3636 110.079L33.3557 110.073L33.3522 110.07L33.3506 110.069C33.3506 110.069 33.349 110.068 34.8843 107.952L33.349 110.068C32.18 109.22 31.92 107.584 32.7683 106.415Z" fill="#3B3B70"/>
<path fill-rule="evenodd" clip-rule="evenodd" d="M120.816 51.0869C121.644 51.1003 122.327 50.4396 122.34 49.6113C122.354 48.783 121.693 48.1007 120.865 48.0873L110.052 48.0652C109.624 46.9551 108.566 46.1392 107.276 46.1399C105.991 46.1406 104.938 46.9506 104.507 48.0539L81.3614 48.0067C80.9317 46.8997 79.8757 46.0868 78.5877 46.0875C77.3053 46.0882 76.2538 46.8952 75.8217 47.9954L52.768 47.9483C52.2517 47.0871 51.3218 46.4954 50.2228 46.496C49.1295 46.4966 48.2041 47.0833 47.6872 47.938L41.1513 47.9246C40.323 47.9112 39.6406 48.5719 39.6272 49.4002C39.6138 50.2285 40.2745 50.9109 41.1028 50.9243L47.5914 50.9375C47.8504 51.4348 48.2424 51.8546 48.7251 52.1411L48.7247 57.2076L47.4139 57.1942C46.5856 57.1808 45.9032 57.8414 45.8898 58.6698C45.8764 59.4981 46.537 60.1804 47.3654 60.1938L48.7244 60.2077L48.722 87.0954C48.7225 87.9238 49.3944 88.595 50.2228 88.5945C51.0513 88.5941 51.7225 87.9222 51.722 87.0937L51.72 83.3129L58.4504 78.7924C58.8649 78.514 59.1136 78.0477 59.1141 77.5484L59.1189 71.792L62.5475 71.8002C62.7982 72.1851 63.1337 72.5108 63.5305 72.7463L63.5146 102.005L51.7234 106.271L51.7274 97.0203C51.7275 96.7782 51.669 96.5396 51.5569 96.3251L46.3734 86.4028C45.9898 85.6686 45.0836 85.3843 44.3494 85.7679C43.6151 86.1515 43.3805 87.0338 43.7144 87.7919C44.0186 88.4824 44.4603 89.2197 44.4603 89.2197L43.1549 90.0168C42.4715 90.4342 42.2364 91.3147 42.6208 92.0172L45.127 96.5966C45.3265 96.9612 45.6684 97.2266 46.071 97.3297C46.4737 97.4327 46.901 97.364 47.2511 97.1401L48.2606 96.4943L48.7273 97.3875L48.7225 108.397L48.7225 108.409L48.5838 124.844L45.6321 124.845C44.8037 124.846 44.1325 125.518 44.1329 126.346L45.6329 126.345C44.1329 126.346 44.1329 126.347 44.1329 126.347L44.1329 126.352L44.133 126.361L44.1333 126.383L44.1338 126.408L44.1348 126.446C44.1355 126.465 44.1363 126.488 44.1375 126.512C44.1393 126.551 44.1418 126.596 44.1453 126.646C44.1568 126.81 44.1789 127.035 44.222 127.301C44.3069 127.825 44.4795 128.548 44.8394 129.29C45.2016 130.036 45.7704 130.835 46.6579 131.445C47.2076 131.823 47.8457 132.105 48.5745 132.267L48.5754 133.978C48.5759 134.807 49.2478 135.478 50.0763 135.477C50.9047 135.477 51.5759 134.804 51.5754 133.976L51.5745 132.241C52.2406 132.07 52.8246 131.783 53.3266 131.406C54.1573 130.781 54.6775 129.975 55.0037 129.239C55.3292 128.505 55.4844 127.791 55.5605 127.275C55.5992 127.013 55.6189 126.792 55.629 126.631C55.634 126.551 55.6367 126.485 55.6382 126.435C55.6389 126.411 55.6393 126.39 55.6395 126.374L55.6397 126.354L55.6397 126.346L55.6398 126.341C55.6398 126.341 55.6398 126.34 54.1398 126.34L55.6398 126.34C55.6393 125.511 54.9674 124.84 54.1389 124.84L53.0592 124.841L54.5208 122.878L65.2132 122.872L65.2143 124.834L62.2759 124.836C61.8781 124.836 61.4967 124.994 61.2155 125.276C60.9344 125.557 60.7765 125.939 60.7767 126.337L62.2767 126.336C60.7767 126.337 60.7767 126.338 60.7767 126.338L60.7768 126.343L60.7768 126.352L60.7771 126.373C60.7774 126.39 60.7778 126.411 60.7787 126.437C60.7803 126.487 60.7834 126.555 60.7892 126.637C60.8006 126.801 60.8227 127.026 60.8658 127.292C60.9508 127.816 61.1234 128.539 61.4832 129.281C61.8454 130.027 62.4143 130.826 63.3017 131.436C63.8515 131.814 64.4896 132.096 65.2183 132.258L65.2193 133.969C65.2197 134.798 65.8917 135.469 66.7201 135.468C67.5485 135.468 68.2197 134.795 68.2193 133.967L68.2183 132.232C68.8844 132.06 69.4684 131.774 69.9704 131.397C70.8012 130.772 71.3214 129.966 71.6475 129.23C71.9731 128.496 72.1283 127.782 72.2044 127.266C72.243 127.004 72.2627 126.783 72.2728 126.622C72.2779 126.542 72.2806 126.476 72.282 126.426L72.2825 126.406L72.2833 126.365L72.2835 126.344L72.2836 126.337L72.2836 126.332C72.2836 126.332 72.2836 126.331 70.7836 126.331L72.2836 126.331C72.2831 125.502 71.6112 124.831 70.7828 124.831L68.2143 124.833L68.2124 121.37C68.2119 120.542 67.54 119.871 66.7116 119.871L53.7664 119.878C53.2926 119.878 52.8469 120.102 52.564 120.482L51.6099 121.764L51.7136 109.465L65.5245 104.468C66.1181 104.253 66.5137 103.689 66.5141 103.058L66.5305 72.7461C66.9231 72.513 67.2556 72.1917 67.5053 71.8122L77.0882 71.8353L77.0869 86.6868C77.0873 87.5152 77.7593 88.1865 78.5877 88.186C79.4161 88.1856 80.0873 87.5136 80.0869 86.6852L80.0848 82.9044L86.8153 78.3839C87.2297 78.1055 87.4785 77.6392 87.4789 77.1399L87.4834 71.8604L91.2973 71.8696C91.4753 72.0497 91.676 72.2075 91.8954 72.3378L91.8795 101.596L80.0883 105.863L80.0923 96.6117C80.0924 96.3696 80.0339 96.1311 79.9218 95.9165L74.7383 85.9943C74.3547 85.26 73.4485 84.9757 72.7142 85.3593C71.98 85.7429 71.6957 86.6491 72.0793 87.3834L72.8252 88.8112L71.5198 89.6083C70.8364 90.0256 70.6012 90.9062 70.9857 91.6086L73.4919 96.188C73.6914 96.5526 74.0332 96.8181 74.4359 96.9211C74.8385 97.0241 75.2659 96.9555 75.616 96.7315L76.6255 96.0857L77.0921 96.979L77.0874 107.988L77.0873 108L76.9487 124.435L73.997 124.437C73.1685 124.437 72.4973 125.109 72.4978 125.937L73.9845 125.937C72.4978 125.937 72.4978 125.939 72.4978 125.939L72.4978 125.94L72.4978 125.944L72.4979 125.952L72.4981 125.974C72.4984 125.991 72.4989 126.012 72.4997 126.037C72.5014 126.088 72.5045 126.156 72.5102 126.238C72.5216 126.402 72.5438 126.626 72.5868 126.892C72.6718 127.417 72.8444 128.14 73.2043 128.881C73.5664 129.628 74.1353 130.427 75.0227 131.037C75.5725 131.415 76.2106 131.696 76.9394 131.858L76.9403 133.57C76.9408 134.398 77.6127 135.069 78.4411 135.069C79.2696 135.068 79.9408 134.396 79.9403 133.567L79.9394 131.832C80.6054 131.661 81.1894 131.374 81.6915 130.997C82.5222 130.373 83.0424 129.566 83.3686 128.831C83.6941 128.096 83.8493 127.383 83.9254 126.867C83.964 126.605 83.9837 126.384 83.9938 126.223C83.9989 126.142 84.0016 126.076 84.003 126.027C84.0038 126.002 84.0042 125.982 84.0044 125.966L84.0046 125.945L84.0046 125.937L84.0046 125.934L84.0046 125.932C84.0046 125.932 84.0046 125.931 82.5046 125.932L84.0046 125.931C84.0042 125.103 83.3322 124.431 82.5038 124.432L81.4241 124.433L82.8857 122.469L93.5781 122.463L93.5792 124.426L90.6408 124.427C90.243 124.428 89.8615 124.586 89.5804 124.867C89.2992 125.149 89.1414 125.53 89.1416 125.928L90.6416 125.927C89.1416 125.928 89.1416 125.93 89.1416 125.93L89.1416 125.935L89.1417 125.943L89.142 125.965C89.1422 125.982 89.1427 126.003 89.1435 126.028C89.1446 126.06 89.1462 126.098 89.1486 126.142C89.1501 126.169 89.1519 126.198 89.154 126.229C89.1655 126.393 89.1876 126.617 89.2307 126.883C89.3156 127.408 89.4882 128.131 89.8481 128.872C90.2103 129.619 90.7792 130.418 91.6666 131.028C92.2163 131.406 92.8544 131.687 93.5832 131.849L93.5841 133.561C93.5846 134.389 94.2565 135.06 95.085 135.06C95.9134 135.059 96.5846 134.387 96.5841 133.558L96.5832 131.823C97.2493 131.652 97.8333 131.365 98.3353 130.988C99.166 130.364 99.6862 129.557 100.012 128.822C100.338 128.087 100.493 127.374 100.569 126.857C100.608 126.596 100.628 126.375 100.638 126.214C100.643 126.133 100.645 126.067 100.647 126.018L100.647 125.995L100.648 125.969L100.648 125.957L100.648 125.936L100.648 125.928L100.648 125.925L100.648 125.923C100.648 125.923 100.648 125.922 99.1485 125.923L100.648 125.922C100.648 125.094 99.9761 124.422 99.1476 124.423L96.5792 124.424L96.5773 120.962C96.5768 120.133 95.9049 119.462 95.0764 119.463L82.1312 119.47C81.6575 119.47 81.2118 119.694 80.9289 120.074L79.9748 121.355L80.0785 109.057L93.8893 104.059C94.483 103.844 94.8786 103.281 94.8789 102.649L94.8954 72.3376C95.1106 72.2098 95.3077 72.0555 95.483 71.8797L105.776 71.9045L105.775 86.7392C105.775 87.5676 106.447 88.2388 107.276 88.2384C108.104 88.2379 108.775 87.566 108.775 86.7376L108.773 82.9568L115.503 78.4362C115.918 78.1579 116.167 77.6915 116.167 77.1923L116.171 71.9296L120.002 71.9388C120.176 72.112 120.371 72.264 120.584 72.3902L120.568 101.648L108.776 105.915L108.78 96.6641C108.781 96.422 108.722 96.1835 108.61 95.9689L103.426 86.0467C103.043 85.3124 102.137 85.0281 101.402 85.4117C100.668 85.7953 100.384 86.7015 100.767 87.4358L101.513 88.8636L100.208 89.6607C99.5245 90.078 99.2893 90.9586 99.6738 91.661L102.18 96.2404C102.379 96.605 102.721 96.8705 103.124 96.9735C103.527 97.0765 103.954 97.0079 104.304 96.7839L105.314 96.1381L105.78 97.0313L105.775 108.041L105.775 108.053L105.637 124.487L102.685 124.489C101.857 124.489 101.185 125.161 101.186 125.99L102.686 125.989C101.186 125.99 101.186 125.991 101.186 125.991L101.186 125.996L101.186 126.005L101.186 126.026L101.187 126.052L101.188 126.09C101.189 126.14 101.193 126.208 101.198 126.29C101.21 126.454 101.232 126.679 101.275 126.945C101.36 127.469 101.533 128.192 101.892 128.934C102.255 129.68 102.823 130.479 103.711 131.089C104.261 131.467 104.899 131.749 105.627 131.91L105.628 133.622C105.629 134.45 106.301 135.122 107.129 135.121C107.958 135.121 108.629 134.448 108.628 133.62L108.627 131.885C109.294 131.713 109.878 131.427 110.38 131.049C111.21 130.425 111.73 129.619 112.057 128.883C112.382 128.149 112.537 127.435 112.614 126.919C112.652 126.657 112.672 126.436 112.682 126.275C112.687 126.195 112.69 126.129 112.691 126.079C112.692 126.055 112.692 126.034 112.692 126.018L112.693 125.997L112.693 125.99L112.693 125.985C112.693 125.985 112.693 125.983 111.193 125.984L112.693 125.983C112.692 125.155 112.02 124.484 111.192 124.484L110.112 124.485L111.574 122.522L122.266 122.516L122.267 124.478L119.329 124.48C118.931 124.48 118.55 124.638 118.268 124.92C117.987 125.201 117.83 125.583 117.83 125.981L119.325 125.98C117.83 125.981 117.83 125.982 117.83 125.982L117.83 125.987L117.83 125.996L117.83 126.017C117.83 126.034 117.831 126.055 117.832 126.081C117.832 126.098 117.833 126.117 117.834 126.138L117.835 126.17C117.837 126.203 117.839 126.24 117.842 126.281C117.854 126.445 117.876 126.67 117.919 126.936C118.004 127.46 118.176 128.183 118.536 128.925C118.898 129.671 119.467 130.47 120.355 131.08C120.904 131.458 121.543 131.74 122.271 131.901L122.272 133.613C122.273 134.441 122.945 135.113 123.773 135.112C124.602 135.112 125.273 134.439 125.272 133.611L125.271 131.876C125.937 131.704 126.521 131.418 127.023 131.04C127.854 130.416 128.374 129.609 128.701 128.874C129.026 128.14 129.181 127.426 129.257 126.91C129.296 126.648 129.316 126.427 129.326 126.266C129.331 126.186 129.334 126.12 129.335 126.07L129.336 126.05L129.336 126.009L129.337 125.988L129.337 125.98L129.337 125.976C129.337 125.976 129.337 125.974 127.837 125.975L129.337 125.974C129.336 125.146 128.664 124.475 127.836 124.475L125.267 124.477L125.265 121.014C125.265 120.186 124.593 119.514 123.765 119.515L110.819 119.522C110.346 119.522 109.9 119.746 109.617 120.126L108.663 121.408L108.767 109.109L122.577 104.112C123.171 103.897 123.567 103.333 123.567 102.702L123.584 72.39C123.792 72.2663 123.983 72.1177 124.154 71.9488L131.21 71.9659C132.038 71.9793 132.72 71.3186 132.734 70.4903C132.747 69.662 132.087 68.9797 131.258 68.9663L124.951 68.951C124.602 67.7007 123.478 66.7446 122.082 66.7454C120.691 66.7461 119.572 67.6948 119.22 68.9372L116.174 68.9299L116.18 61.7057C116.526 61.5004 116.825 61.2266 117.062 60.905L125.17 60.9878C125.998 61.0011 126.68 60.3405 126.694 59.5122C126.707 58.6839 126.047 58.0015 125.218 57.9881L117.423 57.9086C116.977 56.8383 115.939 56.0602 114.678 56.0609C113.442 56.0616 112.419 56.8124 111.961 57.8529L108.777 57.8204L108.778 51.7842C109.095 51.5962 109.372 51.3509 109.598 51.064L120.816 51.0869ZM113.174 68.9226L113.18 61.7055C112.817 61.4899 112.505 61.1988 112.263 60.856L108.776 60.8205L108.775 68.912L113.174 68.9226ZM108.774 71.9117L108.773 79.3428L113.168 76.3911L113.171 71.9224L108.774 71.9117ZM105.777 68.9048L105.777 60.7899L88.5333 60.6139C88.2774 61.0394 87.9205 61.3989 87.492 61.6533L87.4859 68.8607L90.5365 68.868C90.8941 67.6339 92.0093 66.6938 93.3935 66.693C94.784 66.6922 95.9041 67.6398 96.2577 68.8818L105.777 68.9048ZM84.4859 68.8534L84.492 61.6531C84.0462 61.3884 83.6778 61.01 83.4201 60.5617L80.0884 60.5277L80.0868 68.8428L84.4859 68.8534ZM80.0863 71.8425L80.0849 79.2904L84.4796 76.3387L84.4834 71.8532L80.0863 71.8425ZM77.0885 68.8356L77.0892 60.4971L60.4764 60.3276C60.257 61.0554 59.7734 61.6781 59.1271 62.0618L59.1214 68.7923L62.354 68.8C62.8315 67.8084 63.829 67.1022 65.0286 67.1015C66.2346 67.1009 67.2371 67.8135 67.7127 68.813L77.0885 68.8356ZM56.1212 69.1156L56.1271 62.0617C55.4638 61.6678 54.9718 61.022 54.761 60.2693L51.7236 60.2383L51.72 79.699L56.1147 76.7473L56.1192 71.4571C55.7706 71.177 55.5504 70.7446 55.5582 70.2629C55.5657 69.7976 55.7842 69.3853 56.1212 69.1156ZM51.7242 57.2382L55.5464 57.2772C56.0763 56.7493 56.8035 56.4175 57.6255 56.4171C58.4708 56.4166 59.2161 56.7666 59.7501 57.3201L77.0895 57.497L77.09 51.7325C76.7673 51.541 76.4852 51.29 76.2562 50.996L52.852 50.9482C52.5932 51.4404 52.2038 51.856 51.7251 52.1404L51.7242 57.2382ZM80.0889 57.5276L83.3908 57.5613C83.8929 56.6469 84.8504 56.0091 85.9904 56.0085C87.1536 56.0079 88.1276 56.6708 88.6219 57.6147L105.778 57.7898L105.778 51.7849C105.458 51.5948 105.177 51.3458 104.949 51.0545L80.9152 51.0055C80.6878 51.295 80.4087 51.5425 80.09 51.7318L80.0889 57.5276ZM75.8409 127.436C75.8606 127.481 75.8814 127.527 75.9034 127.572C76.0967 127.97 76.3606 128.316 76.7219 128.564C77.0715 128.805 77.6006 129.015 78.4378 129.015C79.1531 129.015 79.5947 128.82 79.8892 128.599C80.2023 128.363 80.4443 128.024 80.6261 127.615C80.6528 127.554 80.6777 127.494 80.7009 127.433L75.8409 127.436ZM92.5112 127.486C92.5229 127.512 92.5349 127.537 92.5472 127.563C92.7405 127.961 93.0044 128.307 93.3657 128.555C93.7153 128.796 94.2445 129.006 95.0817 129.006C95.797 129.005 96.2385 128.811 96.5331 128.59C96.8461 128.354 97.0881 128.015 97.2699 127.605C97.2966 127.545 97.3215 127.485 97.3448 127.424L92.4847 127.426L92.4991 127.459L92.5112 127.486ZM104.581 127.602L104.592 127.624C104.785 128.023 105.049 128.368 105.41 128.617C105.76 128.857 106.289 129.068 107.126 129.067C107.841 129.067 108.283 128.872 108.577 128.651C108.89 128.416 109.132 128.077 109.314 127.667C109.341 127.607 109.366 127.546 109.389 127.485L104.529 127.488C104.545 127.526 104.563 127.564 104.581 127.602ZM121.173 127.479C121.193 127.524 121.213 127.57 121.235 127.615C121.429 128.014 121.693 128.359 122.054 128.608C122.403 128.848 122.933 129.059 123.77 129.058C124.485 129.058 124.927 128.863 125.221 128.642C125.534 128.407 125.776 128.068 125.958 127.658C125.985 127.598 126.01 127.537 126.033 127.476L121.173 127.479ZM47.5385 127.981C47.5166 127.935 47.4957 127.89 47.476 127.844L52.336 127.841C52.3128 127.902 52.2879 127.963 52.2612 128.023C52.0794 128.433 51.8374 128.772 51.5243 129.007C51.2298 129.229 50.7883 129.423 50.0729 129.424C49.2357 129.424 48.7066 129.213 48.357 128.973C47.9957 128.725 47.7318 128.379 47.5385 127.981ZM64.1824 127.971C64.1604 127.926 64.1396 127.881 64.1198 127.835L68.9799 127.832C68.9567 127.893 68.9318 127.954 68.905 128.014C68.7233 128.424 68.4812 128.763 68.1682 128.998C67.8737 129.22 67.4321 129.414 66.7168 129.414C65.8796 129.415 65.3504 129.204 65.0009 128.964C64.6395 128.716 64.3756 128.37 64.1824 127.971Z" fill="#3B3B70"/>
<defs>
<linearGradient id="paint0_linear_202_24" x1="21.043" y1="77.8418" x2="201.188" y2="77.853" gradientUnits="userSpaceOnUse">
<stop stop-color="#FEFFBE"/>
<stop offset="1" stop-color="#FFA751"/>
</linearGradient>
</defs>
</svg>
