<svg width="120" height="121" viewBox="0 0 120 121" fill="none" xmlns="http://www.w3.org/2000/svg">
<rect x="8.31934" y="9.0918" width="104" height="104" rx="2" fill="url(#paint0_linear_202_26)"/>
<ellipse rx="15.567" ry="17.8733" transform="matrix(-1 0 0 1 30.4808 78.965)" fill="#3B3B70"/>
<path fill-rule="evenodd" clip-rule="evenodd" d="M111.407 41.6373C110.625 41.3073 109.719 41.508 109.148 42.1378C109.718 41.5074 110.625 41.3066 111.407 41.6373ZM21.2568 6.47629C37.7589 13.1786 95.6162 32.6745 110.67 37.7271H89.5005C66.6944 30.3057 29.3457 18.0991 18.374 14.1988C16.6444 13.5839 19.5271 5.77379 21.2568 6.47629Z" fill="#3B3B70"/>
<path fill-rule="evenodd" clip-rule="evenodd" d="M49.1391 75.0584C49.0893 72.4372 48.9206 68.2174 48.355 66.8574C47.5133 64.8339 42.5894 58.209 39.9516 56.9587C37.3137 55.7083 23.1881 55.6659 20.1037 56.9587C17.6203 57.9996 13.3953 68.9059 11.8433 73.1161C11.496 74.0584 10.5145 74.6038 9.54958 74.3253C6.52021 73.4511 0.500786 71.2357 0.500786 67.4339V51.8669C0.500786 46.2723 28.2236 40.686 34.8412 39.4322C35.6873 39.2719 36.3324 38.6005 36.4871 37.7533C36.9442 35.2506 38.066 29.9516 39.9516 26.0955C41.5925 22.7395 62.7688 28.2279 66.1989 31.313C66.7767 31.8326 67.1019 34.2564 67.2573 37.7271C67.2573 37.7271 65.9952 37.6226 65.3355 37.9956C64.6945 38.358 64.1329 39.2066 64.1329 39.943V51.501H59.0005C58.3928 51.501 57.9952 51.6269 57.5349 52.0236C57.0133 52.4733 56.7864 52.9316 56.7864 53.6202V64.5707C56.7864 65.3469 57.1745 65.9846 57.5349 66.3172C57.8953 66.6499 58.5607 67.0103 59.0005 67.0103H64.1329V73.7192C64.1329 74.2429 64.1829 74.505 64.4111 74.9763C64.6391 75.4471 65.0298 75.9685 65.5147 75.9313C61.0412 76.2737 54.6405 76.7902 51.3292 77.059C50.1607 77.1539 49.1613 76.2306 49.1391 75.0584Z" fill="#3B3B70"/>
<ellipse cx="11.0263" cy="7.36409" rx="6.3032" ry="6.20278" transform="rotate(18.2413 11.0263 7.36409)" fill="#3B3B70"/>
<rect x="12.4927" y="5.96289" width="9.4548" height="4.12815" transform="rotate(20.8066 12.4927 5.96289)" fill="#3B3B70"/>
<path fill-rule="evenodd" clip-rule="evenodd" d="M65.1602 40.2578C65.1602 39.4294 65.8318 38.7578 66.6602 38.7578H114.217C115.045 38.7578 115.717 39.4294 115.717 40.2578V73.9017C115.717 74.7302 115.045 75.4017 114.217 75.4017H110.64L105.277 84.0128C105.003 84.4525 104.521 84.7197 104.003 84.7197H101.831L104.066 114.096C104.126 114.882 103.567 115.58 102.787 115.694C102.007 115.808 101.272 115.298 101.105 114.528L95.1716 87.1524L93.4192 114.306C93.3682 115.096 92.7132 115.71 91.9223 115.71H91.1377C90.3468 115.71 89.6918 115.096 89.6408 114.306L87.7314 84.7197H87.6272L81.1699 114.077C81.0006 114.847 80.2649 115.354 79.4855 115.239C78.7061 115.124 78.1487 114.425 78.2094 113.64L80.4428 84.7197H77.2721C76.7252 84.7197 76.2217 84.4221 75.958 83.943L71.2575 75.4017H66.6602C65.8318 75.4017 65.1602 74.7302 65.1602 73.9017V65.9439H59.2378C58.4094 65.9439 57.7378 65.2723 57.7378 64.4439V53.9345C57.7378 53.1061 58.4094 52.4345 59.2378 52.4345H65.1602V40.2578ZM65.1602 55.4345H60.7378V62.9439H65.1602V55.4345ZM74.6818 75.4017L78.1588 81.7197H93.9079C93.9165 81.7197 93.9251 81.7197 93.9337 81.7197H103.17L107.106 75.4017H74.6818ZM92.3223 84.7197H90.7376L91.53 96.9973L92.3223 84.7197ZM84.5555 84.7197H83.4517L82.8545 92.4533L84.5555 84.7197ZM97.714 84.7197H98.8221L99.4217 92.5991L97.714 84.7197ZM68.1602 41.7578V72.4017H112.717V41.7578H68.1602Z" fill="#3B3B70"/>
<path fill-rule="evenodd" clip-rule="evenodd" d="M90.6567 47.0234C84.5972 47.0234 79.6851 51.9356 79.6851 57.9951C79.6851 64.0546 84.5972 68.9668 90.6567 68.9668C96.7162 68.9668 101.628 64.0546 101.628 57.9951C101.628 51.9356 96.7162 47.0234 90.6567 47.0234ZM76.6851 57.9951C76.6851 50.2788 82.9404 44.0234 90.6567 44.0234C98.3731 44.0234 104.628 50.2788 104.628 57.9951C104.628 65.7115 98.3731 71.9668 90.6567 71.9668C82.9404 71.9668 76.6851 65.7115 76.6851 57.9951Z" fill="#3B3B70"/>
<path fill-rule="evenodd" clip-rule="evenodd" d="M90.6564 54.1348C88.5251 54.1348 86.7974 55.8625 86.7974 57.9938C86.7974 60.1251 88.5251 61.8528 90.6564 61.8528C92.7877 61.8528 94.5154 60.1251 94.5154 57.9938C94.5154 55.8625 92.7877 54.1348 90.6564 54.1348ZM83.7974 57.9938C83.7974 54.2057 86.8683 51.1348 90.6564 51.1348C94.4445 51.1348 97.5154 54.2057 97.5154 57.9938C97.5154 61.7819 94.4445 64.8528 90.6564 64.8528C86.8683 64.8528 83.7974 61.7819 83.7974 57.9938Z" fill="#3B3B70"/>
<defs>
<linearGradient id="paint0_linear_202_26" x1="8.31934" y1="61.0918" x2="112.319" y2="61.0918" gradientUnits="userSpaceOnUse">
<stop stop-color="#00FFD6"/>
<stop offset="1" stop-color="#02AAB0"/>
</linearGradient>
</defs>
</svg>
