<svg width="121" height="122" viewBox="0 0 121 122" fill="none" xmlns="http://www.w3.org/2000/svg">
<rect x="8.47852" y="8.43945" width="104" height="104" rx="2" fill="url(#paint0_linear_202_31)"/>
<path d="M0.765625 2.64648C0.765625 1.54191 1.66106 0.646484 2.76562 0.646484H9.12237C10.2269 0.646484 11.1224 1.54191 11.1224 2.64648V89.9153C11.1224 91.0198 10.2269 91.9153 9.12237 91.9153H2.76562C1.66105 91.9153 0.765625 91.0198 0.765625 89.9153V2.64648Z" fill="#3B3B70"/>
<path fill-rule="evenodd" clip-rule="evenodd" d="M23.701 2.64648C23.701 1.54191 22.8056 0.646484 21.701 0.646484H15.3442C14.2397 0.646484 13.3442 1.54191 13.3442 2.64648V89.9153C13.3442 91.0198 14.2397 91.9153 15.3442 91.9153H21.701C22.8056 91.9153 23.701 91.0198 23.701 89.9153V70.0781L20.3236 69.6206C20.2866 69.6155 20.2504 69.6117 20.2133 69.6079C19.9176 69.5775 18.5043 69.4004 17.9425 68.741C17.4112 68.1172 17.4098 66.7899 17.4171 66.4807C17.4182 66.4368 17.4213 66.3981 17.4265 66.3545C17.5128 65.6309 18.3708 58.6309 19.7448 54.2645C20.936 50.479 23.701 44.9042 23.701 44.9042V2.64648Z" fill="#3B3B70"/>
<path fill-rule="evenodd" clip-rule="evenodd" d="M40.502 0.646484C39.3974 0.646484 38.502 1.54191 38.502 2.64648V41.4178C38.502 41.4178 41.3636 38.3532 43.4148 36.6299C45.4241 34.9417 48.8587 32.6898 48.8587 32.6898V2.64648C48.8587 1.54191 47.9633 0.646484 46.8587 0.646484H40.502ZM48.8587 48.1363V38.7744C48.8587 38.7744 45.9757 40.8817 44.3652 42.4921C42.8151 44.0421 40.5656 46.8438 40.5656 46.8438L46.8406 50.4729C46.8406 50.4729 47.3949 49.7741 47.7777 49.3233C48.1637 48.8688 48.8587 48.1363 48.8587 48.1363Z" fill="#3B3B70"/>
<path fill-rule="evenodd" clip-rule="evenodd" d="M46.8587 91.9153C47.9122 91.9153 48.7755 91.1007 48.853 90.067L47.9492 89.0228C47.9492 89.0228 46.881 87.9432 47.3242 86.5909C47.7673 85.2386 48.8587 84.9297 48.8587 84.9297V73.515L38.502 72.1158V89.9153C38.502 91.0198 39.3974 91.9153 40.502 91.9153H46.8587Z" fill="#3B3B70"/>
<path d="M25.9243 40.9661C26.3156 40.4059 26.7201 40.1701 27.3893 40.0316C28.1806 39.8677 28.692 40.0085 29.3913 40.4134C31.646 41.719 35.1572 43.7413 35.9813 44.2158C36.0828 44.2743 36.2112 44.2469 36.2811 44.1528V2.64648C36.2811 1.54191 35.3856 0.646484 34.2811 0.646484H27.9243C26.8577 0.646484 25.9243 1.38895 25.9243 2.64648V40.9661Z" fill="#3B3B70"/>
<path d="M36.2811 71.7738L25.9243 70.3961V89.9153C25.9243 91.1483 26.8696 91.9153 27.9896 91.9153H32.1505L30.3628 88.2533C30.3628 88.2533 29.6433 86.2146 31.5896 85.2037C33.536 84.1929 34.7794 85.9398 34.7794 85.9398L36.2811 88.9544V71.7738Z" fill="#3B3B70"/>
<path fill-rule="evenodd" clip-rule="evenodd" d="M53.0806 0.646484C51.976 0.646484 51.0806 1.54191 51.0806 2.64648V31.4807C51.0806 31.4807 53.9658 29.8493 55.9198 29.0319C58.0131 28.1563 61.4373 27.2111 61.4373 27.2111V2.64648C61.4373 1.54191 60.5419 0.646484 59.4373 0.646484H53.0806ZM51.0806 37.3632V45.8589C51.0806 45.8589 53.9233 43.7294 55.9198 42.6577C57.9792 41.5522 61.4373 40.3382 61.4373 40.3382V32.4295C61.4373 32.4295 57.9965 33.526 55.9198 34.5262C53.9461 35.4768 51.0806 37.3632 51.0806 37.3632ZM51.0806 85.1701V73.7579L55.6697 74.3738C55.6697 74.3738 56.8312 77.2083 58.004 78.7496C59.1309 80.2305 61.4373 82.0539 61.4373 82.0539V89.9153C61.4373 91.0198 60.5419 91.9153 59.4373 91.9153C59.4373 91.9153 57.1969 90.8863 55.1084 89.1035C53.502 87.7322 53.0434 87.2253 52.1729 86.263C51.9445 86.0105 51.6878 85.7267 51.3745 85.3877C51.2884 85.2945 51.0806 85.1701 51.0806 85.1701ZM61.4373 45.5373V56.0428L59.4878 57.8116L51.3249 52.9083C51.3249 52.9083 53.7981 50.2524 55.6697 48.8074C57.7192 47.225 61.4373 45.5373 61.4373 45.5373Z" fill="#3B3B70"/>
<path d="M63.6587 7.61524C63.6587 6.51067 64.5541 5.61523 65.6587 5.61523H75.6837C76.7882 5.61523 77.6837 6.51066 77.6837 7.61523V15.2046C77.6837 16.3092 76.7882 17.2046 75.6837 17.2046H65.6587C64.5541 17.2046 63.6587 16.3092 63.6587 15.2046V7.61524Z" fill="#3B3B70"/>
<path fill-rule="evenodd" clip-rule="evenodd" d="M96.5833 24.91C97.039 24.2628 97.9191 24.0811 98.5938 24.4948C102.917 27.1452 106.907 30.4845 110.401 34.501C113.895 38.5176 116.65 42.9319 118.677 47.5798C118.999 48.3197 118.678 49.1823 117.951 49.5316L111.032 52.8531C115.747 65.9827 113.372 81.1686 104.522 93.0199C104.027 93.6837 103.087 93.82 102.423 93.3244C101.759 92.8287 101.623 91.8888 102.119 91.225C110.33 80.2279 112.532 66.2298 108.312 54.1588L98.1161 59.0532C100.76 66.2985 100.416 74.3227 97.2143 81.295C96.8685 82.0478 95.978 82.3778 95.2251 82.0321C94.4723 81.6864 94.1423 80.7958 94.488 80.043C97.3211 73.8742 97.6603 66.7849 95.3972 60.3584L85.0693 65.3162C86.4471 70.6107 84.8447 76.4683 80.4419 80.3061C80.5278 80.4112 80.6007 80.5298 80.6572 80.6604L94.7975 113.352C95.1101 114.075 94.8108 114.916 94.112 115.279C85.1309 119.942 75.1887 121.845 65.5023 121.06C64.7075 120.996 64.102 120.321 64.1239 119.524L64.3497 111.315C54.2485 110.396 44.6296 105.876 37.6195 97.818C35.0066 94.8145 32.9286 91.517 31.3761 88.0356C31.0387 87.279 31.3785 86.3921 32.1351 86.0547C32.8917 85.7173 33.7786 86.0572 34.116 86.8138C35.5494 90.028 37.4679 93.0729 39.8829 95.849C46.3058 103.232 55.1162 107.417 64.4323 108.309L64.7219 97.7758C58.2663 96.7138 53.2102 93.5548 48.6058 88.2621C48.0621 87.6371 48.128 86.6897 48.753 86.1459C49.378 85.6022 50.3255 85.6681 50.8692 86.2931C54.9908 91.0308 59.3367 93.7525 64.8052 94.7457L65.1253 83.1045C65.1271 83.0417 65.1327 82.9794 65.1422 82.918C63.0046 82.0684 61.0326 80.7094 59.4188 78.8544C58.0015 77.2252 57.0014 75.3754 56.4093 73.4354L19.7597 68.5597C18.9813 68.4562 18.4145 67.7697 18.4601 66.9858C18.9745 58.1373 21.7322 49.3876 26.6601 41.6585C27.0911 40.9826 27.9773 40.765 28.6723 41.1643L36.6433 45.7449C36.66 45.4591 36.7586 45.175 36.9441 44.9295C38.8453 42.4133 41.0401 40.0496 43.5225 37.89C51.7964 30.692 61.8691 26.9769 71.81 26.6855C72.638 26.6613 73.329 27.3129 73.3533 28.141C73.3775 28.969 72.7259 29.66 71.8978 29.6842C62.6429 29.9555 53.2368 33.4153 45.4915 40.1534C43.1666 42.1759 41.114 44.3871 39.3376 46.738C39.2329 46.8766 39.1088 46.9919 38.9719 47.083L47.2115 51.8179C47.26 51.6235 47.3485 51.4358 47.4785 51.2669C48.6451 49.7522 49.9776 48.3311 51.4734 47.0298C55.854 43.2189 61.0517 40.9434 66.403 40.1613C67.2227 40.0415 67.9843 40.6089 68.1041 41.4286C68.2239 42.2483 67.6565 43.0099 66.8368 43.1297C62.0372 43.8312 57.3766 45.8707 53.4425 49.2931C52.0974 50.4633 50.9013 51.7393 49.8554 53.0974C49.8115 53.1544 49.7643 53.2073 49.7144 53.2562L59.6959 58.9921C60.0651 58.592 60.4599 58.208 60.8801 57.8424C65.0163 54.2441 70.5747 53.3347 75.4206 54.9657L96.5833 24.91ZM84.0179 62.4932C83.4624 61.3679 82.7545 60.295 81.8921 59.3037C80.8733 58.1326 79.7117 57.1592 78.4559 56.3868L78.2531 56.1538L98.2138 27.8052C101.824 30.1681 105.17 33.0583 108.138 36.4701C111.097 39.8715 113.491 43.5728 115.329 47.4625L84.0179 62.4932ZM76.5127 58.7239C72.2494 56.3125 66.7552 56.7077 62.8492 60.1058C57.8934 64.4171 57.3709 71.9295 61.6822 76.8853C65.9935 81.8411 73.506 82.3636 78.4618 78.0523C82.3678 74.6543 83.5198 69.2677 81.7217 64.7116L76.5127 58.7239ZM57.6811 61.2943L28.4374 44.4894C24.5052 51.0653 22.1952 58.3637 21.5553 65.7722L55.467 70.2836C55.4758 70.0983 55.4862 69.9028 55.4985 69.6997C55.5751 68.4369 55.7319 66.7788 56.071 65.4633C56.3762 64.2792 56.9521 62.8953 57.4212 61.8581C57.5111 61.6594 57.5984 61.4704 57.6811 61.2943ZM68.0823 84.7112L67.4015 109.469C67.4564 109.639 67.4816 109.821 67.4713 110.011C67.4626 110.171 67.4288 110.325 67.3741 110.467L67.1624 118.164C75.3984 118.594 83.7835 116.97 91.4815 113.242L78.4676 83.155C78.2712 83.2244 78.0594 83.298 77.8366 83.3735C76.7224 83.7512 75.2558 84.2049 74.0312 84.4243C72.5137 84.696 70.6121 84.7433 69.1534 84.7311C68.7678 84.7279 68.4063 84.7205 68.0823 84.7112Z" fill="#3B3B70"/>
<defs>
<linearGradient id="paint0_linear_202_31" x1="8.47852" y1="60.4395" x2="112.479" y2="60.4395" gradientUnits="userSpaceOnUse">
<stop stop-color="#FFBA5D"/>
<stop offset="1" stop-color="#F46B45"/>
</linearGradient>
</defs>
</svg>
