<svg width="121" height="121" viewBox="0 0 121 121" fill="none" xmlns="http://www.w3.org/2000/svg">
<rect x="7.76709" y="8.5" width="104" height="104" rx="2" fill="url(#paint0_linear_202_27)"/>
<path fill-rule="evenodd" clip-rule="evenodd" d="M-0.000450134 59.923C-0.000450134 76.9185 13.5171 90.6962 30.1919 90.6962C34.3392 90.6962 38.2911 89.8439 41.8884 88.3018C41.8884 88.3018 41.6678 86.518 41.6678 85.3895V34.1198H39.2698V25.7303H46.4005C38.5004 12.1754 30.1919 0.499998 30.1919 0.499998C30.1919 0.499998 -0.000450134 42.9274 -0.000450134 59.923ZM14.0918 59.855C14.0918 66.6136 20.8969 73.1547 28.1386 73.1547C28.1386 73.1547 31.5418 72.9804 31.5418 75.2772C31.5418 77.574 28.1386 77.0871 28.1386 77.0871C16.6553 75.8727 11.1259 69.5776 9.77921 59.855C9.77921 59.855 9.16901 56.7331 11.8912 56.7331C14.0918 56.7331 14.0918 59.855 14.0918 59.855Z" fill="#3B3B70"/>
<path fill-rule="evenodd" clip-rule="evenodd" d="M64.7685 26.7051L40.3018 26.7051V33.1086H42.7041V84.2818C42.7041 94.2818 46.4031 101.831 52.1783 106.862C57.9231 111.866 65.6066 114.281 73.4543 114.281C82.3316 114.281 89.8535 111.512 95.1618 106.289C100.474 101.061 103.418 93.524 103.418 84.2818C103.418 81.8284 103.599 80.0973 104.093 78.6862C104.569 77.3226 105.373 76.1601 106.805 74.9239C107.261 74.5296 107.945 74.2064 108.82 73.9713C109.682 73.7394 110.638 73.6175 111.554 73.5637C112.29 73.5206 112.976 73.5226 113.535 73.5407V76.8333H120.022V52.5552H113.535V55.2753C113.257 55.2905 112.945 55.3097 112.604 55.3339C111.135 55.4378 109.109 55.6342 106.875 56.0054C102.495 56.7334 96.9902 58.1825 93.4994 61.1872C89.8287 64.3468 87.5681 67.7612 86.2447 71.6192C84.9331 75.443 84.5687 79.6279 84.5687 84.2818C84.5687 87.9968 83.2602 90.5072 81.3316 92.1164C79.3619 93.7597 76.5823 94.5963 73.4543 94.5962C67.3643 94.5962 62.3401 90.4752 62.3401 84.2818V33.1085L64.7685 33.1085V26.7051ZM59.3401 33.1086V55.2175H45.7041V33.1086H59.3401ZM43.3018 30.1086V29.7051L61.7685 29.7051V30.1085L43.3018 30.1086ZM45.7041 58.2175H59.3401V82.7818H45.7041V58.2175ZM45.7346 85.7818H59.4176C60.1279 92.5466 65.6211 96.9256 71.9543 97.5255V111.249C65.2431 110.962 58.8994 108.738 54.1489 104.6C49.356 100.425 46.0814 94.2132 45.7346 85.7818ZM74.9543 111.252V97.5397C78.0378 97.3044 80.971 96.3242 83.2535 94.4199C85.6367 92.4315 87.1831 89.54 87.5057 85.7818H100.39C100.091 93.6584 97.4219 99.8558 93.0576 104.15C88.7005 108.438 82.5207 110.959 74.9543 111.252ZM100.443 82.7818H87.5829C87.6597 78.9048 88.0588 75.5766 89.0824 72.5926C90.2239 69.2649 92.1679 66.2916 95.4565 63.4609C98.2724 61.0372 103.046 59.683 107.367 58.9648C109.485 58.6129 111.415 58.4255 112.815 58.3264C113.074 58.3081 113.315 58.2928 113.535 58.28V70.5393C112.923 70.5218 112.18 70.5219 111.379 70.5689C110.338 70.6299 109.165 70.7721 108.041 71.0741C106.929 71.3729 105.77 71.8535 104.844 72.6533C103.089 74.1686 101.94 75.7518 101.261 77.6964C100.732 79.2092 100.511 80.8763 100.443 82.7818ZM117.022 55.5552V73.8333H116.535V55.5552H117.022Z" fill="#3B3B70"/>
<defs>
<linearGradient id="paint0_linear_202_27" x1="7.76709" y1="60.5" x2="111.767" y2="60.5" gradientUnits="userSpaceOnUse">
<stop stop-color="#00D2FF"/>
<stop offset="1" stop-color="#3A7BD5"/>
</linearGradient>
</defs>
</svg>
